<?xml version="1.0" encoding="utf-8"?>
<!-- Generator: Adobe Illustrator 26.3.1, SVG Export Plug-In . SVG Version: 6.00 Build 0)  -->
<svg version="1.1" id="Layer_1" xmlns="http://www.w3.org/2000/svg" xmlns:xlink="http://www.w3.org/1999/xlink" x="0px" y="0px"
	 viewBox="0 0 1044.1 440" style="enable-background:new 0 0 1044.1 440;" xml:space="preserve">
<style type="text/css">
	.st0{fill:url(#SVGID_1_);}
	.st1{fill:url(#SVGID_00000143590450155456858890000004208492977307786656_);}
	.st2{fill:url(#SVGID_00000119083404661445064050000009227125555226226089_);}
	.st3{fill:url(#SVGID_00000001645729719894656000000008438226311103150985_);}
	.st4{fill:url(#SVGID_00000134209769089276343640000016489627325694553770_);}
	.st5{fill:url(#SVGID_00000097459669426556549170000008933712509773985462_);}
	.st6{fill:url(#SVGID_00000176025493488752153290000007296837855541635507_);}
	.st7{fill:url(#SVGID_00000035530287082076973530000014254670828756090033_);}
	.st8{fill:url(#SVGID_00000036931820253157965640000013458059406176523198_);}
	.st9{fill:url(#SVGID_00000061443052843222342470000013076069104539646607_);}
	.st10{fill:url(#SVGID_00000102540522144767155050000011518386581517624230_);}
	.st11{fill:url(#SVGID_00000011718848889777793960000015860515622063781515_);}
</style>
<linearGradient id="SVGID_1_" gradientUnits="userSpaceOnUse" x1="481.17" y1="332.915" x2="1041.0699" y2="332.915" gradientTransform="matrix(1 0 0 -1 0 442)">
	<stop  offset="1.000000e-02" style="stop-color:#7C3AED"/>
	<stop  offset="1" style="stop-color:#9333EA"/>
</linearGradient>
<path class="st0" d="M540.3,10.9h46l-15.9,75.2h13.9l15.9-75.2h46.6l-41.6,196.5h-46.6l17.7-83.8h-13.9l-17.7,83.8h-46L540.3,10.9z"
	/>
<linearGradient id="SVGID_00000061439155450927028470000013440982037130432915_" gradientUnits="userSpaceOnUse" x1="481.17" y1="313.995" x2="1041.0699" y2="313.995" gradientTransform="matrix(1 0 0 -1 0 442)">
	<stop  offset="1.000000e-02" style="stop-color:#7C3AED"/>
	<stop  offset="1" style="stop-color:#9333EA"/>
</linearGradient>
<path style="fill:url(#SVGID_00000061439155450927028470000013440982037130432915_);" d="M683.4,138.6l-5,26
	c-1.8,8.6,0.9,11.2,4.4,11.2c5.3,0,7.4-2.9,9.4-12.1l2.3-10.9h44.2l-1.2,7.4c-6.2,31-19.8,49.8-59,49.8c-42.8,0-51-23.6-43.4-60.2
	l10.6-50.4c7.4-34.3,22.4-53.4,60.2-53.4c42.8,0,50.7,22.4,43.4,57.8l-7.4,34.8L683.4,138.6z M703.5,109.4l2.7-12.7
	c2.7-12.1,3.2-17.7-3.2-17.7c-5.9,0-7.4,3.5-10.3,18.6l-2.4,11.8H703.5z"/>
<linearGradient id="SVGID_00000155835858988667829920000005783709507723685514_" gradientUnits="userSpaceOnUse" x1="481.17" y1="337.34" x2="1041.0699" y2="337.34" gradientTransform="matrix(1 0 0 -1 0 442)">
	<stop  offset="1.000000e-02" style="stop-color:#7C3AED"/>
	<stop  offset="1" style="stop-color:#9333EA"/>
</linearGradient>
<path style="fill:url(#SVGID_00000155835858988667829920000005783709507723685514_);" d="M743.3,207.3L786.6,2h45.7L789,207.3H743.3
	z"/>
<linearGradient id="SVGID_00000067219634441293894360000012972185594127794349_" gradientUnits="userSpaceOnUse" x1="481.17" y1="337.34" x2="1041.0699" y2="337.34" gradientTransform="matrix(1 0 0 -1 0 442)">
	<stop  offset="1.000000e-02" style="stop-color:#7C3AED"/>
	<stop  offset="1" style="stop-color:#9333EA"/>
</linearGradient>
<path style="fill:url(#SVGID_00000067219634441293894360000012972185594127794349_);" d="M805.5,207.3L848.9,2h45.7l-43.4,205.3
	H805.5z"/>
<linearGradient id="SVGID_00000133522648704466174140000010150690801098543790_" gradientUnits="userSpaceOnUse" x1="481.17" y1="314.015" x2="1041.0699" y2="314.015" gradientTransform="matrix(1 0 0 -1 0 442)">
	<stop  offset="1.000000e-02" style="stop-color:#7C3AED"/>
	<stop  offset="1" style="stop-color:#9333EA"/>
</linearGradient>
<path style="fill:url(#SVGID_00000133522648704466174140000010150690801098543790_);" d="M994,104.7l-11.5,55.5
	c-7.7,36.6-28,49.9-61.1,49.9c-34.5,0-51.3-17.4-43.7-54.9l12.4-59.6c8.6-40.7,30.7-49.5,59-49.5C980.7,46,1003.2,61.3,994,104.7z
	 M937.1,91.1L922,163.4c-1.8,8-0.6,11.8,4.4,11.8c5.6,0,8-5,9.4-11.8l15-72.6c1.5-6.5,0.6-10.9-5-10.9
	C940.6,79.9,938.5,84.6,937.1,91.1z"/>
<linearGradient id="SVGID_00000147184002386919477370000003572416916479847615_" gradientUnits="userSpaceOnUse" x1="481.17" y1="102.915" x2="1041.0699" y2="102.915" gradientTransform="matrix(1 0 0 -1 0 442)">
	<stop  offset="1.000000e-02" style="stop-color:#7C3AED"/>
	<stop  offset="1" style="stop-color:#9333EA"/>
</linearGradient>
<path style="fill:url(#SVGID_00000147184002386919477370000003572416916479847615_);" d="M481.2,437.3l28-196.5h46.3
	c-5,24.5-22.7,108.3-26.8,125.1h2.7c8.5-30.4,23.9-86.7,34.2-125.1h33.3c-5,28.3-13.9,91.4-19.5,123.6h3.2
	c6.5-31,23.3-111.5,25.7-123.6h44.8l-58.7,196.5h-49.3c2.4-17.7,3.8-36.3,9.7-73.2h-2.7c-9.1,34.5-14.2,48.7-20.7,73.2L481.2,437.3z
	"/>
<linearGradient id="SVGID_00000065776533574346162190000002215587146500572569_" gradientUnits="userSpaceOnUse" x1="481.17" y1="84.04" x2="1041.0699" y2="84.04" gradientTransform="matrix(1 0 0 -1 0 442)">
	<stop  offset="1.000000e-02" style="stop-color:#7C3AED"/>
	<stop  offset="1" style="stop-color:#9333EA"/>
</linearGradient>
<path style="fill:url(#SVGID_00000065776533574346162190000002215587146500572569_);" d="M747.3,334.7l-11.5,55.5
	c-7.7,36.6-28,49.9-61.1,49.9c-34.5,0-51.3-17.4-43.7-54.9l12.4-59.6c8.5-40.7,30.7-49.6,59-49.6C734,276,756.4,291.3,747.3,334.7z
	 M690.3,321.1l-15,72.3c-1.8,8-0.6,11.8,4.4,11.8c5.6,0,8-5,9.4-11.8l15-72.6c1.5-6.5,0.6-10.9-5-10.9
	C693.9,309.9,691.8,314.6,690.3,321.1z"/>
<linearGradient id="SVGID_00000180355637260387920380000004108122864014657433_" gradientUnits="userSpaceOnUse" x1="481.17" y1="85.355" x2="1041.0699" y2="85.355" gradientTransform="matrix(1 0 0 -1 0 442)">
	<stop  offset="1.000000e-02" style="stop-color:#7C3AED"/>
	<stop  offset="1" style="stop-color:#9333EA"/>
</linearGradient>
<path style="fill:url(#SVGID_00000180355637260387920380000004108122864014657433_);" d="M763.5,332.6c5.9-28.3,9.4-46,10.9-54.3
	h44.2c-0.6,5-1.8,13.9-3.2,20.6c8-16.8,21.2-22.7,35.4-23l-11.5,54.3c-28-1.8-32.2,12.4-35.7,29.2l-16.5,77.9h-45.7L763.5,332.6z"/>
<linearGradient id="SVGID_00000019676800582059736060000017960634412191786923_" gradientUnits="userSpaceOnUse" x1="481.17" y1="107.34" x2="1041.0699" y2="107.34" gradientTransform="matrix(1 0 0 -1 0 442)">
	<stop  offset="1.000000e-02" style="stop-color:#7C3AED"/>
	<stop  offset="1" style="stop-color:#9333EA"/>
</linearGradient>
<path style="fill:url(#SVGID_00000019676800582059736060000017960634412191786923_);" d="M830.7,437.3L874.1,232h45.7l-43.4,205.3
	H830.7z"/>
<linearGradient id="SVGID_00000031170117186439532380000013415390518797721998_" gradientUnits="userSpaceOnUse" x1="481.17" y1="106.015" x2="1041.0699" y2="106.015" gradientTransform="matrix(1 0 0 -1 0 442)">
	<stop  offset="1.000000e-02" style="stop-color:#7C3AED"/>
	<stop  offset="1" style="stop-color:#9333EA"/>
</linearGradient>
<path style="fill:url(#SVGID_00000031170117186439532380000013415390518797721998_);" d="M1041.1,232l-34.2,161.7
	c-3.5,17.1-7.4,35.7-8.6,43.7h-44.8c0.4-4.6,1.1-9.1,2.1-13.6c-9.2,11.8-17.7,16.2-30.7,16.2c-23.9,0-29.2-19.2-23.3-47.8l14.5-69
	c5.3-24.5,15.3-47.2,43.1-47.2c11.5,0,21.2,4.4,24.5,12.1l11.8-56.1H1041.1z M961.4,325.2l-13.9,64.9c-1.5,6.8-0.9,12.4,4.7,12.4
	c5,0,7.7-3.2,9.4-11.5l13.9-65.8c1.8-8.9,0-11.8-4.7-11.8C966.4,313.4,963.5,316.1,961.4,325.2L961.4,325.2z"/>
<linearGradient id="SVGID_00000156549555907478968840000015069323677618536604_" gradientUnits="userSpaceOnUse" x1="163.1" y1="254.15" x2="350.96" y2="254.15" gradientTransform="matrix(1 0 0 -1 0 442)">
	<stop  offset="0" style="stop-color:#7D3AED"/>
	<stop  offset="0.9957" style="stop-color:#9233EA"/>
</linearGradient>
<path style="fill:url(#SVGID_00000156549555907478968840000015069323677618536604_);" d="M265.8,187.5l-18.4-9.4
	c0.9-2.8,0.8-5.6-3-7.6c-2.2-1.1-4.2-1-5.2,1c-1.1,2.2,0.5,3.8,5.9,8.6c16.5,14.6,14.6,23.1,10.7,30.5c-5.6,10.6-15.9,13-28.7,8.3
	l-3.1,6l-12-6.1l3.1-6c-12.7-8.6-14.3-18.7-10.6-27.2l19.1,9.8c-1,3.6,0.2,6.5,3.8,8.3c2.5,1.3,4.5,0.8,5.4-1c1.1-2.1,0.3-4-5.1-8.5
	c-14.9-12.8-15.2-21-10.8-29.7c4.4-8.6,14-13.6,27.4-9l2.5-4.9l12,6.1l-2.5,4.9C266.4,168.6,270.2,177.6,265.8,187.5z"/>
<linearGradient id="SVGID_00000026878903760001443030000012474682783257014677_" gradientUnits="userSpaceOnUse" x1="0" y1="218.5" x2="433" y2="218.5" gradientTransform="matrix(1 0 0 -1 0 442)">
	<stop  offset="1.000000e-02" style="stop-color:#7C3AED"/>
	<stop  offset="1" style="stop-color:#9333EA"/>
</linearGradient>
<path style="fill:url(#SVGID_00000026878903760001443030000012474682783257014677_);" d="M216.5,7C96.9,7,0,103.9,0,223.5
	S96.9,440,216.5,440S433,343.1,433,223.5S336.1,7,216.5,7z M119.6,77l17.3-21.8l9.1,26.3l21.9,17.3l-26.3,9.1l-17.3,21.8l-9.1-26.3
	L93.2,86.1L119.6,77z M53.5,196.1l-9.1,11.5l-4.8-13.9l-11.5-9.1l13.9-4.8l9.1-11.5l4.8,13.9l11.5,9.1L53.5,196.1z M198.4,339.7
	c-0.8,2.6-1.8,5.2-2.9,7.8c-8.6,19.4-24.6,32.8-41.5,37c-10-15.6-11.6-38-2.3-58.9c1.5-3.5,3.3-6.8,5.4-10
	c11.4-14.8,24.4-22.5,33.6-18.4C200.8,301.6,203.4,319,198.4,339.7L198.4,339.7z M301,238.4c-3,9-6.6,18-10.5,27c-1,2.2-2,4.4-3,6.5
	l0,0l-0.2,0.3c-1.3,2.7-2.5,5.3-3.9,7.9l-0.2,0.4c0.1,0.1,0.1,0.2,0.2,0.4c14.6,27.6,6.6,67.5-7.3,86.5c-3.5-12-11.9-24.7-24.2-36.9
	c-0.1-0.1-0.1-0.1-0.2-0.2c0-0.1,0.1-0.3,0.2-0.4l0.2-0.4l-0.2,0.3l-0.2-0.2c-1.8-1.7-3.6-3.5-5.5-5.2
	c-12.9-11.6-29.3-22.4-48.1-31.3c-1.6-0.8-3.3-1.5-5-2.3s-3.2-1.4-4.7-2h-0.1c-22.2-9.3-44.1-14.4-63.4-15.4c0,0,0,0-0.1,0h-0.3v0.1
	c-0.1,0.2-0.2,0.4-0.3,0.6c0,0,0,0.1-0.1,0.1c-17.4-0.9-32.6,1.6-43.8,7.3c4.4-23.5,29.7-57.6,61.1-64.5c0-0.1,0.1-0.2,0.1-0.3l0,0
	c0.7-1.8,1.5-3.6,2.3-5.3c34.3-77,94.7-131,157.2-148.5C321.2,112.3,322.3,175.7,301,238.4z M367.9,290.5l-4.6,5.8l-2.4-7l-5.8-4.6
	l7-2.4l4.6-5.8l2.4,7l5.8,4.6L367.9,290.5z"/>
</svg>
