<?xml version="1.0" encoding="utf-8"?>
<!-- Generator: Adobe Illustrator 26.3.1, SVG Export Plug-In . SVG Version: 6.00 Build 0)  -->
<svg version="1.1" xmlns="http://www.w3.org/2000/svg" xmlns:xlink="http://www.w3.org/1999/xlink" x="0px" y="0px"
	 viewBox="0 0 500 500" style="enable-background:new 0 0 500 500;" xml:space="preserve">
<style type="text/css">
	.st0{fill:#7C3AED;}
	.st1{fill:none;stroke:#7C3AED;stroke-width:31.8579;stroke-miterlimit:10;}
</style>
<g id="BACKGROUND">
</g>
<g id="OBJECTS">
	<path class="st0" d="M248.5,336.4c-78.2,0-148.2,18.7-194.7,48.2C97.4,446.1,169,486.3,250,486.3c80.5,0,151.6-39.6,195.2-100.3
		C398.7,355.7,327.9,336.4,248.5,336.4z"/>
	<path class="st0" d="M328.7,226.6c-2.8,20.8,1.8,38.7,10.3,40.2c8.5,1.4,17.6-14.2,20.4-35c2.8-20.8-1.8-38.7-10.3-40.2
		C340.6,190.2,331.5,205.9,328.7,226.6z"/>
	<g>
		
			<ellipse transform="matrix(0.7071 -0.7071 0.7071 0.7071 -103.5534 249.9999)" class="st1" cx="250" cy="250" rx="224.3" ry="224.3"/>
		<ellipse class="st0" cx="250" cy="219.4" rx="93" ry="128.9"/>
		<path class="st0" d="M264.2,401.9h-28.3c-19.6,0-35.5-16-35.5-35.5v-80.8c0-19.6,16-35.5,35.5-35.5h28.3c19.6,0,35.5,16,35.5,35.5
			v80.8C299.7,385.9,283.7,401.9,264.2,401.9z"/>
		<path class="st0" d="M171.6,226.7c2.8,20.7-1.8,38.6-10.2,40c-8.4,1.4-17.5-14.1-20.3-34.8c-2.8-20.7,1.8-38.6,10.2-40
			C159.8,190.5,168.9,206.1,171.6,226.7z"/>
		<path class="st0" d="M160.2,214.3c-3.1-20.6-6.3-41.3-9.4-61.9c-1.1-7.5-2.2-15.4,0.5-22.4c2.7-7.1,10.8-12.7,17.9-10
			c-2.8-14.4,13-25,26.9-29.7c23.2-8,48-12,72.4-8.9c24.3,3.1,48.1,13.9,64.5,32.1c5.2,5.8,9.7,12.3,12.1,19.7
			c4.8,14.2,1.7,29.6-1.3,44.2c-2.4,11.6-4.9,23.2-7.3,34.8c-0.6,2.7-1.2,5.4-3,7.4c-2.9,3.2-7.7,3.5-12.1,3.5
			c-46.1,0.1-92.3,0.2-138.4,0.3c-8.7,0-20-2.1-21.1-10.7"/>
	</g>
</g>
<g id="DESIGNED_BY_FREEPIK">
</g>
</svg>
