<?xml version="1.0" encoding="utf-8"?>
<!-- Generator: Adobe Illustrator 26.3.1, SVG Export Plug-In . SVG Version: 6.00 Build 0)  -->
<svg version="1.1" id="Layer_1" xmlns="http://www.w3.org/2000/svg" xmlns:xlink="http://www.w3.org/1999/xlink" x="0px" y="0px"
	 viewBox="0 0 484.5 484.5" style="enable-background:new 0 0 484.5 484.5;" xml:space="preserve">
<style type="text/css">
	.st0{fill:#FDA4AF;}
</style>
<path class="st0" d="M120.2,345.3c-22.2,0-22.2-33.8,0-33.8S142.4,345.3,120.2,345.3z M142.4,193.2H98c-6.1,0-11.1,5-11.1,11.3
	v157.8c0,6.2,5,11.3,11.1,11.3h44.4c6.1,0,11.1-5,11.1-11.3V204.5C153.5,198.2,148.5,193.2,142.4,193.2z M395.8,250.6L368.2,349
	c-4.1,14.5-17.1,24.5-32,24.5H186.8c-6.1,0-11.1-5-11.1-11.3V204.5c0-2.4,0.8-4.8,2.2-6.7l59.8-81.6c19.7-25.5,60-11.4,60,21v56
	h55.5c14,0,26.9,6.5,35.4,17.9C396.9,222.3,399.6,237,395.8,250.6z"/>
</svg>
