<?xml version="1.0" encoding="utf-8"?>
<!-- Generator: Adobe Illustrator 26.3.1, SVG Export Plug-In . SVG Version: 6.00 Build 0)  -->
<svg version="1.1" id="Layer_1" xmlns="http://www.w3.org/2000/svg" xmlns:xlink="http://www.w3.org/1999/xlink" x="0px" y="0px"
	 viewBox="0 0 484.5 484.5" style="enable-background:new 0 0 484.5 484.5;" xml:space="preserve">
<style type="text/css">
	.st0{fill:#7DD3FC;}
</style>
<path class="st0" d="M374.6,130.4H109.9c-18.3,0-33.1,13.6-33.1,30.5v162.6c0,16.8,14.8,30.5,33.1,30.5h264.7
	c18.3,0,33.1-13.6,33.1-30.5V160.9C407.6,144.1,392.8,130.4,374.6,130.4z M164.4,171.1c12.2,0,22.1,9.1,22.1,20.3
	s-9.2,20.3-22.1,20.3c-12.2,0-22.1-9.1-22.1-20.3C142.4,180.2,152.8,171.1,164.4,171.1z M351.2,308L351.2,308
	c-1.9,3.3-5.7,5.3-9.7,5.3H143c-4.2,0-8-2.1-9.8-5.6c-1.9-3.4-1.5-7.5,0.9-10.6l48.2-61c2.1-2.6,5.4-4.2,8.9-4.2s6.8,1.6,8.9,4.2
	l15.4,19.5l43.2-59.8c1.4-2.8,4.9-4.5,9.1-4.5c3.7,0,7.1,1.7,9.2,4.5l73.5,101.6C352.9,300.7,353.1,304.7,351.2,308z"/>
</svg>
