<?xml version="1.0" encoding="utf-8"?>
<!-- Generator: Adobe Illustrator 26.3.1, SVG Export Plug-In . SVG Version: 6.00 Build 0)  -->
<svg version="1.1" id="Layer_1" xmlns="http://www.w3.org/2000/svg" xmlns:xlink="http://www.w3.org/1999/xlink" x="0px" y="0px"
	 viewBox="0 0 128 128" style="enable-background:new 0 0 128 128;" xml:space="preserve">
<style type="text/css">
	.st0{fill:#9CA3AF;}
</style>
<path class="st0" d="M7.6,52.5H23v8H7.6V52.5z M105,52.5h15.5v8H105V52.5z M20.9,19l5.7-5.7l11.3,11.3l-5.7,5.7L20.9,19z M60,0h8
	v15.5h-8V0z M90.2,24.6l11.3-11.3l5.7,5.7L95.8,30.3L90.2,24.6z M20.9,93.9l11.3-11.3l5.7,5.7L26.5,99.6L20.9,93.9z M90.2,88.3
	l5.7-5.7l11.3,11.3l-5.7,5.7L90.2,88.3z M47.1,111.1c0,9.3,7.6,16.9,16.9,16.9s16.9-7.6,16.9-16.9V100H47.1V111.1z"/>
<path class="st0" d="M80.9,95.9c0-5.4,2.2-10.6,6.2-14.3c14.3-12.8,15.6-34.8,2.8-49.1s-34.8-15.6-49.1-2.8s-15.6,34.8-2.8,49.1
	c0.8,0.9,1.7,1.8,2.7,2.7c4.1,3.7,6.4,8.9,6.3,14.4V96h33.8V95.9z"/>
</svg>
