<?xml version="1.0" encoding="utf-8"?>
<!-- Generator: Adobe Illustrator 26.3.1, SVG Export Plug-In . SVG Version: 6.00 Build 0)  -->
<svg version="1.1" id="Layer_1" xmlns="http://www.w3.org/2000/svg" xmlns:xlink="http://www.w3.org/1999/xlink" x="0px" y="0px"
	 viewBox="0 0 24 24" style="enable-background:new 0 0 24 24;" xml:space="preserve">
<style type="text/css">
	.st0{fill:#9CA3AF;}
</style>
<path class="st0" d="M12,2C6.5,2,2,6.5,2,12s4.5,10,10,10s10-4.5,10-10S17.5,2,12,2z M13,16.9V18h-2v-1.1c-2.3-0.4-3-2-3-2.9h2
	c0,0.1,0.2,1,2,1c1.4,0,2-0.6,2-1c0-0.3,0-1-2-1c-3.5,0-4-1.9-4-3c0-1.3,1-2.6,3-2.9V6h2v1.1c1.7,0.4,2.4,1.9,2.4,2.9h-1l-1,0
	c0-0.4-0.2-1-1.4-1c-1.3,0-2,0.5-2,1c0,0.4,0,1,2,1c3.5,0,4,1.9,4,3C16,15.3,15,16.6,13,16.9z"/>
</svg>
