<?xml version="1.0" encoding="utf-8"?>
<!-- Generator: Adobe Illustrator 26.3.1, SVG Export Plug-In . SVG Version: 6.00 Build 0)  -->
<svg version="1.1" id="Layer_1" xmlns="http://www.w3.org/2000/svg" xmlns:xlink="http://www.w3.org/1999/xlink" x="0px" y="0px"
	 viewBox="0 0 24 24" style="enable-background:new 0 0 24 24;" xml:space="preserve">
<style type="text/css">
	.st0{fill:none;stroke:#7C3AED;stroke-width:2;stroke-linecap:round;stroke-linejoin:round;}
</style>
<path class="st0" d="M5,5.5C5,3.6,6.6,2,8.5,2H12v7H8.5C6.6,9,5,7.4,5,5.5z M12,2h3.5C17.4,2,19,3.6,19,5.5S17.4,9,15.5,9H12V2z"/>
<path class="st0" d="M12,12.5c0-1.9,1.6-3.5,3.5-3.5s3.5,1.6,3.5,3.5S17.4,16,15.5,16S12,14.4,12,12.5z M5,19.5
	C5,17.6,6.6,16,8.5,16H12v3.5c0,1.9-1.6,3.5-3.5,3.5S5,21.4,5,19.5z M5,12.5C5,10.6,6.6,9,8.5,9H12v7H8.5C6.6,16,5,14.4,5,12.5z"/>
</svg>
