<?xml version="1.0" encoding="utf-8"?>
<!-- Generator: Adobe Illustrator 26.3.1, SVG Export Plug-In . SVG Version: 6.00 Build 0)  -->
<svg version="1.1" id="Layer_1" xmlns="http://www.w3.org/2000/svg" xmlns:xlink="http://www.w3.org/1999/xlink" x="0px" y="0px"
	 viewBox="0 0 484.5 484.5" style="enable-background:new 0 0 484.5 484.5;" xml:space="preserve">
<style type="text/css">
	.st0{fill:#FDE047;}
</style>
<g>
	<path class="st0" d="M224,382.8h-72.9c-24.3,0-24.3,35.2,0,35.2h182.2c24.3,0,24.3-35.2,0-35.2h-72.9v-21.6
		c30.1-6.5,57.7-21.2,79.5-42.3c30.9-29.6,48.1-69.9,48-111.9c0.1-35.9-12.5-70.8-35.9-98.8l12.3-11.8c16.2-16.6-8.5-40.5-25.7-24.9
		l-37.4,36l12.9,12.4c24,23.3,37.3,54.2,37.3,87.1s-13.3,63.7-37.4,87s-56.1,36.1-90.2,36.1s-66.1-12.8-90.2-36.1
		c-17.2-16.6-42.9,8.2-25.7,24.8c30.7,29.7,72.4,46.5,115.9,46.4v17.6H224z"/>
	<path class="st0" d="M301.4,132.4c-19.8-19-47.2-30.9-77.4-30.9c-29-0.1-56.9,11.1-77.4,30.9c-19.7,19.2-32,45.5-32,74.6
		s12.2,55.5,32.1,74.6c20.4,19.8,48.2,30.9,77.3,30.9c29,0,56.9-11.1,77.4-30.9c20.5-19.7,32-46.5,32-74.5
		C333.4,179,321.8,152.2,301.4,132.4z M257.2,230.3c-2.1,11.3-11.9,18.5-25.9,20.1v7.6c0,4-3.4,7.3-7.5,7.3c-4.2,0-7.5-3.2-7.5-7.3
		v-7.9c-0.1,0-0.2,0-0.3,0c-6.2-0.9-12.6-3-18.4-4.9l-2.6-0.9c-3.9-1.3-6.1-5.4-4.7-9.2c1.3-3.8,5.6-5.8,9.6-4.6l2.7,0.9
		c5.1,1.7,10.8,3.6,15.6,4.3c11.1,1.6,22.9-0.2,24.3-7.7c1.2-6.5-2.6-9.1-20.6-13.8l-3.5-0.9c-10.3-2.8-31.8-8.6-27.9-29.5
		c2.1-11.1,11.9-18.3,25.9-19.9v-7.6c0-4,3.4-7.3,7.5-7.3c4.2,0,7.5,3.3,7.5,7.3v7.9c0.1,0,0.2,0,0.3,0c4,0.6,8.5,1.7,14.3,3.5
		c4,1.3,6.1,5.4,4.8,9.2s-5.6,5.9-9.5,4.6c-4.9-1.5-8.7-2.5-11.8-3c-11-1.6-22.8,0.2-24.2,7.8c-1,5.5,1.1,8.5,17.2,12.8l3.4,0.9
		C239.8,203.8,261.2,209.4,257.2,230.3z"/>
</g>
</svg>
