<?xml version="1.0" encoding="utf-8"?>
<!-- Generator: Adobe Illustrator 26.3.1, SVG Export Plug-In . SVG Version: 6.00 Build 0)  -->
<svg version="1.1" id="Layer_1" xmlns="http://www.w3.org/2000/svg" xmlns:xlink="http://www.w3.org/1999/xlink" x="0px" y="0px"
	 viewBox="0 0 512 512" style="enable-background:new 0 0 512 512;" xml:space="preserve">
<style type="text/css">
	.st0{fill-rule:evenodd;clip-rule:evenodd;fill:#7C3AED;}
</style>
<path class="st0" d="M256,5.5C117.7,5.5,5.5,120.5,5.5,262.4c0,113.5,71.8,209.7,171.3,243.7c12.5,2.3,17.1-5.6,17.1-12.4
	c0-6.2-0.2-22.3-0.3-43.7c-69.7,15.5-84.4-34.4-84.4-34.4c-11.4-29.6-27.8-37.6-27.8-37.6c-22.7-16,1.7-15.7,1.7-15.7
	c25.2,1.8,38.4,26.5,38.4,26.5c22.4,39.3,58.6,28,72.9,21.4c2.2-16.6,8.7-28,15.9-34.3c-55.6-6.5-114.1-28.5-114.1-126.9
	c0-28.1,9.7-51,25.7-68.9c-2.6-6.5-11.2-32.7,2.5-68c0,0,21-6.9,68.9,26.3c20-5.7,41.4-8.5,62.7-8.6c21.2,0.1,42.7,2.9,62.7,8.6
	c47.9-33.2,68.8-26.3,68.8-26.3c13.6,35.3,5,61.5,2.5,68c16,18,25.7,40.9,25.7,68.9c0,98.6-58.6,120.3-114.4,126.7
	c8.9,7.9,17,23.6,17,47.5c0,34.3-0.3,62.1-0.3,70.5c0,6.8,4.5,14.9,17.2,12.3c99.8-33.9,171.4-130.1,171.4-243.5
	C506.5,120.5,394.3,5.5,256,5.5z"/>
</svg>
