<?xml version="1.0" encoding="utf-8"?>
<!-- Generator: Adobe Illustrator 26.3.1, SVG Export Plug-In . SVG Version: 6.00 Build 0)  -->
<svg version="1.1" id="Layer_1" xmlns="http://www.w3.org/2000/svg" xmlns:xlink="http://www.w3.org/1999/xlink" x="0px" y="0px"
	 viewBox="0 0 968.9 968.9" style="enable-background:new 0 0 968.9 968.9;" xml:space="preserve">
<style type="text/css">
	.st0{fill:#FFFFFF;}
	.st1{fill:#5600FD;}
</style>
<circle class="st0" cx="484.5" cy="484.5" r="439.5"/>
<g>
	<g id="Layer_2_00000086671308334019233590000011569516918954609821_">
		<polygon class="st1" points="348.8,284.8 329,291.6 315.9,307.8 309.1,288 292.5,274.9 312.4,268.2 325.4,251.9 332.2,271.8 		"/>
	</g>
	<g id="Layer_3">
		<polygon class="st1" points="767,633.1 749.8,639 738.6,653.4 732.7,636.3 718.3,625 735.4,619.2 746.7,604.8 752.6,621.9 		"/>
	</g>
	<g id="Layer_4">
		<path class="st1" d="M639.9,588.1l0.4-0.4c2.3-4.5,4-9,6.3-13.5c8.1-18.9,15.8-38.3,22.1-57.3c45.1-132.5,42.8-266.8,0.1-371.3
			c-132.1,37-260,151.4-332.6,314.1c-1.8,3.6-3.6,7.7-5,11.3v0.4c-66.2,14.4-119.8,86.5-129.3,136.5c23.4-12.1,55.9-17.1,92.8-15.4
			l0,0l0,0l0.4-1.3l0,0l-0.9,1.8c41,2.3,88.8,11.3,135.6,31.1l0,0c3.1,1.3,6.3,2.7,9.9,4c3.6,1.8,7.2,3.1,10.4,5
			c39.6,18.9,74.4,41.5,101.9,66.2c4,3.6,7.7,9,11.7,12.7l0.4-0.9l0.4-0.9l-0.4,0.9c0,0-0.4,0.4-0.4,0.9l0.4,0.4
			c26.1,25.7,43.7,52.7,50.9,77.9c29.3-40.1,46.4-124.4,15.4-183c0-0.4,0-0.4-0.4-0.9l0.4-0.9C635,599.3,637.2,593.9,639.9,588.1z
			 M562.9,443l-38.3-19.4c1.8-5.8,1.8-11.7-6.3-15.8c-4.5-2.3-8.6-2.3-10.8,2.3c-2.3,4.5,0.9,7.7,12.1,18
			c34.2,30.2,30.2,47.7,22.1,63.1c-11.7,22.1-32.9,27.1-59.4,17.1l-6.3,12.7l-24.8-12.7l6.3-12.7c-26.6-18-29.8-38.8-22.1-56.3
			l39.6,20.3c-2.3,7.7,0.4,13.5,7.7,17.2c5.4,2.7,9.4,1.8,11.3-2.3c2.3-4.5,0.4-8.1-10.4-17.5c-31.1-26.6-31.5-43.7-22.5-61.7
			c9-18,28.8-27.9,56.7-18.9l5.4-9.4l24.8,12.7l-5.4,10.4C563.8,403.7,571.9,422.7,562.9,443z"/>
	</g>
	<g id="Layer_5">
		<path class="st1" d="M455.2,728.2c-1.8,5.4-3.6,11.3-6.3,16.7c-18,41-51.8,69.4-87.9,78.4c-21.2-32.9-24.8-80.2-5-124.4
			c3.1-7.2,7.2-14.4,11.3-21.2c23.9-31.1,51.8-47.3,71.2-38.8C460.6,647.5,466,684.5,455.2,728.2z"/>
	</g>
	<g id="Layer_6">
		<polygon class="st1" points="269.1,686.3 256.4,690.8 247.9,701.2 243.8,688.6 233,680.4 245.7,675.9 254.2,665.6 258.2,678.2 		
			"/>
	</g>
</g>
</svg>
