<?xml version="1.0" encoding="utf-8"?>
<!-- Generator: Adobe Illustrator 26.3.1, SVG Export Plug-In . SVG Version: 6.00 Build 0)  -->
<svg version="1.1" id="Layer_1" xmlns="http://www.w3.org/2000/svg" xmlns:xlink="http://www.w3.org/1999/xlink" x="0px" y="0px"
	 viewBox="0 0 968.9 968.9" style="enable-background:new 0 0 968.9 968.9;" xml:space="preserve">
<style type="text/css">
	.st0{fill:#5600FD;}
</style>
<g>
	<g id="Layer_2_00000086671308334019233590000011569516918954609821_">
		<polygon class="st0" points="299,211.5 271.9,220.7 254,242.9 244.7,215.8 221.9,197.9 249.1,188.7 266.9,166.5 276.2,193.6 		"/>
	</g>
	<g id="Layer_3">
		<polygon class="st0" points="870.8,687.8 847.4,695.8 832,715.5 824,692.1 804.3,676.7 827.7,668.7 843.1,649 851.1,672.4 		"/>
	</g>
	<g id="Layer_4">
		<path class="st0" d="M697,626.2l0.6-0.6c3.1-6.2,5.5-12.3,8.6-18.5c11.1-25.9,21.6-52.4,30.2-78.3C798.1,347.6,795,164,736.5,21
			C555.9,71.6,380.9,228.1,281.7,450.6c-2.5,4.9-4.9,10.5-6.8,15.4v0.6C184.3,486.3,111,584.9,98.1,653.3
			c32-16.6,76.4-23.4,126.9-21l0,0l0,0l0.6-1.8l0,0l-1.2,2.5c56.1,3.1,121.4,15.4,185.5,42.5l0,0c4.3,1.8,8.6,3.7,13.6,5.5
			c4.9,2.5,9.9,4.3,14.2,6.8c54.2,25.9,101.7,56.7,139.3,90.6c5.5,4.9,10.5,12.3,16,17.3l0.6-1.2l0.6-1.2l-0.6,1.2
			c0,0-0.6,0.6-0.6,1.2l0.6,0.6c35.7,35.1,59.8,72.1,69.6,106.6c40.1-54.8,63.5-170.1,21-250.2c0-0.6,0-0.6-0.6-1.2l0.6-1.2
			C690.3,641.6,693.4,634.2,697,626.2z M591.7,427.8l-52.4-26.5c2.5-8,2.5-16-8.6-21.6c-6.2-3.1-11.7-3.1-14.8,3.1
			s1.2,10.5,16.6,24.6c46.8,41.3,41.3,65.3,30.2,86.3c-16,30.2-45,37-81.3,23.4l-8.6,17.3l-33.9-17.3l8.6-17.3
			c-36.4-24.6-40.7-53-30.2-77l54.2,27.7C468.4,461,472.1,469,482,474c7.4,3.7,12.9,2.5,15.4-3.1c3.1-6.2,0.6-11.1-14.2-24
			c-42.5-36.4-43.1-59.8-30.8-84.4s39.4-38.2,77.6-25.9l7.4-12.9l33.9,17.3l-7.4,14.2C592.9,374.1,604,400,591.7,427.8z"/>
	</g>
	<g id="Layer_5">
		<path class="st0" d="M444.4,817.8c-2.5,7.4-4.9,15.4-8.6,22.8c-24.6,56.1-70.9,94.9-120.2,107.2c-29-45-33.9-109.7-6.8-170.1
			c4.3-9.9,9.9-19.7,15.4-29c32.7-42.5,70.9-64.7,97.4-53C451.8,707.5,459.2,758.1,444.4,817.8z"/>
	</g>
	<g id="Layer_6">
		<polygon class="st0" points="189.9,760.5 172.6,766.7 160.9,780.9 155.4,763.6 140.6,752.5 157.9,746.3 169.6,732.2 175.1,749.4 
					"/>
	</g>
</g>
</svg>
