<?xml version="1.0" encoding="utf-8"?>
<!-- Generator: Adobe Illustrator 26.3.1, SVG Export Plug-In . SVG Version: 6.00 Build 0)  -->
<svg version="1.1" id="OBJECTS" xmlns="http://www.w3.org/2000/svg" xmlns:xlink="http://www.w3.org/1999/xlink" x="0px" y="0px"
	 viewBox="0 0 500 500" style="enable-background:new 0 0 500 500;" xml:space="preserve">
<style type="text/css">
	.st0{fill:#7C3AED;}
</style>
<path class="st0" d="M313.5,249.5c-0.4,3.3-1.2,8.9-2.2,16.7h4.4C314.9,260.9,314.2,255.4,313.5,249.5z M210.3,233.8h-10.7
	l-3.8,32.4H214L210.3,233.8z M241,249.5c-0.4,3.3-1.2,8.9-2.2,16.7h4.4C242.4,260.9,241.6,255.4,241,249.5z M282.8,233.8h-10.6
	l-3.8,32.4h18.2L282.8,233.8z M250.9,233.8c0.2,2,0.3,4.1,0.5,6.5l1.8,24.1c0.6-10.3,1.5-20.5,2.7-30.6H250.9z M225.7,233.8l0.6,7.7
	l1.7,21.3c0.4-7.9,1.3-17.6,2.7-29H225.7z M178.4,233.8c0.2,2,0.3,4.1,0.5,6.5l1.8,24.1c0.6-10.3,1.5-20.5,2.7-30.6H178.4z
	 M178.4,233.8c0.2,2,0.3,4.1,0.5,6.5l1.8,24.1c0.6-10.3,1.5-20.5,2.7-30.6H178.4z M313.5,249.5c-0.4,3.3-1.2,8.9-2.2,16.7h4.4
	C314.9,260.9,314.2,255.4,313.5,249.5z M210.3,233.8h-10.7l-3.8,32.4H214L210.3,233.8z M225.7,233.8l0.6,7.7l1.7,21.3
	c0.4-7.9,1.3-17.6,2.7-29H225.7z M241,249.5c-0.4,3.3-1.2,8.9-2.2,16.7h4.4C242.4,260.9,241.6,255.4,241,249.5z M250.9,233.8
	c0.2,2,0.3,4.1,0.5,6.5l1.8,24.1c0.6-10.3,1.5-20.5,2.7-30.6H250.9z M282.8,233.8h-10.6l-3.8,32.4h18.2L282.8,233.8z M178.4,233.8
	c0.2,2,0.3,4.1,0.5,6.5l1.8,24.1c0.6-10.3,1.5-20.5,2.7-30.6H178.4z M178.4,233.8c0.2,2,0.3,4.1,0.5,6.5l1.8,24.1
	c0.6-10.3,1.5-20.5,2.7-30.6H178.4z M313.5,249.5c-0.4,3.3-1.2,8.9-2.2,16.7h4.4C314.9,260.9,314.2,255.4,313.5,249.5z M210.3,233.8
	h-10.7l-3.8,32.4H214L210.3,233.8z M225.7,233.8l0.6,7.7l1.7,21.3c0.4-7.9,1.3-17.6,2.7-29H225.7z M241,249.5
	c-0.4,3.3-1.2,8.9-2.2,16.7h4.4C242.4,260.9,241.6,255.4,241,249.5z M250.9,233.8c0.2,2,0.3,4.1,0.5,6.5l1.8,24.1
	c0.6-10.3,1.5-20.5,2.7-30.6H250.9z M282.8,233.8h-10.6l-3.8,32.4h18.2L282.8,233.8z M178.4,233.8c0.2,2,0.3,4.1,0.5,6.5l1.8,24.1
	c0.6-10.3,1.5-20.5,2.7-30.6H178.4z M178.4,233.8c0.2,2,0.3,4.1,0.5,6.5l1.8,24.1c0.6-10.3,1.5-20.5,2.7-30.6H178.4z M210.3,233.8
	h-10.7l-3.8,32.4H214L210.3,233.8z M225.7,233.8l0.6,7.7l1.7,21.3c0.4-7.9,1.3-17.6,2.7-29H225.7z M241,249.5
	c-0.4,3.3-1.2,8.9-2.2,16.7h4.4C242.4,260.9,241.6,255.4,241,249.5z M250.9,233.8c0.2,2,0.3,4.1,0.5,6.5l1.8,24.1
	c0.6-10.3,1.5-20.5,2.7-30.6H250.9z M313.5,249.5c-0.4,3.3-1.2,8.9-2.2,16.7h4.4C314.9,260.9,314.2,255.4,313.5,249.5z M282.8,233.8
	h-10.6l-3.8,32.4h18.2L282.8,233.8z M250.9,233.8c0.2,2,0.3,4.1,0.5,6.5l1.8,24.1c0.6-10.3,1.5-20.5,2.7-30.6H250.9z M241,249.5
	c-0.4,3.3-1.2,8.9-2.2,16.7h4.4C242.4,260.9,241.6,255.4,241,249.5z M225.7,233.8l0.6,7.7l1.7,21.3c0.4-7.9,1.3-17.6,2.7-29H225.7z
	 M210.3,233.8h-10.7l-3.8,32.4H214L210.3,233.8z M178.4,233.8c0.2,2,0.3,4.1,0.5,6.5l1.8,24.1c0.6-10.3,1.5-20.5,2.7-30.6H178.4z
	 M178.4,233.8c0.2,2,0.3,4.1,0.5,6.5l1.8,24.1c0.6-10.3,1.5-20.5,2.7-30.6H178.4z M210.3,233.8h-10.7l-3.8,32.4H214L210.3,233.8z
	 M225.7,233.8l0.6,7.7l1.7,21.3c0.4-7.9,1.3-17.6,2.7-29H225.7z M241,249.5c-0.4,3.3-1.2,8.9-2.2,16.7h4.4
	C242.4,260.9,241.6,255.4,241,249.5z M250.9,233.8c0.2,2,0.3,4.1,0.5,6.5l1.8,24.1c0.6-10.3,1.5-20.5,2.7-30.6H250.9z M313.5,249.5
	c-0.4,3.3-1.2,8.9-2.2,16.7h4.4C314.9,260.9,314.2,255.4,313.5,249.5z M282.8,233.8h-10.6l-3.8,32.4h18.2L282.8,233.8z M250.9,233.8
	c0.2,2,0.3,4.1,0.5,6.5l1.8,24.1c0.6-10.3,1.5-20.5,2.7-30.6H250.9z M241,249.5c-0.4,3.3-1.2,8.9-2.2,16.7h4.4
	C242.4,260.9,241.6,255.4,241,249.5z M225.7,233.8l0.6,7.7l1.7,21.3c0.4-7.9,1.3-17.6,2.7-29H225.7z M210.3,233.8h-10.7l-3.8,32.4
	H214L210.3,233.8z M178.4,233.8c0.2,2,0.3,4.1,0.5,6.5l1.8,24.1c0.6-10.3,1.5-20.5,2.7-30.6H178.4z M178.4,233.8
	c0.2,2,0.3,4.1,0.5,6.5l1.8,24.1c0.6-10.3,1.5-20.5,2.7-30.6H178.4z M210.3,233.8h-10.7l-3.8,32.4H214L210.3,233.8z M225.7,233.8
	l0.6,7.7l1.7,21.3c0.4-7.9,1.3-17.6,2.7-29H225.7z M241,249.5c-0.4,3.3-1.2,8.9-2.2,16.7h4.4C242.4,260.9,241.6,255.4,241,249.5z
	 M250.9,233.8c0.2,2,0.3,4.1,0.5,6.5l1.8,24.1c0.6-10.3,1.5-20.5,2.7-30.6H250.9z M313.5,249.5c-0.4,3.3-1.2,8.9-2.2,16.7h4.4
	C314.9,260.9,314.2,255.4,313.5,249.5z M282.8,233.8h-10.6l-3.8,32.4h18.2L282.8,233.8z M250.9,233.8c0.2,2,0.3,4.1,0.5,6.5
	l1.8,24.1c0.6-10.3,1.5-20.5,2.7-30.6H250.9z M241,249.5c-0.4,3.3-1.2,8.9-2.2,16.7h4.4C242.4,260.9,241.6,255.4,241,249.5z
	 M225.7,233.8l0.6,7.7l1.7,21.3c0.4-7.9,1.3-17.6,2.7-29H225.7z M210.3,233.8h-10.7l-3.8,32.4H214L210.3,233.8z M178.4,233.8
	c0.2,2,0.3,4.1,0.5,6.5l1.8,24.1c0.6-10.3,1.5-20.5,2.7-30.6H178.4z M178.4,233.8c0.2,2,0.3,4.1,0.5,6.5l1.8,24.1
	c0.6-10.3,1.5-20.5,2.7-30.6H178.4z M210.3,233.8h-10.7l-3.8,32.4H214L210.3,233.8z M225.7,233.8l0.6,7.7l1.7,21.3
	c0.4-7.9,1.3-17.6,2.7-29H225.7z M241,249.5c-0.4,3.3-1.2,8.9-2.2,16.7h4.4C242.4,260.9,241.6,255.4,241,249.5z M250.9,233.8
	c0.2,2,0.3,4.1,0.5,6.5l1.8,24.1c0.6-10.3,1.5-20.5,2.7-30.6H250.9z M313.5,249.5c-0.4,3.3-1.2,8.9-2.2,16.7h4.4
	C314.9,260.9,314.2,255.4,313.5,249.5z M282.8,233.8h-10.6l-3.8,32.4h18.2L282.8,233.8z M250.9,233.8c0.2,2,0.3,4.1,0.5,6.5
	l1.8,24.1c0.6-10.3,1.5-20.5,2.7-30.6H250.9z M241,249.5c-0.4,3.3-1.2,8.9-2.2,16.7h4.4C242.4,260.9,241.6,255.4,241,249.5z
	 M225.7,233.8l0.6,7.7l1.7,21.3c0.4-7.9,1.3-17.6,2.7-29H225.7z M210.3,233.8h-10.7l-3.8,32.4H214L210.3,233.8z M178.4,233.8
	c0.2,2,0.3,4.1,0.5,6.5l1.8,24.1c0.6-10.3,1.5-20.5,2.7-30.6H178.4z M178.4,233.8c0.2,2,0.3,4.1,0.5,6.5l1.8,24.1
	c0.6-10.3,1.5-20.5,2.7-30.6H178.4z M210.3,233.8h-10.7l-3.8,32.4H214L210.3,233.8z M225.7,233.8l0.6,7.7l1.7,21.3
	c0.4-7.9,1.3-17.6,2.7-29H225.7z M241,249.5c-0.4,3.3-1.2,8.9-2.2,16.7h4.4C242.4,260.9,241.6,255.4,241,249.5z M250.9,233.8
	c0.2,2,0.3,4.1,0.5,6.5l1.8,24.1c0.6-10.3,1.5-20.5,2.7-30.6H250.9z M313.5,249.5c-0.4,3.3-1.2,8.9-2.2,16.7h4.4
	C314.9,260.9,314.2,255.4,313.5,249.5z M282.8,233.8h-10.6l-3.8,32.4h18.2L282.8,233.8z M250.9,233.8c0.2,2,0.3,4.1,0.5,6.5
	l1.8,24.1c0.6-10.3,1.5-20.5,2.7-30.6H250.9z M241,249.5c-0.4,3.3-1.2,8.9-2.2,16.7h4.4C242.4,260.9,241.6,255.4,241,249.5z
	 M225.7,233.8l0.6,7.7l1.7,21.3c0.4-7.9,1.3-17.6,2.7-29H225.7z M210.3,233.8h-10.7l-3.8,32.4H214L210.3,233.8z M178.4,233.8
	c0.2,2,0.3,4.1,0.5,6.5l1.8,24.1c0.6-10.3,1.5-20.5,2.7-30.6H178.4z M178.4,233.8c0.2,2,0.3,4.1,0.5,6.5l1.8,24.1
	c0.6-10.3,1.5-20.5,2.7-30.6H178.4z M210.3,233.8h-10.7l-3.8,32.4H214L210.3,233.8z M225.7,233.8l0.6,7.7l1.7,21.3
	c0.4-7.9,1.3-17.6,2.7-29H225.7z M241,249.5c-0.4,3.3-1.2,8.9-2.2,16.7h4.4C242.4,260.9,241.6,255.4,241,249.5z M250.9,233.8
	c0.2,2,0.3,4.1,0.5,6.5l1.8,24.1c0.6-10.3,1.5-20.5,2.7-30.6H250.9z M282.8,233.8h-10.6l-3.8,32.4h18.2L282.8,233.8z M298.2,233.8
	l0.6,7.7l1.7,21.3c0.4-7.9,1.3-17.6,2.7-29H298.2z M313.5,249.5c-0.4,3.3-1.2,8.9-2.2,16.7h4.4C314.9,260.9,314.2,255.4,313.5,249.5
	z M323.4,233.8c0.2,2,0.3,4.1,0.5,6.5l1.8,24.1c0.6-10.3,1.5-20.5,2.7-30.6H323.4z M323.4,233.8c0.2,2,0.3,4.1,0.5,6.5l1.8,24.1
	c0.6-10.3,1.5-20.5,2.7-30.6H323.4z M311.2,266.2h4.4c-0.8-5.3-1.5-10.8-2.2-16.7C313.1,252.8,312.3,258.4,311.2,266.2z
	 M298.8,241.5l1.7,21.3c0.4-7.9,1.3-17.6,2.7-29h-5L298.8,241.5z M272.1,233.8l-3.8,32.4h18.2l-3.8-32.4H272.1z M251.4,240.3
	l1.8,24.1c0.6-10.3,1.5-20.5,2.7-30.6h-5.1C251,235.8,251.2,238,251.4,240.3z M238.7,266.2h4.4c-0.8-5.3-1.5-10.8-2.2-16.7
	C240.5,252.8,239.8,258.4,238.7,266.2z M226.3,241.5l1.7,21.3c0.4-7.9,1.3-17.6,2.7-29h-5L226.3,241.5z M199.6,233.8l-3.8,32.4H214
	l-3.8-32.4H199.6z M178.9,240.3l1.8,24.1c0.6-10.3,1.5-20.5,2.7-30.6h-5.1C178.5,235.8,178.7,238,178.9,240.3z M250,9.8
	C117.6,9.8,9.8,117.6,9.8,250S117.6,490.2,250,490.2c73.5,0,139.4-33.2,183.4-85.3L410.3,382c-1.2,1.4-2.4,2.9-3.6,4.3
	c-3.1-2.7-6.3-5.3-9.5-7.8l-5.8,10.9c-2.4,4.4-8.9,3.8-10.4-0.9l-8.2-24.5v0l-0.9-2.7c-5.3-3.2-10.8-6.1-16.4-8.8
	c1.8-8.4,3.5-17,4.8-25.7l-6.4-19.3l-7.1-21.4l-0.6-1.7c-1.5-4.5,2.8-8.7,7.2-7.2l11.8,3.9c0.1-1.4,0.2-2.8,0.2-4.2
	c0.2-3.5,0.3-7,0.4-10.6h91.3c-1.1,14.8-3.8,29.1-7.9,42.8l8.3,2.8c4.8,1.6,5.3,8.1,0.9,10.4l-16.2,8.8l24.1,23.3
	c15.3-31.6,23.8-66.9,23.8-104.3C490.2,117.6,382.4,9.8,250,9.8z M383.5,91c-11.4,9.6-23.6,17.8-36.6,24.7
	c-3.4-10.8-7.2-21-11.5-30.6c-5.2-11.7-11-22.2-17.1-31.3C342.4,62.2,364.4,74.9,383.5,91z M250,42.2c24.5,0,50.6,32.5,67.1,86.3
	c-21.3,7.2-43.9,11-67.1,11c-23.2,0-45.8-3.8-67.1-11C199.4,74.8,225.5,42.2,250,42.2z M181.7,53.8c-6.2,9.1-11.9,19.5-17.1,31.3
	c-4.3,9.5-8.1,19.8-11.5,30.6c-12.9-6.8-25.2-15.1-36.6-24.7C135.6,74.9,157.6,62.2,181.7,53.8z M93.3,113.7
	c15.7,13.6,32.9,24.9,51.2,33.9c-3.2,14.4-5.7,29.5-7.4,45c-1.5,13.4-2.5,27.2-3,41.2H42.8C46.4,188.1,64.8,146.4,93.3,113.7z
	 M42.8,266.2h91.3c0.4,14,1.4,27.8,3,41.2c1.8,15.6,4.2,30.6,7.4,45c-18.3,9-35.5,20.3-51.2,33.9C64.8,353.6,46.4,311.9,42.8,266.2z
	 M116.5,409c11.4-9.6,23.6-17.8,36.6-24.7c3.4,10.8,7.2,21,11.5,30.6c5.2,11.7,11,22.2,17.1,31.3C157.6,437.8,135.6,425.1,116.5,409
	z M250,457.8c-24.5,0-50.6-32.5-67.1-86.3c21.3-7.2,43.9-11,67.1-11c23.2,0,45.8,3.8,67.1,11C300.6,425.2,274.5,457.8,250,457.8z
	 M383.5,409c-19.1,16.1-41.2,28.8-65.2,37.2c6.2-9.1,11.9-19.5,17.1-31.3c4.3-9.6,8.1-19.8,11.5-30.6
	C359.9,391.2,372.1,399.5,383.5,409z M339,282.7h-6.3c-0.6,8.5-1.3,16.7-2.3,24.7c-0.5,4.6-1.2,9-1.8,13.4v0c-1,6.6-2.2,13-3.4,19.2
	c-23.9-7.8-49.2-11.9-75.1-11.9c-25.9,0-51.1,4.1-75.1,11.9c-2.1-10.3-3.9-21.2-5.3-32.6c-1.6-13.1-2.7-26.8-3.1-41.2h4.1
	c-0.8-5.3-1.5-10.8-2.2-16.7c-0.7,5.3-2.2,16.4-4.6,33.2h-20.4l-7.4-63.2h16l1.7,22.1l1.7,21.3c0.6-11,2.1-25.5,4.6-43.4h7.2
	c0.6-9.2,1.4-18.2,2.5-26.8c1.4-11.4,3.2-22.3,5.3-32.6c23.9,7.8,49.2,11.9,75.1,11.9c25.9,0,51.2-4.1,75.1-11.9
	c2.1,10.3,3.9,21.2,5.3,32.6c1.1,8.7,1.9,17.6,2.5,26.8h13.5L339,282.7z M365.8,233.8c-0.4-14-1.4-27.8-3-41.2
	c-1.8-15.5-4.2-30.6-7.4-45c18.3-9,35.5-20.3,51.2-33.9c28.5,32.7,46.9,74.3,50.4,120.1H365.8z M323.9,240.3l1.8,24.1
	c0.6-10.3,1.5-20.5,2.7-30.6h-5.1C323.6,235.8,323.7,238,323.9,240.3z M311.2,266.2h4.4c-0.8-5.3-1.5-10.8-2.2-16.7
	C313.1,252.8,312.3,258.4,311.2,266.2z M298.8,241.5l1.7,21.3c0.4-7.9,1.3-17.6,2.7-29h-5L298.8,241.5z M272.1,233.8l-3.8,32.4h18.2
	l-3.8-32.4H272.1z M251.4,240.3l1.8,24.1c0.6-10.3,1.5-20.5,2.7-30.6h-5.1C251,235.8,251.2,238,251.4,240.3z M238.7,266.2h4.4
	c-0.8-5.3-1.5-10.8-2.2-16.7C240.5,252.8,239.8,258.4,238.7,266.2z M226.3,241.5l1.7,21.3c0.4-7.9,1.3-17.6,2.7-29h-5L226.3,241.5z
	 M199.6,233.8l-3.8,32.4H214l-3.8-32.4H199.6z M178.9,240.3l1.8,24.1c0.6-10.3,1.5-20.5,2.7-30.6h-5.1
	C178.5,235.8,178.7,238,178.9,240.3z M178.4,233.8c0.2,2,0.3,4.1,0.5,6.5l1.8,24.1c0.6-10.3,1.5-20.5,2.7-30.6H178.4z M210.3,233.8
	h-10.7l-3.8,32.4H214L210.3,233.8z M225.7,233.8l0.6,7.7l1.7,21.3c0.4-7.9,1.3-17.6,2.7-29H225.7z M241,249.5
	c-0.4,3.3-1.2,8.9-2.2,16.7h4.4C242.4,260.9,241.6,255.4,241,249.5z M250.9,233.8c0.2,2,0.3,4.1,0.5,6.5l1.8,24.1
	c0.6-10.3,1.5-20.5,2.7-30.6H250.9z M282.8,233.8h-10.6l-3.8,32.4h18.2L282.8,233.8z M298.2,233.8l0.6,7.7l1.7,21.3
	c0.4-7.9,1.3-17.6,2.7-29H298.2z M313.5,249.5c-0.4,3.3-1.2,8.9-2.2,16.7h4.4C314.9,260.9,314.2,255.4,313.5,249.5z M323.4,233.8
	c0.2,2,0.3,4.1,0.5,6.5l1.8,24.1c0.6-10.3,1.5-20.5,2.7-30.6H323.4z M323.4,233.8c0.2,2,0.3,4.1,0.5,6.5l1.8,24.1
	c0.6-10.3,1.5-20.5,2.7-30.6H323.4z M313.5,249.5c-0.4,3.3-1.2,8.9-2.2,16.7h4.4C314.9,260.9,314.2,255.4,313.5,249.5z M298.2,233.8
	l0.6,7.7l1.7,21.3c0.4-7.9,1.3-17.6,2.7-29H298.2z M282.8,233.8h-10.6l-3.8,32.4h18.2L282.8,233.8z M250.9,233.8
	c0.2,2,0.3,4.1,0.5,6.5l1.8,24.1c0.6-10.3,1.5-20.5,2.7-30.6H250.9z M241,249.5c-0.4,3.3-1.2,8.9-2.2,16.7h4.4
	C242.4,260.9,241.6,255.4,241,249.5z M225.7,233.8l0.6,7.7l1.7,21.3c0.4-7.9,1.3-17.6,2.7-29H225.7z M210.3,233.8h-10.7l-3.8,32.4
	H214L210.3,233.8z M178.4,233.8c0.2,2,0.3,4.1,0.5,6.5l1.8,24.1c0.6-10.3,1.5-20.5,2.7-30.6H178.4z M178.4,233.8
	c0.2,2,0.3,4.1,0.5,6.5l1.8,24.1c0.6-10.3,1.5-20.5,2.7-30.6H178.4z M210.3,233.8h-10.7l-3.8,32.4H214L210.3,233.8z M225.7,233.8
	l0.6,7.7l1.7,21.3c0.4-7.9,1.3-17.6,2.7-29H225.7z M241,249.5c-0.4,3.3-1.2,8.9-2.2,16.7h4.4C242.4,260.9,241.6,255.4,241,249.5z
	 M250.9,233.8c0.2,2,0.3,4.1,0.5,6.5l1.8,24.1c0.6-10.3,1.5-20.5,2.7-30.6H250.9z M282.8,233.8h-10.6l-3.8,32.4h18.2L282.8,233.8z
	 M313.5,249.5c-0.4,3.3-1.2,8.9-2.2,16.7h4.4C314.9,260.9,314.2,255.4,313.5,249.5z M250.9,233.8c0.2,2,0.3,4.1,0.5,6.5l1.8,24.1
	c0.6-10.3,1.5-20.5,2.7-30.6H250.9z M241,249.5c-0.4,3.3-1.2,8.9-2.2,16.7h4.4C242.4,260.9,241.6,255.4,241,249.5z M225.7,233.8
	l0.6,7.7l1.7,21.3c0.4-7.9,1.3-17.6,2.7-29H225.7z M210.3,233.8h-10.7l-3.8,32.4H214L210.3,233.8z M178.4,233.8
	c0.2,2,0.3,4.1,0.5,6.5l1.8,24.1c0.6-10.3,1.5-20.5,2.7-30.6H178.4z M178.4,233.8c0.2,2,0.3,4.1,0.5,6.5l1.8,24.1
	c0.6-10.3,1.5-20.5,2.7-30.6H178.4z M210.3,233.8h-10.7l-3.8,32.4H214L210.3,233.8z M225.7,233.8l0.6,7.7l1.7,21.3
	c0.4-7.9,1.3-17.6,2.7-29H225.7z M241,249.5c-0.4,3.3-1.2,8.9-2.2,16.7h4.4C242.4,260.9,241.6,255.4,241,249.5z M250.9,233.8
	c0.2,2,0.3,4.1,0.5,6.5l1.8,24.1c0.6-10.3,1.5-20.5,2.7-30.6H250.9z M282.8,233.8h-10.6l-3.8,32.4h18.2L282.8,233.8z M313.5,249.5
	c-0.4,3.3-1.2,8.9-2.2,16.7h4.4C314.9,260.9,314.2,255.4,313.5,249.5z M250.9,233.8c0.2,2,0.3,4.1,0.5,6.5l1.8,24.1
	c0.6-10.3,1.5-20.5,2.7-30.6H250.9z M241,249.5c-0.4,3.3-1.2,8.9-2.2,16.7h4.4C242.4,260.9,241.6,255.4,241,249.5z M225.7,233.8
	l0.6,7.7l1.7,21.3c0.4-7.9,1.3-17.6,2.7-29H225.7z M210.3,233.8h-10.7l-3.8,32.4H214L210.3,233.8z M178.4,233.8
	c0.2,2,0.3,4.1,0.5,6.5l1.8,24.1c0.6-10.3,1.5-20.5,2.7-30.6H178.4z M178.4,233.8c0.2,2,0.3,4.1,0.5,6.5l1.8,24.1
	c0.6-10.3,1.5-20.5,2.7-30.6H178.4z M210.3,233.8h-10.7l-3.8,32.4H214L210.3,233.8z M225.7,233.8l0.6,7.7l1.7,21.3
	c0.4-7.9,1.3-17.6,2.7-29H225.7z M241,249.5c-0.4,3.3-1.2,8.9-2.2,16.7h4.4C242.4,260.9,241.6,255.4,241,249.5z M250.9,233.8
	c0.2,2,0.3,4.1,0.5,6.5l1.8,24.1c0.6-10.3,1.5-20.5,2.7-30.6H250.9z M282.8,233.8h-10.6l-3.8,32.4h18.2L282.8,233.8z M313.5,249.5
	c-0.4,3.3-1.2,8.9-2.2,16.7h4.4C314.9,260.9,314.2,255.4,313.5,249.5z M250.9,233.8c0.2,2,0.3,4.1,0.5,6.5l1.8,24.1
	c0.6-10.3,1.5-20.5,2.7-30.6H250.9z M241,249.5c-0.4,3.3-1.2,8.9-2.2,16.7h4.4C242.4,260.9,241.6,255.4,241,249.5z M225.7,233.8
	l0.6,7.7l1.7,21.3c0.4-7.9,1.3-17.6,2.7-29H225.7z M210.3,233.8h-10.7l-3.8,32.4H214L210.3,233.8z M178.4,233.8
	c0.2,2,0.3,4.1,0.5,6.5l1.8,24.1c0.6-10.3,1.5-20.5,2.7-30.6H178.4z M178.4,233.8c0.2,2,0.3,4.1,0.5,6.5l1.8,24.1
	c0.6-10.3,1.5-20.5,2.7-30.6H178.4z M210.3,233.8h-10.7l-3.8,32.4H214L210.3,233.8z M225.7,233.8l0.6,7.7l1.7,21.3
	c0.4-7.9,1.3-17.6,2.7-29H225.7z M241,249.5c-0.4,3.3-1.2,8.9-2.2,16.7h4.4C242.4,260.9,241.6,255.4,241,249.5z M250.9,233.8
	c0.2,2,0.3,4.1,0.5,6.5l1.8,24.1c0.6-10.3,1.5-20.5,2.7-30.6H250.9z M282.8,233.8h-10.6l-3.8,32.4h18.2L282.8,233.8z M313.5,249.5
	c-0.4,3.3-1.2,8.9-2.2,16.7h4.4C314.9,260.9,314.2,255.4,313.5,249.5z M250.9,233.8c0.2,2,0.3,4.1,0.5,6.5l1.8,24.1
	c0.6-10.3,1.5-20.5,2.7-30.6H250.9z M241,249.5c-0.4,3.3-1.2,8.9-2.2,16.7h4.4C242.4,260.9,241.6,255.4,241,249.5z M225.7,233.8
	l0.6,7.7l1.7,21.3c0.4-7.9,1.3-17.6,2.7-29H225.7z M210.3,233.8h-10.7l-3.8,32.4H214L210.3,233.8z M178.4,233.8
	c0.2,2,0.3,4.1,0.5,6.5l1.8,24.1c0.6-10.3,1.5-20.5,2.7-30.6H178.4z M178.4,233.8c0.2,2,0.3,4.1,0.5,6.5l1.8,24.1
	c0.6-10.3,1.5-20.5,2.7-30.6H178.4z M210.3,233.8h-10.7l-3.8,32.4H214L210.3,233.8z M225.7,233.8l0.6,7.7l1.7,21.3
	c0.4-7.9,1.3-17.6,2.7-29H225.7z M241,249.5c-0.4,3.3-1.2,8.9-2.2,16.7h4.4C242.4,260.9,241.6,255.4,241,249.5z M250.9,233.8
	c0.2,2,0.3,4.1,0.5,6.5l1.8,24.1c0.6-10.3,1.5-20.5,2.7-30.6H250.9z M282.8,233.8h-10.6l-3.8,32.4h18.2L282.8,233.8z M313.5,249.5
	c-0.4,3.3-1.2,8.9-2.2,16.7h4.4C314.9,260.9,314.2,255.4,313.5,249.5z M178.4,233.8c0.2,2,0.3,4.1,0.5,6.5l1.8,24.1
	c0.6-10.3,1.5-20.5,2.7-30.6H178.4z M178.4,233.8c0.2,2,0.3,4.1,0.5,6.5l1.8,24.1c0.6-10.3,1.5-20.5,2.7-30.6H178.4z M210.3,233.8
	h-10.7l-3.8,32.4H214L210.3,233.8z M225.7,233.8l0.6,7.7l1.7,21.3c0.4-7.9,1.3-17.6,2.7-29H225.7z M241,249.5
	c-0.4,3.3-1.2,8.9-2.2,16.7h4.4C242.4,260.9,241.6,255.4,241,249.5z M250.9,233.8c0.2,2,0.3,4.1,0.5,6.5l1.8,24.1
	c0.6-10.3,1.5-20.5,2.7-30.6H250.9z M282.8,233.8h-10.6l-3.8,32.4h18.2L282.8,233.8z M313.5,249.5c-0.4,3.3-1.2,8.9-2.2,16.7h4.4
	C314.9,260.9,314.2,255.4,313.5,249.5z M178.4,233.8c0.2,2,0.3,4.1,0.5,6.5l1.8,24.1c0.6-10.3,1.5-20.5,2.7-30.6H178.4z
	 M178.4,233.8c0.2,2,0.3,4.1,0.5,6.5l1.8,24.1c0.6-10.3,1.5-20.5,2.7-30.6H178.4z M225.7,233.8l0.6,7.7l1.7,21.3
	c0.4-7.9,1.3-17.6,2.7-29H225.7z M250.9,233.8c0.2,2,0.3,4.1,0.5,6.5l1.8,24.1c0.6-10.3,1.5-20.5,2.7-30.6H250.9z M210.3,233.8
	h-10.7l-3.8,32.4H214L210.3,233.8z M241,249.5c-0.4,3.3-1.2,8.9-2.2,16.7h4.4C242.4,260.9,241.6,255.4,241,249.5z M282.8,233.8
	h-10.6l-3.8,32.4h18.2L282.8,233.8z M313.5,249.5c-0.4,3.3-1.2,8.9-2.2,16.7h4.4C314.9,260.9,314.2,255.4,313.5,249.5z"/>
<path class="st0" d="M387,192.6H113c-13.3,0-24.3,10.9-24.3,24.3v66.1c0,13.4,10.9,24.3,24.3,24.3h240.9l-7.1-21.4l-0.6-1.7
	c-1.5-4.5,2.8-8.7,7.2-7.2l11.8,3.9l42.8,14.3c2.1-3.6,3.3-7.8,3.3-12.2v-66.1C411.3,203.6,400.4,192.6,387,192.6z M194,282.7h-20.5
	c-1-5.1-1.9-10.6-2.8-16.5c-0.8-5.3-1.5-10.8-2.2-16.7c-0.7,5.3-2.2,16.4-4.6,33.2h-20.4l-7.4-63.2h16l1.7,22.1l1.7,21.3
	c0.6-11,2.1-25.5,4.6-43.4h17.1c0.2,1.5,0.6,6.3,1.3,14.4c0.2,2,0.3,4.1,0.5,6.5l1.8,24.1c0.6-10.3,1.5-20.5,2.7-30.6
	c0.6-4.8,1.2-9.6,1.9-14.4h16l-1.7,14.4l-3.8,32.4L194,282.7z M266.5,282.7h-20.5c-1-5.1-1.9-10.6-2.8-16.5
	c-0.8-5.3-1.5-10.8-2.2-16.7c-0.4,3.3-1.2,8.9-2.2,16.7c-0.7,4.7-1.4,10.2-2.3,16.5H216l-1.9-16.5l-3.8-32.4l-1.7-14.4h16l1.1,14.4
	l0.6,7.7l1.7,21.3c0.4-7.9,1.3-17.6,2.7-29c0.5-4.5,1.2-9.3,1.8-14.4h17.1c0.2,1.5,0.6,6.3,1.3,14.4c0.2,2,0.3,4.1,0.5,6.5l1.8,24.1
	c0.6-10.3,1.5-20.5,2.7-30.6c0.6-4.8,1.2-9.6,1.9-14.4h16l-1.7,14.4l-3.8,32.4L266.5,282.7z M339,282.7h-20.5
	c-1-5.1-1.9-10.6-2.8-16.5c-0.8-5.3-1.5-10.8-2.2-16.7c-0.4,3.3-1.2,8.9-2.2,16.7c-0.6,4.7-1.4,10.2-2.3,16.5h-20.4l-1.9-16.5
	l-3.8-32.4l-1.7-14.4h16l1.1,14.4l0.6,7.7l1.7,21.3c0.4-7.9,1.3-17.6,2.7-29c0.5-4.5,1.2-9.3,1.8-14.4h17.1
	c0.2,1.5,0.6,6.3,1.3,14.4c0.2,2,0.3,4.1,0.5,6.5l1.8,24.1c0.6-10.3,1.5-20.5,2.7-30.6c0.6-4.8,1.2-9.6,1.9-14.4h16L339,282.7z"/>
<g>
	<path class="st0" d="M441.6,362.3l-9.8,9.8c-1.5,1.5-3.9,1.5-5.4,0l-19.6-19.6c-1.8-1.8-4.8-1.4-6,0.9l-7.9,14.7
		c-1.6,2.9-5.9,2.6-7-0.6l-5.4-16.3v0l-4.3-12.8L363,299.2l-0.4-1.1c-1-3,1.8-5.8,4.8-4.8l48.1,16l21.4,7.1c3.2,1,3.5,5.4,0.6,7
		l-14.7,7.9c-2.2,1.2-2.7,4.2-0.9,6l1.1,1.1l18.6,18.6C443,358.4,443,360.8,441.6,362.3z"/>
</g>
</svg>
