<svg viewBox="0 0 512 512" xml:space="preserve" xmlns="http://www.w3.org/2000/svg"><g fill="#7c3aed" class="fill-303a3f"><ellipse cx="242.5" cy="412.7" rx="44.3" ry="43.3"></ellipse><ellipse cx="379.9" cy="412.7" rx="44.3" ry="43.3"></ellipse><path d="M466.9 113H160.1c-.7 0-1.4.2-2.1.2l-7.8-39c-1.4-10.3-8.5-16.5-21.8-18.3H16.5C-9 56-9.7 118.8 48.6 110.7l56.4-.5 10 46.9v.1l30.4 150.2c0 24.3 20.3 44.2 45.1 44.2h246c24.8 0 45.1-19.9 45.1-44.2L512 157.2c0-24.3-20.3-44.2-45.1-44.2zM203.3 307.5l-1 .1c-8.3 1-16.1-4.7-17.2-12.6l-17.4-118.3c-1.2-8.1 4.9-15.6 13.5-16.6l1-.1c8.3-1 16.1 4.7 17.2 12.6l17.4 118.3c1.2 8.1-4.9 15.6-13.5 16.6zm78.6.4-1.1.1c-8.4.6-15.9-5.5-16.5-13.5l-9.9-118.9c-.7-8.1 5.8-15.3 14.4-15.8l1.1-.1c8.4-.6 15.9 5.5 16.5 13.5l9.9 118.9c.7 8.2-5.8 15.3-14.4 15.8zm91.1-14.2c-.1 8.1-7.2 14.6-15.7 14.5h-1.1c-8.5-.1-15.4-6.8-15.3-14.9l2-119.2c.1-8.1 7.2-14.6 15.7-14.5h1.1c8.5.1 15.4 6.8 15.3 14.9l-2 119.2zm90.7-116.4-20.3 117.9c-1.3 7.8-9.2 13.3-17.5 12.2l-1-.1c-8.6-1.2-14.5-8.8-13.1-16.9L432 172.5c1.3-7.8 9.2-13.3 17.5-12.2l1 .1c8.7 1.2 14.6 8.8 13.2 16.9z"></path></g></svg>