<?xml version="1.0" encoding="utf-8"?>
<!-- Generator: Adobe Illustrator 26.3.1, SVG Export Plug-In . SVG Version: 6.00 Build 0)  -->
<svg version="1.1" id="Layer_1" xmlns="http://www.w3.org/2000/svg" xmlns:xlink="http://www.w3.org/1999/xlink" x="0px" y="0px"
	 viewBox="0 0 484.5 484.5" style="enable-background:new 0 0 484.5 484.5;" xml:space="preserve">
<style type="text/css">
	.st0{fill-rule:evenodd;clip-rule:evenodd;fill:#BEF264;}
	.st1{fill:#BEF264;}
</style>
<path class="st0" d="M101.9,165.4c-9.1,0-16.3,7.9-15.5,17.2l13.2,161.2c2,24.6,22.2,43.6,46.5,43.6h192c24.4,0,44.6-19,46.6-43.6
	L398,182.6c0.7-9.3-6.4-17.2-15.6-17.2L101.9,165.4L101.9,165.4z"/>
<path class="st1" d="M320.1,138.5v15.9h-31.2v-15.9c0-8.8-7-15.9-15.6-15.9H211c-8.6,0-15.6,7.1-15.6,15.9v15.9h-31.2v-15.9
	c0-26.3,20.9-47.6,46.7-47.6h62.3C299.2,90.9,320.1,112.3,320.1,138.5z"/>
</svg>
