<?xml version="1.0" encoding="utf-8"?>
<!-- Generator: Adobe Illustrator 26.3.1, SVG Export Plug-In . SVG Version: 6.00 Build 0)  -->
<svg version="1.1" id="Layer_1" xmlns="http://www.w3.org/2000/svg" xmlns:xlink="http://www.w3.org/1999/xlink" x="0px" y="0px"
	 viewBox="0 0 968.9 968.9" style="enable-background:new 0 0 968.9 968.9;" xml:space="preserve">
<style type="text/css">
	.st0{fill:#FFFFFF;}
</style>
<g id="Layer_1_00000178174415831297338570000006680034001306272903_">
</g>
<g>
	<path class="st0" d="M585.8,414.4L550,393.7c2.1-5.5,2.2-11.2-5.2-15.5c-4.3-2.5-8.2-2.3-10.5,1.5c-2.5,4.3,0.7,7.7,10.9,17.9
		c31.5,31,26.8,47.9,18.2,62.4c-12.3,20.6-33.3,24.4-58.4,13.6l-6.8,11.7l-23.4-13.6l6.8-11.7c-24.5-18.5-26.8-39-18.3-55.7
		l37.4,21.6c-2.4,7.1-0.4,13,6.7,17c4.9,2.8,8.9,2,10.9-1.4c2.4-4.2,1-8-9.2-17.6c-28.5-27.2-28.4-43.7-18.5-60.8
		c9.7-16.7,29.5-25.7,55.9-15.2l5.5-9.5l23.4,13.6l-5.5,9.5C589,376.6,595.8,394.9,585.8,414.4z"/>
	<path class="st0" d="M482.5,47.5c-240.2,0-435,194.8-435,435s194.8,435,435,435s435-194.8,435-435S722.7,47.5,482.5,47.5z
		 M287.7,188.2l34.7-43.9l18.2,52.9l43.9,34.7l-52.9,18.2L296.9,294l-18.2-52.9l-43.9-34.7L287.7,188.2z M155,427.4l-18.3,23.1
		l-9.6-27.8l-23.1-18.3l27.9-9.6l18.3-23.2l9.6,27.9l23.1,18.3L155,427.4z M446.1,716c-1.7,5.3-3.7,10.5-5.9,15.6
		c-17.4,39-49.3,65.8-83.3,74.3c-20.1-31.3-23.3-76.4-4.6-118.4c3.1-7,6.7-13.7,10.9-20.1c22.9-29.7,49-45.2,67.5-37
		C450.9,639.4,456.1,674.3,446.1,716L446.1,716z M652.2,512.5c-6.1,18.1-13.2,36.2-21.2,54.1c-2,4.4-4,8.8-6,13.1l0,0l-0.3,0.6
		c-2.5,5.3-5.1,10.6-7.8,15.8l-0.4,0.7c0.1,0.2,0.3,0.5,0.4,0.7c29.4,55.6,13.4,135.6-14.7,173.7c-7-24.1-24-49.7-48.5-74.2
		l-0.4-0.4c0.1-0.3,0.2-0.5,0.3-0.7l0.5-0.8l-0.4,0.5c-0.1-0.1-0.3-0.3-0.4-0.4c-3.6-3.5-7.3-7-11.1-10.5
		c-26-23.2-58.8-45-96.5-62.9c-3.3-1.5-6.6-3.1-10-4.6s-6.3-2.8-9.5-4.1h-0.2c-44.4-18.7-88.5-28.9-127.3-31l0,0l-0.6-0.1v0.1
		c-0.1,0.5-0.4,0.9-0.7,1.2c0,0.1-0.1,0.1-0.1,0.1c-35-1.7-65.5,3.2-87.9,14.6c8.9-47.3,59.6-115.7,122.9-129.6l0.3-0.6l0,0
		c1.5-3.6,3-7.1,4.6-10.7c68.7-154.6,190.1-262.9,315.8-298.1C692.9,259,694.9,386.4,652.2,512.5z M786.7,617.1l-9.2,11.6l-4.8-14.1
		l-11.6-9.2l14.1-4.8l9.2-11.6l4.8,14.1l11.6,9.2L786.7,617.1z"/>
</g>
</svg>
