<?xml version="1.0" encoding="utf-8"?>
<!-- Generator: Adobe Illustrator 26.3.1, SVG Export Plug-In . SVG Version: 6.00 Build 0)  -->
<svg version="1.1" id="Layer_1" xmlns="http://www.w3.org/2000/svg" xmlns:xlink="http://www.w3.org/1999/xlink" x="0px" y="0px"
	 viewBox="0 0 484.5 484.5" style="enable-background:new 0 0 484.5 484.5;" xml:space="preserve">
<style type="text/css">
	.st0{fill:url(#SVGID_1_);}
	.st1{fill:#4E24FF;}
	.st2{opacity:0.2;fill:#FFFFFF;}
	.st3{opacity:0.2;enable-background:new    ;}
	.st4{clip-path:url(#SVGID_00000013878027867346537920000000033634301879420557_);fill:#FFFFFF;}
	.st5{fill:#764AFF;}
</style>
<linearGradient id="SVGID_1_" gradientUnits="userSpaceOnUse" x1="128.8053" y1="372.5248" x2="423.2342" y2="118.7981">
	<stop  offset="3.692457e-03" style="stop-color:#3B007E"/>
	<stop  offset="0.9972" style="stop-color:#5600FD"/>
</linearGradient>
<path class="st0" d="M131.7,283.3c-41.8-39.9-41.8-104.9,0-144.8c20.3-19.3,47.2-30,75.8-30c28.6,0,55.5,10.7,75.8,30
	c41.8,39.9,41.8,104.9,0,144.8c-20,19.3-47.4,30.1-75.8,30C179,313.4,151.8,302.5,131.7,283.3L131.7,283.3z M435.4,356.9l-72.3-56.6
	c43.1-67.8,32.6-154.9-27.1-212c-34.3-32.8-79.9-50.9-128.4-50.9S113.4,55.5,79.1,88.2C44.8,121,25.9,164.5,25.9,210.8
	s18.9,89.8,53.2,122.6c34,32.6,80.2,51,128.4,51c32,0,64.2-8.2,93.1-24.7l59.9,68.6c10.1,11.8,25.2,18.7,41.2,18.7
	c14.1,0,27.6-5.3,37.8-14.9C461.7,410.8,459.8,375.8,435.4,356.9L435.4,356.9z"/>
<path class="st1" d="M340,211.2c0,73.3-59.4,132.8-132.8,132.8S74.5,284.5,74.5,211.2S133.9,78.4,207.2,78.4S340,137.9,340,211.2"/>
<path class="st2" d="M87.7,223.4c0-71.6,59.9-129.1,134.3-129.1c34.1,0,65.5,12.4,89,32.3C286.4,99.7,250.6,83,210.3,83
	C135.9,83,76,140.6,76,212.1c0,38.7,17.3,73.2,45.3,96.9C100,285.8,87.7,256.3,87.7,223.4z"/>
<g class="st3">
	<g>
		<defs>
			<rect id="SVGID_00000078020012312859403580000005889137646053985197_" x="34.4" y="37.4" width="352.6" height="352.6"/>
		</defs>
		<clipPath id="SVGID_00000110460724570950849620000007887995234190324889_">
			<use xlink:href="#SVGID_00000078020012312859403580000005889137646053985197_"  style="overflow:visible;"/>
		</clipPath>
		<path style="clip-path:url(#SVGID_00000110460724570950849620000007887995234190324889_);fill:#FFFFFF;" d="M323.7,145.4
			L141.9,327.2c-8.8-5.5-16.5-11.6-24.2-18.7l186.8-186.7C312.1,128.3,318.7,136.6,323.7,145.4L323.7,145.4z M287.3,106.3l-184,184
			c-1.7-2.8-3.8-5.5-5.5-8.3l181.8-181.8C282.4,102.4,284.6,104.1,287.3,106.3z"/>
	</g>
</g>
<polygon class="st5" points="192.1,307 186.2,288.3 179.8,307 161.6,313.4 179.8,319.3 186.2,338 192.1,319.3 210.8,313.4 "/>
</svg>
