<?xml version="1.0" encoding="utf-8"?>
<!-- Generator: Adobe Illustrator 26.3.1, SVG Export Plug-In . SVG Version: 6.00 Build 0)  -->
<svg version="1.1" xmlns="http://www.w3.org/2000/svg" xmlns:xlink="http://www.w3.org/1999/xlink" x="0px" y="0px"
	 viewBox="0 0 750 500" style="enable-background:new 0 0 750 500;" xml:space="preserve">
<style type="text/css">
	.st0{enable-background:new    ;}
	.st1{clip-path:url(#SVGID_00000028300883846705500800000009548889659197937330_);enable-background:new    ;}
	.st2{fill:#7883A3;}
	.st3{clip-path:url(#SVGID_00000050639406948966578960000003324307511257060994_);enable-background:new    ;}
	.st4{fill:#70166B;}
	.st5{fill:url(#SVGID_00000180333949368262384610000015856775128108529043_);}
	.st6{fill:url(#SVGID_00000077298810637821473360000014348030201439526042_);}
	.st7{opacity:0.7;fill:url(#SVGID_00000066491651207399524010000001826790604497243799_);}
	.st8{fill:url(#SVGID_00000168108843689563044150000006699483812776518545_);}
	.st9{fill:url(#SVGID_00000070111804547859774240000000874676703188978849_);}
	.st10{clip-path:url(#SVGID_00000049198085254435572210000018352290691102170270_);}
	.st11{fill:#FFFFFF;}
	.st12{fill:#1479DA;}
	.st13{opacity:0.8;clip-path:url(#SVGID_00000049198085254435572210000018352290691102170270_);}
	.st14{opacity:0.7;}
	.st15{fill:url(#SVGID_00000067955945752504724490000017125149109486268289_);}
	.st16{clip-path:url(#SVGID_00000176725964704453637750000007209653963549972623_);}
	.st17{fill:url(#SVGID_00000019655226161041558430000012727328958312316598_);}
	.st18{fill:url(#SVGID_00000012461090713468900400000000117599582337709743_);}
	.st19{fill:#1278DA;}
	.st20{opacity:0.8;clip-path:url(#SVGID_00000176725964704453637750000007209653963549972623_);}
	.st21{fill:url(#SVGID_00000153680643659772591790000001772772654633573786_);}
	.st22{clip-path:url(#SVGID_00000173132640804707520960000000385798822222513843_);}
	.st23{fill:#0E70D3;}
	.st24{opacity:0.8;clip-path:url(#SVGID_00000173132640804707520960000000385798822222513843_);}
	.st25{fill:url(#SVGID_00000157266126376068055220000006025628439985193614_);}
	.st26{clip-path:url(#SVGID_00000002353467064402687070000009019518752843298489_);}
	.st27{opacity:0.8;clip-path:url(#SVGID_00000002353467064402687070000009019518752843298489_);}
	.st28{opacity:0.7;fill:#8B7BC8;}
	.st29{fill:url(#SVGID_00000023273090321166430210000015589623594247678382_);}
	.st30{fill:url(#SVGID_00000135677893986252246950000008187062913004169103_);}
	.st31{fill:#003B64;}
	.st32{fill:#003D68;}
	.st33{fill:url(#SVGID_00000054259731095526802530000009558987965908863136_);}
	.st34{opacity:0.7;fill:url(#SVGID_00000050655328598124488980000006703948707078553516_);}
	.st35{fill:#5631BC;}
	.st36{fill:url(#SVGID_00000086678401109676021640000005095253888451464356_);}
	.st37{fill:#561FC1;}
	.st38{fill:url(#SVGID_00000122719815160134744100000002957173045386443399_);}
	.st39{fill:url(#SVGID_00000023281497697991463130000015913360264860707208_);}
	.st40{opacity:0.7;fill:url(#SVGID_00000069359469140989334070000011458585819663583412_);}
	.st41{fill:url(#SVGID_00000075845036825146991180000008559680440253805209_);}
	.st42{fill:url(#SVGID_00000027583976213167698150000017123056424309854887_);}
	.st43{fill:url(#SVGID_00000125571887728351650530000000096525059800677267_);}
	.st44{fill:url(#SVGID_00000086668233633570253940000005078133297304728509_);}
	.st45{fill:url(#SVGID_00000101808723443358469260000013510452875723876522_);}
	.st46{fill:url(#SVGID_00000058549260222600320750000003369512933506444696_);}
	.st47{opacity:0.7;fill:url(#SVGID_00000161624094756141648380000005408859750503040179_);}
</style>
<g id="BACKGROUND">
</g>
<g id="OBJECTS">
	<g class="st0">
		<defs>
			<path id="SVGID_1_" class="st0" d="M569.2,372.8c0.2,0.6,0.4,1.1,0.7,1.7l-0.9-2c-0.2-0.6-0.5-1.1-0.7-1.7c0,0.1,0.1,0.2,0.1,0.2
				c0,0.1,0.1,0.2,0.1,0.2c0,0.1,0.1,0.2,0.1,0.3c0,0.1,0.1,0.2,0.1,0.3C569,372.1,569.1,372.4,569.2,372.8z"/>
		</defs>
		<clipPath id="SVGID_00000007428925459668273690000001103917781688953987_">
			<use xlink:href="#SVGID_1_"  style="overflow:visible;"/>
		</clipPath>
		<g style="clip-path:url(#SVGID_00000007428925459668273690000001103917781688953987_);enable-background:new    ;">
			<path class="st2" d="M568,369.5l0.9,2c0.3,1,0.6,2,1.1,2.9l-0.9-2C568.6,371.5,568.2,370.5,568,369.5"/>
		</g>
	</g>
	<g class="st0">
		<defs>
			<path id="SVGID_00000101082881665330336630000012487060419754334111_" class="st0" d="M610.7,364l0.9,2c0-0.1-0.1-0.1-0.1-0.2
				l-0.9-2C610.6,363.8,610.6,363.9,610.7,364z"/>
		</defs>
		<clipPath id="SVGID_00000173850598313010096980000004265808279690513299_">
			<use xlink:href="#SVGID_00000101082881665330336630000012487060419754334111_"  style="overflow:visible;"/>
		</clipPath>
		<g style="clip-path:url(#SVGID_00000173850598313010096980000004265808279690513299_);enable-background:new    ;">
			<path class="st4" d="M610.7,364l0.9,2c0-0.1-0.1-0.1-0.1-0.2l-0.9-2C610.6,363.8,610.6,363.9,610.7,364"/>
		</g>
	</g>
	<g class="st0">
		
			<linearGradient id="SVGID_00000036223385238194662610000008262400783901842355_" gradientUnits="userSpaceOnUse" x1="80.1417" y1="93.4145" x2="160.5633" y2="128.0962">
			<stop  offset="0" style="stop-color:#31FFAE"/>
			<stop  offset="1.108134e-02" style="stop-color:#2BF3A6"/>
			<stop  offset="3.938442e-02" style="stop-color:#1EDA96"/>
			<stop  offset="6.524831e-02" style="stop-color:#17CB8C"/>
			<stop  offset="8.626740e-02" style="stop-color:#14C689"/>
			<stop  offset="0.1365" style="stop-color:#0EB17F"/>
			<stop  offset="0.2073" style="stop-color:#089C74"/>
			<stop  offset="0.285" style="stop-color:#038C6D"/>
			<stop  offset="0.3743" style="stop-color:#018368"/>
			<stop  offset="0.5009" style="stop-color:#008067"/>
			<stop  offset="0.6373" style="stop-color:#018368"/>
			<stop  offset="0.7295" style="stop-color:#038C6D"/>
			<stop  offset="0.8085" style="stop-color:#089B74"/>
			<stop  offset="0.8798" style="stop-color:#0EB07E"/>
			<stop  offset="0.9337" style="stop-color:#14C689"/>
			<stop  offset="0.9497" style="stop-color:#17CC8B"/>
			<stop  offset="0.9706" style="stop-color:#21DC92"/>
			<stop  offset="0.9941" style="stop-color:#31F79C"/>
			<stop  offset="1" style="stop-color:#36FF9F"/>
		</linearGradient>
		<path style="fill:url(#SVGID_00000036223385238194662610000008262400783901842355_);" d="M158.6,122.8c0.2-0.2,0.4-0.5,0.5-0.7
			c0.3-0.4,0.6-0.9,0.9-1.3c0.1-0.2,0.3-0.4,0.4-0.6c0.4-0.7,0.8-1.3,1.1-2l4.5-9.3c-0.3,0.7-0.7,1.4-1.1,2
			c-0.1,0.2-0.3,0.4-0.4,0.6c-0.3,0.4-0.6,0.9-0.9,1.3c-0.2,0.2-0.4,0.5-0.5,0.7c-0.3,0.4-0.6,0.8-0.9,1.1c-0.2,0.2-0.4,0.5-0.6,0.7
			c-0.3,0.3-0.6,0.7-0.9,1c-0.2,0.2-0.5,0.5-0.7,0.7c-0.3,0.3-0.7,0.6-1,1c-0.2,0.2-0.5,0.4-0.7,0.6c-0.4,0.3-0.8,0.6-1.2,0.9
			c-0.2,0.2-0.5,0.4-0.7,0.5c-0.5,0.3-0.9,0.6-1.4,0.9c-0.2,0.1-0.4,0.3-0.6,0.4c-0.7,0.4-1.4,0.8-2.1,1.2c-0.1,0.1-0.2,0.1-0.4,0.2
			c-0.6,0.3-1.2,0.6-1.9,0.9c-0.3,0.1-0.5,0.2-0.8,0.3c-0.5,0.2-1,0.4-1.5,0.6c-0.3,0.1-0.6,0.2-1,0.3c-0.5,0.2-1,0.3-1.5,0.4
			c-0.3,0.1-0.7,0.2-1,0.3c-0.5,0.1-1,0.2-1.5,0.3c-0.4,0.1-0.7,0.1-1.1,0.2c-0.5,0.1-1.1,0.2-1.6,0.2c-0.4,0-0.7,0.1-1.1,0.1
			c-0.6,0.1-1.2,0.1-1.7,0.1c-0.3,0-0.7,0-1,0.1c-0.6,0-1.3,0-1.9,0c-0.3,0-0.6,0-1,0c-1,0-1.9-0.1-2.9-0.2
			c-22.5-2-41.8-19.7-43-39.6c-0.3-5.4,0.7-10.3,2.8-14.7l-4.5,9.3c-2.1,4.4-3.1,9.3-2.8,14.7c1.2,19.9,20.5,37.6,43,39.6
			c1,0.1,2,0.1,2.9,0.2c0.3,0,0.6,0,1,0c0.5,0,1.1,0,1.6,0c0.1,0,0.2,0,0.3,0c0.3,0,0.7,0,1-0.1c0.6,0,1.2-0.1,1.7-0.1
			c0.4,0,0.7-0.1,1.1-0.1c0.5-0.1,1.1-0.1,1.6-0.2c0.4-0.1,0.7-0.1,1.1-0.2c0.5-0.1,1-0.2,1.5-0.3c0.4-0.1,0.7-0.2,1-0.3
			c0.5-0.1,1-0.3,1.5-0.4c0.3-0.1,0.7-0.2,1-0.3c0.5-0.2,1-0.4,1.5-0.6c0.3-0.1,0.6-0.2,0.8-0.3c0.6-0.3,1.3-0.6,1.9-0.9
			c0.1-0.1,0.3-0.1,0.4-0.2c0.7-0.4,1.4-0.8,2.1-1.2c0.2-0.1,0.4-0.3,0.6-0.4c0.5-0.3,1-0.6,1.4-0.9c0.2-0.2,0.5-0.4,0.7-0.5
			c0.4-0.3,0.8-0.6,1.2-0.9c0.2-0.2,0.5-0.4,0.7-0.6c0.4-0.3,0.7-0.6,1-1c0.2-0.2,0.5-0.5,0.7-0.7c0.3-0.3,0.6-0.7,0.9-1
			c0.2-0.2,0.4-0.5,0.6-0.7C158,123.6,158.3,123.2,158.6,122.8z"/>
		
			<linearGradient id="SVGID_00000118370224152495062080000008297989200312736651_" gradientUnits="userSpaceOnUse" x1="111.9511" y1="137.2301" x2="143.7443" y2="44.2411">
			<stop  offset="2.370300e-04" style="stop-color:#08BF8C"/>
			<stop  offset="0.4107" style="stop-color:#20E5A0"/>
			<stop  offset="0.6729" style="stop-color:#31FFAE"/>
			<stop  offset="0.9897" style="stop-color:#6EFFCD"/>
		</linearGradient>
		<path style="fill:url(#SVGID_00000118370224152495062080000008297989200312736651_);" d="M168.7,94.2c-1.2-19.9-20.5-37.6-43-39.6
			c-22.5-2-39.8,12.5-38.6,32.3c1.2,19.9,20.5,37.6,43,39.6C152.7,128.5,169.9,114,168.7,94.2z"/>
		
			<linearGradient id="SVGID_00000183957964801094735170000007708860190604236690_" gradientUnits="userSpaceOnUse" x1="135.6023" y1="50.4377" x2="120.3033" y2="130.2794">
			<stop  offset="7.574820e-02" style="stop-color:#D9FFFF"/>
			<stop  offset="1" style="stop-color:#D9FFFF;stop-opacity:0"/>
		</linearGradient>
		<path style="opacity:0.7;fill:url(#SVGID_00000183957964801094735170000007708860190604236690_);" d="M168.7,94.2
			c-1.2-19.9-20.5-37.6-43-39.6c-22.5-2-39.8,12.5-38.6,32.3c1.2,19.9,20.5,37.6,43,39.6C152.7,128.5,169.9,114,168.7,94.2z
			 M160.7,115.8c-6.4,6.8-15.7,10.5-26.4,10.5c0,0,0,0,0,0c-1.4,0-2.7-0.1-4.1-0.2c-22.3-2-41.4-19.6-42.6-39.2
			C87,78.7,89.7,71,95.2,65.3c6.4-6.8,15.7-10.5,26.4-10.5c1.3,0,2.7,0.1,4.1,0.2c22.3,2,41.4,19.6,42.6,39.2
			C168.8,102.3,166.1,110,160.7,115.8z"/>
		
			<linearGradient id="SVGID_00000080888152472249970770000003268436511784651933_" gradientUnits="userSpaceOnUse" x1="131.0508" y1="71.9216" x2="116.4689" y2="143.8749">
			<stop  offset="0" style="stop-color:#CCFFFF"/>
			<stop  offset="1" style="stop-color:#A8E7FF"/>
		</linearGradient>
		<polygon style="fill:url(#SVGID_00000080888152472249970770000003268436511784651933_);" points="140.5,78.6 123.4,92.9 
			114.3,84.6 107.3,90.4 124.2,106 148.3,85.8 		"/>
	</g>
	<g>
		<g>
			
				<radialGradient id="SVGID_00000085226520839318984060000018112705325989049750_" cx="304.9544" cy="287.9528" r="36.7006" gradientTransform="matrix(1 -4.000000e-03 4.000000e-03 1 12.6462 133.7931)" gradientUnits="userSpaceOnUse">
				<stop  offset="0" style="stop-color:#4A90ED"/>
				<stop  offset="0.1964" style="stop-color:#4996EE"/>
				<stop  offset="0.4456" style="stop-color:#48A5F0"/>
				<stop  offset="0.6935" style="stop-color:#46BCF4"/>
				<stop  offset="0.805" style="stop-color:#55C7FA"/>
				<stop  offset="0.8796" style="stop-color:#62D0FF"/>
				<stop  offset="1" style="stop-color:#BBEAFF"/>
			</radialGradient>
			<path style="fill:url(#SVGID_00000085226520839318984060000018112705325989049750_);" d="M348.8,413.6
				C348.8,413.6,348.8,413.6,348.8,413.6c0-0.2,0-1.1-0.2-2.4c0-0.1,0-0.2,0-0.3c0-0.2,0-0.3-0.1-0.5c-0.7-4.2-2.1-8.1-4.3-11.6
				c0,0,0,0,0,0c-0.2-0.4-0.5-0.8-0.7-1.1c0,0,0,0,0,0c-1.2-1.8-2.6-3.4-4.1-4.9c-0.7-0.7-1.6-1.5-2.4-2.1c-0.5-0.4-1.1-0.8-1.6-1.2
				c0,0-0.1,0-0.1-0.1l-0.1,0c-0.1-0.1-0.2-0.1-0.3-0.2c-0.4-0.2-0.7-0.5-1.1-0.7l0,0c0,0,0,0,0,0c-0.2-0.1-0.4-0.2-0.6-0.4
				c-0.1-0.1-0.2-0.1-0.3-0.2c-0.1,0-0.2-0.1-0.2-0.1c-0.1,0-0.1-0.1-0.2-0.1c-1.3-0.7-2.6-1.3-3.9-1.8c-0.4-0.1-0.6-0.2-0.8-0.3
				l-0.2-0.1l-0.2-0.1c0,0,0,0,0,0l-0.1,0c-0.1,0-0.3-0.1-0.4-0.1l-0.1,0c0,0,0,0-0.1,0l-0.3-0.1c-0.1,0-0.3-0.1-0.4-0.1l-0.3-0.1
				c-0.1,0-0.1,0-0.2,0c0,0,0,0-0.1,0c0,0,0,0-0.1,0c0,0-0.1,0-0.1,0l-0.3-0.1c-0.1,0-0.2,0-0.3-0.1c-0.1,0-0.2,0-0.3-0.1l0,0
				c-0.1,0-0.1,0-0.2,0c-0.1,0-0.2-0.1-0.3-0.1l-0.2-0.1c-0.1,0-0.2,0-0.3-0.1c0,0,0,0-0.1,0c-0.1,0-0.2,0-0.2,0l-0.1,0l-0.2,0
				c0,0,0,0,0,0l-0.1,0c0,0-0.1,0-0.1,0c-0.1,0-0.2,0-0.3,0c-0.1,0-0.1,0-0.2,0l0,0c-0.1,0-0.2,0-0.3,0l-0.2,0c0,0-0.1,0-0.1,0
				c-0.1,0-0.1,0-0.2,0c-0.1,0-0.1,0-0.2,0c-0.1,0-0.2,0-0.4,0l-0.3,0c0,0-0.1,0-0.1,0l0,0c-0.1,0-0.2,0-0.3,0c-0.1,0-0.3,0-0.4,0
				c-0.1,0-0.2,0-0.3,0c-0.1,0-0.2,0-0.3,0c-0.1,0-0.2,0-0.4,0c-0.1,0-0.1,0-0.2,0l-0.2,0c-0.1,0-0.1,0-0.2,0c-0.1,0-0.1,0-0.2,0
				c-0.6,0-1.3,0-1.9,0c-0.1,0-0.3,0-0.4,0c-0.1,0-0.3,0-0.4,0c-0.1,0-0.2,0-0.3,0c-0.2,0-0.4,0-0.6,0.1c-0.1,0-0.1,0-0.2,0
				c-0.3,0-0.6,0.1-0.8,0.1c-0.1,0-0.3,0-0.4,0.1c0,0,0,0,0,0c0,0,0,0,0,0c0,0-0.1,0-0.1,0c-0.2,0-0.4,0.1-0.6,0.1
				c-0.2,0-0.3,0-0.5,0.1c-0.3,0.1-0.6,0.1-0.8,0.2c-0.9,0.2-1.8,0.4-2.7,0.7c-0.5,0.2-1,0.3-1.6,0.5c-2.5,0.9-4.8,2.1-7,3.5
				c0,0,0,0,0,0l0,0c-0.2,0.1-0.4,0.3-0.7,0.4c0,0-0.1,0-0.1,0.1c-0.4,0.3-0.7,0.5-1.1,0.8c0,0-0.1,0-0.1,0.1l0,0c0,0,0,0,0,0
				c0,0,0,0,0,0c0,0,0,0,0,0c-0.1,0.1-0.2,0.2-0.3,0.2c-0.2,0.2-0.4,0.3-0.6,0.5c-0.1,0.1-0.2,0.2-0.3,0.3c-0.2,0.2-0.4,0.4-0.6,0.5
				c0,0,0,0,0,0l0,0c0,0-0.1,0.1-0.1,0.1c-1,0.9-1.6,1.6-1.6,1.6c-0.3,0.3-0.6,0.7-0.9,1c-0.2,0.2-0.4,0.5-0.7,0.8c0,0,0,0,0,0.1
				l0,0c-0.4,0.6-0.9,1.2-1.4,2l0,0c0,0,0,0,0,0c0,0,0,0,0,0c-0.2,0.3-0.5,0.7-0.7,1.1c-0.2,0.4-0.4,0.7-0.6,1l-0.6,1.2
				c-0.2,0.4-0.4,0.8-0.6,1.1c-0.3,0.7-0.7,1.5-1,2.4c0,0,0,0,0,0l0,0c-0.3,0.8-0.5,1.6-0.8,2.5l0,0c0,0,0,0,0,0
				c-0.3,1.1-0.5,2.1-0.6,2.8c-0.4,3-0.5,3.2-0.5,5.1c0,2.5,0.2,4.2,0.3,5.1c0.4,2.4,0.9,4.3,1.1,4.9c0.7,2.2,1.3,3.4,1.9,4.7
				c0.4,0.8,0.6,1.3,1,1.9c0.4,0.7,0.9,1.5,1.4,2.2c0.1,0.1,0.1,0.2,0.2,0.3c0.5,0.8,1.3,1.7,1.9,2.4c0.5,0.5,1.1,1.2,1.5,1.6
				c0.5,0.5,1.1,1.1,1.6,1.5l0,0c0.6,0.5,0.8,0.7,1.3,1.1c0.6,0.5,1.3,1,2,1.4c0,0,0,0,0,0c0.2,0.1,0.4,0.3,0.6,0.4
				c0.3,0.2,0.5,0.3,0.7,0.4c0.1,0.1,0.3,0.2,0.5,0.3c0,0,0.1,0,0.1,0c0.2,0.1,0.4,0.2,0.7,0.4c0.1,0,0.1,0.1,0.2,0.1
				c0.8,0.4,1.7,0.9,2.8,1.3c0.2,0.1,0.6,0.2,0.9,0.4c0.1,0,0.2,0.1,0.3,0.1l0.6,0.2c0.1,0,0.3,0.1,0.4,0.1l0.1,0c0,0,0,0,0,0
				l0.2,0.1c0.1,0,0.3,0.1,0.4,0.1l0.4,0.1c0,0,0,0,0,0c1.4,0.4,2.7,0.7,3.9,0.8l0.1,0c0.1,0,0.2,0,0.4,0c0,0,0,0,0,0
				c0.1,0,0.2,0,0.3,0l0.7,0.1c0.3,0,0.7,0.1,1.1,0.1c0.3,0,0.7,0,1,0.1l0,0c0,0,0,0,0,0c0.2,0,0.3,0,0.5,0c0.4,0,1,0,1.5,0
				c0.5,0,1.1-0.1,1.5-0.1c1-0.1,2.2-0.2,3.2-0.4c0.7-0.1,1.7-0.3,2.4-0.5c0.2-0.1,0.4-0.1,0.6-0.2c0.6-0.2,1.2-0.3,1.7-0.5l0.6-0.2
				c0.5-0.2,0.9-0.3,1.4-0.5l0.2-0.1c0.5-0.2,1.2-0.5,1.8-0.8c0.2-0.1,0.5-0.2,0.7-0.4c0.7-0.3,1.5-0.8,2.1-1.2c0,0,0,0,0.1,0
				c0.5-0.3,1.1-0.7,1.6-1.1c0.1-0.1,0.2-0.2,0.3-0.2l0.6-0.5c0.2-0.1,0.3-0.2,0.5-0.4l0.9-0.7c0.3-0.3,0.9-0.8,1.8-1.7c0,0,0,0,0,0
				l0.1-0.1c0.5-0.5,1-1,1.6-1.7c0,0,0,0,0,0c0,0,0,0,0,0c0.6-0.7,1.6-1.9,2.7-3.6c0,0,0,0,0,0c0.2-0.4,0.5-0.8,0.7-1.3c0,0,0,0,0,0
				c0,0,0,0,0,0c0.1-0.2,0.2-0.4,0.3-0.6c0.1-0.3,0.3-0.5,0.4-0.8c0-0.1,0.1-0.2,0.1-0.2c0.2-0.4,0.4-0.9,0.6-1.3
				c0.3-0.6,0.5-1.3,0.7-1.8c0,0,0,0,0,0c0.3-0.9,0.7-1.9,0.9-3c0.2-0.6,0.3-1.3,0.4-1.9c0.1-0.6,0.2-1.3,0.3-2c0-0.2,0-0.3,0.1-0.5
				c0.1-0.9,0.2-1.9,0.2-2.9c0,0,0-0.1,0-0.1l0-0.1C348.9,415.2,348.9,414.5,348.8,413.6z"/>
			<g>
				<defs>
					<path id="SVGID_00000171715319475097476010000009524954899975532183_" d="M343.3,397.4L343.3,397.4
						C343.3,397.4,343.3,397.4,343.3,397.4C343.3,397.4,343.3,397.4,343.3,397.4c0.3,0.4,0.5,0.8,0.8,1.2c0.2,0.3,0.4,0.7,0.6,1
						l0.6,1.2c0.2,0.4,0.4,0.7,0.6,1.1c0.3,0.6,0.7,1.5,1,2.4c0,0,0,0,0,0l0,0c0.3,0.8,0.6,1.6,0.8,2.5l0,0c0,0,0,0,0,0
						c0.3,1.1,0.5,2.1,0.7,2.8c0.4,2.9,0.5,3.2,0.5,5.1c0.1,2.5-0.2,4.2-0.3,5.1c-0.3,2.4-0.9,4.3-1.1,4.9c-0.7,2.2-1.3,3.4-1.8,4.7
						c-0.4,0.8-0.6,1.3-1,1.9c-0.4,0.7-0.9,1.5-1.4,2.2c-0.1,0.1-0.1,0.2-0.2,0.3c-0.5,0.8-1.2,1.7-1.9,2.4c-0.5,0.5-1,1.2-1.5,1.7
						c-0.5,0.5-1.1,1.1-1.6,1.5l0,0c-0.6,0.5-0.8,0.7-1.3,1.1c-0.6,0.5-1.3,1-2,1.4c0,0,0,0,0,0c-0.2,0.1-0.4,0.3-0.6,0.4
						c-0.3,0.2-0.5,0.3-0.7,0.4c-0.1,0.1-0.3,0.2-0.5,0.3c0,0-0.1,0-0.1,0c-0.2,0.1-0.4,0.2-0.7,0.4c-0.1,0-0.1,0.1-0.2,0.1
						c-0.8,0.4-1.7,0.9-2.8,1.3c-0.2,0.1-0.6,0.2-0.9,0.4c-0.1,0-0.2,0.1-0.3,0.1l-0.6,0.2c-0.1,0-0.3,0.1-0.4,0.1l-0.1,0
						c0,0,0,0,0,0l-0.2,0.1c-0.1,0-0.3,0.1-0.4,0.1l-0.4,0.1c0,0,0,0,0,0c-1.4,0.4-2.7,0.7-3.9,0.9l-0.1,0c-0.1,0-0.2,0-0.4,0.1
						c0,0,0,0,0,0c-0.1,0-0.2,0-0.3,0l-0.7,0.1c-0.3,0-0.7,0.1-1.1,0.1c-0.3,0-0.6,0-1,0.1l0,0c0,0,0,0,0,0c-0.2,0-0.3,0-0.5,0
						c-0.4,0-1,0-1.5,0c-0.5,0-1.1,0-1.5-0.1c-1-0.1-2.2-0.2-3.2-0.4c-0.7-0.1-1.7-0.3-2.5-0.5c-0.2-0.1-0.4-0.1-0.6-0.2
						c-0.6-0.2-1.2-0.3-1.7-0.5l-0.6-0.2c-0.5-0.2-0.9-0.3-1.4-0.5l-0.2-0.1c-0.5-0.2-1.2-0.5-1.8-0.8c-0.2-0.1-0.5-0.2-0.7-0.4
						c-0.7-0.3-1.5-0.8-2.1-1.2c0,0,0,0-0.1,0c-0.5-0.3-1.1-0.7-1.6-1.1c-0.1-0.1-0.2-0.2-0.3-0.2l-0.6-0.5
						c-0.2-0.1-0.3-0.2-0.5-0.4l-0.9-0.7c-0.3-0.3-0.9-0.8-1.8-1.7c0,0,0,0,0,0l-0.1-0.1c-0.5-0.5-1-1-1.6-1.7c0,0,0,0,0,0
						c0,0,0,0,0,0c-0.6-0.7-1.6-1.9-2.7-3.6c0,0,0,0,0,0c-0.2-0.4-0.5-0.8-0.8-1.3c0,0,0,0,0,0c0,0,0,0,0,0
						c-0.1-0.2-0.2-0.4-0.3-0.6c-0.2-0.3-0.3-0.5-0.4-0.8c0-0.1-0.1-0.2-0.1-0.2c-0.2-0.4-0.4-0.9-0.6-1.3c-0.3-0.6-0.6-1.3-0.7-1.8
						c0,0,0,0,0,0c-0.3-0.9-0.7-1.9-0.9-3c-0.2-0.6-0.3-1.3-0.4-1.9c-0.1-0.6-0.2-1.3-0.3-2c0-0.2,0-0.3-0.1-0.5
						c-0.1-0.9-0.2-1.9-0.2-2.8c0,0,0-0.1,0-0.1l0-0.1c0-0.8,0-1.6,0-2.4c0,0,0-0.1,0-0.1c0-0.1,0-1,0.2-2.3c0-0.1,0-0.2,0-0.3
						c0-0.2,0-0.3,0.1-0.5c0.6-4.2,2.1-8.1,4.2-11.7c0,0,0,0,0,0c0.2-0.4-1.9,3.5-1.6,3.1c0,0,2.4-4.3,2.4-4.3
						c1.2-1.8,2.5-3.5,4.1-5c0.7-0.7,1.6-1.5,2.4-2.1c0.5-0.4,1-0.8,1.6-1.2c0,0,0.1,0,0.1-0.1l0.1,0c0.1-0.1,0.2-0.1,0.3-0.2
						c0.3-0.2,0.7-0.5,1.1-0.8l0,0c0,0,0,0,0,0c0.2-0.1,0.4-0.3,0.6-0.4c0.1-0.1,0.2-0.1,0.3-0.2c0.1,0,0.2-0.1,0.2-0.1
						c0.1,0,0.1-0.1,0.2-0.1c1.2-0.7,2.6-1.3,3.9-1.9c0.3-0.1,0.6-0.2,0.8-0.3l0.2-0.1l0.2-0.1c0,0,0,0,0,0l0.1,0
						c0.1,0,0.3-0.1,0.4-0.1l0.1,0c0,0,0,0,0.1,0l0.3-0.1c0.1,0,0.3-0.1,0.4-0.1l0.3-0.1c0.1,0,0.1,0,0.2-0.1c0,0,0,0,0.1,0
						c0,0,0,0,0.1,0c0,0,0.1,0,0.1,0l0.3-0.1c0.1,0,0.2-0.1,0.3-0.1c0.1,0,0.2,0,0.3-0.1l0,0c0.1,0,0.1,0,0.2,0
						c0.1,0,0.2-0.1,0.3-0.1l0.2-0.1c0.1,0,0.2,0,0.3-0.1c0,0,0,0,0.1,0c0.1,0,0.2,0,0.2,0l0.1,0l0.2,0c0,0,0,0,0,0l0.1,0
						c0,0,0.1,0,0.1,0c0.1,0,0.2,0,0.3,0c0.1,0,0.1,0,0.2,0l0,0c0.1,0,0.2,0,0.3,0l0.2,0c0,0,0.1,0,0.1,0c0.1,0,0.1,0,0.2,0
						c0.1,0,0.1,0,0.2,0c0.1,0,0.2,0,0.4,0l0.3,0c0,0,0.1,0,0.1,0l0,0c0.1,0,0.2,0,0.3,0c0.1,0,0.3,0,0.4,0c0.1,0,0.2,0,0.3,0
						c0.1,0,0.2,0,0.3,0c0.1,0,0.2,0,0.4,0c0.1,0,0.1,0,0.2,0l0.2,0c0.1,0,0.1,0,0.2,0c0.1,0,0.1,0,0.2,0c0.6,0,1.3,0,1.9,0
						c0.1,0,0.3,0,0.4,0c0.1,0,0.3,0,0.4,0c0.1,0,0.2,0,0.3,0c0.2,0,0.4,0,0.6,0c0.1,0,0.1,0,0.2,0c0.3,0,0.6,0.1,0.8,0.1
						c0.1,0,0.3,0,0.4,0c0,0,0,0,0,0c0,0,0,0,0,0c0,0,0.1,0,0.1,0c0.2,0,0.4,0.1,0.6,0.1c0.2,0,0.3,0,0.5,0.1
						c0.3,0.1,0.6,0.1,0.8,0.1c0.9,0.2,1.8,0.4,2.7,0.7c0.5,0.1,1,0.3,1.6,0.5c2.5,0.9,4.8,2,7.1,3.5c0,0,0,0,0,0l0,0
						c0.2,0.1,0.4,0.3,0.7,0.4c0,0,0.1,0,0.1,0.1c0.4,0.3,0.7,0.5,1.1,0.8c0,0,0.1,0,0.1,0.1l0,0c0,0,0,0,0,0c0,0,0,0,0,0
						c0,0,0,0,0,0c0.1,0.1,0.2,0.2,0.3,0.2c0.2,0.2,0.4,0.3,0.6,0.5c0.1,0.1,0.2,0.2,0.3,0.3c0.2,0.2,0.4,0.4,0.6,0.5c0,0,0,0,0,0
						l0,0c0,0,0.1,0.1,0.1,0.1c1,0.9,1.6,1.6,1.6,1.6c0.3,0.3,0.6,0.7,0.9,1c0.2,0.2,0.4,0.5,0.7,0.8c0,0,0,0,0,0.1"/>
				</defs>
				<clipPath id="SVGID_00000047059656587381311890000013271069259865002378_">
					<use xlink:href="#SVGID_00000171715319475097476010000009524954899975532183_"  style="overflow:visible;"/>
				</clipPath>
				<g style="clip-path:url(#SVGID_00000047059656587381311890000013271069259865002378_);">
					<path class="st11" d="M326.3,427.2c-0.5,0.7-1.8,2.2-4.3,1.7c-0.2-0.1-0.4-0.1-0.5-0.2c3.4,1.6,1.7,4.9-0.5,5.7
						c-1.1,0.4-1.9,0.2-2.6,0.1c-0.2-0.1-0.4-0.1-0.5-0.2c2.9,1.3,1.7,3.6,0,4.4c-1.3,0.6-2.4,0.3-2.9,0.1c-0.3-0.1-0.6-0.2-1-0.3
						c1.5,0.7,1.8,1.5,1.1,2.5c0,0,0,0,0,0c-1,0.9-2.1,1.1-3.6,0.6c-4.7-1.8-9.7-4.2-14.2-7.2c-1.1-0.7-2.2-1.5-3.2-2.2
						c-0.5-0.5-0.8-1-0.8-1.6c0.2-4,1.6-8.8,4.3-14.1c0.5-1.1,1.1-2.2,1.7-3.3c0.4-0.5,0.4-0.5,7.3-3.2c4.1-1.6,5.1-1.9,8.7-3.5
						c0.7-1.1,1.4-2.2,2.1-3.3c0.8-1,1.7-1.3,2.7-1c0.6,0.5,2.6,1.9,1.2,5.7c-0.2,0.5-0.5,1-0.7,1.6c-1.9,3.7-3.6,5.6-6.9,7.8
						c3.8,2,7.7,3.6,11.4,4.9C328.3,423.8,326.3,427.2,326.3,427.2"/>
					<path class="st12" d="M291.9,431.6c0,0.6-0.3,0.8-0.8,0.4c-1.3-1.1-2.4-2.3-3.2-3.4c-0.4-0.6-0.7-1.3-0.9-2.2
						c-1.2-5.3-0.4-11.4,2.7-17.6c0.5-1.1,1.1-2.2,1.8-3.2c0.7-0.9,1.2-1.1,1.8-0.6c1.1,1.4,2.5,2.9,4.2,4.4
						c0.6,0.7,0.7,1.6,0.2,2.7c-0.6,1.1-1.2,2.1-1.8,3.2C292.8,421.5,291.5,427.1,291.9,431.6"/>
				</g>
				<g style="opacity:0.8;clip-path:url(#SVGID_00000047059656587381311890000013271069259865002378_);">
					
						<image style="overflow:visible;" width="832" height="801" xlink:href="43370005528AAE3.png"  transform="matrix(0.24 0 0 0.24 224.3241 332.6492)">
					</image>
				</g>
				<g style="clip-path:url(#SVGID_00000047059656587381311890000013271069259865002378_);">
					<g>
						
							<image style="overflow:visible;" width="800" height="765" xlink:href="43370005528AAEF.png"  transform="matrix(0.24 0 0 0.24 209.2041 307.2092)">
						</image>
					</g>
					<g class="st14">
						
							<image style="overflow:visible;" width="679" height="673" xlink:href="43370005528AAE1.png"  transform="matrix(0.24 0 0 0.24 251.6841 317.5292)">
						</image>
					</g>
				</g>
			</g>
		</g>
	</g>
	<g>
		<g>
			
				<radialGradient id="SVGID_00000170980654703427988840000003944154271445566594_" cx="626.3506" cy="246.5128" r="51.3058" gradientTransform="matrix(1 -4.000000e-03 4.000000e-03 1 12.6462 133.7931)" gradientUnits="userSpaceOnUse">
				<stop  offset="0" style="stop-color:#7C3AED"/>
				<stop  offset="0.42" style="stop-color:#8238EC"/>
				<stop  offset="0.9532" style="stop-color:#9134EA"/>
				<stop  offset="1" style="stop-color:#9333EA"/>
			</radialGradient>
			<path style="fill:url(#SVGID_00000170980654703427988840000003944154271445566594_);" d="M683.6,368.3c0,0,0-0.1,0-0.1
				c0-0.2-0.1-1.4-0.3-3.2c0-0.2,0-0.3-0.1-0.5c0-0.2-0.1-0.5-0.1-0.7c-0.9-5.8-3-11.4-6-16.3c0,0,0,0,0,0c-0.3-0.5-0.7-1.1-1-1.6
				c0,0,0,0,0,0c-1.7-2.5-3.6-4.8-5.7-6.9c-1-1-2.2-2.1-3.3-2.9c-0.7-0.6-1.5-1.1-2.2-1.7c0,0-0.1-0.1-0.1-0.1l-0.1-0.1
				c-0.1-0.1-0.3-0.2-0.4-0.3c-0.5-0.3-1-0.7-1.6-1l0,0c0,0,0,0-0.1,0c-0.3-0.2-0.6-0.3-0.9-0.5c-0.1-0.1-0.3-0.2-0.4-0.2
				c-0.1-0.1-0.2-0.1-0.3-0.2c-0.1-0.1-0.2-0.1-0.3-0.2c-1.8-1-3.6-1.8-5.5-2.6c-0.5-0.2-0.9-0.3-1.1-0.4l-0.3-0.1l-0.3-0.1
				c0,0,0,0,0,0l-0.1,0c-0.2-0.1-0.4-0.1-0.6-0.2l-0.1,0c0,0-0.1,0-0.1,0l-0.4-0.1c-0.1,0-0.4-0.1-0.5-0.2l-0.4-0.1
				c-0.1,0-0.2,0-0.2-0.1c0,0,0,0-0.1,0c0,0-0.1,0-0.1,0c0,0-0.1,0-0.1,0l-0.5-0.1c-0.1,0-0.3-0.1-0.4-0.1c-0.1,0-0.3-0.1-0.4-0.1
				l0,0c-0.1,0-0.2,0-0.2-0.1c-0.1,0-0.3-0.1-0.5-0.1l-0.3-0.1c-0.1,0-0.3-0.1-0.4-0.1c0,0-0.1,0-0.1,0c-0.1,0-0.2,0-0.3-0.1l-0.2,0
				l-0.2,0c0,0,0,0,0,0l-0.1,0c0,0-0.1,0-0.1,0c-0.1,0-0.2,0-0.4-0.1c-0.1,0-0.2,0-0.2,0l0,0c-0.1,0-0.3,0-0.4-0.1l-0.3-0.1
				c-0.1,0-0.1,0-0.2,0c-0.1,0-0.2,0-0.3,0c-0.1,0-0.2,0-0.3,0c-0.2,0-0.3,0-0.5-0.1l-0.5-0.1c-0.1,0-0.1,0-0.2,0l0,0
				c-0.1,0-0.3,0-0.4,0c-0.2,0-0.4,0-0.6-0.1c-0.2,0-0.3,0-0.4,0c-0.2,0-0.3,0-0.5,0c-0.2,0-0.3,0-0.5,0c-0.1,0-0.2,0-0.3,0l-0.3,0
				c-0.1,0-0.1,0-0.2,0c-0.1,0-0.2,0-0.2,0c-0.9,0-1.8,0-2.7,0c-0.2,0-0.4,0-0.6,0c-0.2,0-0.4,0-0.6,0c-0.1,0-0.2,0-0.4,0
				c-0.3,0-0.6,0-0.9,0.1c-0.1,0-0.2,0-0.3,0c-0.4,0-0.8,0.1-1.2,0.1c-0.2,0-0.4,0-0.5,0.1c0,0,0,0,0,0c0,0,0,0,0,0c0,0-0.1,0-0.1,0
				c-0.3,0-0.6,0.1-0.8,0.1c-0.2,0-0.4,0.1-0.6,0.1c-0.5,0.1-0.9,0.2-1.1,0.2c-1.3,0.3-2.6,0.6-3.8,1c-0.8,0.2-1.4,0.4-2.2,0.7
				c-3.4,1.2-6.7,2.9-9.8,4.9c0,0,0,0,0,0l0,0c-0.3,0.2-0.6,0.4-0.9,0.6c0,0-0.1,0.1-0.1,0.1c-0.5,0.4-1,0.8-1.5,1.1
				c0,0-0.1,0.1-0.1,0.1l0,0c0,0,0,0,0,0c0,0,0,0-0.1,0c0,0,0,0,0,0c-0.1,0.1-0.3,0.2-0.4,0.3c-0.3,0.2-0.6,0.5-0.8,0.7
				c-0.1,0.1-0.3,0.3-0.4,0.4c-0.3,0.3-0.6,0.5-0.8,0.8c0,0,0,0,0,0l0,0c-0.1,0.1-0.1,0.1-0.2,0.2c-1.4,1.3-2.2,2.2-2.3,2.3
				c-0.4,0.5-0.9,0.9-1.3,1.4c-0.3,0.3-0.6,0.7-0.9,1.1c0,0,0,0.1-0.1,0.1l0,0.1c-0.6,0.8-1.3,1.7-2,2.7l0,0c0,0,0,0,0,0
				c0,0,0,0,0,0c-0.3,0.5-0.7,1-1,1.6c-0.3,0.5-0.6,1-0.8,1.4l-0.8,1.6c-0.3,0.5-0.5,1-0.8,1.5c-0.5,0.9-0.9,2.1-1.4,3.4
				c0,0,0,0,0,0l0,0c-0.4,1.1-0.8,2.3-1.1,3.4l0,0c0,0,0,0,0,0c-0.4,1.5-0.7,2.9-0.9,4c-0.6,4.1-0.6,4.5-0.7,7.2
				c0,3.4,0.3,5.9,0.5,7.1c0.5,3.4,1.3,6,1.6,6.8c1,3,1.8,4.8,2.6,6.5c0.5,1.1,0.9,1.8,1.4,2.6c0.6,1,1.3,2.1,2,3.1
				c0.1,0.1,0.2,0.2,0.2,0.4c0.7,1.1,1.8,2.4,2.6,3.3c0.6,0.7,1.5,1.6,2.1,2.3c0.7,0.7,1.6,1.5,2.3,2.1l0,0c0.8,0.7,1.1,1,1.9,1.5
				c0.9,0.7,1.8,1.4,2.8,2c0,0,0,0,0,0c0.3,0.2,0.6,0.4,0.9,0.6c0.4,0.2,0.7,0.4,1,0.6c0.2,0.1,0.4,0.2,0.7,0.4c0,0,0.1,0,0.1,0.1
				c0.3,0.2,0.6,0.3,1,0.5c0.1,0,0.2,0.1,0.2,0.1c1.1,0.6,2.4,1.2,3.9,1.8c0.3,0.1,0.8,0.3,1.3,0.5c0.2,0.1,0.3,0.1,0.5,0.2l0.8,0.3
				c0.2,0.1,0.4,0.1,0.6,0.2l0.2,0.1c0,0,0,0,0,0l0.3,0.1c0.1,0,0.4,0.1,0.5,0.2l0.5,0.1c0,0,0,0,0,0c1.9,0.5,3.8,0.9,5.5,1.2l0.2,0
				c0.1,0,0.3,0,0.5,0.1c0,0,0,0,0,0c0.2,0,0.3,0,0.4,0.1l1,0.1c0.4,0,1,0.1,1.5,0.1c0.4,0,0.9,0.1,1.4,0.1l0,0c0,0,0,0,0,0
				c0.2,0,0.5,0,0.7,0c0.6,0,1.4,0,2.1,0c0.6,0,1.5-0.1,2.1-0.1c1.3-0.1,3.1-0.3,4.4-0.6c1-0.2,2.4-0.5,3.4-0.7
				c0.3-0.1,0.5-0.2,0.8-0.2c0.8-0.2,1.6-0.5,2.3-0.7l0.8-0.3c0.6-0.2,1.3-0.5,1.9-0.7l0.3-0.1c0.7-0.3,1.6-0.7,2.5-1.1
				c0.3-0.2,0.7-0.3,1-0.5c0.9-0.5,2.1-1.1,2.9-1.7c0,0,0.1,0,0.1-0.1c0.8-0.5,1.5-1,2.3-1.5c0.2-0.1,0.3-0.2,0.5-0.3l0.8-0.6
				c0.2-0.2,0.4-0.3,0.6-0.5l1.2-1c0.5-0.4,1.3-1.1,2.5-2.4c0,0,0,0,0.1-0.1l0.1-0.1c0.6-0.7,1.4-1.4,2.2-2.4c0,0,0,0,0.1-0.1
				c0,0,0,0,0,0c0.8-0.9,2.2-2.7,3.7-5.1c0,0,0,0,0-0.1c0.3-0.6,0.7-1.1,1-1.8c0,0,0,0,0,0c0,0,0,0,0,0c0.1-0.3,0.3-0.5,0.4-0.8
				c0.2-0.4,0.4-0.8,0.6-1.1c0.1-0.1,0.1-0.2,0.2-0.3c0.3-0.6,0.6-1.2,0.9-1.8c0.4-0.9,0.8-1.8,1-2.5c0,0,0,0,0,0
				c0.5-1.3,0.9-2.7,1.3-4.2c0.2-0.9,0.5-1.8,0.6-2.6c0.2-0.9,0.3-1.8,0.4-2.8c0-0.2,0.1-0.4,0.1-0.6c0.1-1.3,0.2-2.6,0.3-4
				c0,0,0-0.1,0-0.1l0-0.1C683.7,370.5,683.6,369.4,683.6,368.3z"/>
			<g>
				<defs>
					<path id="SVGID_00000005964331229217383170000016229708812491915942_" d="M675.8,345.5L675.8,345.5
						C675.9,345.6,675.9,345.6,675.8,345.5C675.9,345.6,675.9,345.6,675.8,345.5c0.4,0.6,0.7,1.1,1.1,1.7c0.3,0.5,0.6,1,0.9,1.4
						l0.8,1.6c0.3,0.5,0.5,1,0.8,1.5c0.5,0.9,1,2.1,1.4,3.4c0,0,0,0,0,0l0,0c0.4,1.1,0.8,2.3,1.1,3.4l0,0c0,0,0,0,0,0
						c0.4,1.5,0.8,2.9,0.9,4c0.6,4.1,0.7,4.5,0.7,7.2c0.1,3.4-0.3,5.9-0.4,7.1c-0.5,3.4-1.3,6-1.5,6.9c-0.9,3-1.8,4.8-2.6,6.5
						c-0.5,1.1-0.9,1.8-1.4,2.7c-0.6,1-1.3,2.1-2,3.1c-0.1,0.1-0.2,0.2-0.2,0.4c-0.7,1.1-1.7,2.4-2.6,3.3c-0.6,0.7-1.5,1.6-2.1,2.3
						c-0.7,0.7-1.5,1.5-2.3,2.1l0,0c-0.8,0.7-1.1,1-1.8,1.5c-0.9,0.7-1.8,1.4-2.7,2c0,0,0,0,0,0c-0.3,0.2-0.6,0.4-0.9,0.6
						c-0.4,0.2-0.7,0.4-1,0.6c-0.2,0.1-0.4,0.2-0.7,0.4c0,0-0.1,0-0.1,0.1c-0.3,0.2-0.6,0.3-1,0.5c-0.1,0-0.2,0.1-0.2,0.1
						c-1.1,0.6-2.4,1.2-3.9,1.9c-0.3,0.1-0.8,0.3-1.3,0.5c-0.2,0.1-0.3,0.1-0.4,0.2l-0.8,0.3c-0.2,0.1-0.4,0.1-0.6,0.2l-0.2,0.1
						c0,0,0,0,0,0l-0.3,0.1c-0.1,0-0.3,0.1-0.5,0.2l-0.5,0.1c0,0,0,0,0,0c-1.9,0.6-3.7,1-5.5,1.2l-0.2,0c-0.1,0-0.3,0-0.5,0.1
						c0,0,0,0,0,0c-0.2,0-0.3,0-0.4,0.1l-1,0.1c-0.4,0-1,0.1-1.5,0.1c-0.4,0-0.9,0.1-1.4,0.1l0,0c0,0,0,0,0,0c-0.2,0-0.5,0-0.7,0
						c-0.6,0-1.4,0-2.1,0c-0.6,0-1.5-0.1-2.1-0.1c-1.3-0.1-3.1-0.3-4.5-0.5c-1-0.2-2.4-0.4-3.4-0.7c-0.3-0.1-0.5-0.1-0.8-0.2
						c-0.8-0.2-1.6-0.5-2.3-0.7l-0.8-0.3c-0.6-0.2-1.3-0.5-1.9-0.7l-0.3-0.1c-0.7-0.3-1.6-0.7-2.5-1.1c-0.3-0.2-0.7-0.3-1-0.5
						c-0.9-0.5-2.1-1.1-2.9-1.6c0,0-0.1,0-0.1-0.1c-0.8-0.5-1.5-1-2.3-1.5c-0.2-0.1-0.3-0.2-0.5-0.3l-0.8-0.6
						c-0.2-0.2-0.4-0.3-0.6-0.5l-1.2-1c-0.5-0.4-1.3-1.1-2.6-2.3c0,0,0,0-0.1-0.1l-0.1-0.1c-0.6-0.7-1.4-1.4-2.2-2.4
						c0,0,0,0-0.1-0.1c0,0,0,0,0,0c-0.8-0.9-2.2-2.6-3.8-5c0,0,0,0,0-0.1c-0.3-0.6-0.7-1.1-1.1-1.8c0,0,0,0,0,0c0,0,0,0,0,0
						c-0.2-0.3-0.3-0.5-0.5-0.8c-0.2-0.4-0.4-0.8-0.6-1.1c-0.1-0.1-0.1-0.2-0.2-0.3c-0.3-0.6-0.6-1.2-0.9-1.8
						c-0.4-0.9-0.8-1.8-1-2.5c0,0,0,0,0,0c-0.5-1.3-0.9-2.7-1.3-4.1c-0.2-0.9-0.5-1.8-0.6-2.6c-0.2-0.9-0.3-1.8-0.5-2.8
						c0-0.2-0.1-0.4-0.1-0.6c-0.2-1.3-0.3-2.6-0.3-4c0,0,0-0.1,0-0.1l0-0.1c0-1.1,0-2.2,0-3.3c0,0,0-0.1,0-0.1
						c0-0.2,0.1-1.4,0.3-3.2c0-0.2,0-0.3,0.1-0.5c0-0.2,0.1-0.5,0.1-0.7c0.9-5.9,2.9-11.4,5.9-16.3c0,0,0,0,0,0
						c0.3-0.5-2.6,4.9-2.3,4.4c0,0,3.3-5.9,3.3-6c1.7-2.5,3.6-4.8,5.7-7c1-1,2.2-2.1,3.3-3c0.7-0.6,1.5-1.1,2.2-1.7
						c0,0,0.1-0.1,0.1-0.1l0.1-0.1c0.1-0.1,0.3-0.2,0.4-0.3c0.5-0.3,1-0.7,1.6-1.1l0,0c0,0,0,0,0.1,0c0.3-0.2,0.6-0.3,0.9-0.5
						c0.1-0.1,0.3-0.2,0.4-0.2c0.1-0.1,0.2-0.1,0.3-0.2c0.1-0.1,0.2-0.1,0.3-0.2c1.7-1,3.6-1.8,5.5-2.6c0.5-0.2,0.9-0.3,1.1-0.4
						l0.3-0.1l0.3-0.1c0,0,0,0,0,0l0.1,0c0.2-0.1,0.4-0.1,0.6-0.2l0.1,0c0,0,0.1,0,0.1,0l0.4-0.1c0.1,0,0.4-0.1,0.5-0.2l0.4-0.1
						c0.1,0,0.2,0,0.2-0.1c0,0,0,0,0.1,0c0,0,0.1,0,0.1,0c0,0,0.1,0,0.1,0l0.5-0.1c0.1,0,0.3-0.1,0.4-0.1c0.1,0,0.3-0.1,0.4-0.1l0,0
						c0.1,0,0.2,0,0.2-0.1c0.1,0,0.3-0.1,0.5-0.1l0.3-0.1c0.1,0,0.3-0.1,0.4-0.1c0,0,0.1,0,0.1,0c0.1,0,0.2,0,0.3-0.1l0.2,0l0.2,0
						c0,0,0,0,0,0l0.1,0c0,0,0.1,0,0.1,0c0.1,0,0.2,0,0.4-0.1c0.1,0,0.2,0,0.2,0l0,0c0.1,0,0.3,0,0.4-0.1l0.3-0.1c0.1,0,0.1,0,0.2,0
						c0.1,0,0.2,0,0.3,0c0.1,0,0.2,0,0.3,0c0.2,0,0.3,0,0.5-0.1l0.5-0.1c0.1,0,0.1,0,0.2,0l0,0c0.1,0,0.3,0,0.4,0
						c0.2,0,0.4,0,0.6-0.1c0.2,0,0.3,0,0.4,0c0.2,0,0.3,0,0.5,0c0.2,0,0.3,0,0.5,0c0.1,0,0.2,0,0.3,0l0.3,0c0.1,0,0.1,0,0.2,0
						c0.1,0,0.2,0,0.2,0c0.9,0,1.8,0,2.7,0c0.2,0,0.4,0,0.6,0c0.2,0,0.4,0,0.6,0c0.1,0,0.2,0,0.4,0c0.3,0,0.6,0,0.9,0.1
						c0.1,0,0.2,0,0.3,0c0.4,0,0.8,0.1,1.2,0.1c0.2,0,0.4,0,0.5,0.1c0,0,0,0,0,0c0,0,0,0,0,0c0,0,0.1,0,0.1,0c0.3,0,0.6,0.1,0.8,0.1
						c0.2,0,0.4,0.1,0.6,0.1c0.5,0.1,0.9,0.2,1.1,0.2c1.3,0.3,2.6,0.6,3.8,0.9c0.8,0.2,1.4,0.4,2.3,0.7c3.5,1.2,6.8,2.8,9.9,4.9
						c0,0,0,0,0,0l0,0c0.3,0.2,0.6,0.4,0.9,0.6c0,0,0.1,0.1,0.1,0.1c0.5,0.4,1,0.7,1.6,1.1c0,0,0.1,0.1,0.1,0.1l0,0c0,0,0,0,0,0
						c0,0,0,0,0.1,0c0,0,0,0,0,0c0.1,0.1,0.3,0.2,0.4,0.3c0.3,0.2,0.6,0.4,0.8,0.7c0.1,0.1,0.3,0.2,0.4,0.4c0.3,0.3,0.6,0.5,0.9,0.7
						c0,0,0,0,0,0l0,0c0.1,0.1,0.1,0.1,0.2,0.2c1.4,1.3,2.2,2.2,2.3,2.3c0.4,0.5,0.9,0.9,1.3,1.4c0.3,0.3,0.6,0.7,0.9,1.1
						c0,0,0,0.1,0.1,0.1"/>
				</defs>
				<clipPath id="SVGID_00000000213342170832165760000001905879311437505929_">
					<use xlink:href="#SVGID_00000005964331229217383170000016229708812491915942_"  style="overflow:visible;"/>
				</clipPath>
				<g style="clip-path:url(#SVGID_00000000213342170832165760000001905879311437505929_);">
					
						<linearGradient id="SVGID_00000096751381623757187820000003218068595986262964_" gradientUnits="userSpaceOnUse" x1="680.5349" y1="205.381" x2="680.8696" y2="205.381" gradientTransform="matrix(1 2.200000e-03 -2.200000e-03 1 -0.148 146.0903)">
						<stop  offset="0" style="stop-color:#19B79C"/>
						<stop  offset="0.4049" style="stop-color:#1DBB9E"/>
						<stop  offset="0.8248" style="stop-color:#2AC8A3"/>
						<stop  offset="0.9971" style="stop-color:#31CFA6"/>
					</linearGradient>
					<path style="fill:url(#SVGID_00000096751381623757187820000003218068595986262964_);" d="M680.3,353.4
						c-0.1-0.3-0.2-0.6-0.3-0.8C680,352.8,680.2,353.1,680.3,353.4z"/>
					
						<linearGradient id="SVGID_00000024712832521610764900000014787197355480506043_" gradientUnits="userSpaceOnUse" x1="595.1005" y1="230.327" x2="595.2451" y2="230.327" gradientTransform="matrix(1 2.200000e-03 -2.200000e-03 1 -0.148 146.0903)">
						<stop  offset="0" style="stop-color:#19B79C"/>
						<stop  offset="0.4049" style="stop-color:#1DBB9E"/>
						<stop  offset="0.8248" style="stop-color:#2AC8A3"/>
						<stop  offset="0.9971" style="stop-color:#31CFA6"/>
					</linearGradient>
					<path style="fill:url(#SVGID_00000024712832521610764900000014787197355480506043_);" d="M594.6,378.1
						c-0.1-0.3-0.1-0.5-0.1-0.8C594.5,377.6,594.5,377.9,594.6,378.1z"/>
				</g>
				<g style="clip-path:url(#SVGID_00000000213342170832165760000001905879311437505929_);">
					<path class="st11" d="M669.9,352.8c0.8,0.6,2.6,2.5,2.4,6c0,0.2-0.1,0.5-0.1,0.7c1-4.2,3.6-2.2,4.5-0.6c1.3,2.2,1.1,4.5,1,5.3
						c0,0.2-0.1,0.5-0.1,0.8c0.9-3.7,2.3-1.9,2.5-1.7c0.2,0.2,1.5,2.2,1,6.2c-0.1,0.4-0.2,0.9-0.3,1.3c0.4-1.8,0.7-1.9,1.2-2
						c0.1,0.1,0.3,0.4,0.4,0.6c0,0,0,0,0,0c0.4,1.5,0.4,3.2,0,5.4c-1.7,8.6-6.1,17.5-12.7,25.1c-0.8,0.9-1.1,1-1.6,1
						c-2.2-1.4-5.6-3.8-10.1-7.5c-1.5-1.2-3.1-2.5-4.8-3.9c-0.4-0.4-0.4-0.4-1-4.4c-0.4-2.7-1.8-9.8-5.8-18.1c-1.6-1-3.2-2-4.9-2.9
						c-1.6-1.1-2.1-2.3-1.7-3.6c1.7-2.4,4.3-2.9,8-1.6c0.7,0.3,1.5,0.7,2.2,1c5.1,2.7,7.6,5,10.2,9.8c2.4-5.1,4-10.3,4.7-15.4
						C665.8,350.6,668.9,352,669.9,352.8"/>
					<path class="st19" d="M667.1,403.8c0.1,0.2,0.3,0.5-1,1.7c-0.6,0.6-1.2,1.1-1.9,1.7c-1.9,1.6-3.7,3-5.7,4.2
						c-1.2,0.7-2.1,1.1-2.8,1.2c-3.5,0.2-8-1.8-13.4-6.1c-1.5-1.2-3.1-2.6-4.6-4.1c-0.8-1-0.7-2,0.5-2.9c2.3-1.5,4.5-3.1,6.8-5
						c0.8-0.6,1.5-1.3,2.3-2c1.3-1,2.5-1.2,3.7-0.4c1.6,1.4,3.2,2.7,4.8,4C661.2,400.4,665,402.9,667.1,403.8"/>
				</g>
				<g style="opacity:0.8;clip-path:url(#SVGID_00000000213342170832165760000001905879311437505929_);">
					
						<image style="overflow:visible;" width="923" height="880" xlink:href="43370005528AAE2.png"  transform="matrix(0.24 0 0 0.24 538.3273 283.8777)">
					</image>
				</g>
				<g style="clip-path:url(#SVGID_00000000213342170832165760000001905879311437505929_);">
					<g>
						
							<image style="overflow:visible;" width="879" height="831" xlink:href="43370005528AAE0.png"  transform="matrix(0.24 0 0 0.24 517.2073 248.1176)">
						</image>
					</g>
					<g class="st14">
						
							<image style="overflow:visible;" width="710" height="702" xlink:href="43370005528AAFC.png"  transform="matrix(0.24 0 0 0.24 576.4874 262.7577)">
						</image>
					</g>
				</g>
			</g>
		</g>
	</g>
	<g>
		<g>
			
				<radialGradient id="SVGID_00000096737597977879552380000000084003502801586843_" cx="447.8053" cy="-75.3197" r="30.5677" gradientTransform="matrix(1 -4.000000e-03 4.000000e-03 1 12.6462 133.7931)" gradientUnits="userSpaceOnUse">
				<stop  offset="0" style="stop-color:#4A90ED"/>
				<stop  offset="0.1964" style="stop-color:#4996EE"/>
				<stop  offset="0.4456" style="stop-color:#48A5F0"/>
				<stop  offset="0.6935" style="stop-color:#46BCF4"/>
				<stop  offset="0.805" style="stop-color:#55C7FA"/>
				<stop  offset="0.8796" style="stop-color:#62D0FF"/>
				<stop  offset="1" style="stop-color:#BBEAFF"/>
			</radialGradient>
			<path style="fill:url(#SVGID_00000096737597977879552380000000084003502801586843_);" d="M485.2,50.9
				C485.2,50.9,485.2,50.9,485.2,50.9c0-0.2,0-0.9-0.2-2c0-0.1,0-0.2,0-0.3c0-0.1,0-0.3-0.1-0.4c-0.6-3.5-1.8-6.8-3.6-9.7
				c0,0,0,0,0,0c-0.2-0.3-0.4-0.6-0.6-0.9c0,0,0,0,0,0c-1-1.5-2.1-2.9-3.4-4.1c-0.6-0.6-1.3-1.3-2-1.8c-0.4-0.3-0.9-0.7-1.3-1
				c0,0,0,0-0.1-0.1l-0.1,0c-0.1-0.1-0.2-0.1-0.2-0.2c-0.3-0.2-0.6-0.4-1-0.6l0,0c0,0,0,0,0,0c-0.2-0.1-0.3-0.2-0.5-0.3
				c-0.1,0-0.2-0.1-0.2-0.1c-0.1,0-0.1-0.1-0.2-0.1c-0.1,0-0.1-0.1-0.2-0.1c-1-0.6-2.1-1.1-3.3-1.5c-0.3-0.1-0.5-0.2-0.6-0.2
				l-0.2-0.1l-0.2-0.1c0,0,0,0,0,0l0,0c-0.1,0-0.2-0.1-0.3-0.1l0,0c0,0,0,0,0,0l-0.2-0.1c-0.1,0-0.2-0.1-0.3-0.1l-0.3-0.1
				c0,0-0.1,0-0.1,0c0,0,0,0,0,0c0,0,0,0-0.1,0c0,0-0.1,0-0.1,0l-0.3-0.1c-0.1,0-0.2,0-0.2-0.1c-0.1,0-0.2,0-0.2-0.1l0,0
				c0,0-0.1,0-0.1,0c-0.1,0-0.2,0-0.3-0.1l-0.2,0c-0.1,0-0.2,0-0.3-0.1c0,0,0,0,0,0c-0.1,0-0.1,0-0.2,0l-0.1,0l-0.1,0c0,0,0,0,0,0
				l0,0c0,0-0.1,0-0.1,0c-0.1,0-0.1,0-0.2,0c0,0-0.1,0-0.1,0l0,0c-0.1,0-0.2,0-0.2,0l-0.2,0c0,0-0.1,0-0.1,0c-0.1,0-0.1,0-0.2,0
				c-0.1,0-0.1,0-0.2,0c-0.1,0-0.2,0-0.3,0l-0.3,0c0,0-0.1,0-0.1,0l0,0c-0.1,0-0.2,0-0.3,0c-0.1,0-0.2,0-0.4,0c-0.1,0-0.2,0-0.3,0
				c-0.1,0-0.2,0-0.3,0c-0.1,0-0.2,0-0.3,0c-0.1,0-0.1,0-0.2,0l-0.2,0c0,0-0.1,0-0.1,0c0,0-0.1,0-0.1,0c-0.5,0-1.1,0-1.6,0
				c-0.1,0-0.2,0-0.3,0c-0.1,0-0.2,0-0.4,0c-0.1,0-0.1,0-0.2,0c-0.2,0-0.3,0-0.5,0c-0.1,0-0.1,0-0.2,0c-0.2,0-0.5,0.1-0.7,0.1
				c-0.1,0-0.2,0-0.3,0c0,0,0,0,0,0c0,0,0,0,0,0c0,0,0,0-0.1,0c-0.2,0-0.3,0.1-0.5,0.1c-0.1,0-0.3,0-0.4,0.1
				c-0.3,0.1-0.5,0.1-0.7,0.1c-0.8,0.2-1.5,0.3-2.3,0.6c-0.4,0.1-0.8,0.3-1.3,0.4c-2.1,0.7-4,1.7-5.9,2.9c0,0,0,0,0,0l0,0
				c-0.2,0.1-0.4,0.2-0.5,0.4c0,0,0,0-0.1,0.1c-0.3,0.2-0.6,0.4-0.9,0.7c0,0,0,0-0.1,0.1l0,0c0,0,0,0,0,0c0,0,0,0,0,0c0,0,0,0,0,0
				c-0.1,0.1-0.2,0.1-0.2,0.2c-0.2,0.1-0.3,0.3-0.5,0.4c-0.1,0.1-0.2,0.2-0.3,0.2c-0.2,0.2-0.3,0.3-0.5,0.5c0,0,0,0,0,0l0,0
				c0,0-0.1,0.1-0.1,0.1c-0.8,0.8-1.3,1.3-1.4,1.4c-0.3,0.3-0.5,0.6-0.8,0.9c-0.2,0.2-0.4,0.4-0.5,0.7c0,0,0,0,0,0l0,0
				c-0.4,0.5-0.8,1-1.2,1.6l0,0c0,0,0,0,0,0c0,0,0,0,0,0c-0.2,0.3-0.4,0.6-0.6,1c-0.2,0.3-0.3,0.6-0.5,0.8l-0.5,1
				c-0.2,0.3-0.3,0.6-0.5,0.9c-0.3,0.5-0.6,1.3-0.8,2c0,0,0,0,0,0l0,0c-0.2,0.7-0.5,1.4-0.6,2l0,0c0,0,0,0,0,0
				c-0.2,0.9-0.4,1.7-0.5,2.4c-0.4,2.5-0.4,2.7-0.4,4.3c0,2.1,0.2,3.5,0.3,4.2c0.3,2,0.8,3.6,0.9,4.1c0.6,1.8,1.1,2.9,1.6,3.9
				c0.3,0.6,0.5,1.1,0.8,1.6c0.4,0.6,0.8,1.2,1.2,1.8c0,0.1,0.1,0.1,0.1,0.2c0.4,0.6,1,1.4,1.6,2c0.4,0.4,0.9,1,1.3,1.4
				c0.4,0.4,0.9,0.9,1.4,1.3l0,0c0.5,0.4,0.7,0.6,1.1,0.9c0.5,0.4,1.1,0.8,1.6,1.2c0,0,0,0,0,0c0.2,0.1,0.4,0.2,0.5,0.3
				c0.2,0.1,0.4,0.3,0.6,0.4c0.1,0.1,0.2,0.1,0.4,0.2c0,0,0,0,0.1,0c0.2,0.1,0.4,0.2,0.6,0.3c0,0,0.1,0,0.1,0.1
				c0.6,0.3,1.5,0.7,2.4,1.1c0.2,0.1,0.5,0.2,0.8,0.3c0.1,0,0.2,0.1,0.3,0.1l0.5,0.2c0.1,0,0.2,0.1,0.3,0.1l0.1,0c0,0,0,0,0,0
				l0.2,0.1c0.1,0,0.2,0.1,0.3,0.1l0.3,0.1c0,0,0,0,0,0c1.1,0.3,2.2,0.6,3.3,0.7l0.1,0c0.1,0,0.2,0,0.3,0c0,0,0,0,0,0
				c0.1,0,0.2,0,0.3,0l0.6,0.1c0.3,0,0.6,0.1,0.9,0.1c0.2,0,0.5,0,0.8,0l0,0c0,0,0,0,0,0c0.1,0,0.3,0,0.4,0c0.4,0,0.9,0,1.2,0
				c0.4,0,0.9,0,1.3-0.1c0.8-0.1,1.9-0.2,2.6-0.3c0.6-0.1,1.4-0.3,2-0.4c0.2,0,0.3-0.1,0.5-0.1c0.5-0.1,1-0.3,1.4-0.4l0.5-0.2
				c0.4-0.1,0.8-0.3,1.1-0.4l0.2-0.1c0.4-0.2,1-0.4,1.5-0.7c0.2-0.1,0.4-0.2,0.6-0.3c0.5-0.3,1.2-0.7,1.7-1c0,0,0,0,0.1,0
				c0.5-0.3,0.9-0.6,1.3-0.9c0.1-0.1,0.2-0.1,0.3-0.2l0.5-0.4c0.1-0.1,0.3-0.2,0.4-0.3l0.7-0.6c0.3-0.2,0.8-0.7,1.5-1.4c0,0,0,0,0,0
				l0.1-0.1c0.4-0.4,0.8-0.9,1.3-1.4c0,0,0,0,0,0c0,0,0,0,0,0c0.5-0.6,1.3-1.6,2.2-3c0,0,0,0,0,0c0.2-0.3,0.4-0.7,0.6-1.1
				c0,0,0,0,0,0c0,0,0,0,0,0c0.1-0.2,0.2-0.3,0.3-0.5c0.1-0.2,0.2-0.5,0.3-0.7c0-0.1,0.1-0.1,0.1-0.2c0.2-0.4,0.3-0.7,0.5-1.1
				c0.2-0.5,0.4-1,0.6-1.5c0,0,0,0,0,0c0.3-0.8,0.5-1.6,0.8-2.5c0.1-0.5,0.3-1.1,0.4-1.6c0.1-0.5,0.2-1.1,0.3-1.7c0-0.1,0-0.3,0-0.4
				c0.1-0.8,0.1-1.6,0.2-2.4c0,0,0-0.1,0-0.1l0-0.1C485.2,52.3,485.2,51.6,485.2,50.9z"/>
			<g>
				<defs>
					<path id="SVGID_00000121260455039957230810000003426314281179293876_" d="M480.6,37.4L480.6,37.4
						C480.6,37.4,480.6,37.4,480.6,37.4C480.6,37.4,480.6,37.4,480.6,37.4c0.2,0.3,0.4,0.7,0.6,1c0.2,0.3,0.4,0.6,0.5,0.8l0.5,1
						c0.2,0.3,0.3,0.6,0.5,0.9c0.3,0.5,0.6,1.3,0.8,2c0,0,0,0,0,0l0,0c0.2,0.7,0.5,1.4,0.7,2l0,0c0,0,0,0,0,0
						c0.3,0.9,0.5,1.7,0.6,2.4c0.4,2.5,0.4,2.7,0.4,4.3c0,2.1-0.2,3.5-0.2,4.2c-0.3,2-0.7,3.6-0.9,4.1c-0.6,1.8-1.1,2.9-1.5,3.9
						c-0.3,0.6-0.5,1.1-0.8,1.6c-0.4,0.6-0.8,1.2-1.2,1.8c0,0.1-0.1,0.1-0.1,0.2c-0.4,0.6-1,1.4-1.5,2c-0.4,0.4-0.9,1-1.3,1.4
						c-0.4,0.4-0.9,0.9-1.3,1.3l0,0c-0.5,0.4-0.7,0.6-1.1,0.9c-0.5,0.4-1.1,0.8-1.6,1.2c0,0,0,0,0,0c-0.2,0.1-0.4,0.2-0.5,0.4
						c-0.2,0.1-0.4,0.3-0.6,0.4c-0.1,0.1-0.2,0.1-0.4,0.2c0,0,0,0-0.1,0c-0.2,0.1-0.4,0.2-0.6,0.3c0,0-0.1,0.1-0.1,0.1
						c-0.6,0.3-1.4,0.7-2.3,1.1c-0.2,0.1-0.5,0.2-0.8,0.3c-0.1,0-0.2,0.1-0.3,0.1l-0.5,0.2c-0.1,0-0.2,0.1-0.3,0.1l-0.1,0
						c0,0,0,0,0,0l-0.2,0.1c-0.1,0-0.2,0.1-0.3,0.1l-0.3,0.1c0,0,0,0,0,0c-1.1,0.3-2.2,0.6-3.3,0.7l-0.1,0c-0.1,0-0.2,0-0.3,0
						c0,0,0,0,0,0c-0.1,0-0.2,0-0.3,0l-0.6,0.1c-0.3,0-0.6,0.1-0.9,0.1c-0.2,0-0.5,0-0.8,0l0,0c0,0,0,0,0,0c-0.1,0-0.3,0-0.4,0
						c-0.4,0-0.9,0-1.2,0c-0.4,0-0.9,0-1.3-0.1c-0.8-0.1-1.9-0.2-2.7-0.3c-0.6-0.1-1.4-0.3-2-0.4c-0.2,0-0.3-0.1-0.5-0.1
						c-0.5-0.1-1-0.3-1.4-0.4l-0.5-0.2c-0.4-0.1-0.8-0.3-1.1-0.4l-0.2-0.1c-0.4-0.2-1-0.4-1.5-0.7c-0.2-0.1-0.4-0.2-0.6-0.3
						c-0.6-0.3-1.2-0.6-1.7-1c0,0,0,0-0.1,0c-0.5-0.3-0.9-0.6-1.3-0.9c-0.1-0.1-0.2-0.1-0.3-0.2l-0.5-0.4c-0.1-0.1-0.3-0.2-0.4-0.3
						l-0.7-0.6c-0.3-0.2-0.8-0.6-1.5-1.4c0,0,0,0,0,0l-0.1-0.1c-0.4-0.4-0.8-0.9-1.3-1.4c0,0,0,0,0,0c0,0,0,0,0,0
						c-0.5-0.6-1.3-1.6-2.2-3c0,0,0,0,0,0c-0.2-0.3-0.4-0.7-0.6-1c0,0,0,0,0,0c0,0,0,0,0,0c-0.1-0.2-0.2-0.3-0.3-0.5
						c-0.1-0.2-0.2-0.5-0.3-0.7c0-0.1-0.1-0.1-0.1-0.2c-0.2-0.4-0.3-0.7-0.5-1.1c-0.2-0.5-0.5-1-0.6-1.5c0,0,0,0,0,0
						c-0.3-0.8-0.6-1.6-0.8-2.5c-0.1-0.5-0.3-1.1-0.4-1.6c-0.1-0.5-0.2-1.1-0.3-1.7c0-0.1,0-0.3-0.1-0.4c-0.1-0.8-0.2-1.6-0.2-2.4
						c0,0,0-0.1,0-0.1l0-0.1c0-0.6,0-1.3,0-2c0,0,0,0,0-0.1c0-0.1,0-0.9,0.2-1.9c0-0.1,0-0.2,0-0.3c0-0.1,0-0.3,0.1-0.4
						c0.5-3.5,1.7-6.8,3.5-9.7c0,0,0,0,0,0c0.2-0.3-1.6,2.9-1.4,2.6c0,0,2-3.5,2-3.5c1-1.5,2.1-2.9,3.4-4.1c0.6-0.6,1.3-1.3,2-1.8
						c0.4-0.3,0.9-0.7,1.3-1c0,0,0,0,0.1-0.1l0.1,0c0.1-0.1,0.2-0.1,0.2-0.2c0.3-0.2,0.6-0.4,0.9-0.6l0,0c0,0,0,0,0,0
						c0.2-0.1,0.3-0.2,0.5-0.3c0.1,0,0.2-0.1,0.2-0.1c0.1,0,0.1-0.1,0.2-0.1c0.1,0,0.1-0.1,0.2-0.1c1-0.6,2.1-1.1,3.3-1.5
						c0.3-0.1,0.5-0.2,0.6-0.3l0.2-0.1l0.2-0.1c0,0,0,0,0,0l0,0c0.1,0,0.2-0.1,0.3-0.1l0,0c0,0,0,0,0,0l0.2-0.1
						c0.1,0,0.2-0.1,0.3-0.1l0.3-0.1c0,0,0.1,0,0.1,0c0,0,0,0,0,0c0,0,0,0,0.1,0c0,0,0.1,0,0.1,0l0.3-0.1c0.1,0,0.2,0,0.2-0.1
						c0.1,0,0.2,0,0.2-0.1l0,0c0,0,0.1,0,0.1,0c0.1,0,0.2,0,0.3-0.1l0.2,0c0.1,0,0.2,0,0.3-0.1c0,0,0,0,0,0c0.1,0,0.1,0,0.2,0l0.1,0
						l0.1,0c0,0,0,0,0,0l0,0c0,0,0.1,0,0.1,0c0.1,0,0.1,0,0.2,0c0,0,0.1,0,0.1,0l0,0c0.1,0,0.2,0,0.2,0l0.2,0c0,0,0.1,0,0.1,0
						c0.1,0,0.1,0,0.2,0c0.1,0,0.1,0,0.2,0c0.1,0,0.2,0,0.3,0l0.3,0c0,0,0.1,0,0.1,0l0,0c0.1,0,0.2,0,0.3,0c0.1,0,0.2,0,0.4,0
						c0.1,0,0.2,0,0.3,0c0.1,0,0.2,0,0.3,0c0.1,0,0.2,0,0.3,0c0.1,0,0.1,0,0.2,0l0.2,0c0,0,0.1,0,0.1,0c0,0,0.1,0,0.1,0
						c0.5,0,1.1,0,1.6,0c0.1,0,0.2,0,0.3,0c0.1,0,0.2,0,0.4,0c0.1,0,0.1,0,0.2,0c0.2,0,0.3,0,0.5,0c0.1,0,0.1,0,0.2,0
						c0.2,0,0.5,0,0.7,0.1c0.1,0,0.2,0,0.3,0c0,0,0,0,0,0c0,0,0,0,0,0c0,0,0,0,0.1,0c0.2,0,0.3,0,0.5,0.1c0.1,0,0.3,0,0.4,0.1
						c0.3,0,0.5,0.1,0.7,0.1c0.8,0.1,1.5,0.3,2.3,0.6c0.5,0.1,0.8,0.2,1.3,0.4c2.1,0.7,4,1.7,5.9,2.9c0,0,0,0,0,0l0,0
						c0.2,0.1,0.4,0.2,0.5,0.4c0,0,0,0,0.1,0c0.3,0.2,0.6,0.4,0.9,0.7c0,0,0,0,0.1,0.1l0,0c0,0,0,0,0,0c0,0,0,0,0,0c0,0,0,0,0,0
						c0.1,0.1,0.2,0.1,0.2,0.2c0.2,0.1,0.3,0.3,0.5,0.4c0.1,0.1,0.2,0.1,0.3,0.2c0.2,0.2,0.3,0.3,0.5,0.4c0,0,0,0,0,0l0,0
						c0,0,0.1,0.1,0.1,0.1c0.8,0.8,1.3,1.3,1.4,1.4c0.3,0.3,0.5,0.6,0.8,0.9c0.2,0.2,0.4,0.4,0.6,0.7c0,0,0,0,0,0"/>
				</defs>
				<clipPath id="SVGID_00000047025126989723509270000015429445666547820726_">
					<use xlink:href="#SVGID_00000121260455039957230810000003426314281179293876_"  style="overflow:visible;"/>
				</clipPath>
				<g style="clip-path:url(#SVGID_00000047025126989723509270000015429445666547820726_);">
					<path class="st11" d="M468.9,50.9c-0.4,0.5-1.5,1.7-3.5,1c-0.1-0.1-0.3-0.1-0.4-0.2c3,1.9,1,5.3-1.1,5.6
						c-0.7,0.1-1.2-0.1-1.6-0.2c-0.1-0.1-0.3-0.1-0.4-0.2c2.6,1.7,1.1,4.7-1.1,5c-0.6,0.1-1.1-0.1-1.5-0.2c-0.3-0.1-0.5-0.3-0.8-0.4
						c1.2,0.8,1.5,1.8,0.9,3.1c0,0,0,0,0,0c-0.9,1.1-1.9,1.4-3.1,1c-5-2.5-10.3-5.1-14.7-7.2c-0.5-0.3-0.7-0.8-0.6-1.4
						c0.7-4,2.1-8.2,4.1-12.4c0.7-1.4,1.4-2.8,2.2-4.1c0.5-0.6,4.7-2.7,13.1-5.9c0.6-0.7,1.1-1.5,1.7-2.1c0.6-0.6,1.3-0.8,2.1-0.5
						c0.9,0.6,2,1.6,0.9,3.7c-0.2,0.3-0.4,0.7-0.6,1c-1.6,2.5-2.9,3.9-5.7,5.5c3,1.5,6,3,9,4.5C470.6,48.1,468.9,50.9,468.9,50.9"/>
					<path class="st23" d="M439.4,58.4c-0.1,0.8-0.4,1.1-1,0.9c-0.3-0.2-0.6-0.3-1-0.5c-0.9-0.4-1.7-0.8-2.4-1.2
						c-0.4-0.3-0.6-0.9-0.7-1.8c-0.2-5,0.9-10.3,3.3-15.2c0.7-1.4,1.5-2.7,2.3-4c0.6-0.8,1.1-1.1,1.7-0.9c0.8,0.4,1.8,0.9,2.9,1.4
						c0.4,0.2,0.8,0.4,1.1,0.6c0.6,0.4,0.7,1,0.2,1.8c-0.8,1.3-1.6,2.6-2.3,4C441.2,48.5,439.8,53.6,439.4,58.4"/>
				</g>
				<g style="opacity:0.8;clip-path:url(#SVGID_00000047025126989723509270000015429445666547820726_);">
					
						<image style="overflow:visible;" width="793" height="767" xlink:href="43370005528AAFD.png"  transform="matrix(0.24 0 0 0.24 369.56 -28.56)">
					</image>
				</g>
				<g style="clip-path:url(#SVGID_00000047025126989723509270000015429445666547820726_);">
					<g>
						
							<image style="overflow:visible;" width="767" height="737" xlink:href="43370005528AAFE.png"  transform="matrix(0.24 0 0 0.24 356.84 -49.68)">
						</image>
					</g>
					<g class="st14">
						
							<image style="overflow:visible;" width="665" height="661" xlink:href="43370005528AAFF.png"  transform="matrix(0.24 0 0 0.24 392.36 -41.04)">
						</image>
					</g>
				</g>
			</g>
		</g>
	</g>
	<g>
		<g>
			
				<radialGradient id="SVGID_00000180366093466761816480000012580552669436233094_" cx="242.3433" cy="-49.0419" r="24.8222" gradientTransform="matrix(0.8502 0.5265 -0.5265 0.8502 -0.862 18.0891)" gradientUnits="userSpaceOnUse">
				<stop  offset="0" style="stop-color:#7C3AED"/>
				<stop  offset="0.42" style="stop-color:#8238EC"/>
				<stop  offset="0.9532" style="stop-color:#9134EA"/>
				<stop  offset="1" style="stop-color:#9333EA"/>
			</radialGradient>
			<path style="fill:url(#SVGID_00000180366093466761816480000012580552669436233094_);" d="M250.7,110.8
				C250.7,110.8,250.7,110.8,250.7,110.8c0.1-0.1,0.4-0.7,0.7-1.5c0-0.1,0.1-0.1,0.1-0.2c0-0.1,0.1-0.2,0.1-0.3
				c1.1-2.6,1.7-5.4,1.7-8.2c0,0,0,0,0,0c0-0.3,0-0.6,0-0.9c0,0,0,0,0,0c0-1.5-0.2-2.9-0.6-4.3c-0.2-0.7-0.4-1.4-0.6-2.1
				c-0.1-0.4-0.3-0.8-0.5-1.3c0,0,0,0,0-0.1l0-0.1c0-0.1-0.1-0.1-0.1-0.2c-0.1-0.3-0.2-0.5-0.4-0.8l0,0c0,0,0,0,0,0
				c-0.1-0.1-0.1-0.3-0.2-0.4c0-0.1-0.1-0.1-0.1-0.2c0-0.1-0.1-0.1-0.1-0.2c0,0-0.1-0.1-0.1-0.1c-0.5-0.8-1-1.7-1.6-2.5
				c-0.2-0.2-0.3-0.4-0.3-0.4l-0.1-0.1l-0.1-0.1c0,0,0,0,0,0l0,0c-0.1-0.1-0.1-0.2-0.2-0.2l0,0c0,0,0,0,0,0l-0.1-0.1
				c0-0.1-0.1-0.1-0.2-0.2l-0.1-0.2c0,0-0.1-0.1-0.1-0.1c0,0,0,0,0,0c0,0,0,0,0,0c0,0,0,0,0-0.1l-0.2-0.2c0,0-0.1-0.1-0.1-0.1
				c0,0-0.1-0.1-0.1-0.1l0,0c0,0-0.1-0.1-0.1-0.1c-0.1-0.1-0.1-0.1-0.2-0.2l-0.1-0.1c-0.1-0.1-0.1-0.1-0.2-0.2c0,0,0,0,0,0
				c0,0-0.1-0.1-0.1-0.1l-0.1-0.1l-0.1-0.1c0,0,0,0,0,0l0,0c0,0,0,0,0,0c0,0-0.1-0.1-0.1-0.1c0,0-0.1-0.1-0.1-0.1l0,0
				c0,0-0.1-0.1-0.1-0.1l-0.1-0.1c0,0-0.1,0-0.1-0.1c0,0-0.1-0.1-0.1-0.1c0,0-0.1-0.1-0.1-0.1c-0.1-0.1-0.1-0.1-0.2-0.2l-0.2-0.1
				c0,0,0,0-0.1,0l0,0c-0.1,0-0.1-0.1-0.2-0.1c-0.1-0.1-0.2-0.1-0.2-0.2c-0.1,0-0.1-0.1-0.2-0.1c-0.1,0-0.1-0.1-0.2-0.1
				c-0.1,0-0.1-0.1-0.2-0.1c0,0-0.1-0.1-0.1-0.1l-0.1-0.1c0,0-0.1,0-0.1-0.1c0,0-0.1,0-0.1-0.1c-0.4-0.2-0.7-0.5-1.1-0.7
				c-0.1,0-0.2-0.1-0.2-0.1c-0.1,0-0.2-0.1-0.3-0.1c-0.1,0-0.1-0.1-0.2-0.1c-0.1-0.1-0.2-0.1-0.4-0.2c0,0-0.1,0-0.1-0.1
				c-0.2-0.1-0.4-0.2-0.5-0.2c-0.1,0-0.2-0.1-0.2-0.1c0,0,0,0,0,0c0,0,0,0,0,0c0,0,0,0-0.1,0c-0.1-0.1-0.3-0.1-0.4-0.2
				c-0.1,0-0.2-0.1-0.3-0.1c-0.2-0.1-0.4-0.2-0.5-0.2c-0.6-0.2-1.2-0.4-1.8-0.6c-0.4-0.1-0.7-0.2-1.1-0.3c-1.7-0.4-3.5-0.5-5.3-0.5
				c0,0,0,0,0,0l0,0c-0.2,0-0.4,0-0.5,0c0,0,0,0-0.1,0c-0.3,0-0.6,0-0.9,0.1c0,0,0,0-0.1,0l0,0c0,0,0,0,0,0c0,0,0,0,0,0c0,0,0,0,0,0
				c-0.1,0-0.2,0-0.3,0c-0.2,0-0.3,0-0.5,0.1c-0.1,0-0.2,0-0.3,0c-0.2,0-0.4,0.1-0.5,0.1c0,0,0,0,0,0l0,0c0,0-0.1,0-0.1,0
				c-0.9,0.2-1.5,0.3-1.5,0.4c-0.3,0.1-0.6,0.2-0.9,0.3c-0.2,0.1-0.4,0.1-0.7,0.2c0,0,0,0,0,0l0,0c-0.5,0.2-1,0.4-1.5,0.6l0,0
				c0,0,0,0,0,0c0,0,0,0,0,0c-0.3,0.1-0.5,0.3-0.8,0.4c-0.2,0.1-0.5,0.3-0.7,0.4l-0.8,0.5c-0.3,0.1-0.5,0.3-0.7,0.4
				c-0.4,0.3-0.9,0.6-1.4,1c0,0,0,0,0,0l0,0c-0.4,0.4-0.9,0.7-1.3,1.1l0,0c0,0,0,0,0,0c-0.5,0.5-1,1-1.4,1.4
				c-1.3,1.5-1.4,1.7-2.1,2.8c-0.9,1.4-1.4,2.5-1.6,3c-0.7,1.5-1,2.8-1.1,3.2c-0.4,1.5-0.5,2.4-0.6,3.3c-0.1,0.6-0.1,1-0.1,1.4
				c0,0.6,0,1.2,0,1.8c0,0.1,0,0.1,0,0.2c0,0.6,0.1,1.4,0.2,2c0.1,0.4,0.2,1,0.3,1.5c0.1,0.4,0.2,1,0.4,1.5l0,0
				c0.1,0.5,0.2,0.7,0.4,1.1c0.2,0.5,0.4,1,0.6,1.5c0,0,0,0,0,0c0.1,0.2,0.1,0.3,0.2,0.5c0.1,0.2,0.2,0.4,0.3,0.5
				c0,0.1,0.1,0.2,0.2,0.3c0,0,0,0,0,0.1c0.1,0.1,0.2,0.3,0.3,0.5c0,0,0,0.1,0.1,0.1c0.3,0.5,0.7,1.1,1.2,1.8
				c0.1,0.1,0.2,0.3,0.4,0.5c0,0.1,0.1,0.1,0.1,0.2l0.3,0.3c0.1,0.1,0.1,0.2,0.2,0.2l0.1,0.1c0,0,0,0,0,0l0.1,0.1
				c0,0.1,0.1,0.1,0.2,0.2l0.2,0.2c0,0,0,0,0,0c0.6,0.7,1.3,1.3,2,1.9l0.1,0.1c0.1,0,0.1,0.1,0.2,0.2c0,0,0,0,0,0
				c0.1,0,0.1,0.1,0.2,0.1l0.4,0.3c0.2,0.1,0.4,0.3,0.6,0.4c0.2,0.1,0.4,0.3,0.5,0.4l0,0c0,0,0,0,0,0c0.1,0.1,0.2,0.1,0.3,0.2
				c0.2,0.2,0.6,0.4,0.8,0.5c0.3,0.2,0.6,0.3,0.9,0.5c0.6,0.3,1.4,0.7,2,0.9c0.5,0.2,1.1,0.4,1.6,0.6c0.1,0,0.3,0.1,0.4,0.1
				c0.4,0.1,0.8,0.2,1.1,0.3l0.4,0.1c0.3,0.1,0.6,0.1,1,0.2l0.2,0c0.4,0.1,0.9,0.1,1.3,0.2c0.2,0,0.4,0,0.6,0c0.5,0,1.1,0.1,1.6,0.1
				c0,0,0,0,0.1,0c0.4,0,0.9,0,1.3,0c0.1,0,0.2,0,0.3,0l0.5-0.1c0.1,0,0.3,0,0.4,0l0.7-0.1c0.3,0,0.8-0.1,1.6-0.3c0,0,0,0,0,0l0.1,0
				c0.4-0.1,0.9-0.2,1.5-0.4c0,0,0,0,0,0c0,0,0,0,0,0c0.6-0.2,1.6-0.5,2.8-1.1c0,0,0,0,0,0c0.3-0.1,0.6-0.3,0.9-0.5c0,0,0,0,0,0
				c0,0,0,0,0,0c0.1-0.1,0.3-0.1,0.4-0.2c0.2-0.1,0.4-0.2,0.5-0.3c0,0,0.1-0.1,0.2-0.1c0.3-0.2,0.5-0.3,0.8-0.5
				c0.4-0.3,0.8-0.5,1.1-0.8c0,0,0,0,0,0c0.5-0.4,1.1-0.9,1.6-1.4c0.3-0.3,0.6-0.6,0.9-0.9c0.3-0.3,0.6-0.7,0.9-1
				c0.1-0.1,0.1-0.2,0.2-0.2c0.4-0.5,0.8-1,1.1-1.6c0,0,0,0,0-0.1l0,0C250.2,111.8,250.4,111.3,250.7,110.8z"/>
			<g>
				<defs>
					<path id="SVGID_00000121998468389560742680000007970719678958493318_" d="M253.4,99.5L253.4,99.5
						C253.4,99.5,253.4,99.5,253.4,99.5C253.4,99.5,253.4,99.5,253.4,99.5c0,0.3,0,0.6,0,1c0,0.3,0,0.6,0,0.8l-0.1,0.9
						c0,0.3,0,0.6-0.1,0.8c0,0.5-0.1,1.1-0.3,1.8c0,0,0,0,0,0l0,0c-0.1,0.6-0.3,1.1-0.4,1.7l0,0c0,0,0,0,0,0
						c-0.2,0.7-0.4,1.4-0.6,1.9c-0.8,1.9-0.9,2-1.5,3.1c-0.9,1.4-1.6,2.4-2,2.8c-1.1,1.3-2.1,2.1-2.4,2.4c-1.2,1-2,1.5-2.7,2
						c-0.5,0.3-0.8,0.5-1.2,0.7c-0.5,0.3-1,0.5-1.6,0.8c-0.1,0-0.1,0.1-0.2,0.1c-0.6,0.3-1.3,0.5-1.9,0.7c-0.4,0.1-1,0.3-1.5,0.4
						c-0.4,0.1-1,0.2-1.5,0.3l0,0c-0.5,0.1-0.7,0.1-1.2,0.2c-0.6,0.1-1.1,0.1-1.6,0.1c0,0,0,0,0,0c-0.2,0-0.3,0-0.5,0
						c-0.2,0-0.4,0-0.6,0c-0.1,0-0.2,0-0.4,0c0,0,0,0-0.1,0c-0.2,0-0.3,0-0.5,0c0,0-0.1,0-0.1,0c-0.6,0-1.3-0.1-2.1-0.2
						c-0.2,0-0.4-0.1-0.7-0.1c-0.1,0-0.2,0-0.2,0l-0.4-0.1c-0.1,0-0.2,0-0.3-0.1l-0.1,0c0,0,0,0,0,0l-0.1,0c-0.1,0-0.2,0-0.2-0.1
						l-0.2-0.1c0,0,0,0,0,0c-0.9-0.3-1.8-0.6-2.6-0.9l-0.1,0c-0.1,0-0.1-0.1-0.2-0.1c0,0,0,0,0,0c-0.1,0-0.1-0.1-0.2-0.1l-0.4-0.2
						c-0.2-0.1-0.4-0.2-0.6-0.3c-0.2-0.1-0.4-0.2-0.6-0.3l0,0c0,0,0,0,0,0c-0.1-0.1-0.2-0.1-0.3-0.2c-0.3-0.2-0.6-0.4-0.8-0.5
						c-0.3-0.2-0.6-0.4-0.8-0.6c-0.5-0.4-1.2-0.9-1.7-1.4c-0.4-0.3-0.9-0.8-1.2-1.2c-0.1-0.1-0.2-0.2-0.3-0.3
						c-0.3-0.3-0.5-0.6-0.8-0.9l-0.3-0.3c-0.2-0.3-0.4-0.5-0.6-0.8l-0.1-0.1c-0.2-0.3-0.5-0.7-0.7-1.1c-0.1-0.2-0.2-0.3-0.3-0.5
						c-0.3-0.4-0.6-1-0.8-1.4c0,0,0,0,0,0c-0.2-0.4-0.4-0.8-0.5-1.2c0-0.1-0.1-0.2-0.1-0.3l-0.2-0.5c0-0.1-0.1-0.2-0.1-0.4l-0.3-0.7
						c-0.1-0.3-0.3-0.8-0.4-1.6c0,0,0,0,0,0l0-0.1c-0.1-0.4-0.2-0.9-0.3-1.6c0,0,0,0,0,0c0,0,0,0,0,0c-0.1-0.6-0.2-1.7-0.2-3
						c0,0,0,0,0,0c0-0.3,0-0.6,0-1c0,0,0,0,0,0c0,0,0,0,0,0c0-0.1,0-0.3,0-0.4c0-0.2,0-0.4,0-0.6c0-0.1,0-0.1,0-0.2
						c0-0.3,0.1-0.6,0.1-1c0.1-0.5,0.1-0.9,0.2-1.3c0,0,0,0,0,0c0.1-0.7,0.3-1.3,0.5-2c0.1-0.4,0.3-0.9,0.4-1.2
						c0.2-0.4,0.3-0.8,0.5-1.3c0-0.1,0.1-0.2,0.1-0.3c0.3-0.6,0.6-1.1,0.9-1.7c0,0,0,0,0-0.1l0,0c0.3-0.4,0.6-0.9,0.9-1.3
						c0,0,0,0,0,0c0.1-0.1,0.4-0.6,0.9-1.3c0-0.1,0.1-0.1,0.1-0.2c0.1-0.1,0.1-0.2,0.2-0.3c1.9-2.2,4.1-3.9,6.6-5.2c0,0,0,0,0,0
						c0.3-0.1-2.3,1.3-2.1,1.2c0,0,2.9-1.6,2.9-1.6c1.3-0.6,2.7-1.1,4.1-1.4c0.7-0.2,1.5-0.3,2.1-0.4c0.4-0.1,0.9-0.1,1.3-0.1
						c0,0,0,0,0.1,0l0.1,0c0.1,0,0.2,0,0.2,0c0.3,0,0.6,0,0.9,0l0,0c0,0,0,0,0,0c0.2,0,0.3,0,0.5,0c0.1,0,0.2,0,0.2,0
						c0.1,0,0.1,0,0.2,0c0.1,0,0.1,0,0.2,0c1,0,1.9,0.2,2.9,0.3c0.3,0,0.4,0.1,0.6,0.1l0.2,0l0.2,0c0,0,0,0,0,0l0,0
						c0.1,0,0.2,0,0.3,0.1l0,0c0,0,0,0,0,0l0.2,0c0.1,0,0.2,0,0.2,0.1l0.2,0.1c0,0,0.1,0,0.1,0c0,0,0,0,0,0c0,0,0,0,0,0
						c0,0,0,0,0.1,0l0.2,0.1c0.1,0,0.1,0,0.2,0.1c0.1,0,0.1,0,0.2,0.1l0,0c0,0,0.1,0,0.1,0c0.1,0,0.2,0.1,0.2,0.1L239,80
						c0.1,0,0.1,0,0.2,0.1c0,0,0,0,0,0c0.1,0,0.1,0,0.2,0.1l0.1,0l0.1,0c0,0,0,0,0,0l0,0c0,0,0,0,0.1,0c0.1,0,0.1,0,0.2,0.1
						c0,0,0.1,0,0.1,0l0,0c0.1,0,0.1,0.1,0.2,0.1l0.2,0.1c0,0,0.1,0,0.1,0c0,0,0.1,0,0.1,0.1c0,0,0.1,0,0.1,0.1
						c0.1,0,0.1,0.1,0.2,0.1l0.2,0.1c0,0,0,0,0.1,0l0,0c0.1,0,0.1,0.1,0.2,0.1c0.1,0,0.2,0.1,0.3,0.1c0.1,0,0.1,0.1,0.2,0.1
						c0.1,0,0.1,0.1,0.2,0.1c0.1,0,0.1,0.1,0.2,0.1c0,0,0.1,0,0.1,0.1l0.1,0.1c0,0,0.1,0,0.1,0.1c0,0,0.1,0,0.1,0.1
						c0.4,0.2,0.7,0.4,1.1,0.7c0.1,0.1,0.2,0.1,0.2,0.2c0.1,0.1,0.2,0.1,0.2,0.2c0,0,0.1,0.1,0.1,0.1c0.1,0.1,0.2,0.2,0.3,0.2
						c0,0,0.1,0.1,0.1,0.1c0.2,0.1,0.3,0.2,0.5,0.4c0.1,0.1,0.1,0.1,0.2,0.2c0,0,0,0,0,0c0,0,0,0,0,0c0,0,0,0,0,0
						c0.1,0.1,0.2,0.2,0.3,0.3c0.1,0.1,0.2,0.1,0.2,0.2c0.2,0.2,0.3,0.3,0.4,0.4c0.5,0.4,0.9,0.9,1.3,1.4c0.3,0.3,0.5,0.5,0.7,0.9
						c1.1,1.4,2.1,2.9,2.8,4.5c0,0,0,0,0,0l0,0c0.1,0.2,0.1,0.3,0.2,0.5c0,0,0,0,0,0.1c0.1,0.3,0.2,0.6,0.3,0.9c0,0,0,0,0,0.1l0,0
						c0,0,0,0,0,0c0,0,0,0,0,0c0,0,0,0,0,0c0,0.1,0.1,0.2,0.1,0.2c0.1,0.2,0.1,0.3,0.2,0.5c0,0.1,0.1,0.2,0.1,0.3
						c0.1,0.2,0.1,0.4,0.2,0.5c0,0,0,0,0,0l0,0c0,0,0,0.1,0,0.1c0.2,0.9,0.4,1.5,0.4,1.5c0.1,0.3,0.1,0.6,0.2,0.9
						c0,0.2,0.1,0.4,0.1,0.7c0,0,0,0,0,0"/>
				</defs>
				<clipPath id="SVGID_00000044148059936151977210000005526288712815924137_">
					<use xlink:href="#SVGID_00000121998468389560742680000007970719678958493318_"  style="overflow:visible;"/>
				</clipPath>
				<g style="clip-path:url(#SVGID_00000044148059936151977210000005526288712815924137_);">
					<path class="st11" d="M239.5,103.8c-0.5,0.2-1.8,0.6-2.9-0.8c-0.1-0.1-0.1-0.2-0.2-0.3c1.2,2.6-1.6,4.1-3.2,3.4
						c-0.5-0.2-0.8-0.6-1-0.9c-0.1-0.1-0.1-0.2-0.2-0.3c1.1,2.3-1.3,3.8-2.9,3c-0.5-0.2-0.7-0.5-0.9-0.8c-0.1-0.2-0.3-0.4-0.4-0.6
						c0.5,1.1,0.3,1.9-0.7,2.5c0,0,0,0,0,0c-1.1,0.4-1.9,0.2-2.6-0.7c-2.4-3.9-4.9-7.9-7-11.3c-0.2-0.4-0.1-0.8,0.2-1.2
						c2.2-2.5,5-4.8,8.2-6.8c1.1-0.7,2.2-1.3,3.3-1.8c0.6-0.2,4.4,0.2,11.5,1.6c0.7-0.3,1.4-0.5,2.1-0.7c0.7-0.2,1.3,0,1.7,0.6
						c0.4,0.8,0.7,1.9-1,3c-0.3,0.1-0.6,0.3-0.8,0.4c-2.2,1.1-3.7,1.4-6.3,1.4c1.4,2.3,2.9,4.7,4.3,7
						C241.9,102.6,239.5,103.8,239.5,103.8"/>
					<path class="st23" d="M216,96.2c-0.4,0.5-0.8,0.6-1.1,0.2c-0.2-0.3-0.3-0.5-0.5-0.7c-0.4-0.7-0.8-1.3-1.2-1.8
						c-0.2-0.4-0.1-0.9,0.3-1.5c2-3.5,5-6.7,8.9-9.1c1.1-0.7,2.2-1.3,3.3-1.8c0.8-0.3,1.2-0.3,1.5,0.1c0.4,0.6,0.9,1.4,1.4,2.2
						c0.2,0.3,0.4,0.6,0.6,0.9c0.2,0.5,0,1-0.6,1.4c-1.1,0.5-2.2,1.1-3.3,1.8C221.4,90.2,218.3,93.1,216,96.2"/>
				</g>
				<g style="opacity:0.8;clip-path:url(#SVGID_00000044148059936151977210000005526288712815924137_);">
					
						<image style="overflow:visible;" width="764" height="737" xlink:href="9B6F300C4EE0B39E.png"  transform="matrix(0.24 0 0 0.24 139.2 22.0995)">
					</image>
				</g>
				<g style="clip-path:url(#SVGID_00000044148059936151977210000005526288712815924137_);">
					<g>
						
							<image style="overflow:visible;" width="763" height="665" xlink:href="9B6F300C4EE0B39A.png"  transform="matrix(0.24 0 0 0.24 139.2 3.1395)">
						</image>
					</g>
					<g class="st14">
						
							<image style="overflow:visible;" width="640" height="660" xlink:href="9B6F300C4EE0B39B.png"  transform="matrix(0.24 0 0 0.24 170.4 17.2995)">
						</image>
					</g>
				</g>
			</g>
		</g>
	</g>
	<g class="st0">
		<polygon class="st28" points="178.7,362.1 175.7,364 170.9,359.6 		"/>
		
			<linearGradient id="SVGID_00000155856674566747207640000011529155458943410875_" gradientUnits="userSpaceOnUse" x1="114.2643" y1="245.9993" x2="183.8384" y2="376.3679">
			<stop  offset="2.179480e-03" style="stop-color:#E0D4FF"/>
			<stop  offset="1.470356e-02" style="stop-color:#CEC0F7"/>
			<stop  offset="2.921328e-02" style="stop-color:#C0B1F0"/>
			<stop  offset="4.055470e-02" style="stop-color:#BBABEE"/>
			<stop  offset="9.861419e-02" style="stop-color:#BAA9EC"/>
			<stop  offset="0.1195" style="stop-color:#B5A3E5"/>
			<stop  offset="0.1344" style="stop-color:#AC99DA"/>
			<stop  offset="0.1383" style="stop-color:#A995D5"/>
			<stop  offset="0.2654" style="stop-color:#A793D4"/>
			<stop  offset="0.33" style="stop-color:#9F8CD1"/>
			<stop  offset="0.3806" style="stop-color:#9281CB"/>
			<stop  offset="0.4236" style="stop-color:#7F70C3"/>
			<stop  offset="0.4561" style="stop-color:#6B5FBA"/>
			<stop  offset="0.6741" style="stop-color:#6D61BB"/>
			<stop  offset="0.7526" style="stop-color:#7468BF"/>
			<stop  offset="0.8086" style="stop-color:#7F73C6"/>
			<stop  offset="0.8539" style="stop-color:#9084D0"/>
			<stop  offset="0.8926" style="stop-color:#A69ADD"/>
			<stop  offset="0.9263" style="stop-color:#C1B5ED"/>
			<stop  offset="0.9563" style="stop-color:#E0D4FF"/>
		</linearGradient>
		<path style="fill:url(#SVGID_00000155856674566747207640000011529155458943410875_);" d="M134.4,256.9l-6.7-10.5
			c-0.2-0.3-0.4-0.7-0.5-1c-0.1-0.1-0.1-0.3-0.2-0.4c-0.1-0.3-0.2-0.5-0.3-0.8c0-0.1-0.1-0.2-0.1-0.4c-0.1-0.4-0.2-0.8-0.2-1.1
			c0,0,0,0,0,0c0-0.4-0.1-0.7-0.1-1.1c0-0.1,0-0.2,0-0.3c0-0.2,0-0.5,0.1-0.7c0-0.1,0.1-0.2,0.1-0.4c0.1-0.2,0.1-0.5,0.2-0.7
			c0,0,0-0.1,0.1-0.1c0.1-0.3,0.3-0.5,0.5-0.7c0,0,0.1-0.1,0.1-0.1c0.2-0.2,0.4-0.4,0.7-0.6l-8.8,5.5c-0.2,0.2-0.5,0.4-0.7,0.6
			c0,0-0.1,0.1-0.1,0.1c-0.2,0.2-0.3,0.5-0.5,0.7c0,0,0,0.1-0.1,0.1c-0.1,0.1-0.1,0.3-0.2,0.4c0,0.1,0,0.2-0.1,0.3
			c0,0.1-0.1,0.2-0.1,0.4c0,0.2-0.1,0.5-0.1,0.7c0,0.1,0,0.2,0,0.3c0,0.3,0,0.7,0.1,1.1c0,0,0,0,0,0c0,0.3,0.1,0.7,0.2,1
			c0,0,0,0.1,0,0.1c0,0.1,0.1,0.2,0.1,0.4c0.1,0.3,0.2,0.5,0.3,0.8c0.1,0.1,0.1,0.3,0.2,0.4c0.1,0.1,0.1,0.2,0.2,0.4
			c0.1,0.2,0.2,0.4,0.4,0.6l6.7,10.5l4,46.3l11-1l-2.2-4.5L134.4,256.9z"/>
		
			<linearGradient id="SVGID_00000156548283322053072540000006397325742046320257_" gradientUnits="userSpaceOnUse" x1="188.7086" y1="265.226" x2="117.2421" y2="370.5449">
			<stop  offset="0" style="stop-color:#E4E7EA"/>
			<stop  offset="1" style="stop-color:#CEB9FF"/>
		</linearGradient>
		<path style="fill:url(#SVGID_00000156548283322053072540000006397325742046320257_);" d="M220.6,323.9c-2.8-4.3-7.4-6.3-10.3-4.4
			l2-1.3c3.2-2.1,3.4-7.6,0.4-12.3c-3-4.7-8-6.8-11.2-4.8l1.1-0.7c3.3-2.2,3.5-7.9,0.4-12.8c-3.1-4.9-8.3-7.1-11.7-5l1-0.7
			c3.5-2.2,3.6-8.2,0.4-13.3c-3.2-5.1-8.7-7.4-12.1-5.2l-22.5,14.6c-1.5-9.8-5.4-19.9-11.2-29l-2.9-4.5c-4.3-6.7-11.4-9.7-16-6.8
			c-2.2,1.4-2.3,5.2-0.3,8.5l6.7,10.5l4,46.3c0.1,0.8,0.4,1.7,0.9,2.5l34.6,54.4c1.3,2,3.4,2.9,4.7,2l41.6-26.9
			C223.2,333.3,223.4,328.3,220.6,323.9z"/>
		<g class="st0">
			<path class="st31" d="M162.7,380.9l-8.8,5.5c-1.2,0.8-2.9,0.5-4.3-0.6l8.8-5.5C159.8,381.4,161.5,381.7,162.7,380.9"/>
			<path class="st32" d="M158.4,380.3l-8.8,5.5c-0.7-0.5-1.4-1.2-2-2.1l8.8-5.5C156.9,379.1,157.6,379.8,158.4,380.3"/>
		</g>
		
			<linearGradient id="SVGID_00000124147387363961624730000013142282068643064245_" gradientUnits="userSpaceOnUse" x1="89.4388" y1="413.8107" x2="161.7411" y2="321.4474">
			<stop  offset="0.1295" style="stop-color:#7C3AED"/>
			<stop  offset="0.4942" style="stop-color:#8238EC"/>
			<stop  offset="0.9572" style="stop-color:#9134EA"/>
			<stop  offset="0.998" style="stop-color:#9333EA"/>
		</linearGradient>
		<path style="fill:url(#SVGID_00000124147387363961624730000013142282068643064245_);" d="M177,364.9l-3-4.7l-34.6-54.4l-2-3.1
			c-1.7-2.6-4.5-3.8-6.3-2.7l-14.1,9.1c-1.8,1.2-1.9,4.3-0.2,6.9l39.6,62.2c1.7,2.6,4.5,3.8,6.3,2.7l14.1-9.1
			C178.6,370.6,178.7,367.5,177,364.9z"/>
		
			<linearGradient id="SVGID_00000026134844491398650890000015893333149734191787_" gradientUnits="userSpaceOnUse" x1="186.063" y1="253.5527" x2="142.161" y2="376.6624">
			<stop  offset="7.574820e-02" style="stop-color:#FFFFFF"/>
			<stop  offset="1" style="stop-color:#FFFFFF;stop-opacity:0"/>
		</linearGradient>
		<path style="opacity:0.7;fill:url(#SVGID_00000026134844491398650890000015893333149734191787_);" d="M220.6,323.9
			c-2.8-4.3-7.4-6.3-10.3-4.4l2-1.3c3.2-2.1,3.4-7.6,0.4-12.3c-3-4.7-8-6.8-11.2-4.8l1.1-0.7c3.3-2.2,3.5-7.9,0.4-12.8
			c-3.1-4.9-8.3-7.1-11.7-5l0.2,0.3c0.8-0.5,1.7-0.8,2.7-0.8c3,0,6.3,2.2,8.5,5.6c3,4.8,2.9,10.3-0.3,12.4l-1.1,0.7l0.3,0.5
			c0.8-0.5,1.6-0.7,2.6-0.7c2.9,0,6.1,2.1,8.2,5.4c2.9,4.5,2.8,9.9-0.3,11.8l-2,1.3l0.3,0.5c0.7-0.5,1.5-0.7,2.4-0.7
			c2.6,0,5.6,2,7.5,5c2.7,4.2,2.5,9.1-0.2,10.9l-41.6,26.9c-0.3,0.2-0.6,0.3-1,0.3c-1.1,0-2.7-0.7-3.6-2l0,0l2.8,4.9
			c1.6,2.5,1.5,5.4-0.1,6.5l-14.1,9.1c-0.4,0.3-0.9,0.4-1.4,0.4c-1.6,0-3.3-1.2-4.5-3l-39.6-62.3c-1.6-2.5-1.5-5.4,0.1-6.5l14.1-9.1
			c0.4-0.3,0.9-0.4,1.4-0.4c1.6,0,3.3,1.2,4.5,3l2.2,2.9l0,0c-0.5-0.7-0.5-1.8-0.6-2.5l-4-46.4l-6.7-10.5c-2-3.1-1.9-6.7,0.2-8
			c1.1-0.7,2.4-1.1,3.8-1.1c4.1,0,8.7,3.1,11.7,7.8l2.9,4.5c5.8,9.1,9.6,19.1,11.2,28.9l0.1,0.5l22.9-14.8c0.8-0.5,1.8-0.8,2.8-0.8
			c3.1,0,6.6,2.3,8.8,5.9c3.1,4.9,3,10.7-0.3,12.8l-1,0.7l0.2,0.3l1-0.7c3.5-2.2,3.6-8.2,0.4-13.3c-3.2-5.1-8.7-7.4-12.1-5.2
			l-22.5,14.6c-1.5-9.8-5.4-19.9-11.2-29l-2.9-4.5c-4.3-6.7-11.4-9.7-16-6.8c-2.2,1.4-2.3,5.2-0.3,8.5l6.7,10.5l4,46.3
			c0.1,0.8,0.4,1.7,0.9,2.5l-2-3.1c-1.7-2.6-4.5-3.8-6.3-2.7l-14.1,9.1c-1.8,1.2-1.9,4.3-0.2,6.9l39.6,62.2c1.7,2.6,4.5,3.8,6.3,2.7
			l14.1-9.1c1.8-1.2,1.9-4.3,0.2-6.9l-3-4.7c1.3,2,3.4,2.9,4.7,2l41.6-26.9C223.2,333.3,223.4,328.3,220.6,323.9z"/>
		<path class="st35" d="M156.4,378.2L116.8,316c-0.2-0.3-0.3-0.5-0.4-0.8c-0.1-0.1-0.1-0.2-0.2-0.3c-0.1-0.2-0.2-0.4-0.2-0.7
			c0-0.1-0.1-0.2-0.1-0.3c-0.1-0.3-0.2-0.6-0.2-0.9c0,0,0,0,0,0c0-0.3-0.1-0.6,0-0.9c0-0.1,0-0.2,0-0.3c0-0.2,0-0.4,0.1-0.6
			c0-0.1,0-0.2,0.1-0.3c0.1-0.2,0.1-0.4,0.2-0.6c0,0,0-0.1,0-0.1c0.1-0.2,0.2-0.4,0.4-0.6c0,0,0.1-0.1,0.1-0.1
			c0.2-0.2,0.3-0.3,0.5-0.5l14.1-9.1l-8.8,5.5l-14.1,9.1c-0.2,0.1-0.4,0.3-0.5,0.5c0,0-0.1,0.1-0.1,0.1c-0.1,0.2-0.3,0.4-0.4,0.6
			c0,0,0,0.1,0,0.1c0,0.1-0.1,0.2-0.1,0.3c0,0.1,0,0.2-0.1,0.2c0,0.1,0,0.2-0.1,0.3c0,0.2-0.1,0.4-0.1,0.6c0,0.1,0,0.2,0,0.3
			c0,0.3,0,0.6,0,0.9c0,0,0,0,0,0c0,0.3,0.1,0.6,0.2,0.8c0,0,0,0.1,0,0.1c0,0.1,0.1,0.2,0.1,0.3c0.1,0.2,0.2,0.4,0.2,0.7
			c0,0.1,0.1,0.2,0.2,0.3c0,0.1,0.1,0.2,0.1,0.3c0.1,0.2,0.2,0.3,0.3,0.5l39.6,62.2c1.7,2.6,4.5,3.8,6.3,2.7l8.8-5.5
			C160.9,382.1,158.1,380.9,156.4,378.2z"/>
	</g>
	<g>
		<g>
			
				<linearGradient id="SVGID_00000034051775656722934460000009489152481739090582_" gradientUnits="userSpaceOnUse" x1="413.3342" y1="375.3843" x2="420.4301" y2="359.4185">
				<stop  offset="2.179480e-03" style="stop-color:#E0D4FF"/>
				<stop  offset="3.492016e-02" style="stop-color:#BFB3EC"/>
				<stop  offset="7.805844e-02" style="stop-color:#9B8FD6"/>
				<stop  offset="0.1184" style="stop-color:#8175C7"/>
				<stop  offset="0.1544" style="stop-color:#7165BD"/>
				<stop  offset="0.1824" style="stop-color:#6B5FBA"/>
				<stop  offset="0.2429" style="stop-color:#6B5FBA"/>
				<stop  offset="0.2528" style="stop-color:#6B5FBA"/>
				<stop  offset="0.4899" style="stop-color:#6D61BB"/>
				<stop  offset="0.6099" style="stop-color:#7569C0"/>
				<stop  offset="0.7036" style="stop-color:#8276C8"/>
				<stop  offset="0.7837" style="stop-color:#9589D3"/>
				<stop  offset="0.8551" style="stop-color:#AEA2E1"/>
				<stop  offset="0.9193" style="stop-color:#CBBFF3"/>
				<stop  offset="0.9563" style="stop-color:#E0D4FF"/>
			</linearGradient>
			<path style="fill:url(#SVGID_00000034051775656722934460000009489152481739090582_);" d="M442.3,366L442.3,366L442.3,366
				c-3.6,0.2-7.3,0.3-11,0.3c-3.7,0-7.5-0.2-11.3-0.5l-26.2-2.1c0,0,0,0,0,0l0,0c1.9,0.2,3.8,0.3,5.7,0.4c5.6,0.3,11.2,0.2,16.6-0.2
				L442.3,366z"/>
		</g>
		<polygon class="st37" points="473.3,350.1 468.6,414 482.8,414.7 487.5,350.9 		"/>
		
			<linearGradient id="SVGID_00000100349420781314589610000017602119165851531699_" gradientUnits="userSpaceOnUse" x1="473.0181" y1="116.2789" x2="393.49" y2="375.791">
			<stop  offset="0" style="stop-color:#6331D3"/>
			<stop  offset="0.4874" style="stop-color:#5F2BCD"/>
			<stop  offset="1" style="stop-color:#561FC1"/>
		</linearGradient>
		<path style="fill:url(#SVGID_00000100349420781314589610000017602119165851531699_);" d="M436.7,365.3c-5.8,0.4-11.6,0.4-17.6,0.1
			l-14.2-0.7c5.9,0.3,11.8,0.3,17.6-0.1L436.7,365.3z M543.5,256.3c0-1.2,0-2.4,0-3.7c0-0.2,0-0.3,0-0.5c0,0,0-0.1,0-0.1
			c0-1.7-0.1-3.5-0.2-5.2c0-0.3,0-0.6,0-0.8c-0.1-1.7-0.2-3.4-0.4-5c0-0.1,0-0.3,0-0.4c0-0.2-0.1-0.4-0.1-0.6
			c-0.1-1.1-0.3-2.3-0.4-3.4c0-0.3-0.1-0.5-0.1-0.8c-0.2-1.3-0.4-2.7-0.7-4c-0.1-0.3-0.1-0.7-0.2-1c-0.2-1.1-0.4-2.1-0.7-3.2
			c-0.1-0.4-0.2-0.7-0.2-1.1c-0.3-1.3-0.6-2.7-1-4c0,0,0-0.1,0-0.1c0-0.1-0.1-0.2-0.1-0.3c-0.4-1.4-0.8-2.8-1.2-4.2
			c-0.1-0.3-0.2-0.6-0.3-0.9c-0.4-1.5-0.9-2.9-1.4-4.4c-0.1-0.3-0.2-0.5-0.3-0.8c-0.5-1.3-1-2.7-1.5-4c-0.1-0.2-0.2-0.4-0.2-0.7
			c-0.6-1.5-1.2-2.9-1.8-4.3c-0.1-0.3-0.3-0.6-0.4-1c-0.6-1.5-1.3-2.9-2-4.4c0,0,0,0,0-0.1c-0.7-1.4-1.4-2.9-2.1-4.3
			c-0.2-0.3-0.3-0.6-0.5-0.9c-0.7-1.4-1.5-2.8-2.3-4.2c-0.1-0.2-0.3-0.5-0.4-0.7c-0.7-1.3-1.5-2.5-2.2-3.8c-0.1-0.2-0.2-0.3-0.3-0.5
			c0-0.1-0.1-0.1-0.1-0.2c-1-1.6-2-3.1-3-4.7c-0.2-0.3-0.4-0.5-0.5-0.8c-1-1.5-2.1-3-3.2-4.5c-0.2-0.3-0.4-0.5-0.6-0.8
			c-1.1-1.5-2.3-3-3.4-4.5c-0.1-0.2-0.3-0.4-0.4-0.5c-1.2-1.6-2.5-3.1-3.8-4.6c0,0,0,0,0,0c0,0,0,0-0.1-0.1c-0.9-1-1.8-2.1-2.7-3.1
			c-0.3-0.3-0.6-0.6-0.9-1c-0.7-0.8-1.4-1.5-2.1-2.3c-0.3-0.3-0.6-0.7-0.9-1c-0.8-0.9-1.7-1.7-2.5-2.6c-0.2-0.2-0.3-0.4-0.5-0.5
			c-1-1-2-2-3.1-3c-0.1-0.1-0.2-0.2-0.2-0.2c-0.1-0.1-0.2-0.2-0.3-0.2c-1.8-1.7-3.7-3.5-5.7-5.1c-0.2-0.2-0.4-0.4-0.6-0.5
			c-1.9-1.7-3.9-3.3-5.9-4.9c-0.1-0.1-0.2-0.2-0.3-0.2c-0.1-0.1-0.1-0.1-0.2-0.2c-1.9-1.5-3.9-3-5.9-4.4c-0.1-0.1-0.3-0.2-0.4-0.3
			c-2.1-1.5-4.2-3-6.4-4.4c0,0-0.1,0-0.1-0.1c0,0,0,0,0,0c-2.1-1.4-4.2-2.7-6.4-4.1c-0.1,0-0.1-0.1-0.2-0.1
			c-2.2-1.3-4.3-2.6-6.6-3.9c0,0-0.1,0-0.1-0.1c0,0,0,0,0,0c-2.3-1.3-4.7-2.5-7-3.8c-1.9-1-3.9-1.9-5.8-2.8
			c-0.2-0.1-0.5-0.2-0.7-0.4c-0.3-0.1-0.5-0.2-0.8-0.4c-1.8-0.8-3.6-1.6-5.4-2.4c-0.2-0.1-0.4-0.2-0.6-0.3c-2-0.8-4-1.6-6-2.4
			c-0.2-0.1-0.4-0.2-0.7-0.3c-0.3-0.1-0.6-0.2-0.9-0.3c-1.7-0.6-3.4-1.2-5.1-1.8c-0.3-0.1-0.6-0.2-0.9-0.3c-2-0.7-3.9-1.3-5.9-1.9
			c-0.2-0.1-0.4-0.1-0.6-0.2c-0.3-0.1-0.6-0.2-0.9-0.2c-1.6-0.5-3.3-0.9-4.9-1.4c-0.4-0.1-0.8-0.2-1.2-0.3c-1.9-0.5-3.9-0.9-5.8-1.4
			c-0.1,0-0.3-0.1-0.4-0.1c-0.3-0.1-0.6-0.1-0.9-0.2c-1.7-0.3-3.4-0.7-5-1c-0.4-0.1-0.8-0.2-1.3-0.2c-2-0.3-3.9-0.6-5.9-0.9
			c-0.1,0-0.3,0-0.4-0.1c-0.3,0-0.6-0.1-0.9-0.1c-1.4-0.2-2.9-0.3-4.3-0.5c-0.5-0.1-1-0.1-1.6-0.1c-1.8-0.2-3.7-0.3-5.5-0.4
			l-14.2-0.7c1.8,0.1,3.6,0.2,5.5,0.4c0.5,0,1.1,0.1,1.6,0.1c1.4,0.1,2.8,0.3,4.3,0.5c0.5,0.1,0.9,0.1,1.4,0.2
			c2,0.3,3.9,0.6,5.9,0.9c0.4,0.1,0.9,0.2,1.3,0.2c1.7,0.3,3.3,0.6,5,1c0.4,0.1,0.9,0.2,1.3,0.3c1.9,0.4,3.9,0.9,5.8,1.4
			c0.4,0.1,0.8,0.2,1.2,0.3c1.6,0.4,3.3,0.9,4.9,1.4c0.5,0.1,1,0.3,1.5,0.4c2,0.6,3.9,1.2,5.9,1.9c0.3,0.1,0.6,0.2,0.9,0.3
			c1.7,0.6,3.4,1.2,5.1,1.8c0.5,0.2,1,0.4,1.5,0.6c2,0.8,4,1.6,6,2.4c0.2,0.1,0.4,0.2,0.6,0.3c1.8,0.8,3.6,1.6,5.4,2.4
			c0.5,0.2,1,0.5,1.5,0.7c2,0.9,3.9,1.9,5.8,2.9c2.4,1.2,4.7,2.5,7,3.8c0.1,0,0.1,0.1,0.2,0.1c2.2,1.2,4.4,2.5,6.6,3.9
			c0.1,0,0.1,0.1,0.2,0.1c2.2,1.3,4.3,2.7,6.4,4.1c0,0,0.1,0.1,0.1,0.1c2.2,1.4,4.3,2.9,6.4,4.4c0.1,0.1,0.3,0.2,0.4,0.3
			c2,1.5,3.9,2.9,5.9,4.4c0.2,0.1,0.3,0.3,0.5,0.4c2,1.6,4,3.2,5.9,4.9c0.2,0.2,0.4,0.4,0.6,0.5c1.9,1.7,3.8,3.4,5.7,5.1
			c0.2,0.2,0.3,0.3,0.5,0.5c1,1,2.1,2,3.1,3c0.2,0.2,0.3,0.4,0.5,0.5c0.8,0.8,1.7,1.7,2.5,2.6c0.3,0.3,0.6,0.7,0.9,1
			c0.7,0.7,1.4,1.5,2.1,2.3c0.3,0.3,0.6,0.6,0.9,1c0.9,1,1.8,2.1,2.7,3.1c0,0,0.1,0.1,0.1,0.1c1.3,1.5,2.6,3.1,3.8,4.6
			c0.1,0.2,0.3,0.4,0.4,0.6c1.2,1.5,2.3,3,3.4,4.5c0.2,0.3,0.4,0.5,0.6,0.8c1.1,1.5,2.1,3,3.2,4.5c0.2,0.3,0.4,0.5,0.5,0.8
			c1,1.5,2,3.1,3,4.7c0.1,0.2,0.3,0.5,0.4,0.7c0.8,1.2,1.5,2.5,2.2,3.7c0.1,0.2,0.3,0.5,0.4,0.7c0.8,1.4,1.5,2.8,2.3,4.2
			c0.2,0.3,0.3,0.6,0.5,0.9c0.7,1.4,1.5,2.8,2.1,4.3c0,0,0,0,0,0.1c0.7,1.4,1.3,2.9,2,4.4c0.1,0.3,0.3,0.6,0.4,1
			c0.6,1.4,1.2,2.9,1.8,4.3c0.1,0.2,0.2,0.4,0.3,0.7c0.5,1.3,1,2.7,1.5,4c0.1,0.3,0.2,0.6,0.3,0.8c0.5,1.5,1,2.9,1.4,4.4
			c0.1,0.3,0.2,0.6,0.3,0.9c0.4,1.4,0.8,2.8,1.2,4.2c0,0.1,0.1,0.3,0.1,0.4c0.3,1.3,0.7,2.7,1,4c0.1,0.4,0.2,0.7,0.2,1.1
			c0.2,1.1,0.4,2.1,0.7,3.2c0.1,0.3,0.1,0.7,0.2,1c0.2,1.3,0.5,2.7,0.7,4c0,0.3,0.1,0.5,0.1,0.8c0.2,1.1,0.3,2.2,0.4,3.4
			c0,0.3,0.1,0.7,0.1,1c0.2,1.7,0.3,3.4,0.4,5c0,0.3,0,0.6,0,0.8c0.1,1.7,0.2,3.5,0.2,5.2c0,0.2,0,0.4,0,0.6c0,1.2,0,2.4,0,3.7
			c0,0.4,0,0.7,0,1.1c0,1.4-0.1,2.8-0.2,4.2c0,0.1,0,0.2,0,0.3c-0.1,1.2-0.2,2.3-0.3,3.5c0,0.4-0.1,0.8-0.1,1.2
			c-0.1,0.9-0.2,1.8-0.3,2.7c-0.1,0.4-0.1,0.9-0.2,1.3c-0.1,0.8-0.2,1.6-0.4,2.4c-0.1,0.4-0.1,0.8-0.2,1.2c-0.2,1-0.4,2-0.6,3
			c0,0.2-0.1,0.3-0.1,0.5c-0.2,1.2-0.5,2.3-0.8,3.5c-0.1,0.3-0.2,0.7-0.3,1c-0.2,0.8-0.4,1.6-0.7,2.4c-0.1,0.4-0.3,0.9-0.4,1.3
			c-0.2,0.7-0.4,1.4-0.6,2.1c-0.1,0.5-0.3,0.9-0.5,1.4c-0.2,0.7-0.5,1.4-0.7,2c-0.2,0.5-0.3,0.9-0.5,1.4c-0.2,0.7-0.5,1.4-0.8,2
			c-0.2,0.5-0.4,0.9-0.5,1.4c-0.3,0.7-0.6,1.4-0.9,2.1c-0.2,0.6-0.5,1.2-0.7,1.7c-0.9,1.9-1.8,3.8-2.7,5.6c-0.3,0.6-0.6,1.2-0.9,1.8
			c-0.3,0.5-0.6,1-0.8,1.6c-0.4,0.8-0.8,1.5-1.3,2.3c-0.3,0.5-0.6,1-0.9,1.5c-0.4,0.7-0.9,1.4-1.3,2.1c-0.4,0.6-0.7,1.1-1.1,1.7
			c-0.4,0.7-0.9,1.3-1.4,2c-0.4,0.5-0.7,1.1-1.1,1.6c-0.4,0.5-0.7,1-1.1,1.5c-0.5,0.7-1.1,1.5-1.7,2.2c-0.4,0.5-0.8,1-1.2,1.5
			c-0.6,0.7-1.1,1.4-1.7,2c-0.4,0.4-0.7,0.8-1.1,1.2c-0.9,1-1.9,2.1-2.8,3.1c-0.3,0.3-0.6,0.6-0.9,0.9c-1.2,1.3-2.5,2.5-3.8,3.6
			c-0.2,0.2-0.5,0.4-0.7,0.7c-1.2,1-2.4,2.1-3.6,3c-0.4,0.3-0.7,0.6-1.1,0.9c-1.4,1.1-2.9,2.2-4.4,3.3c-0.2,0.1-0.3,0.2-0.5,0.3
			c-1.4,1-2.7,1.9-4.1,2.8c-0.4,0.3-0.8,0.5-1.2,0.8c-1.6,1-3.1,1.9-4.8,2.8l14.2,0.7c1.6-0.9,3.2-1.8,4.8-2.8
			c0.4-0.3,0.8-0.5,1.2-0.8c1.4-0.9,2.8-1.8,4.1-2.8c0.2-0.1,0.3-0.2,0.5-0.3c1.5-1.1,2.9-2.2,4.4-3.3c0.4-0.3,0.7-0.6,1.1-0.9
			c1.2-1,2.4-2,3.6-3c0.2-0.2,0.4-0.3,0.5-0.5c0.1-0.1,0.1-0.1,0.2-0.2c1.3-1.2,2.6-2.4,3.8-3.7c0.3-0.3,0.6-0.6,0.9-0.9
			c1-1,1.9-2,2.8-3.1c0.2-0.2,0.4-0.4,0.6-0.7c0.2-0.2,0.3-0.4,0.5-0.6c0.6-0.7,1.1-1.3,1.7-2c0.4-0.5,0.8-1,1.2-1.5
			c0.6-0.7,1.1-1.4,1.7-2.2c0.3-0.4,0.6-0.8,0.9-1.1c0.1-0.1,0.2-0.2,0.3-0.4c0.4-0.5,0.7-1.1,1.1-1.6c0.5-0.7,0.9-1.3,1.4-2
			c0.4-0.5,0.7-1.1,1.1-1.7c0.3-0.5,0.6-1,0.9-1.5c0.1-0.2,0.2-0.4,0.4-0.6c0.3-0.5,0.6-1,0.9-1.5c0.4-0.7,0.9-1.5,1.3-2.3
			c0.3-0.5,0.6-1,0.8-1.6c0.2-0.4,0.4-0.7,0.6-1.1c0.1-0.2,0.2-0.5,0.3-0.7c0.9-1.8,1.8-3.7,2.7-5.6c0.1-0.3,0.2-0.5,0.4-0.8
			c0.1-0.3,0.3-0.6,0.4-0.9c0.3-0.7,0.6-1.4,0.9-2.1c0.2-0.5,0.4-0.9,0.5-1.4c0.3-0.7,0.5-1.4,0.8-2c0.1-0.2,0.2-0.5,0.3-0.7
			c0.1-0.2,0.2-0.5,0.2-0.7c0.2-0.7,0.5-1.3,0.7-2c0.2-0.5,0.3-0.9,0.5-1.4c0.2-0.7,0.4-1.4,0.6-2.1c0.1-0.3,0.2-0.6,0.3-1
			c0-0.1,0.1-0.2,0.1-0.4c0.2-0.8,0.4-1.6,0.7-2.4c0.1-0.3,0.2-0.7,0.3-1c0.3-1.2,0.6-2.3,0.8-3.5c0,0,0,0,0-0.1
			c0-0.2,0.1-0.3,0.1-0.5c0.2-1,0.4-2,0.6-3c0.1-0.4,0.1-0.8,0.2-1.2c0.1-0.8,0.3-1.6,0.4-2.4c0-0.2,0.1-0.4,0.1-0.6
			c0-0.2,0.1-0.5,0.1-0.7c0.1-0.9,0.2-1.8,0.3-2.7c0-0.4,0.1-0.8,0.1-1.2c0.1-1.2,0.2-2.4,0.3-3.5c0-0.1,0-0.2,0-0.2c0,0,0,0,0,0
			c0.1-1.4,0.2-2.8,0.2-4.2C543.5,257.1,543.5,256.7,543.5,256.3z"/>
		
			<linearGradient id="SVGID_00000098902094142116284270000000604483312136068025_" gradientUnits="userSpaceOnUse" x1="477.8782" y1="421.804" x2="323.0348" y2="107.9604">
			<stop  offset="1.422640e-02" style="stop-color:#9333EA"/>
			<stop  offset="0.998" style="stop-color:#7C3AED"/>
		</linearGradient>
		<path style="fill:url(#SVGID_00000098902094142116284270000000604483312136068025_);" d="M434,115.6
			c-75.2-38.4-157.1-22.2-186.9,45c-29.8,67.2,10.2,145.6,85.4,183.9c30.2,15.4,61.5,22,90,20.1l46.2,49.4l4.7-63.8
			c19.9-10.9,36-27.8,46.1-50.6C549.2,232.3,509.2,153.9,434,115.6z"/>
		
			<linearGradient id="SVGID_00000150815911689118712260000000764209158003746738_" gradientUnits="userSpaceOnUse" x1="359.9966" y1="73.5562" x2="410.7293" y2="414.85">
			<stop  offset="7.574820e-02" style="stop-color:#FFFFFF"/>
			<stop  offset="1" style="stop-color:#FFFFFF;stop-opacity:0"/>
		</linearGradient>
		<path style="opacity:0.7;fill:url(#SVGID_00000150815911689118712260000000764209158003746738_);" d="M434,115.6
			c-75.2-38.4-157.1-22.2-186.9,45c-29.8,67.2,10.2,145.6,85.4,183.9c30.2,15.4,61.5,22,90,20.1l46.2,49.4l4.7-63.8
			c19.9-10.9,36-27.8,46.1-50.6C549.2,232.3,509.2,153.9,434,115.6z M518.9,299.3c-9.7,21.8-25.5,39.2-45.9,50.4l-0.3,0.1l-4.6,62.9
			L422.7,364l-0.3,0c-3.2,0.2-6.5,0.3-9.8,0.3c-26.2,0-53.9-7-79.9-20.3c-77.4-39.5-114-118.3-85.1-183.2
			c18.3-41.3,57.1-65.1,106.3-65.1c26.2,0,53.9,7,80,20.3C511.2,155.5,547.8,234.3,518.9,299.3z"/>
		
			<linearGradient id="SVGID_00000022556579335394433170000007917764270690411947_" gradientUnits="userSpaceOnUse" x1="307.8824" y1="230.0134" x2="458.6244" y2="230.0134">
			<stop  offset="0" style="stop-color:#CFE9FF"/>
			<stop  offset="1" style="stop-color:#A5AFFF"/>
		</linearGradient>
		<path style="fill:url(#SVGID_00000022556579335394433170000007917764270690411947_);" d="M344.6,210.3
			c-4.6,10.4-16.2,14.9-25.8,10c-9.6-4.9-13.7-17.3-9-27.7c4.6-10.4,16.2-14.9,25.8-10C345.2,187.5,349.2,199.9,344.6,210.3z
			 M391.6,211.2c-9.6-4.9-21.2-0.4-25.8,10c-4.6,10.4-0.6,22.8,9,27.8c9.6,4.9,21.1,0.4,25.8-10
			C405.3,228.5,401.2,216.1,391.6,211.2z M447.7,239.8c-9.6-4.9-21.2-0.4-25.8,10c-4.6,10.4-0.6,22.8,9,27.8
			c9.6,4.9,21.1,0.4,25.8-10C461.3,257.1,457.3,244.7,447.7,239.8z"/>
	</g>
	<g class="st0">
		
			<linearGradient id="SVGID_00000162316693399427849350000017904272727634554292_" gradientUnits="userSpaceOnUse" x1="619.7244" y1="140.2785" x2="658.7027" y2="93.6573">
			<stop  offset="0" style="stop-color:#FFFF54"/>
			<stop  offset="1.050391e-02" style="stop-color:#F7EE50"/>
			<stop  offset="3.712391e-02" style="stop-color:#E6C748"/>
			<stop  offset="6.578582e-02" style="stop-color:#D7A641"/>
			<stop  offset="9.640311e-02" style="stop-color:#CB8C3B"/>
			<stop  offset="0.1297" style="stop-color:#C27737"/>
			<stop  offset="0.167" style="stop-color:#BB6833"/>
			<stop  offset="0.2116" style="stop-color:#B76032"/>
			<stop  offset="0.2826" style="stop-color:#B65D31"/>
			<stop  offset="0.2831" style="stop-color:#B75F31"/>
			<stop  offset="0.2937" style="stop-color:#C87E39"/>
			<stop  offset="0.3055" style="stop-color:#D7993F"/>
			<stop  offset="0.319" style="stop-color:#E3AF44"/>
			<stop  offset="0.3349" style="stop-color:#EDC048"/>
			<stop  offset="0.3544" style="stop-color:#F3CB4B"/>
			<stop  offset="0.3819" style="stop-color:#F7D24D"/>
			<stop  offset="0.4581" style="stop-color:#F8D44D"/>
			<stop  offset="0.477" style="stop-color:#EEC149"/>
			<stop  offset="0.5187" style="stop-color:#DA9D40"/>
			<stop  offset="0.5608" style="stop-color:#CA8139"/>
			<stop  offset="0.6028" style="stop-color:#BF6D35"/>
			<stop  offset="0.6448" style="stop-color:#B86132"/>
			<stop  offset="0.6867" style="stop-color:#B65D31"/>
			<stop  offset="0.6963" style="stop-color:#B86132"/>
			<stop  offset="0.7207" style="stop-color:#BC6733"/>
			<stop  offset="0.766" style="stop-color:#C97A38"/>
			<stop  offset="0.8235" style="stop-color:#D48C3C"/>
			<stop  offset="0.8859" style="stop-color:#DB963F"/>
			<stop  offset="0.9616" style="stop-color:#DD9940"/>
			<stop  offset="0.9762" style="stop-color:#E6AC44"/>
			<stop  offset="1" style="stop-color:#F8D44D"/>
		</linearGradient>
		<path style="fill:url(#SVGID_00000162316693399427849350000017904272727634554292_);" d="M657.2,94.3
			C657.2,94.3,657.2,94.2,657.2,94.3c0-0.1,0-0.1,0-0.2c0-0.1,0-0.2,0-0.3c0-0.1,0-0.2-0.1-0.3c0,0,0,0,0-0.1c0,0,0,0,0,0
			c0,0,0-0.1,0-0.1c0-0.1-0.1-0.1-0.1-0.2c0-0.1-0.1-0.1-0.1-0.2c0,0,0,0,0-0.1c0,0,0,0,0,0c0,0,0-0.1-0.1-0.1
			c0-0.1-0.1-0.1-0.1-0.2c0-0.1-0.1-0.1-0.1-0.2c0,0,0,0-0.1-0.1l-6.4-6.3c0.2,0.1,0.3,0.3,0.4,0.5c0,0,0,0,0,0
			c0.1,0.2,0.2,0.4,0.3,0.6c0,0,0,0,0,0c0.1,0.2,0.1,0.5,0.1,0.7c0,0,0,0,0,0.1c0,0.3,0,0.5,0,0.8l-2.2,21.2l6.4,6.3l2.2-21.2
			c0-0.1,0-0.2,0-0.2c0-0.1,0-0.3,0-0.4C657.2,94.4,657.2,94.3,657.2,94.3z"/>
		
			<linearGradient id="SVGID_00000140723405328907254720000001138618716406314922_" gradientUnits="userSpaceOnUse" x1="585.6715" y1="170.0181" x2="670.0232" y2="105.5177">
			<stop  offset="1.189230e-02" style="stop-color:#FFFF54"/>
			<stop  offset="2.123355e-02" style="stop-color:#F5E24E"/>
			<stop  offset="3.226719e-02" style="stop-color:#ECC749"/>
			<stop  offset="4.438196e-02" style="stop-color:#E6B345"/>
			<stop  offset="5.796051e-02" style="stop-color:#E1A442"/>
			<stop  offset="7.419629e-02" style="stop-color:#DE9C41"/>
			<stop  offset="0.1001" style="stop-color:#DD9940"/>
			<stop  offset="0.1431" style="stop-color:#D0863B"/>
			<stop  offset="0.2147" style="stop-color:#B65D31"/>
			<stop  offset="0.2814" style="stop-color:#B65D31"/>
			<stop  offset="0.6867" style="stop-color:#B65D31"/>
			<stop  offset="0.6963" style="stop-color:#B86132"/>
			<stop  offset="0.7207" style="stop-color:#BC6733"/>
			<stop  offset="0.7476" style="stop-color:#C97E39"/>
			<stop  offset="0.7912" style="stop-color:#DA9D40"/>
			<stop  offset="0.8369" style="stop-color:#E7B546"/>
			<stop  offset="0.885" style="stop-color:#F1C74A"/>
			<stop  offset="0.937" style="stop-color:#F6D14C"/>
			<stop  offset="1" style="stop-color:#F8D44D"/>
		</linearGradient>
		<path style="fill:url(#SVGID_00000140723405328907254720000001138618716406314922_);" d="M605.6,156.6l-21.8,4.9
			c-0.7,0.2-1.4,0.2-2,0c-0.5-0.1-1-0.4-1.3-0.7l6.4,6.3c0.3,0.3,0.8,0.6,1.3,0.7c0.6,0.1,1.2,0.1,2,0l21.8-4.9L605.6,156.6z"/>
		
			<linearGradient id="SVGID_00000031927477308624713720000010661369082617733292_" gradientUnits="userSpaceOnUse" x1="595.6613" y1="192.6818" x2="676.4205" y2="115.7441">
			<stop  offset="0" style="stop-color:#FFFF54"/>
			<stop  offset="1.050391e-02" style="stop-color:#F7EE50"/>
			<stop  offset="3.712391e-02" style="stop-color:#E6C748"/>
			<stop  offset="6.578582e-02" style="stop-color:#D7A641"/>
			<stop  offset="9.640311e-02" style="stop-color:#CB8C3B"/>
			<stop  offset="0.1297" style="stop-color:#C27737"/>
			<stop  offset="0.167" style="stop-color:#BB6833"/>
			<stop  offset="0.2116" style="stop-color:#B76032"/>
			<stop  offset="0.2826" style="stop-color:#B65D31"/>
			<stop  offset="0.2831" style="stop-color:#B75F31"/>
			<stop  offset="0.2937" style="stop-color:#C87E39"/>
			<stop  offset="0.3055" style="stop-color:#D7993F"/>
			<stop  offset="0.319" style="stop-color:#E3AF44"/>
			<stop  offset="0.3349" style="stop-color:#EDC048"/>
			<stop  offset="0.3544" style="stop-color:#F3CB4B"/>
			<stop  offset="0.3819" style="stop-color:#F7D24D"/>
			<stop  offset="0.4581" style="stop-color:#F8D44D"/>
			<stop  offset="0.4746" style="stop-color:#EEC149"/>
			<stop  offset="0.5111" style="stop-color:#DA9D40"/>
			<stop  offset="0.5478" style="stop-color:#CA8139"/>
			<stop  offset="0.5845" style="stop-color:#BF6D35"/>
			<stop  offset="0.6212" style="stop-color:#B86132"/>
			<stop  offset="0.6578" style="stop-color:#B65D31"/>
			<stop  offset="0.7046" style="stop-color:#B86132"/>
			<stop  offset="0.8242" style="stop-color:#BC6733"/>
			<stop  offset="0.9616" style="stop-color:#DD9940"/>
			<stop  offset="0.9762" style="stop-color:#E6AC44"/>
			<stop  offset="1" style="stop-color:#F8D44D"/>
		</linearGradient>
		<path style="fill:url(#SVGID_00000031927477308624713720000010661369082617733292_);" d="M670.7,128.2c0-0.1,0-0.3,0-0.4
			c0-0.1,0-0.1,0-0.2c0,0,0,0,0,0c0,0,0-0.1,0-0.1c0-0.1,0-0.2,0-0.3c0-0.1,0-0.2-0.1-0.3c0-0.1,0-0.2-0.1-0.2c0-0.1,0-0.1-0.1-0.2
			c0,0,0,0,0,0c0,0,0,0,0,0c0-0.1-0.1-0.1-0.1-0.2c0-0.1-0.1-0.1-0.1-0.2c0-0.1-0.1-0.1-0.1-0.2c0-0.1-0.1-0.1-0.1-0.2
			c0,0,0,0-0.1-0.1l-6.4-6.3c0.2,0.2,0.4,0.5,0.6,0.8c0,0,0,0,0,0c0.1,0.3,0.2,0.7,0.2,1c0,0,0,0,0,0c0,0.4,0,0.7-0.1,1.1
			c0,0,0,0,0,0c-0.1,0.4-0.2,0.8-0.3,1.2c0,0.1-0.1,0.3-0.2,0.4c-0.1,0.3-0.3,0.6-0.4,0.9c0,0,0,0.1-0.1,0.1
			c-0.2,0.4-0.5,0.8-0.8,1.2c0,0,0,0,0,0c-0.3,0.4-0.7,0.8-1.1,1.1c0,0,0,0,0,0c-0.4,0.4-0.8,0.7-1.3,1l-21.9,14.1l6.4,6.3
			l21.9-14.1c0,0,0,0,0.1,0c0.1-0.1,0.2-0.1,0.3-0.2c0.1-0.1,0.2-0.1,0.3-0.2c0.1-0.1,0.2-0.1,0.3-0.2c0.1-0.1,0.2-0.1,0.3-0.2
			c0,0,0.1-0.1,0.1-0.1c0,0,0,0,0,0c0,0,0.1-0.1,0.1-0.1c0.1-0.1,0.2-0.2,0.3-0.2c0.1-0.1,0.2-0.2,0.3-0.3c0.1-0.1,0.2-0.2,0.2-0.3
			c0.1-0.1,0.1-0.1,0.2-0.2c0,0,0,0,0,0c0,0,0,0,0-0.1c0.1-0.1,0.2-0.2,0.3-0.4c0.1-0.1,0.2-0.3,0.3-0.4c0.1-0.1,0.1-0.2,0.2-0.4
			c0,0,0-0.1,0.1-0.1c0,0,0-0.1,0.1-0.1c0.1-0.3,0.2-0.5,0.4-0.8c0.1-0.1,0.1-0.3,0.2-0.4c0.2-0.4,0.3-0.8,0.3-1.2c0,0,0,0,0,0
			c0,0,0,0,0,0C670.7,128.6,670.7,128.4,670.7,128.2z"/>
		
			<linearGradient id="SVGID_00000150098898275026923110000005376776200446708671_" gradientUnits="userSpaceOnUse" x1="615.8151" y1="176.6326" x2="716.9551" y2="76.7665">
			<stop  offset="0" style="stop-color:#FFFF54"/>
			<stop  offset="1.050391e-02" style="stop-color:#F7EE50"/>
			<stop  offset="3.712391e-02" style="stop-color:#E6C748"/>
			<stop  offset="6.578582e-02" style="stop-color:#D7A641"/>
			<stop  offset="9.640311e-02" style="stop-color:#CB8C3B"/>
			<stop  offset="0.1297" style="stop-color:#C27737"/>
			<stop  offset="0.167" style="stop-color:#BB6833"/>
			<stop  offset="0.2116" style="stop-color:#B76032"/>
			<stop  offset="0.2826" style="stop-color:#B65D31"/>
			<stop  offset="0.2831" style="stop-color:#B75F31"/>
			<stop  offset="0.2937" style="stop-color:#C87E39"/>
			<stop  offset="0.3055" style="stop-color:#D7993F"/>
			<stop  offset="0.319" style="stop-color:#E3AF44"/>
			<stop  offset="0.3349" style="stop-color:#EDC048"/>
			<stop  offset="0.3544" style="stop-color:#F3CB4B"/>
			<stop  offset="0.3819" style="stop-color:#F7D24D"/>
			<stop  offset="0.4581" style="stop-color:#F8D44D"/>
			<stop  offset="0.477" style="stop-color:#EEC149"/>
			<stop  offset="0.5187" style="stop-color:#DA9D40"/>
			<stop  offset="0.5608" style="stop-color:#CA8139"/>
			<stop  offset="0.6028" style="stop-color:#BF6D35"/>
			<stop  offset="0.6448" style="stop-color:#B86132"/>
			<stop  offset="0.6867" style="stop-color:#B65D31"/>
			<stop  offset="0.6963" style="stop-color:#B86132"/>
			<stop  offset="0.7207" style="stop-color:#BC6733"/>
			<stop  offset="0.766" style="stop-color:#C97A38"/>
			<stop  offset="0.8235" style="stop-color:#D48C3C"/>
			<stop  offset="0.8859" style="stop-color:#DB963F"/>
			<stop  offset="0.9616" style="stop-color:#DD9940"/>
			<stop  offset="0.9762" style="stop-color:#E6AC44"/>
			<stop  offset="1" style="stop-color:#F8D44D"/>
		</linearGradient>
		<path style="fill:url(#SVGID_00000150098898275026923110000005376776200446708671_);" d="M638.1,142.5L626.3,165
			c-0.2,0.4-0.5,0.8-0.7,1.2c0,0,0,0,0,0c-0.3,0.4-0.6,0.7-0.9,1c0,0,0,0,0,0c-0.3,0.3-0.6,0.6-1,0.9c0,0,0,0,0,0
			c-0.3,0.3-0.7,0.5-1,0.7c0,0,0,0,0,0c-0.4,0.2-0.7,0.4-1.1,0.5c0,0,0,0-0.1,0c-0.3,0.1-0.5,0.2-0.8,0.3c-0.3,0.1-0.6,0.1-0.8,0.2
			c-0.1,0-0.3,0-0.4,0.1c-0.4,0-0.8,0-1.1-0.1c-0.5-0.1-1-0.4-1.3-0.7l6.4,6.3c0.4,0.4,0.8,0.6,1.3,0.7c0.3,0.1,0.7,0.1,1.1,0.1
			c0.1,0,0.2,0,0.4-0.1c0.3,0,0.5-0.1,0.8-0.2c0.1,0,0.1,0,0.2,0c0.2-0.1,0.4-0.1,0.5-0.2c0,0,0,0,0.1,0c0,0,0,0,0.1,0
			c0.1,0,0.2-0.1,0.3-0.1c0.1-0.1,0.3-0.1,0.4-0.2c0.1-0.1,0.2-0.1,0.3-0.2c0,0,0,0,0,0c0,0,0,0,0,0c0.1-0.1,0.2-0.1,0.3-0.2
			c0.1-0.1,0.2-0.1,0.3-0.2c0.1-0.1,0.2-0.1,0.3-0.2c0.1,0,0.1-0.1,0.2-0.1c0,0,0,0,0,0c0,0,0.1,0,0.1-0.1c0.1-0.1,0.2-0.1,0.3-0.2
			c0.1-0.1,0.2-0.2,0.3-0.2c0.1-0.1,0.2-0.2,0.3-0.2c0,0,0.1-0.1,0.1-0.1c0,0,0,0,0,0c0,0,0.1-0.1,0.1-0.1c0.1-0.1,0.2-0.2,0.2-0.3
			c0.1-0.1,0.2-0.2,0.3-0.3c0.1-0.1,0.2-0.2,0.3-0.4c0,0,0,0,0,0c0,0,0,0,0,0c0.1-0.1,0.2-0.3,0.3-0.4c0.1-0.2,0.2-0.4,0.3-0.6
			c0-0.1,0.1-0.1,0.1-0.2l11.8-22.5L638.1,142.5z"/>
		
			<linearGradient id="SVGID_00000142867890167568006560000008630095994916973707_" gradientUnits="userSpaceOnUse" x1="600.8599" y1="101.4677" x2="642.3629" y2="164.8144">
			<stop  offset="0" style="stop-color:#FFFF7C"/>
			<stop  offset="1" style="stop-color:#F1B747"/>
		</linearGradient>
		<path style="fill:url(#SVGID_00000142867890167568006560000008630095994916973707_);" d="M663,119.1l-14.5-9.1l2.2-21.2
			c0.2-1.9-0.7-3.2-2.2-3.5c-1.4-0.3-3.4,0.2-5.3,1.8L622.5,104l-20.5,1c-3.8,0.2-7.9,4.7-7.6,8.3l1.7,19.5l-14.9,21.8
			c-2.2,3.3-1.6,6.3,0.8,6.9c0.6,0.1,1.2,0.1,2,0l21.8-4.9l11.3,12.5c0.4,0.4,0.9,0.7,1.4,0.8c2.4,0.6,6.1-1.5,7.9-4.9l11.8-22.5
			l21.9-14.1C664,125.8,665.6,120.7,663,119.1z"/>
		
			<linearGradient id="SVGID_00000082360009506736062220000012614647934602961855_" gradientUnits="userSpaceOnUse" x1="597.0336" y1="105.6066" x2="647.2742" y2="154.7551">
			<stop  offset="7.574820e-02" style="stop-color:#FFFFFF"/>
			<stop  offset="1" style="stop-color:#FFFFFF;stop-opacity:0"/>
		</linearGradient>
		<path style="opacity:0.7;fill:url(#SVGID_00000082360009506736062220000012614647934602961855_);" d="M663,119.1l-14.5-9.1
			l2.2-21.2c0.2-1.9-0.7-3.2-2.2-3.5c-1.4-0.3-3.4,0.2-5.3,1.8L622.5,104l-20.5,1c-3.8,0.2-7.9,4.7-7.6,8.3l1.7,19.5l-14.9,21.8
			c-2.2,3.3-1.6,6.3,0.8,6.9c0.6,0.1,1.2,0.1,2,0l21.8-4.9l11.3,12.5c0.4,0.4,0.9,0.7,1.4,0.8c2.4,0.6,6.1-1.5,7.9-4.9l11.8-22.5
			l21.9-14.1C664,125.8,665.6,120.7,663,119.1z M659.7,128l-22,14.2l-11.9,22.6c-1.6,3.1-4.6,4.7-6.6,4.7c-0.3,0-0.5,0-0.7-0.1
			c-0.5-0.1-0.9-0.3-1.2-0.7l-11.5-12.7l-22,4.9c-0.4,0.1-0.7,0.1-1,0.1c-0.3,0-0.5,0-0.7-0.1c-0.8-0.2-1.3-0.7-1.6-1.4
			c-0.5-1.3-0.1-3,1.1-4.8l15-22l-1.7-19.7c-0.1-1.5,0.6-3.3,2-4.8c1.5-1.7,3.5-2.8,5.2-2.9l20.7-1l20.9-17c1.4-1.1,2.8-1.7,4.1-1.7
			c0.3,0,0.5,0,0.8,0.1c1.3,0.3,2,1.4,1.8,3l-2.2,21.5l14.7,9.2c0.9,0.5,1.1,1.5,1.1,2.2C663.8,123.5,662.4,126.3,659.7,128z"/>
	</g>
</g>
</svg>
