<?xml version="1.0" encoding="utf-8"?>
<!-- Generator: Adobe Illustrator 26.3.1, SVG Export Plug-In . SVG Version: 6.00 Build 0)  -->
<svg version="1.1" id="Layer_1" xmlns="http://www.w3.org/2000/svg" xmlns:xlink="http://www.w3.org/1999/xlink" x="0px" y="0px"
	 viewBox="0 0 484.5 484.5" style="enable-background:new 0 0 484.5 484.5;" xml:space="preserve">
<style type="text/css">
	.st0{fill:url(#SVGID_1_);}
	.st1{fill:#6D28D9;}
	.st2{fill:none;stroke:#3F0099;stroke-width:6;stroke-miterlimit:10;}
	.st3{fill:none;stroke:#4E24FF;stroke-width:6;stroke-miterlimit:10;}
	.st4{fill:#B7C5FD;}
</style>
<g id="Layer_2_00000178919773193201157140000007155936711534583457_">
</g>
<linearGradient id="SVGID_1_" gradientUnits="userSpaceOnUse" x1="267.538" y1="145.8382" x2="298.0516" y2="170.0791">
	<stop  offset="3.363926e-02" style="stop-color:#4E24FF"/>
	<stop  offset="0.6606" style="stop-color:#521CBA"/>
</linearGradient>
<path class="st0" d="M297.4,163.1c-4.9-2.8-15.5-8-18.8-6.3c-2.3,1.1-7.7,1.1-12.5,0.7c-2.4-0.2-4.7-0.5-6.3-0.7
	c-1-1,1.6-3.2,5.5-5.6c4.6-2.8,10.9-5.8,15.5-6.9c8.3-2.1,20.8,12.5,22.9,16.7C305.3,164.4,300.2,163.8,297.4,163.1z"/>
<path class="st1" d="M386,188.8c0-0.1,0-0.1,0-0.2c0.2-1,0.4-2,0.7-2.9c0.3-1.8,0.8-3.5,1.1-5.3c0.3-1.6,0.6-3.2,0.9-4.8
	C375.9,167.1,369.2,170.9,386,188.8z M359,221.8c-5.2-9.1-10.4-18.4-16.1-18.4c-9.2,0-9.9,4.6-9.2,6.9l-13.8-6.9
	c2.3-0.8,6.9-4.2,6.9-11.5c0-9.1,0-16.1-11.5-16.1h-27.6c-6.8,0-32.2-6.8-25.3-13.8c1.7-1.7,2.8-3.2,3.5-4.6c1.6-3,0.9-5.3-0.8-6.3
	c-0.7-0.5-1.6-0.7-2.7-0.7c-1.4,0-4.1-1.1-6.9-2.2c-6.7-2.6-14.7-5.8-11.5,2.2c1.2,3.1,2.8,6.4,4.3,9.5c4.1,8.5,7.6,15.8,2.5,15.8
	c-6.8,0-29.9-9.1-25.3-13.8s-2.3-11.5-13.8-11.5h-29.9c-6.8,0,6.9,13.8,20.7,16.1c13.8,2.2,18.3,11.4,9.2,13.8
	c-4.6,1.1-7.5,6.8-9.5,10.9c-2,4-3.2,6.3-4.3,0.5c-0.9-4.4,0-6.5,0.5-7.8c0.9-2.1-21.6,8.1-30.1,2.5c-3.8-2.5,15.7-15.8,12.7-18.1
	c-7.6-5.8-12.6-9.7-17.5-6.4c-1,0.7-2.4,1.5-4,2.5c-8.7,5.5-23.3,14.6-21.3,20.5c2.3,6.8-9.2,41.4-16.1,46c-0.6,0.3-1.1,0.8-1.8,1.2
	c-0.4,0.3-0.8,0.6-1.3,0.9c0,0,0.1,0.1,0.1,0.1c16.7,18.5,34.8,36.7,53.6,54.2c0,0,0.1,0.1,0.1,0.1c-8-38.9,28.5-85.6,32-90.9
	c4.6-6.9,16.1,0,36.7-6.9c16.5-5.5,33-2.3,39,0c-4.6,3.7-11,11.9,0,13.8c11,1.9,26,6.9,32.2,9.2h13.8c4.6,0,29.9,18.4,34.5,29.9
	c1.8,4.5,5,5.5,8.8,5c0-0.1,0.1-0.2,0.1-0.3c0.9-2.6,1.6-5.1,2.3-7.7C367.9,237.6,363.5,229.7,359,221.8z M386,188.8
	c0-0.1,0-0.1,0-0.2c0.2-1,0.4-2,0.7-2.9c0.3-1.8,0.8-3.5,1.1-5.3c0.3-1.6,0.6-3.2,0.9-4.8C375.9,167.1,369.2,170.9,386,188.8z
	 M359,221.8c-5.2-9.1-10.4-18.4-16.1-18.4c-9.2,0-9.9,4.6-9.2,6.9l-13.8-6.9c2.3-0.8,6.9-4.2,6.9-11.5c0-9.1,0-16.1-11.5-16.1h-27.6
	c-6.8,0-32.2-6.8-25.3-13.8c1.7-1.7,2.8-3.2,3.5-4.6c1.6-3,0.9-5.3-0.8-6.3c-0.7-0.5-1.6-0.7-2.7-0.7c-1.4,0-4.1-1.1-6.9-2.2
	c-6.7-2.6-14.7-5.8-11.5,2.2c1.2,3.1,2.8,6.4,4.3,9.5c4.1,8.5,7.6,15.8,2.5,15.8c-6.8,0-29.9-9.1-25.3-13.8s-2.3-11.5-13.8-11.5
	h-29.9c-6.8,0,6.9,13.8,20.7,16.1c13.8,2.2,18.3,11.4,9.2,13.8c-4.6,1.1-7.5,6.8-9.5,10.9c-2,4-3.2,6.3-4.3,0.5
	c-0.9-4.4,0-6.5,0.5-7.8c0.9-2.1-21.6,8.1-30.1,2.5c-3.8-2.5,15.7-15.8,12.7-18.1c-7.6-5.8-12.6-9.7-17.5-6.4c-1,0.7-2.4,1.5-4,2.5
	c-8.7,5.5-23.3,14.6-21.3,20.5c2.3,6.8-9.2,41.4-16.1,46c-0.6,0.3-1.1,0.8-1.8,1.2c-0.4,0.3-0.8,0.6-1.3,0.9c0,0,0.1,0.1,0.1,0.1
	c16.7,18.5,34.8,36.7,53.6,54.2c0,0,0.1,0.1,0.1,0.1c-8-38.9,28.5-85.6,32-90.9c4.6-6.9,16.1,0,36.7-6.9c16.5-5.5,33-2.3,39,0
	c-4.6,3.7-11,11.9,0,13.8c11,1.9,26,6.9,32.2,9.2h13.8c4.6,0,29.9,18.4,34.5,29.9c1.8,4.5,5,5.5,8.8,5c0-0.1,0.1-0.2,0.1-0.3
	c0.9-2.6,1.6-5.1,2.3-7.7C367.9,237.6,363.5,229.7,359,221.8z M386,188.8c0-0.1,0-0.1,0-0.2c0.2-1,0.4-2,0.7-2.9
	c0.3-1.8,0.8-3.5,1.1-5.3c0.3-1.6,0.6-3.2,0.9-4.8C375.9,167.1,369.2,170.9,386,188.8z M359,221.8c-5.2-9.1-10.4-18.4-16.1-18.4
	c-9.2,0-9.9,4.6-9.2,6.9l-13.8-6.9c2.3-0.8,6.9-4.2,6.9-11.5c0-9.1,0-16.1-11.5-16.1h-27.6c-6.8,0-32.2-6.8-25.3-13.8
	c1.7-1.7,2.8-3.2,3.5-4.6c1.6-3,0.9-5.3-0.8-6.3c-0.7-0.5-1.6-0.7-2.7-0.7c-1.4,0-4.1-1.1-6.9-2.2c-6.7-2.6-14.7-5.8-11.5,2.2
	c1.2,3.1,2.8,6.4,4.3,9.5c4.1,8.5,7.6,15.8,2.5,15.8c-6.8,0-29.9-9.1-25.3-13.8s-2.3-11.5-13.8-11.5h-29.9
	c-6.8,0,6.9,13.8,20.7,16.1c13.8,2.2,18.3,11.4,9.2,13.8c-4.6,1.1-7.5,6.8-9.5,10.9c-2,4-3.2,6.3-4.3,0.5c-0.9-4.4,0-6.5,0.5-7.8
	c0.9-2.1-21.6,8.1-30.1,2.5c-3.8-2.5,15.7-15.8,12.7-18.1c-7.6-5.8-12.6-9.7-17.5-6.4c-1,0.7-2.4,1.5-4,2.5
	c-8.7,5.5-23.3,14.6-21.3,20.5c2.3,6.8-9.2,41.4-16.1,46c-0.6,0.3-1.1,0.8-1.8,1.2c-0.4,0.3-0.8,0.6-1.3,0.9c0,0,0.1,0.1,0.1,0.1
	c16.7,18.5,34.8,36.7,53.6,54.2c0,0,0.1,0.1,0.1,0.1c-8-38.9,28.5-85.6,32-90.9c4.6-6.9,16.1,0,36.7-6.9c16.5-5.5,33-2.3,39,0
	c-4.6,3.7-11,11.9,0,13.8c11,1.9,26,6.9,32.2,9.2h13.8c4.6,0,29.9,18.4,34.5,29.9c1.8,4.5,5,5.5,8.8,5c0-0.1,0.1-0.2,0.1-0.3
	c0.9-2.6,1.6-5.1,2.3-7.7C367.9,237.6,363.5,229.7,359,221.8z M386,188.8c0-0.1,0-0.1,0-0.2c0.2-1,0.4-2,0.7-2.9
	c0.3-1.8,0.8-3.5,1.1-5.3c0.3-1.6,0.6-3.2,0.9-4.8C375.9,167.1,369.2,170.9,386,188.8z M359,221.8c-5.2-9.1-10.4-18.4-16.1-18.4
	c-9.2,0-9.9,4.6-9.2,6.9l-13.8-6.9c2.3-0.8,6.9-4.2,6.9-11.5c0-9.1,0-16.1-11.5-16.1h-27.6c-6.8,0-32.2-6.8-25.3-13.8
	c1.7-1.7,2.8-3.2,3.5-4.6c1.6-3,0.9-5.3-0.8-6.3c-0.7-0.5-1.6-0.7-2.7-0.7c-1.4,0-4.1-1.1-6.9-2.2c-6.7-2.6-14.7-5.8-11.5,2.2
	c1.2,3.1,2.8,6.4,4.3,9.5c4.1,8.5,7.6,15.8,2.5,15.8c-6.8,0-29.9-9.1-25.3-13.8s-2.3-11.5-13.8-11.5h-29.9
	c-6.8,0,6.9,13.8,20.7,16.1c13.8,2.2,18.3,11.4,9.2,13.8c-4.6,1.1-7.5,6.8-9.5,10.9c-2,4-3.2,6.3-4.3,0.5c-0.9-4.4,0-6.5,0.5-7.8
	c0.9-2.1-21.6,8.1-30.1,2.5c-3.8-2.5,15.7-15.8,12.7-18.1c-7.6-5.8-12.6-9.7-17.5-6.4c-1,0.7-2.4,1.5-4,2.5
	c-8.7,5.5-23.3,14.6-21.3,20.5c2.3,6.8-9.2,41.4-16.1,46c-0.6,0.3-1.1,0.8-1.8,1.2c-0.4,0.3-0.8,0.6-1.3,0.9c0,0,0.1,0.1,0.1,0.1
	c16.7,18.5,34.8,36.7,53.6,54.2c0,0,0.1,0.1,0.1,0.1c-8-38.9,28.5-85.6,32-90.9c4.6-6.9,16.1,0,36.7-6.9c16.5-5.5,33-2.3,39,0
	c-4.6,3.7-11,11.9,0,13.8c11,1.9,26,6.9,32.2,9.2h13.8c4.6,0,29.9,18.4,34.5,29.9c1.8,4.5,5,5.5,8.8,5c0-0.1,0.1-0.2,0.1-0.3
	c0.9-2.6,1.6-5.1,2.3-7.7C367.9,237.6,363.5,229.7,359,221.8z M386,188.8c0-0.1,0-0.1,0-0.2c0.2-1,0.4-2,0.7-2.9
	c0.3-1.8,0.8-3.5,1.1-5.3c0.3-1.6,0.6-3.2,0.9-4.8C375.9,167.1,369.2,170.9,386,188.8z M359,221.8c-5.2-9.1-10.4-18.4-16.1-18.4
	c-9.2,0-9.9,4.6-9.2,6.9l-13.8-6.9c2.3-0.8,6.9-4.2,6.9-11.5c0-9.1,0-16.1-11.5-16.1h-27.6c-6.8,0-32.2-6.8-25.3-13.8
	c1.7-1.7,2.8-3.2,3.5-4.6c1.6-3,0.9-5.3-0.8-6.3c-0.7-0.5-1.6-0.7-2.7-0.7c-1.4,0-4.1-1.1-6.9-2.2c-6.7-2.6-14.7-5.8-11.5,2.2
	c1.2,3.1,2.8,6.4,4.3,9.5c4.1,8.5,7.6,15.8,2.5,15.8c-6.8,0-29.9-9.1-25.3-13.8s-2.3-11.5-13.8-11.5h-29.9
	c-6.8,0,6.9,13.8,20.7,16.1c13.8,2.2,18.3,11.4,9.2,13.8c-4.6,1.1-7.5,6.8-9.5,10.9c-2,4-3.2,6.3-4.3,0.5c-0.9-4.4,0-6.5,0.5-7.8
	c0.9-2.1-21.6,8.1-30.1,2.5c-3.8-2.5,15.7-15.8,12.7-18.1c-7.6-5.8-12.6-9.7-17.5-6.4c-1,0.7-2.4,1.5-4,2.5
	c-8.7,5.5-23.3,14.6-21.3,20.5c2.3,6.8-9.2,41.4-16.1,46c-0.6,0.3-1.1,0.8-1.8,1.2c-0.4,0.3-0.8,0.6-1.3,0.9c0,0,0.1,0.1,0.1,0.1
	c16.7,18.5,34.8,36.7,53.6,54.2c0,0,0.1,0.1,0.1,0.1c-8-38.9,28.5-85.6,32-90.9c4.6-6.9,16.1,0,36.7-6.9c16.5-5.5,33-2.3,39,0
	c-4.6,3.7-11,11.9,0,13.8c11,1.9,26,6.9,32.2,9.2h13.8c4.6,0,29.9,18.4,34.5,29.9c1.8,4.5,5,5.5,8.8,5c0-0.1,0.1-0.2,0.1-0.3
	c0.9-2.6,1.6-5.1,2.3-7.7C367.9,237.6,363.5,229.7,359,221.8z M435,185c-12.8-7.4-22.2-6.2-25.3-4.6c-2,1.3-7.6,2.4-16.1-1.9
	c-1.5-0.7-3-1.6-4.6-2.7c-0.1-0.1-0.2-0.1-0.3-0.2c-0.3,1.6-0.6,3.2-0.9,4.8c-0.3,1.8-0.8,3.5-1.1,5.3c-0.2,0.9-0.4,1.9-0.7,2.9
	c0,0.1,0,0.1,0,0.2c-3.5,16.7-8,33.7-13.2,50.6c0,0.1,0,0.2-0.1,0.2c-0.7,2.6-1.5,5.1-2.3,7.7c0,0.1-0.1,0.2-0.1,0.3
	c1.6-0.2,3.3-0.6,5.1-1.2v0c5.1-1.5,10.7-3.9,15.9-3.9c6.4,0,0.6,12.2-7.3,24.6c21.2-12.9,40.4-26.3,56.7-39.8
	c2-1.5,3.9-3.2,5.6-4.7C445.1,204.9,441.8,188.9,435,185z M386,188.8c0-0.1,0-0.1,0-0.2c0.2-1,0.4-2,0.7-2.9
	c0.3-1.8,0.8-3.5,1.1-5.3c0.3-1.6,0.6-3.2,0.9-4.8C375.9,167.1,369.2,170.9,386,188.8z M359,221.8c-5.2-9.1-10.4-18.4-16.1-18.4
	c-9.2,0-9.9,4.6-9.2,6.9l-13.8-6.9c2.3-0.8,6.9-4.2,6.9-11.5c0-9.1,0-16.1-11.5-16.1h-27.6c-6.8,0-32.2-6.8-25.3-13.8
	c1.7-1.7,2.8-3.2,3.5-4.6c1.6-3,0.9-5.3-0.8-6.3c-0.7-0.5-1.6-0.7-2.7-0.7c-1.4,0-4.1-1.1-6.9-2.2c-6.7-2.6-14.7-5.8-11.5,2.2
	c1.2,3.1,2.8,6.4,4.3,9.5c4.1,8.5,7.6,15.8,2.5,15.8c-6.8,0-29.9-9.1-25.3-13.8s-2.3-11.5-13.8-11.5h-29.9
	c-6.8,0,6.9,13.8,20.7,16.1c13.8,2.2,18.3,11.4,9.2,13.8c-4.6,1.1-7.5,6.8-9.5,10.9c-2,4-3.2,6.3-4.3,0.5c-0.9-4.4,0-6.5,0.5-7.8
	c0.9-2.1-21.6,8.1-30.1,2.5c-3.8-2.5,15.7-15.8,12.7-18.1c-7.6-5.8-12.6-9.7-17.5-6.4c-1,0.7-2.4,1.5-4,2.5
	c-8.7,5.5-23.3,14.6-21.3,20.5c2.3,6.8-9.2,41.4-16.1,46c-0.6,0.3-1.1,0.8-1.8,1.2c-0.4,0.3-0.8,0.6-1.3,0.9c0,0,0.1,0.1,0.1,0.1
	c16.7,18.5,34.8,36.7,53.6,54.2c0,0,0.1,0.1,0.1,0.1c-8-38.9,28.5-85.6,32-90.9c4.6-6.9,16.1,0,36.7-6.9c16.5-5.5,33-2.3,39,0
	c-4.6,3.7-11,11.9,0,13.8c11,1.9,26,6.9,32.2,9.2h13.8c4.6,0,29.9,18.4,34.5,29.9c1.8,4.5,5,5.5,8.8,5c0-0.1,0.1-0.2,0.1-0.3
	c0.9-2.6,1.6-5.1,2.3-7.7C367.9,237.6,363.5,229.7,359,221.8z M435,185c-12.8-7.4-22.2-6.2-25.3-4.6c-2,1.3-7.6,2.4-16.1-1.9
	c-1.5-0.7-3-1.6-4.6-2.7c-0.1-0.1-0.2-0.1-0.3-0.2c-0.3,1.6-0.6,3.2-0.9,4.8c-0.3,1.8-0.8,3.5-1.1,5.3c-0.2,0.9-0.4,1.9-0.7,2.9
	c0,0.1,0,0.1,0,0.2c-3.5,16.7-8,33.7-13.2,50.6c0,0.1,0,0.2-0.1,0.2c-0.7,2.6-1.5,5.1-2.3,7.7c0,0.1-0.1,0.2-0.1,0.3
	c1.6-0.2,3.3-0.6,5.1-1.2v0c5.1-1.5,10.7-3.9,15.9-3.9c6.4,0,0.6,12.2-7.3,24.6c21.2-12.9,40.4-26.3,56.7-39.8
	c2-1.5,3.9-3.2,5.6-4.7C445.1,204.9,441.8,188.9,435,185z M386,188.8c0-0.1,0-0.1,0-0.2c0.2-1,0.4-2,0.7-2.9
	c0.3-1.8,0.8-3.5,1.1-5.3c0.3-1.6,0.6-3.2,0.9-4.8C375.9,167.1,369.2,170.9,386,188.8z M359,221.8c-5.2-9.1-10.4-18.4-16.1-18.4
	c-9.2,0-9.9,4.6-9.2,6.9l-13.8-6.9c2.3-0.8,6.9-4.2,6.9-11.5c0-9.1,0-16.1-11.5-16.1h-27.6c-6.8,0-32.2-6.8-25.3-13.8
	c1.7-1.7,2.8-3.2,3.5-4.6c1.6-3,0.9-5.3-0.8-6.3c-0.7-0.5-1.6-0.7-2.7-0.7c-1.4,0-4.1-1.1-6.9-2.2c-6.7-2.6-14.7-5.8-11.5,2.2
	c1.2,3.1,2.8,6.4,4.3,9.5c4.1,8.5,7.6,15.8,2.5,15.8c-6.8,0-29.9-9.1-25.3-13.8s-2.3-11.5-13.8-11.5h-29.9
	c-6.8,0,6.9,13.8,20.7,16.1c13.8,2.2,18.3,11.4,9.2,13.8c-4.6,1.1-7.5,6.8-9.5,10.9c-2,4-3.2,6.3-4.3,0.5c-0.9-4.4,0-6.5,0.5-7.8
	c0.9-2.1-21.6,8.1-30.1,2.5c-3.8-2.5,15.7-15.8,12.7-18.1c-7.6-5.8-12.6-9.7-17.5-6.4c-1,0.7-2.4,1.5-4,2.5
	c-8.7,5.5-23.3,14.6-21.3,20.5c2.3,6.8-9.2,41.4-16.1,46c-0.6,0.3-1.1,0.8-1.8,1.2c-0.4,0.3-0.8,0.6-1.3,0.9c0,0,0.1,0.1,0.1,0.1
	c16.7,18.5,34.8,36.7,53.6,54.2c0,0,0.1,0.1,0.1,0.1c-8-38.9,28.5-85.6,32-90.9c4.6-6.9,16.1,0,36.7-6.9c16.5-5.5,33-2.3,39,0
	c-4.6,3.7-11,11.9,0,13.8c11,1.9,26,6.9,32.2,9.2h13.8c4.6,0,29.9,18.4,34.5,29.9c1.8,4.5,5,5.5,8.8,5c0-0.1,0.1-0.2,0.1-0.3
	c0.9-2.6,1.6-5.1,2.3-7.7C367.9,237.6,363.5,229.7,359,221.8z M435,185c-12.8-7.4-22.2-6.2-25.3-4.6c-2,1.3-7.6,2.4-16.1-1.9
	c-1.5-0.7-3-1.6-4.6-2.7c-0.1-0.1-0.2-0.1-0.3-0.2c-0.3,1.6-0.6,3.2-0.9,4.8c-0.3,1.8-0.8,3.5-1.1,5.3c-0.2,0.9-0.4,1.9-0.7,2.9
	c0,0.1,0,0.1,0,0.2c-3.5,16.7-8,33.7-13.2,50.6c0,0.1,0,0.2-0.1,0.2c-0.7,2.6-1.5,5.1-2.3,7.7c0,0.1-0.1,0.2-0.1,0.3
	c1.6-0.2,3.3-0.6,5.1-1.2v0c5.1-1.5,10.7-3.9,15.9-3.9c6.4,0,0.6,12.2-7.3,24.6c21.2-12.9,40.4-26.3,56.7-39.8
	c2-1.5,3.9-3.2,5.6-4.7C445.1,204.9,441.8,188.9,435,185z M386,188.8c0-0.1,0-0.1,0-0.2c0.2-1,0.4-2,0.7-2.9
	c0.3-1.8,0.8-3.5,1.1-5.3c0.3-1.6,0.6-3.2,0.9-4.8C375.9,167.1,369.2,170.9,386,188.8z M359,221.8c-5.2-9.1-10.4-18.4-16.1-18.4
	c-9.2,0-9.9,4.6-9.2,6.9l-13.8-6.9c2.3-0.8,6.9-4.2,6.9-11.5c0-9.1,0-16.1-11.5-16.1h-27.6c-6.8,0-32.2-6.8-25.3-13.8
	c1.7-1.7,2.8-3.2,3.5-4.6c1.6-3,0.9-5.3-0.8-6.3c-0.7-0.5-1.6-0.7-2.7-0.7c-1.4,0-4.1-1.1-6.9-2.2c-6.7-2.6-14.7-5.8-11.5,2.2
	c1.2,3.1,2.8,6.4,4.3,9.5c4.1,8.5,7.6,15.8,2.5,15.8c-6.8,0-29.9-9.1-25.3-13.8s-2.3-11.5-13.8-11.5h-29.9
	c-6.8,0,6.9,13.8,20.7,16.1c13.8,2.2,18.3,11.4,9.2,13.8c-4.6,1.1-7.5,6.8-9.5,10.9c-2,4-3.2,6.3-4.3,0.5c-0.9-4.4,0-6.5,0.5-7.8
	c0.9-2.1-21.6,8.1-30.1,2.5c-3.8-2.5,15.7-15.8,12.7-18.1c-7.6-5.8-12.6-9.7-17.5-6.4c-1,0.7-2.4,1.5-4,2.5
	c-8.7,5.5-23.3,14.6-21.3,20.5c2.3,6.8-9.2,41.4-16.1,46c-0.6,0.3-1.1,0.8-1.8,1.2c-0.4,0.3-0.8,0.6-1.3,0.9c0,0,0.1,0.1,0.1,0.1
	c16.7,18.5,34.8,36.7,53.6,54.2c0,0,0.1,0.1,0.1,0.1c-8-38.9,28.5-85.6,32-90.9c4.6-6.9,16.1,0,36.7-6.9c16.5-5.5,33-2.3,39,0
	c-4.6,3.7-11,11.9,0,13.8c11,1.9,26,6.9,32.2,9.2h13.8c4.6,0,29.9,18.4,34.5,29.9c1.8,4.5,5,5.5,8.8,5c0-0.1,0.1-0.2,0.1-0.3
	c0.9-2.6,1.6-5.1,2.3-7.7C367.9,237.6,363.5,229.7,359,221.8z M435,185c-12.8-7.4-22.2-6.2-25.3-4.6c-2,1.3-7.6,2.4-16.1-1.9
	c-1.5-0.7-3-1.6-4.6-2.7c-0.1-0.1-0.2-0.1-0.3-0.2c-0.3,1.6-0.6,3.2-0.9,4.8c-0.3,1.8-0.8,3.5-1.1,5.3c-0.2,0.9-0.4,1.9-0.7,2.9
	c0,0.1,0,0.1,0,0.2c-3.5,16.7-8,33.7-13.2,50.6c0,0.1,0,0.2-0.1,0.2c-0.7,2.6-1.5,5.1-2.3,7.7c0,0.1-0.1,0.2-0.1,0.3
	c1.6-0.2,3.3-0.6,5.1-1.2v0c5.1-1.5,10.7-3.9,15.9-3.9c6.4,0,0.6,12.2-7.3,24.6c21.2-12.9,40.4-26.3,56.7-39.8
	c2-1.5,3.9-3.2,5.6-4.7C445.1,204.9,441.8,188.9,435,185z M386,188.8c0-0.1,0-0.1,0-0.2c0.2-1,0.4-2,0.7-2.9
	c0.3-1.8,0.8-3.5,1.1-5.3c0.3-1.6,0.6-3.2,0.9-4.8C375.9,167.1,369.2,170.9,386,188.8z M359,221.8c-5.2-9.1-10.4-18.4-16.1-18.4
	c-9.2,0-9.9,4.6-9.2,6.9l-13.8-6.9c2.3-0.8,6.9-4.2,6.9-11.5c0-9.1,0-16.1-11.5-16.1h-27.6c-6.8,0-32.2-6.8-25.3-13.8
	c1.7-1.7,2.8-3.2,3.5-4.6c1.6-3,0.9-5.3-0.8-6.3c-0.7-0.5-1.6-0.7-2.7-0.7c-1.4,0-4.1-1.1-6.9-2.2c-6.7-2.6-14.7-5.8-11.5,2.2
	c1.2,3.1,2.8,6.4,4.3,9.5c4.1,8.5,7.6,15.8,2.5,15.8c-6.8,0-29.9-9.1-25.3-13.8s-2.3-11.5-13.8-11.5h-29.9
	c-6.8,0,6.9,13.8,20.7,16.1c13.8,2.2,18.3,11.4,9.2,13.8c-4.6,1.1-7.5,6.8-9.5,10.9c-2,4-3.2,6.3-4.3,0.5c-0.9-4.4,0-6.5,0.5-7.8
	c0.9-2.1-21.6,8.1-30.1,2.5c-3.8-2.5,15.7-15.8,12.7-18.1c-7.6-5.8-12.6-9.7-17.5-6.4c-1,0.7-2.4,1.5-4,2.5
	c-8.7,5.5-23.3,14.6-21.3,20.5c2.3,6.8-9.2,41.4-16.1,46c-0.6,0.3-1.1,0.8-1.8,1.2c-0.4,0.3-0.8,0.6-1.3,0.9c0,0,0.1,0.1,0.1,0.1
	c16.7,18.5,34.8,36.7,53.6,54.2c0,0,0.1,0.1,0.1,0.1c-8-38.9,28.5-85.6,32-90.9c4.6-6.9,16.1,0,36.7-6.9c16.5-5.5,33-2.3,39,0
	c-4.6,3.7-11,11.9,0,13.8c11,1.9,26,6.9,32.2,9.2h13.8c4.6,0,29.9,18.4,34.5,29.9c1.8,4.5,5,5.5,8.8,5c0-0.1,0.1-0.2,0.1-0.3
	c0.9-2.6,1.6-5.1,2.3-7.7C367.9,237.6,363.5,229.7,359,221.8z M435,185c-12.8-7.4-22.2-6.2-25.3-4.6c-2,1.3-7.6,2.4-16.1-1.9
	c-1.5-0.7-3-1.6-4.6-2.7c-0.1-0.1-0.2-0.1-0.3-0.2c-0.3,1.6-0.6,3.2-0.9,4.8c-0.3,1.8-0.8,3.5-1.1,5.3c-0.2,0.9-0.4,1.9-0.7,2.9
	c0,0.1,0,0.1,0,0.2c-3.5,16.7-8,33.7-13.2,50.6c0,0.1,0,0.2-0.1,0.2c-0.7,2.6-1.5,5.1-2.3,7.7c0,0.1-0.1,0.2-0.1,0.3
	c1.6-0.2,3.3-0.6,5.1-1.2v0c5.1-1.5,10.7-3.9,15.9-3.9c6.4,0,0.6,12.2-7.3,24.6c21.2-12.9,40.4-26.3,56.7-39.8
	c2-1.5,3.9-3.2,5.6-4.7C445.1,204.9,441.8,188.9,435,185z M386,188.8c0-0.1,0-0.1,0-0.2c0.2-1,0.4-2,0.7-2.9
	c0.3-1.8,0.8-3.5,1.1-5.3c0.3-1.6,0.6-3.2,0.9-4.8C375.9,167.1,369.2,170.9,386,188.8z M359,221.8c-5.2-9.1-10.4-18.4-16.1-18.4
	c-9.2,0-9.9,4.6-9.2,6.9l-13.8-6.9c2.3-0.8,6.9-4.2,6.9-11.5c0-9.1,0-16.1-11.5-16.1h-27.6c-6.8,0-32.2-6.8-25.3-13.8
	c1.7-1.7,2.8-3.2,3.5-4.6c1.6-3,0.9-5.3-0.8-6.3c-0.7-0.5-1.6-0.7-2.7-0.7c-1.4,0-4.1-1.1-6.9-2.2c-6.7-2.6-14.7-5.8-11.5,2.2
	c1.2,3.1,2.8,6.4,4.3,9.5c4.1,8.5,7.6,15.8,2.5,15.8c-6.8,0-29.9-9.1-25.3-13.8s-2.3-11.5-13.8-11.5h-29.9
	c-6.8,0,6.9,13.8,20.7,16.1c13.8,2.2,18.3,11.4,9.2,13.8c-4.6,1.1-7.5,6.8-9.5,10.9c-2,4-3.2,6.3-4.3,0.5c-0.9-4.4,0-6.5,0.5-7.8
	c0.9-2.1-21.6,8.1-30.1,2.5c-3.8-2.5,15.7-15.8,12.7-18.1c-7.6-5.8-12.6-9.7-17.5-6.4c-1,0.7-2.4,1.5-4,2.5
	c-8.7,5.5-23.3,14.6-21.3,20.5c2.3,6.8-9.2,41.4-16.1,46c-0.6,0.3-1.1,0.8-1.8,1.2c-0.4,0.3-0.8,0.6-1.3,0.9c0,0,0.1,0.1,0.1,0.1
	c16.7,18.5,34.8,36.7,53.6,54.2c0,0,0.1,0.1,0.1,0.1c-8-38.9,28.5-85.6,32-90.9c4.6-6.9,16.1,0,36.7-6.9c16.5-5.5,33-2.3,39,0
	c-4.6,3.7-11,11.9,0,13.8c11,1.9,26,6.9,32.2,9.2h13.8c4.6,0,29.9,18.4,34.5,29.9c1.8,4.5,5,5.5,8.8,5c0-0.1,0.1-0.2,0.1-0.3
	c0.9-2.6,1.6-5.1,2.3-7.7C367.9,237.6,363.5,229.7,359,221.8z M277.4,326.6c-13.1,5.5-26.1,10.7-39.3,15.7c0,0,0,0-0.1,0
	c16.9,12.9,33.7,24.7,50.2,35.2C290.5,363.2,296.8,336.5,277.4,326.6z M435,185c-12.8-7.4-22.2-6.2-25.3-4.6
	c-2,1.3-7.6,2.4-16.1-1.9c-1.5-0.7-3-1.6-4.6-2.7c-0.1-0.1-0.2-0.1-0.3-0.2c-0.3,1.6-0.6,3.2-0.9,4.8c-0.3,1.8-0.8,3.5-1.1,5.3
	c-0.2,0.9-0.4,1.9-0.7,2.9c0,0.1,0,0.1,0,0.2c-3.5,16.7-8,33.7-13.2,50.6c0,0.1,0,0.2-0.1,0.2c-0.7,2.6-1.5,5.1-2.3,7.7
	c0,0.1-0.1,0.2-0.1,0.3c1.6-0.2,3.3-0.6,5.1-1.2v0c5.1-1.5,10.7-3.9,15.9-3.9c6.4,0,0.6,12.2-7.3,24.6
	c21.2-12.9,40.4-26.3,56.7-39.8c2-1.5,3.9-3.2,5.6-4.7C445.1,204.9,441.8,188.9,435,185z M386,188.8c0-0.1,0-0.1,0-0.2
	c0.2-1,0.4-2,0.7-2.9c0.3-1.8,0.8-3.5,1.1-5.3c0.3-1.6,0.6-3.2,0.9-4.8C375.9,167.1,369.2,170.9,386,188.8z M359,221.8
	c-5.2-9.1-10.4-18.4-16.1-18.4c-9.2,0-9.9,4.6-9.2,6.9l-13.8-6.9c2.3-0.8,6.9-4.2,6.9-11.5c0-9.1,0-16.1-11.5-16.1h-27.6
	c-6.8,0-32.2-6.8-25.3-13.8c1.7-1.7,2.8-3.2,3.5-4.6c1.6-3,0.9-5.3-0.8-6.3c-0.7-0.5-1.6-0.7-2.7-0.7c-1.4,0-4.1-1.1-6.9-2.2
	c-6.7-2.6-14.7-5.8-11.5,2.2c1.2,3.1,2.8,6.4,4.3,9.5c4.1,8.5,7.6,15.8,2.5,15.8c-6.8,0-29.9-9.1-25.3-13.8s-2.3-11.5-13.8-11.5
	h-29.9c-6.8,0,6.9,13.8,20.7,16.1c13.8,2.2,18.3,11.4,9.2,13.8c-4.6,1.1-7.5,6.8-9.5,10.9c-2,4-3.2,6.3-4.3,0.5
	c-0.9-4.4,0-6.5,0.5-7.8c0.9-2.1-21.6,8.1-30.1,2.5c-3.8-2.5,15.7-15.8,12.7-18.1c-7.6-5.8-12.6-9.7-17.5-6.4c-1,0.7-2.4,1.5-4,2.5
	c-8.7,5.5-23.3,14.6-21.3,20.5c2.3,6.8-9.2,41.4-16.1,46c-0.6,0.3-1.1,0.8-1.8,1.2c-0.4,0.3-0.8,0.6-1.3,0.9c0,0,0.1,0.1,0.1,0.1
	c16.7,18.5,34.8,36.7,53.6,54.2c0,0,0.1,0.1,0.1,0.1c-8-38.9,28.5-85.6,32-90.9c4.6-6.9,16.1,0,36.7-6.9c16.5-5.5,33-2.3,39,0
	c-4.6,3.7-11,11.9,0,13.8c11,1.9,26,6.9,32.2,9.2h13.8c4.6,0,29.9,18.4,34.5,29.9c1.8,4.5,5,5.5,8.8,5c0-0.1,0.1-0.2,0.1-0.3
	c0.9-2.6,1.6-5.1,2.3-7.7C367.9,237.6,363.5,229.7,359,221.8z M277.4,326.6c-13.1,5.5-26.1,10.7-39.3,15.7c0,0,0,0-0.1,0
	c16.9,12.9,33.7,24.7,50.2,35.2C290.5,363.2,296.8,336.5,277.4,326.6z M435,185c-12.8-7.4-22.2-6.2-25.3-4.6
	c-2,1.3-7.6,2.4-16.1-1.9c-1.5-0.7-3-1.6-4.6-2.7c-0.1-0.1-0.2-0.1-0.3-0.2c-0.3,1.6-0.6,3.2-0.9,4.8c-0.3,1.8-0.8,3.5-1.1,5.3
	c-0.2,0.9-0.4,1.9-0.7,2.9c0,0.1,0,0.1,0,0.2c-3.5,16.7-8,33.7-13.2,50.6c0,0.1,0,0.2-0.1,0.2c-0.7,2.6-1.5,5.1-2.3,7.7
	c0,0.1-0.1,0.2-0.1,0.3c1.6-0.2,3.3-0.6,5.1-1.2v0c5.1-1.5,10.7-3.9,15.9-3.9c6.4,0,0.6,12.2-7.3,24.6
	c21.2-12.9,40.4-26.3,56.7-39.8c2-1.5,3.9-3.2,5.6-4.7C445.1,204.9,441.8,188.9,435,185z M386,188.8c0-0.1,0-0.1,0-0.2
	c0.2-1,0.4-2,0.7-2.9c0.3-1.8,0.8-3.5,1.1-5.3c0.3-1.6,0.6-3.2,0.9-4.8C375.9,167.1,369.2,170.9,386,188.8z M359,221.8
	c-5.2-9.1-10.4-18.4-16.1-18.4c-9.2,0-9.9,4.6-9.2,6.9l-13.8-6.9c2.3-0.8,6.9-4.2,6.9-11.5c0-9.1,0-16.1-11.5-16.1h-27.6
	c-6.8,0-32.2-6.8-25.3-13.8c1.7-1.7,2.8-3.2,3.5-4.6c1.6-3,0.9-5.3-0.8-6.3c-0.7-0.5-1.6-0.7-2.7-0.7c-1.4,0-4.1-1.1-6.9-2.2
	c-6.7-2.6-14.7-5.8-11.5,2.2c1.2,3.1,2.8,6.4,4.3,9.5c4.1,8.5,7.6,15.8,2.5,15.8c-6.8,0-29.9-9.1-25.3-13.8s-2.3-11.5-13.8-11.5
	h-29.9c-6.8,0,6.9,13.8,20.7,16.1c13.8,2.2,18.3,11.4,9.2,13.8c-4.6,1.1-7.5,6.8-9.5,10.9c-2,4-3.2,6.3-4.3,0.5
	c-0.9-4.4,0-6.5,0.5-7.8c0.9-2.1-21.6,8.1-30.1,2.5c-3.8-2.5,15.7-15.8,12.7-18.1c-7.6-5.8-12.6-9.7-17.5-6.4c-1,0.7-2.4,1.5-4,2.5
	c-8.7,5.5-23.3,14.6-21.3,20.5c2.3,6.8-9.2,41.4-16.1,46c-0.6,0.3-1.1,0.8-1.8,1.2c-0.4,0.3-0.8,0.6-1.3,0.9c0,0,0.1,0.1,0.1,0.1
	c16.7,18.5,34.8,36.7,53.6,54.2c0,0,0.1,0.1,0.1,0.1c-8-38.9,28.5-85.6,32-90.9c4.6-6.9,16.1,0,36.7-6.9c16.5-5.5,33-2.3,39,0
	c-4.6,3.7-11,11.9,0,13.8c11,1.9,26,6.9,32.2,9.2h13.8c4.6,0,29.9,18.4,34.5,29.9c1.8,4.5,5,5.5,8.8,5c0-0.1,0.1-0.2,0.1-0.3
	c0.9-2.6,1.6-5.1,2.3-7.7C367.9,237.6,363.5,229.7,359,221.8z M277.4,326.6c-13.1,5.5-26.1,10.7-39.3,15.7c0,0,0,0-0.1,0
	c16.9,12.9,33.7,24.7,50.2,35.2C290.5,363.2,296.8,336.5,277.4,326.6z M435,185c-12.8-7.4-22.2-6.2-25.3-4.6
	c-2,1.3-7.6,2.4-16.1-1.9c-1.5-0.7-3-1.6-4.6-2.7c-0.1-0.1-0.2-0.1-0.3-0.2c-0.3,1.6-0.6,3.2-0.9,4.8c-0.3,1.8-0.8,3.5-1.1,5.3
	c-0.2,0.9-0.4,1.9-0.7,2.9c0,0.1,0,0.1,0,0.2c-3.5,16.7-8,33.7-13.2,50.6c0,0.1,0,0.2-0.1,0.2c-0.7,2.6-1.5,5.1-2.3,7.7
	c0,0.1-0.1,0.2-0.1,0.3c1.6-0.2,3.3-0.6,5.1-1.2v0c5.1-1.5,10.7-3.9,15.9-3.9c6.4,0,0.6,12.2-7.3,24.6
	c21.2-12.9,40.4-26.3,56.7-39.8c2-1.5,3.9-3.2,5.6-4.7C445.1,204.9,441.8,188.9,435,185z M277.4,326.6
	c-13.1,5.5-26.1,10.7-39.3,15.7c0,0,0,0-0.1,0c16.9,12.9,33.7,24.7,50.2,35.2C290.5,363.2,296.8,336.5,277.4,326.6z M386,188.8
	c0-0.1,0-0.1,0-0.2c0.2-1,0.4-2,0.7-2.9c0.3-1.8,0.8-3.5,1.1-5.3c0.3-1.6,0.6-3.2,0.9-4.8C375.9,167.1,369.2,170.9,386,188.8z
	 M359,221.8c-5.2-9.1-10.4-18.4-16.1-18.4c-9.2,0-9.9,4.6-9.2,6.9l-13.8-6.9c2.3-0.8,6.9-4.2,6.9-11.5c0-9.1,0-16.1-11.5-16.1h-27.6
	c-6.8,0-32.2-6.8-25.3-13.8c1.7-1.7,2.8-3.2,3.5-4.6c1.6-3,0.9-5.3-0.8-6.3c-0.7-0.5-1.6-0.7-2.7-0.7c-1.4,0-4.1-1.1-6.9-2.2
	c-6.7-2.6-14.7-5.8-11.5,2.2c1.2,3.1,2.8,6.4,4.3,9.5c4.1,8.5,7.6,15.8,2.5,15.8c-6.8,0-29.9-9.1-25.3-13.8s-2.3-11.5-13.8-11.5
	h-29.9c-6.8,0,6.9,13.8,20.7,16.1c13.8,2.2,18.3,11.4,9.2,13.8c-4.6,1.1-7.5,6.8-9.5,10.9c-2,4-3.2,6.3-4.3,0.5
	c-0.9-4.4,0-6.5,0.5-7.8c0.9-2.1-21.6,8.1-30.1,2.5c-3.8-2.5,15.7-15.8,12.7-18.1c-7.6-5.8-12.6-9.7-17.5-6.4c-1,0.7-2.4,1.5-4,2.5
	c-8.7,5.5-23.3,14.6-21.3,20.5c2.3,6.8-9.2,41.4-16.1,46c-0.6,0.3-1.1,0.8-1.8,1.2c-0.4,0.3-0.8,0.6-1.3,0.9c0,0,0.1,0.1,0.1,0.1
	c16.7,18.5,34.8,36.7,53.6,54.2c0,0,0.1,0.1,0.1,0.1c-8-38.9,28.5-85.6,32-90.9c4.6-6.9,16.1,0,36.7-6.9c16.5-5.5,33-2.3,39,0
	c-4.6,3.7-11,11.9,0,13.8c11,1.9,26,6.9,32.2,9.2h13.8c4.6,0,29.9,18.4,34.5,29.9c1.8,4.5,5,5.5,8.8,5c0-0.1,0.1-0.2,0.1-0.3
	c0.9-2.6,1.6-5.1,2.3-7.7C367.9,237.6,363.5,229.7,359,221.8z M435,185c-12.8-7.4-22.2-6.2-25.3-4.6c-2,1.3-7.6,2.4-16.1-1.9
	c-1.5-0.7-3-1.6-4.6-2.7c-0.1-0.1-0.2-0.1-0.3-0.2c-0.3,1.6-0.6,3.2-0.9,4.8c-0.3,1.8-0.8,3.5-1.1,5.3c-0.2,0.9-0.4,1.9-0.7,2.9
	c0,0.1,0,0.1,0,0.2c-3.5,16.7-8,33.7-13.2,50.6c0,0.1,0,0.2-0.1,0.2c-0.7,2.6-1.5,5.1-2.3,7.7c0,0.1-0.1,0.2-0.1,0.3
	c1.6-0.2,3.3-0.6,5.1-1.2v0c5.1-1.5,10.7-3.9,15.9-3.9c6.4,0,0.6,12.2-7.3,24.6c21.2-12.9,40.4-26.3,56.7-39.8
	c2-1.5,3.9-3.2,5.6-4.7C445.1,204.9,441.8,188.9,435,185z M277.4,326.6c-13.1,5.5-26.1,10.7-39.3,15.7c0,0,0,0-0.1,0
	c16.9,12.9,33.7,24.7,50.2,35.2C290.5,363.2,296.8,336.5,277.4,326.6z M386,188.8c0-0.1,0-0.1,0-0.2c0.2-1,0.4-2,0.7-2.9
	c0.3-1.8,0.8-3.5,1.1-5.3c0.3-1.6,0.6-3.2,0.9-4.8C375.9,167.1,369.2,170.9,386,188.8z M359,221.8c-5.2-9.1-10.4-18.4-16.1-18.4
	c-9.2,0-9.9,4.6-9.2,6.9l-13.8-6.9c2.3-0.8,6.9-4.2,6.9-11.5c0-9.1,0-16.1-11.5-16.1h-27.6c-6.8,0-32.2-6.8-25.3-13.8
	c1.7-1.7,2.8-3.2,3.5-4.6c1.6-3,0.9-5.3-0.8-6.3c-0.7-0.5-1.6-0.7-2.7-0.7c-1.4,0-4.1-1.1-6.9-2.2c-6.7-2.6-14.7-5.8-11.5,2.2
	c1.2,3.1,2.8,6.4,4.3,9.5c4.1,8.5,7.6,15.8,2.5,15.8c-6.8,0-29.9-9.1-25.3-13.8s-2.3-11.5-13.8-11.5h-29.9
	c-6.8,0,6.9,13.8,20.7,16.1c13.8,2.2,18.3,11.4,9.2,13.8c-4.6,1.1-7.5,6.8-9.5,10.9c-2,4-3.2,6.3-4.3,0.5c-0.9-4.4,0-6.5,0.5-7.8
	c0.9-2.1-21.6,8.1-30.1,2.5c-3.8-2.5,15.7-15.8,12.7-18.1c-7.6-5.8-12.6-9.7-17.5-6.4c-1,0.7-2.4,1.5-4,2.5
	c-8.7,5.5-23.3,14.6-21.3,20.5c2.3,6.8-9.2,41.4-16.1,46c-0.6,0.3-1.1,0.8-1.8,1.2c-0.4,0.3-0.8,0.6-1.3,0.9c0,0,0.1,0.1,0.1,0.1
	c16.7,18.5,34.8,36.7,53.6,54.2c0,0,0.1,0.1,0.1,0.1c-8-38.9,28.5-85.6,32-90.9c4.6-6.9,16.1,0,36.7-6.9c16.5-5.5,33-2.3,39,0
	c-4.6,3.7-11,11.9,0,13.8c11,1.9,26,6.9,32.2,9.2h13.8c4.6,0,29.9,18.4,34.5,29.9c1.8,4.5,5,5.5,8.8,5c0-0.1,0.1-0.2,0.1-0.3
	c0.9-2.6,1.6-5.1,2.3-7.7C367.9,237.6,363.5,229.7,359,221.8z M435,185c-12.8-7.4-22.2-6.2-25.3-4.6c-2,1.3-7.6,2.4-16.1-1.9
	c-1.5-0.7-3-1.6-4.6-2.7c-0.1-0.1-0.2-0.1-0.3-0.2c-0.3,1.6-0.6,3.2-0.9,4.8c-0.3,1.8-0.8,3.5-1.1,5.3c-0.2,0.9-0.4,1.9-0.7,2.9
	c0,0.1,0,0.1,0,0.2c-3.5,16.7-8,33.7-13.2,50.6c0,0.1,0,0.2-0.1,0.2c-0.7,2.6-1.5,5.1-2.3,7.7c0,0.1-0.1,0.2-0.1,0.3
	c1.6-0.2,3.3-0.6,5.1-1.2v0c5.1-1.5,10.7-3.9,15.9-3.9c6.4,0,0.6,12.2-7.3,24.6c21.2-12.9,40.4-26.3,56.7-39.8
	c2-1.5,3.9-3.2,5.6-4.7C445.1,204.9,441.8,188.9,435,185z M277.4,326.6c-13.1,5.5-26.1,10.7-39.3,15.7c0,0,0,0-0.1,0
	c16.9,12.9,33.7,24.7,50.2,35.2C290.5,363.2,296.8,336.5,277.4,326.6z M386,188.8c0-0.1,0-0.1,0-0.2c0.2-1,0.4-2,0.7-2.9
	c0.3-1.8,0.8-3.5,1.1-5.3c0.3-1.6,0.6-3.2,0.9-4.8C375.9,167.1,369.2,170.9,386,188.8z M359,221.8c-5.2-9.1-10.4-18.4-16.1-18.4
	c-9.2,0-9.9,4.6-9.2,6.9l-13.8-6.9c2.3-0.8,6.9-4.2,6.9-11.5c0-9.1,0-16.1-11.5-16.1h-27.6c-6.8,0-32.2-6.8-25.3-13.8
	c1.7-1.7,2.8-3.2,3.5-4.6c1.6-3,0.9-5.3-0.8-6.3c-0.7-0.5-1.6-0.7-2.7-0.7c-1.4,0-4.1-1.1-6.9-2.2c-6.7-2.6-14.7-5.8-11.5,2.2
	c1.2,3.1,2.8,6.4,4.3,9.5c4.1,8.5,7.6,15.8,2.5,15.8c-6.8,0-29.9-9.1-25.3-13.8s-2.3-11.5-13.8-11.5h-29.9
	c-6.8,0,6.9,13.8,20.7,16.1c13.8,2.2,18.3,11.4,9.2,13.8c-4.6,1.1-7.5,6.8-9.5,10.9c-2,4-3.2,6.3-4.3,0.5c-0.9-4.4,0-6.5,0.5-7.8
	c0.9-2.1-21.6,8.1-30.1,2.5c-3.8-2.5,15.7-15.8,12.7-18.1c-7.6-5.8-12.6-9.7-17.5-6.4c-1,0.7-2.4,1.5-4,2.5
	c-8.7,5.5-23.3,14.6-21.3,20.5c2.3,6.8-9.2,41.4-16.1,46c-0.6,0.3-1.1,0.8-1.8,1.2c-0.4,0.3-0.8,0.6-1.3,0.9c0,0,0.1,0.1,0.1,0.1
	c16.7,18.5,34.8,36.7,53.6,54.2c0,0,0.1,0.1,0.1,0.1c-8-38.9,28.5-85.6,32-90.9c4.6-6.9,16.1,0,36.7-6.9c16.5-5.5,33-2.3,39,0
	c-4.6,3.7-11,11.9,0,13.8c11,1.9,26,6.9,32.2,9.2h13.8c4.6,0,29.9,18.4,34.5,29.9c1.8,4.5,5,5.5,8.8,5c0-0.1,0.1-0.2,0.1-0.3
	c0.9-2.6,1.6-5.1,2.3-7.7C367.9,237.6,363.5,229.7,359,221.8z M435,185c-12.8-7.4-22.2-6.2-25.3-4.6c-2,1.3-7.6,2.4-16.1-1.9
	c-1.5-0.7-3-1.6-4.6-2.7c-0.1-0.1-0.2-0.1-0.3-0.2c-0.3,1.6-0.6,3.2-0.9,4.8c-0.3,1.8-0.8,3.5-1.1,5.3c-0.2,0.9-0.4,1.9-0.7,2.9
	c0,0.1,0,0.1,0,0.2c-3.5,16.7-8,33.7-13.2,50.6c0,0.1,0,0.2-0.1,0.2c-0.7,2.6-1.5,5.1-2.3,7.7c0,0.1-0.1,0.2-0.1,0.3
	c1.6-0.2,3.3-0.6,5.1-1.2v0c5.1-1.5,10.7-3.9,15.9-3.9c6.4,0,0.6,12.2-7.3,24.6c21.2-12.9,40.4-26.3,56.7-39.8
	c2-1.5,3.9-3.2,5.6-4.7C445.1,204.9,441.8,188.9,435,185z M435,185c-12.8-7.4-22.2-6.2-25.3-4.6c-2,1.3-7.6,2.4-16.1-1.9
	c-1.5-0.7-3-1.6-4.6-2.7c-0.1-0.1-0.2-0.1-0.3-0.2c-12.9-8.5-19.6-4.8-2.7,13.1c-3.5,16.7-8,33.7-13.2,50.6c0,0.1,0,0.2-0.1,0.2
	c-4.8-2-9.3-9.9-13.7-17.8c-5.2-9.1-10.4-18.4-16.1-18.4c-9.2,0-9.9,4.6-9.2,6.9l-13.8-6.9c2.3-0.8,6.9-4.2,6.9-11.5
	c0-9.1,0-16.1-11.5-16.1h-27.6c-6.8,0-32.2-6.8-25.3-13.8c1.7-1.7,2.8-3.2,3.5-4.6c1.6-3,0.9-5.3-0.8-6.3c-0.7-0.5-1.6-0.7-2.7-0.7
	c-1.4,0-4.1-1.1-6.9-2.2c-6.7-2.6-14.7-5.8-11.5,2.2c1.2,3.1,2.8,6.4,4.3,9.5c4.1,8.5,7.6,15.8,2.5,15.8c-6.8,0-29.9-9.1-25.3-13.8
	s-2.3-11.5-13.8-11.5h-29.9c-6.8,0,6.9,13.8,20.7,16.1c13.8,2.2,18.3,11.4,9.2,13.8c-4.6,1.1-7.5,6.8-9.5,10.9c-2,4-3.2,6.3-4.3,0.5
	c-0.9-4.4,0-6.5,0.5-7.8c0.9-2.1-21.6,8.1-30.1,2.5c-3.8-2.5,15.7-15.8,12.7-18.1c-7.6-5.8-12.6-9.7-17.5-6.4c-1,0.7-2.4,1.5-4,2.5
	c-8.7,5.5-23.3,14.6-21.3,20.5c2.3,6.8-9.2,41.4-16.1,46c-0.6,0.3-1.1,0.8-1.8,1.2c-0.4,0.3-0.8,0.6-1.3,0.9c0,0,0.1,0.1,0.1,0.1
	c16.7,18.5,34.8,36.7,53.6,54.2c0,0,0.1,0.1,0.1,0.1c-8-38.9,28.5-85.6,32-90.9c4.6-6.9,16.1,0,36.7-6.9c16.5-5.5,33-2.3,39,0
	c-4.6,3.7-11,11.9,0,13.8c11,1.9,26,6.9,32.2,9.2h13.8c4.6,0,29.9,18.4,34.5,29.9c1.8,4.5,5,5.5,8.8,5c1.6-0.2,3.3-0.6,5.1-1.2v0
	c5.1-1.5,10.7-3.9,15.9-3.9c6.4,0,0.6,12.2-7.3,24.6c21.2-12.9,40.4-26.3,56.7-39.8c2-1.5,3.9-3.2,5.6-4.7
	C445.1,204.9,441.8,188.9,435,185z M277.4,326.6c-13.1,5.5-26.1,10.7-39.3,15.7c0,0,0,0-0.1,0c16.9,12.9,33.7,24.7,50.2,35.2
	C290.5,363.2,296.8,336.5,277.4,326.6z M386,188.8c0-0.1,0-0.1,0-0.2c0.2-1,0.4-2,0.7-2.9c0.3-1.8,0.8-3.5,1.1-5.3
	c0.3-1.6,0.6-3.2,0.9-4.8C375.9,167.1,369.2,170.9,386,188.8z M386,188.8c0-0.1,0-0.1,0-0.2c0.2-1,0.4-2,0.7-2.9
	c0.3-1.8,0.8-3.5,1.1-5.3c0.3-1.6,0.6-3.2,0.9-4.8C375.9,167.1,369.2,170.9,386,188.8z M386,188.8c0-0.1,0-0.1,0-0.2
	c0.2-1,0.4-2,0.7-2.9c0.3-1.8,0.8-3.5,1.1-5.3c0.3-1.6,0.6-3.2,0.9-4.8C375.9,167.1,369.2,170.9,386,188.8z M465.9,215.6
	c-0.4-3.4-0.9-6.8-1.4-10.2c-1.7-10.3-4.1-20.4-7.2-30.3l-16.9-40c-1.6-2.9-3.2-5.8-4.9-8.7c0,0,0-0.1-0.1-0.1
	c-1.4-2.4-2.9-4.7-4.4-7c-7.8-12-16.7-23.1-26.6-33.4c-3.1-3.2-6.2-6.3-9.5-9.3C354.9,39.7,301.2,17,242.3,17
	c-45.3,0-87.5,13.4-122.9,36.4c-3.3,2.2-6.5,4.4-9.7,6.7h0c-26.4,19.2-48.4,44-64.4,72.7c-1.4,2.6-2.8,5.2-4.1,7.8
	C25.7,171.1,17,205.6,17,242.1c0,21.2,2.9,41.6,8.4,61.1c1.5,5.1,3.1,10.2,4.9,15.2c6.7,18.7,15.8,36.2,27,52.2
	c2.7,3.9,5.6,7.8,8.5,11.5c15.2,19.2,33.5,35.8,54.1,49.2c5.9,3.8,12,7.4,18.3,10.7c30,15.7,63.9,24.8,99.9,25.4c1.4,0,2.8,0,4.2,0
	c3.1,0,6.2-0.1,9.3-0.2c43.5-1.8,83.9-15.9,117.6-39c4.2-2.9,8.3-5.9,12.3-9.1c16.4-12.9,30.9-28.1,43.2-45c3.1-4.2,6-8.6,8.8-13
	c21.5-34.5,33.9-75.2,33.9-118.8C467.5,233.2,466.9,224.3,465.9,215.6z M101.8,111.2c6.9-2.3,4.6,4.6,4.6,6.9s9.2,6.9,11.5,6.9
	c2.3,0,11.5,0,9.2,4.6c-2.3,4.6-2.3,6.9-9.2,16.1c-5.6,7.5-11.7,6.3-13.9,4.7v-20.8c0-4.6-4.6-4.6-9.2-11.6
	C90.2,111.2,94.8,113.5,101.8,111.2z M172.3,430.9c-3.8-1.9-45.2-35.3-64-39.1c-5.4-1.1-12.4-5.5-19.6-11.3
	c-3.2-2.5-6.4-5.3-9.5-8.3c-10.1-9.3-19.7-19.9-25.5-27c-0.7-2.4-1.5-8.6,0-13c1.5-4.5-5.6-19.2-9.4-26c3.1-4.3,10.9-11.9,17-7.5
	c7.5,5.6,30.1-7.5,37.6-5.6s24.5,3.7,26.4,9.2c1.9,5.6,1.9,18.6,5.6,24.2c3,4.5,0,16.7-1.9,22.3c-0.7,1.9-3,6-7.5,7.5
	c-5.6,1.9,7.5,1.9,18.9,5.6c1.6,0.5,2.8,1.3,3.7,2.4c1.4,1.5,2.1,3.5,2.5,5.8c1.2,7.3-1.1,17.3,1.3,23.4c3.8,9.2,24.5,26,28.2,29.7
	S176,432.7,172.3,430.9z M384,267.2c-2.2,3.5-4.6,7-7,10.2c-4.3,5.8-8.3,10.9-10.9,13.5c-9.2,9.2,7,27.6,9.2,32.2
	c2.3,4.6-6.9,11.5-9.2,29.9c-2.2,17.7-8.6,41.8-13.2,58c-0.2,0.6-0.4,1.3-0.5,1.9c-0.7,2.3-1.8,4.6-3.3,6.8
	c-6.5,9.8-19.7,17.7-26.6,20.8c-3.1,1.5-11,1.9-18.4-9.2c-3.4-5.1-6.2-11.5-8.4-18c-0.8-2.2-1.5-4.5-2.1-6.6
	c-2.6-8.7-4.4-16.8-5.5-21.4c0-0.1,0-0.1,0-0.2c-0.3-1.6,0-4.3,0.5-7.6c2.2-14.3,8.6-41-10.9-50.9c0,0-0.1,0-0.1-0.1
	c-0.4-0.2-0.8-0.4-1.1-0.5c-0.4-0.2-0.9-0.4-1.3-0.5c-0.2-0.1-0.4-0.2-0.7-0.3c-0.3-0.1-0.6-0.2-0.9-0.3c-0.3-0.1-0.6-0.2-0.9-0.3
	c-0.3-0.1-0.6-0.2-0.9-0.3c-0.1,0-0.3-0.1-0.5-0.1c-0.2,0-0.3-0.1-0.5-0.1h0c0,0-0.1,0-0.1,0c-0.2,0-0.3-0.1-0.5-0.1
	c-0.2-0.1-0.3-0.1-0.5-0.1c-0.3-0.1-0.6-0.1-0.8-0.2c-0.4-0.1-0.7-0.1-1.1-0.2h0c-0.2,0-0.4,0-0.5-0.1c-0.2,0-0.4,0-0.5-0.1
	c-0.5-0.1-1-0.1-1.5-0.2c-3.1-0.3-5.8-0.5-8.2-0.3c-0.2,0-0.3,0-0.5,0c-0.8,0-1.6,0.1-2.3,0.2c-0.3,0-0.5,0.1-0.8,0.1
	c-0.4,0-0.7,0.1-1.1,0.2c-0.7,0.1-1.3,0.2-1.9,0.4c-0.2,0-0.4,0.1-0.5,0.1c-0.5,0.1-1,0.3-1.5,0.4c-0.4,0.1-0.8,0.3-1.2,0.4
	c-0.4,0.1-0.8,0.3-1.2,0.5c-0.2,0.1-0.4,0.2-0.6,0.2c-0.4,0.2-0.8,0.4-1.2,0.6c-0.3,0.2-0.6,0.3-0.9,0.5c-0.4,0.2-0.7,0.4-1,0.6
	c-0.1,0.1-0.3,0.2-0.4,0.3c-0.3,0.2-0.6,0.4-0.9,0.6c-0.2,0.2-0.5,0.4-0.7,0.5c-0.2,0.1-0.3,0.2-0.5,0.4c-0.4,0.3-0.8,0.6-1.1,0.9
	c-0.2,0.2-0.5,0.4-0.7,0.6c-0.1,0.1-0.2,0.2-0.3,0.3c-0.2,0.2-0.4,0.3-0.6,0.5c-0.1,0-0.1,0.1-0.1,0.1c-0.2,0.1-0.3,0.2-0.4,0.4
	c-0.2,0.2-0.5,0.4-0.7,0.6c-0.2,0.2-0.4,0.3-0.5,0.5c-0.1,0-0.1,0.1-0.2,0.1c-0.3,0.2-0.6,0.4-0.8,0.7c-0.2,0.2-0.5,0.3-0.7,0.5
	c-0.5,0.3-1,0.6-1.5,0.9c-0.2,0.1-0.3,0.2-0.5,0.2c-0.1,0.1-0.2,0.1-0.3,0.2c-0.1,0-0.2,0.1-0.3,0.1c-0.2,0.1-0.5,0.2-0.7,0.2
	c-0.1,0-0.2,0.1-0.4,0.1c-2.6,0.7-5.9,0.4-10.6-1.5l0,0c-5.8-2.4-13.7-7.2-25.2-15.7c-8.5-6.3-14.1-13.5-17.5-21.3
	c-1.4-3.2-2.4-6.4-3.1-9.7l0,0c-8-38.9,28.5-85.6,32-90.9c4.6-6.9,16.1,0,36.7-6.9c16.5-5.5,33-2.3,39,0c-4.6,3.7-11,11.9,0,13.8
	c11,1.9,26,6.9,32.2,9.2h13.8c4.6,0,29.9,18.4,34.5,29.9c1.8,4.5,5,5.5,8.8,5c1.6-0.2,3.3-0.6,5.1-1.2v0c5.1-1.5,10.7-3.9,15.9-3.9
	C397.7,242.6,392,254.8,384,267.2C384,267.2,384,267.2,384,267.2z M404.9,348.3c-6.8,11.6-13.8,9.2-18.4,9.2s0-9.2,4.6-13.8
	c4.8-4.6-6.7-18.5,0.1-18.5c5.5,0,9.9-9.2,11.5-13.8c1.9-4.6,7-4.6,9.1-2.3C414.2,311.6,411.8,336.9,404.9,348.3z M454.1,215.7
	c-0.1,3.4-0.4,6.9-0.7,10.3c-1.4,16.3-4.5,32.3-7,41.8c0.6-9.6,1-23.1,0.4-36.6c-0.1-2.9-0.3-5.8-0.5-8.6
	c-1.3-17.8-4.6-33.7-11.4-37.6c-12.8-7.4-22.2-6.2-25.3-4.6c-2,1.3-7.6,2.4-16.1-1.9c-1.5-0.7-3-1.6-4.6-2.7
	c-0.1-0.1-0.2-0.1-0.3-0.2c-12.9-8.5-19.6-4.8-2.7,13.1c-3.5,16.7-8,33.7-13.2,50.6c0,0.1,0,0.2-0.1,0.2c-4.8-2-9.3-9.9-13.7-17.8
	c-5.2-9.1-10.4-18.4-16.1-18.4c-9.2,0-9.9,4.6-9.2,6.9l-13.8-6.9c2.3-0.8,6.9-4.2,6.9-11.5c0-9.1,0-16.1-11.5-16.1h-27.6
	c-6.8,0-32.2-6.8-25.3-13.8c1.7-1.7,2.8-3.2,3.5-4.6c1.6-3,0.9-5.3-0.8-6.3c-0.7-0.5-1.6-0.7-2.7-0.7c-1.4,0-4.1-1.1-6.9-2.2
	c-6.7-2.6-14.7-5.8-11.5,2.2c1.2,3.1,2.8,6.4,4.3,9.5c4.1,8.5,7.6,15.8,2.5,15.8c-6.8,0-29.9-9.1-25.3-13.8s-2.3-11.5-13.8-11.5
	h-29.9c-6.8,0,6.9,13.8,20.7,16.1c13.8,2.2,18.3,11.4,9.2,13.8c-4.6,1.1-7.5,6.8-9.5,10.9c-2,4-3.2,6.3-4.3,0.5
	c-0.9-4.4,0-6.5,0.5-7.8c0.9-2.1-21.6,8.1-30.1,2.5c-3.8-2.5,15.7-15.8,12.7-18.1c-7.6-5.8-12.6-9.7-17.5-6.4c-1,0.7-2.4,1.5-4,2.5
	c-8.7,5.5-23.3,14.6-21.3,20.5c2.3,6.8-9.2,41.4-16.1,46c-0.6,0.3-1.1,0.8-1.8,1.2c-0.4,0.3-0.8,0.6-1.3,0.9
	c-1.3,0.9-2.8,1.9-4.4,2.9c-8.5,5.3-20.3,11-27.1,4.3c-4.4-4.4-8.8-4.1-12.2-3.7c-3.7,0.3-6.1,0.5-6.1-5.4c0-4.1-1.2-7.4-2.3-10.3
	c-1.9-5.4-3.5-9.9,2.3-17.3c2.3-2.9,4.3-5.9,6.2-8.7c0.6-0.9,1.2-1.8,1.8-2.7c0.1-0.1,0.1-0.2,0.2-0.3c1.2-1.7,2.3-3.2,3.4-4.5v0
	c3.4-3.9,6.8-5.6,11.4-2.2c5.2,4,8.2,0.6,11.5-3.2c2.5-2.9,5.3-5.9,9.3-5.9c3.2,0,4.4-0.5,4.4-1.4c0-1.7-4.5-4.8-9-7.8
	c-5.4-3.6,0.7-4.6,4.5-4.6c0.5-0.8,2.8-3.6,9.4-11.5c5.4-6.4,6.7-12.3,7.8-17c1.2-5.5,2.1-9.4,8.3-10.6c11.5-2.3,20.6-4.6,25.3-9.2
	c4.6-4.6,9.2-11.5,0-11.5c-3.1,0-6.1,0.5-8.8,1.1c-5.3,1-10.4,1.9-16.4-1.1c-6-3-4.2-5-2.2-7.3c1.1-1.2,2.2-2.5,2.2-4.2
	c0-4.6,11.5-18.4,25.3-23c3.5-1.1,7.6-3,11.8-4.8c12.2-5.4,26.2-11.8,36.5-6.6c4.3,2.2,6.5,3.9,8.2,5.1c3.5,2.6,3.6,2.8,14.8-0.4
	c1-0.2,1.9-0.6,2.8-0.8c13.6-3.9,15.9-4.5,20.2-15.3c3.6-9.1,16.8-17.6,22.9-20.7c22.9,6.8,74,25.3,94.2,43.7
	c6.8,6.1,13.7,12.4,20.6,19.7c2.8,2.9,5.6,6,8.4,9.2c16.3,19.1,32.5,45.2,46.9,88.4C453.8,193.2,454.5,204.2,454.1,215.7z
	 M386,188.8c0-0.1,0-0.1,0-0.2c0.2-1,0.4-2,0.7-2.9c0.3-1.8,0.8-3.5,1.1-5.3c0.3-1.6,0.6-3.2,0.9-4.8
	C375.9,167.1,369.2,170.9,386,188.8z M386,188.8c0-0.1,0-0.1,0-0.2c0.2-1,0.4-2,0.7-2.9c0.3-1.8,0.8-3.5,1.1-5.3
	c0.3-1.6,0.6-3.2,0.9-4.8C375.9,167.1,369.2,170.9,386,188.8z M277.4,326.6C277.4,326.6,277.4,326.6,277.4,326.6
	c-0.5-0.2-0.8-0.4-1.2-0.6c-0.4-0.2-0.9-0.4-1.3-0.5c-0.2-0.1-0.4-0.2-0.7-0.3c-0.3-0.1-0.6-0.2-0.9-0.3c-0.3-0.1-0.6-0.2-0.9-0.3
	c-0.3-0.1-0.6-0.2-0.9-0.3c-0.1,0-0.3-0.1-0.5-0.1c-0.2,0-0.3-0.1-0.5-0.1h0c0,0-0.1,0-0.1,0c-0.2,0-0.3-0.1-0.5-0.1
	c-0.2-0.1-0.3-0.1-0.5-0.1c-0.3-0.1-0.6-0.1-0.8-0.2c-0.4-0.1-0.7-0.1-1.1-0.2h0c-0.2,0-0.4,0-0.5-0.1c-0.2,0-0.4,0-0.5-0.1
	c-0.5-0.1-1-0.1-1.5-0.2c-3.1-0.3-5.8-0.5-8.2-0.3c-0.2,0-0.3,0-0.5,0c-0.8,0-1.6,0.1-2.3,0.2c-0.3,0-0.5,0.1-0.8,0.1
	c-0.4,0-0.7,0.1-1.1,0.2c-0.7,0.1-1.3,0.2-1.9,0.4c-0.2,0-0.4,0.1-0.5,0.1c-0.5,0.1-1,0.3-1.5,0.4c-0.4,0.1-0.8,0.3-1.2,0.4
	c-0.4,0.1-0.8,0.3-1.2,0.5c-0.2,0.1-0.4,0.2-0.6,0.2c-0.4,0.2-0.8,0.4-1.2,0.6c-0.3,0.2-0.6,0.3-0.9,0.5c-0.4,0.2-0.7,0.4-1,0.6
	c-0.1,0.1-0.3,0.2-0.4,0.3c-0.3,0.2-0.6,0.4-0.9,0.6c-0.2,0.2-0.5,0.4-0.7,0.5c-0.2,0.1-0.3,0.2-0.5,0.4c-0.4,0.3-0.8,0.6-1.1,0.9
	c-0.2,0.2-0.5,0.4-0.7,0.6c-0.1,0.1-0.2,0.2-0.3,0.3c-0.2,0.2-0.4,0.3-0.6,0.5c-0.1,0-0.1,0.1-0.1,0.1c-0.2,0.1-0.3,0.2-0.4,0.4
	c-0.2,0.2-0.5,0.4-0.7,0.6c-0.2,0.2-0.4,0.3-0.5,0.5c-0.1,0-0.1,0.1-0.2,0.1c-0.3,0.2-0.6,0.4-0.8,0.7c-0.2,0.2-0.5,0.3-0.7,0.5
	c-0.5,0.3-1,0.6-1.5,0.9c-0.2,0.1-0.3,0.2-0.5,0.2c-0.1,0.1-0.2,0.1-0.3,0.2c-0.1,0-0.2,0.1-0.3,0.1c-0.2,0.1-0.5,0.2-0.7,0.2
	c-0.1,0-0.2,0.1-0.4,0.1c0,0,0,0,0,0c1.2,0.9,2.5,1.9,3.7,2.9c0.1,0.1,0.2,0.2,0.3,0.2c1.5,1.2,3,2.3,4.5,3.4l0,0
	c16.9,12.9,33.7,24.7,50.2,35.2C290.5,363.2,296.8,336.5,277.4,326.6z M435,185c-12.8-7.4-22.2-6.2-25.3-4.6
	c-2,1.3-7.6,2.4-16.1-1.9c-1.5-0.7-3-1.6-4.6-2.7c-0.1-0.1-0.2-0.1-0.3-0.2c-0.3,1.6-0.6,3.2-0.9,4.8c-0.3,1.8-0.8,3.5-1.1,5.3
	c-0.2,0.9-0.4,1.9-0.7,2.9c0,0.1,0,0.1,0,0.2c-3.5,16.7-8,33.7-13.2,50.6c0,0.1,0,0.2-0.1,0.2c-4.8-2-9.3-9.9-13.7-17.8
	c-5.2-9.1-10.4-18.4-16.1-18.4c-9.2,0-9.9,4.6-9.2,6.9l-13.8-6.9c2.3-0.8,6.9-4.2,6.9-11.5c0-9.1,0-16.1-11.5-16.1h-27.6
	c-6.8,0-32.2-6.8-25.3-13.8c1.7-1.7,2.8-3.2,3.5-4.6c1.6-3,0.9-5.3-0.8-6.3c-0.7-0.5-1.6-0.7-2.7-0.7c-1.4,0-4.1-1.1-6.9-2.2
	c-6.7-2.6-14.7-5.8-11.5,2.2c1.2,3.1,2.8,6.4,4.3,9.5c4.1,8.5,7.6,15.8,2.5,15.8c-6.8,0-29.9-9.1-25.3-13.8s-2.3-11.5-13.8-11.5
	h-29.9c-6.8,0,6.9,13.8,20.7,16.1c13.8,2.2,18.3,11.4,9.2,13.8c-4.6,1.1-7.5,6.8-9.5,10.9c-2,4-3.2,6.3-4.3,0.5
	c-0.9-4.4,0-6.5,0.5-7.8c0.9-2.1-21.6,8.1-30.1,2.5c-3.8-2.5,15.7-15.8,12.7-18.1c-7.6-5.8-12.6-9.7-17.5-6.4c-1,0.7-2.4,1.5-4,2.5
	c-8.7,5.5-23.3,14.6-21.3,20.5c2.3,6.8-9.2,41.4-16.1,46c-0.6,0.3-1.1,0.8-1.8,1.2c-0.4,0.3-0.8,0.6-1.3,0.9c0,0,0.1,0.1,0.1,0.1
	c16.7,18.5,34.8,36.7,53.6,54.2c0,0,0.1,0.1,0.1,0.1c-8-38.9,28.5-85.6,32-90.9c4.6-6.9,16.1,0,36.7-6.9c16.5-5.5,33-2.3,39,0
	c-4.6,3.7-11,11.9,0,13.8c11,1.9,26,6.9,32.2,9.2h13.8c4.6,0,29.9,18.4,34.5,29.9c1.8,4.5,5,5.5,8.8,5c1.6-0.2,3.3-0.6,5.1-1.2v0
	c5.1-1.5,10.7-3.9,15.9-3.9c6.4,0,0.6,12.2-7.3,24.6c21.2-12.9,40.4-26.3,56.7-39.8c2-1.5,3.9-3.2,5.6-4.7
	C445.1,204.9,441.8,188.9,435,185z M386,188.8c0-0.1,0-0.1,0-0.2c0.2-1,0.4-2,0.7-2.9c0.3-1.8,0.8-3.5,1.1-5.3
	c0.3-1.6,0.6-3.2,0.9-4.8C375.9,167.1,369.2,170.9,386,188.8z M359,221.8c-5.2-9.1-10.4-18.4-16.1-18.4c-9.2,0-9.9,4.6-9.2,6.9
	l-13.8-6.9c2.3-0.8,6.9-4.2,6.9-11.5c0-9.1,0-16.1-11.5-16.1h-27.6c-6.8,0-32.2-6.8-25.3-13.8c1.7-1.7,2.8-3.2,3.5-4.6
	c1.6-3,0.9-5.3-0.8-6.3c-0.7-0.5-1.6-0.7-2.7-0.7c-1.4,0-4.1-1.1-6.9-2.2c-6.7-2.6-14.7-5.8-11.5,2.2c1.2,3.1,2.8,6.4,4.3,9.5
	c4.1,8.5,7.6,15.8,2.5,15.8c-6.8,0-29.9-9.1-25.3-13.8s-2.3-11.5-13.8-11.5h-29.9c-6.8,0,6.9,13.8,20.7,16.1
	c13.8,2.2,18.3,11.4,9.2,13.8c-4.6,1.1-7.5,6.8-9.5,10.9c-2,4-3.2,6.3-4.3,0.5c-0.9-4.4,0-6.5,0.5-7.8c0.9-2.1-21.6,8.1-30.1,2.5
	c-3.8-2.5,15.7-15.8,12.7-18.1c-7.6-5.8-12.6-9.7-17.5-6.4c-1,0.7-2.4,1.5-4,2.5c-8.7,5.5-23.3,14.6-21.3,20.5
	c2.3,6.8-9.2,41.4-16.1,46c-0.6,0.3-1.1,0.8-1.8,1.2c-0.4,0.3-0.8,0.6-1.3,0.9c0,0,0.1,0.1,0.1,0.1c16.7,18.5,34.8,36.7,53.6,54.2
	c0,0,0.1,0.1,0.1,0.1c-8-38.9,28.5-85.6,32-90.9c4.6-6.9,16.1,0,36.7-6.9c16.5-5.5,33-2.3,39,0c-4.6,3.7-11,11.9,0,13.8
	c11,1.9,26,6.9,32.2,9.2h13.8c4.6,0,29.9,18.4,34.5,29.9c1.8,4.5,5,5.5,8.8,5c0-0.1,0.1-0.2,0.1-0.3c0.9-2.6,1.6-5.1,2.3-7.7
	C367.9,237.6,363.5,229.7,359,221.8z M386,188.8c0-0.1,0-0.1,0-0.2c0.2-1,0.4-2,0.7-2.9c0.3-1.8,0.8-3.5,1.1-5.3
	c0.3-1.6,0.6-3.2,0.9-4.8C375.9,167.1,369.2,170.9,386,188.8z M277.4,326.6c-13.1,5.5-26.1,10.7-39.3,15.7c0,0,0,0-0.1,0
	c16.9,12.9,33.7,24.7,50.2,35.2C290.5,363.2,296.8,336.5,277.4,326.6z M435,185c-12.8-7.4-22.2-6.2-25.3-4.6
	c-2,1.3-7.6,2.4-16.1-1.9c-1.5-0.7-3-1.6-4.6-2.7c-0.1-0.1-0.2-0.1-0.3-0.2c-0.3,1.6-0.6,3.2-0.9,4.8c-0.3,1.8-0.8,3.5-1.1,5.3
	c-0.2,0.9-0.4,1.9-0.7,2.9c0,0.1,0,0.1,0,0.2c-3.5,16.7-8,33.7-13.2,50.6c0,0.1,0,0.2-0.1,0.2c-0.7,2.6-1.5,5.1-2.3,7.7
	c0,0.1-0.1,0.2-0.1,0.3c1.6-0.2,3.3-0.6,5.1-1.2v0c5.1-1.5,10.7-3.9,15.9-3.9c6.4,0,0.6,12.2-7.3,24.6
	c21.2-12.9,40.4-26.3,56.7-39.8c2-1.5,3.9-3.2,5.6-4.7C445.1,204.9,441.8,188.9,435,185z M435,185c-12.8-7.4-22.2-6.2-25.3-4.6
	c-2,1.3-7.6,2.4-16.1-1.9c-1.5-0.7-3-1.6-4.6-2.7c-0.1-0.1-0.2-0.1-0.3-0.2c-0.3,1.6-0.6,3.2-0.9,4.8c-0.3,1.8-0.8,3.5-1.1,5.3
	c-0.2,0.9-0.4,1.9-0.7,2.9c0,0.1,0,0.1,0,0.2c-3.5,16.7-8,33.7-13.2,50.6c0,0.1,0,0.2-0.1,0.2c-0.7,2.6-1.5,5.1-2.3,7.7
	c0,0.1-0.1,0.2-0.1,0.3c1.6-0.2,3.3-0.6,5.1-1.2v0c5.1-1.5,10.7-3.9,15.9-3.9c6.4,0,0.6,12.2-7.3,24.6
	c21.2-12.9,40.4-26.3,56.7-39.8c2-1.5,3.9-3.2,5.6-4.7C445.1,204.9,441.8,188.9,435,185z M359,221.8c-5.2-9.1-10.4-18.4-16.1-18.4
	c-9.2,0-9.9,4.6-9.2,6.9l-13.8-6.9c2.3-0.8,6.9-4.2,6.9-11.5c0-9.1,0-16.1-11.5-16.1h-27.6c-6.8,0-32.2-6.8-25.3-13.8
	c1.7-1.7,2.8-3.2,3.5-4.6c1.6-3,0.9-5.3-0.8-6.3c-0.7-0.5-1.6-0.7-2.7-0.7c-1.4,0-4.1-1.1-6.9-2.2c-6.7-2.6-14.7-5.8-11.5,2.2
	c1.2,3.1,2.8,6.4,4.3,9.5c4.1,8.5,7.6,15.8,2.5,15.8c-6.8,0-29.9-9.1-25.3-13.8s-2.3-11.5-13.8-11.5h-29.9
	c-6.8,0,6.9,13.8,20.7,16.1c13.8,2.2,18.3,11.4,9.2,13.8c-4.6,1.1-7.5,6.8-9.5,10.9c-2,4-3.2,6.3-4.3,0.5c-0.9-4.4,0-6.5,0.5-7.8
	c0.9-2.1-21.6,8.1-30.1,2.5c-3.8-2.5,15.7-15.8,12.7-18.1c-7.6-5.8-12.6-9.7-17.5-6.4c-1,0.7-2.4,1.5-4,2.5
	c-8.7,5.5-23.3,14.6-21.3,20.5c2.3,6.8-9.2,41.4-16.1,46c-0.6,0.3-1.1,0.8-1.8,1.2c-0.4,0.3-0.8,0.6-1.3,0.9c0,0,0.1,0.1,0.1,0.1
	c16.7,18.5,34.8,36.7,53.6,54.2c0,0,0.1,0.1,0.1,0.1c-8-38.9,28.5-85.6,32-90.9c4.6-6.9,16.1,0,36.7-6.9c16.5-5.5,33-2.3,39,0
	c-4.6,3.7-11,11.9,0,13.8c11,1.9,26,6.9,32.2,9.2h13.8c4.6,0,29.9,18.4,34.5,29.9c1.8,4.5,5,5.5,8.8,5c0-0.1,0.1-0.2,0.1-0.3
	c0.9-2.6,1.6-5.1,2.3-7.7C367.9,237.6,363.5,229.7,359,221.8z M386,188.8c0-0.1,0-0.1,0-0.2c0.2-1,0.4-2,0.7-2.9
	c0.3-1.8,0.8-3.5,1.1-5.3c0.3-1.6,0.6-3.2,0.9-4.8C375.9,167.1,369.2,170.9,386,188.8z M277.4,326.6c-13.1,5.5-26.1,10.7-39.3,15.7
	c0,0,0,0-0.1,0c16.9,12.9,33.7,24.7,50.2,35.2C290.5,363.2,296.8,336.5,277.4,326.6z M435,185c-12.8-7.4-22.2-6.2-25.3-4.6
	c-2,1.3-7.6,2.4-16.1-1.9c-1.5-0.7-3-1.6-4.6-2.7c-0.1-0.1-0.2-0.1-0.3-0.2c-0.3,1.6-0.6,3.2-0.9,4.8c-0.3,1.8-0.8,3.5-1.1,5.3
	c-0.2,0.9-0.4,1.9-0.7,2.9c0,0.1,0,0.1,0,0.2c-3.5,16.7-8,33.7-13.2,50.6c0,0.1,0,0.2-0.1,0.2c-0.7,2.6-1.5,5.1-2.3,7.7
	c0,0.1-0.1,0.2-0.1,0.3c1.6-0.2,3.3-0.6,5.1-1.2v0c5.1-1.5,10.7-3.9,15.9-3.9c6.4,0,0.6,12.2-7.3,24.6
	c21.2-12.9,40.4-26.3,56.7-39.8c2-1.5,3.9-3.2,5.6-4.7C445.1,204.9,441.8,188.9,435,185z M359,221.8c-5.2-9.1-10.4-18.4-16.1-18.4
	c-9.2,0-9.9,4.6-9.2,6.9l-13.8-6.9c2.3-0.8,6.9-4.2,6.9-11.5c0-9.1,0-16.1-11.5-16.1h-27.6c-6.8,0-32.2-6.8-25.3-13.8
	c1.7-1.7,2.8-3.2,3.5-4.6c1.6-3,0.9-5.3-0.8-6.3c-0.7-0.5-1.6-0.7-2.7-0.7c-1.4,0-4.1-1.1-6.9-2.2c-6.7-2.6-14.7-5.8-11.5,2.2
	c1.2,3.1,2.8,6.4,4.3,9.5c4.1,8.5,7.6,15.8,2.5,15.8c-6.8,0-29.9-9.1-25.3-13.8s-2.3-11.5-13.8-11.5h-29.9
	c-6.8,0,6.9,13.8,20.7,16.1c13.8,2.2,18.3,11.4,9.2,13.8c-4.6,1.1-7.5,6.8-9.5,10.9c-2,4-3.2,6.3-4.3,0.5c-0.9-4.4,0-6.5,0.5-7.8
	c0.9-2.1-21.6,8.1-30.1,2.5c-3.8-2.5,15.7-15.8,12.7-18.1c-7.6-5.8-12.6-9.7-17.5-6.4c-1,0.7-2.4,1.5-4,2.5
	c-8.7,5.5-23.3,14.6-21.3,20.5c2.3,6.8-9.2,41.4-16.1,46c-0.6,0.3-1.1,0.8-1.8,1.2c-0.4,0.3-0.8,0.6-1.3,0.9c0,0,0.1,0.1,0.1,0.1
	c16.7,18.5,34.8,36.7,53.6,54.2c0,0,0.1,0.1,0.1,0.1c-8-38.9,28.5-85.6,32-90.9c4.6-6.9,16.1,0,36.7-6.9c16.5-5.5,33-2.3,39,0
	c-4.6,3.7-11,11.9,0,13.8c11,1.9,26,6.9,32.2,9.2h13.8c4.6,0,29.9,18.4,34.5,29.9c1.8,4.5,5,5.5,8.8,5c0-0.1,0.1-0.2,0.1-0.3
	c0.9-2.6,1.6-5.1,2.3-7.7C367.9,237.6,363.5,229.7,359,221.8z M386,188.8c0-0.1,0-0.1,0-0.2c0.2-1,0.4-2,0.7-2.9
	c0.3-1.8,0.8-3.5,1.1-5.3c0.3-1.6,0.6-3.2,0.9-4.8C375.9,167.1,369.2,170.9,386,188.8z M277.4,326.6c-13.1,5.5-26.1,10.7-39.3,15.7
	c0,0,0,0-0.1,0c16.9,12.9,33.7,24.7,50.2,35.2C290.5,363.2,296.8,336.5,277.4,326.6z M435,185c-12.8-7.4-22.2-6.2-25.3-4.6
	c-2,1.3-7.6,2.4-16.1-1.9c-1.5-0.7-3-1.6-4.6-2.7c-0.1-0.1-0.2-0.1-0.3-0.2c-0.3,1.6-0.6,3.2-0.9,4.8c-0.3,1.8-0.8,3.5-1.1,5.3
	c-0.2,0.9-0.4,1.9-0.7,2.9c0,0.1,0,0.1,0,0.2c-3.5,16.7-8,33.7-13.2,50.6c0,0.1,0,0.2-0.1,0.2c-0.7,2.6-1.5,5.1-2.3,7.7
	c0,0.1-0.1,0.2-0.1,0.3c1.6-0.2,3.3-0.6,5.1-1.2v0c5.1-1.5,10.7-3.9,15.9-3.9c6.4,0,0.6,12.2-7.3,24.6
	c21.2-12.9,40.4-26.3,56.7-39.8c2-1.5,3.9-3.2,5.6-4.7C445.1,204.9,441.8,188.9,435,185z M359,221.8c-5.2-9.1-10.4-18.4-16.1-18.4
	c-9.2,0-9.9,4.6-9.2,6.9l-13.8-6.9c2.3-0.8,6.9-4.2,6.9-11.5c0-9.1,0-16.1-11.5-16.1h-27.6c-6.8,0-32.2-6.8-25.3-13.8
	c1.7-1.7,2.8-3.2,3.5-4.6c1.6-3,0.9-5.3-0.8-6.3c-0.7-0.5-1.6-0.7-2.7-0.7c-1.4,0-4.1-1.1-6.9-2.2c-6.7-2.6-14.7-5.8-11.5,2.2
	c1.2,3.1,2.8,6.4,4.3,9.5c4.1,8.5,7.6,15.8,2.5,15.8c-6.8,0-29.9-9.1-25.3-13.8s-2.3-11.5-13.8-11.5h-29.9
	c-6.8,0,6.9,13.8,20.7,16.1c13.8,2.2,18.3,11.4,9.2,13.8c-4.6,1.1-7.5,6.8-9.5,10.9c-2,4-3.2,6.3-4.3,0.5c-0.9-4.4,0-6.5,0.5-7.8
	c0.9-2.1-21.6,8.1-30.1,2.5c-3.8-2.5,15.7-15.8,12.7-18.1c-7.6-5.8-12.6-9.7-17.5-6.4c-1,0.7-2.4,1.5-4,2.5
	c-8.7,5.5-23.3,14.6-21.3,20.5c2.3,6.8-9.2,41.4-16.1,46c-0.6,0.3-1.1,0.8-1.8,1.2c-0.4,0.3-0.8,0.6-1.3,0.9c0,0,0.1,0.1,0.1,0.1
	c16.7,18.5,34.8,36.7,53.6,54.2c0,0,0.1,0.1,0.1,0.1c-8-38.9,28.5-85.6,32-90.9c4.6-6.9,16.1,0,36.7-6.9c16.5-5.5,33-2.3,39,0
	c-4.6,3.7-11,11.9,0,13.8c11,1.9,26,6.9,32.2,9.2h13.8c4.6,0,29.9,18.4,34.5,29.9c1.8,4.5,5,5.5,8.8,5c0-0.1,0.1-0.2,0.1-0.3
	c0.9-2.6,1.6-5.1,2.3-7.7C367.9,237.6,363.5,229.7,359,221.8z M386,188.8c0-0.1,0-0.1,0-0.2c0.2-1,0.4-2,0.7-2.9
	c0.3-1.8,0.8-3.5,1.1-5.3c0.3-1.6,0.6-3.2,0.9-4.8C375.9,167.1,369.2,170.9,386,188.8z M277.4,326.6c-13.1,5.5-26.1,10.7-39.3,15.7
	c0,0,0,0-0.1,0c16.9,12.9,33.7,24.7,50.2,35.2C290.5,363.2,296.8,336.5,277.4,326.6z M435,185c-12.8-7.4-22.2-6.2-25.3-4.6
	c-2,1.3-7.6,2.4-16.1-1.9c-1.5-0.7-3-1.6-4.6-2.7c-0.1-0.1-0.2-0.1-0.3-0.2c-0.3,1.6-0.6,3.2-0.9,4.8c-0.3,1.8-0.8,3.5-1.1,5.3
	c-0.2,0.9-0.4,1.9-0.7,2.9c0,0.1,0,0.1,0,0.2c-3.5,16.7-8,33.7-13.2,50.6c0,0.1,0,0.2-0.1,0.2c-0.7,2.6-1.5,5.1-2.3,7.7
	c0,0.1-0.1,0.2-0.1,0.3c1.6-0.2,3.3-0.6,5.1-1.2v0c5.1-1.5,10.7-3.9,15.9-3.9c6.4,0,0.6,12.2-7.3,24.6
	c21.2-12.9,40.4-26.3,56.7-39.8c2-1.5,3.9-3.2,5.6-4.7C445.1,204.9,441.8,188.9,435,185z M277.4,326.6
	c-13.1,5.5-26.1,10.7-39.3,15.7c0,0,0,0-0.1,0c16.9,12.9,33.7,24.7,50.2,35.2C290.5,363.2,296.8,336.5,277.4,326.6z M359,221.8
	c-5.2-9.1-10.4-18.4-16.1-18.4c-9.2,0-9.9,4.6-9.2,6.9l-13.8-6.9c2.3-0.8,6.9-4.2,6.9-11.5c0-9.1,0-16.1-11.5-16.1h-27.6
	c-6.8,0-32.2-6.8-25.3-13.8c1.7-1.7,2.8-3.2,3.5-4.6c1.6-3,0.9-5.3-0.8-6.3c-0.7-0.5-1.6-0.7-2.7-0.7c-1.4,0-4.1-1.1-6.9-2.2
	c-6.7-2.6-14.7-5.8-11.5,2.2c1.2,3.1,2.8,6.4,4.3,9.5c4.1,8.5,7.6,15.8,2.5,15.8c-6.8,0-29.9-9.1-25.3-13.8s-2.3-11.5-13.8-11.5
	h-29.9c-6.8,0,6.9,13.8,20.7,16.1c13.8,2.2,18.3,11.4,9.2,13.8c-4.6,1.1-7.5,6.8-9.5,10.9c-2,4-3.2,6.3-4.3,0.5
	c-0.9-4.4,0-6.5,0.5-7.8c0.9-2.1-21.6,8.1-30.1,2.5c-3.8-2.5,15.7-15.8,12.7-18.1c-7.6-5.8-12.6-9.7-17.5-6.4c-1,0.7-2.4,1.5-4,2.5
	c-8.7,5.5-23.3,14.6-21.3,20.5c2.3,6.8-9.2,41.4-16.1,46c-0.6,0.3-1.1,0.8-1.8,1.2c-0.4,0.3-0.8,0.6-1.3,0.9c0,0,0.1,0.1,0.1,0.1
	c16.7,18.5,34.8,36.7,53.6,54.2c0,0,0.1,0.1,0.1,0.1c-8-38.9,28.5-85.6,32-90.9c4.6-6.9,16.1,0,36.7-6.9c16.5-5.5,33-2.3,39,0
	c-4.6,3.7-11,11.9,0,13.8c11,1.9,26,6.9,32.2,9.2h13.8c4.6,0,29.9,18.4,34.5,29.9c1.8,4.5,5,5.5,8.8,5c0-0.1,0.1-0.2,0.1-0.3
	c0.9-2.6,1.6-5.1,2.3-7.7C367.9,237.6,363.5,229.7,359,221.8z M386,188.8c0-0.1,0-0.1,0-0.2c0.2-1,0.4-2,0.7-2.9
	c0.3-1.8,0.8-3.5,1.1-5.3c0.3-1.6,0.6-3.2,0.9-4.8C375.9,167.1,369.2,170.9,386,188.8z M435,185c-12.8-7.4-22.2-6.2-25.3-4.6
	c-2,1.3-7.6,2.4-16.1-1.9c-1.5-0.7-3-1.6-4.6-2.7c-0.1-0.1-0.2-0.1-0.3-0.2c-0.3,1.6-0.6,3.2-0.9,4.8c-0.3,1.8-0.8,3.5-1.1,5.3
	c-0.2,0.9-0.4,1.9-0.7,2.9c0,0.1,0,0.1,0,0.2c-3.5,16.7-8,33.7-13.2,50.6c0,0.1,0,0.2-0.1,0.2c-0.7,2.6-1.5,5.1-2.3,7.7
	c0,0.1-0.1,0.2-0.1,0.3c1.6-0.2,3.3-0.6,5.1-1.2v0c5.1-1.5,10.7-3.9,15.9-3.9c6.4,0,0.6,12.2-7.3,24.6
	c21.2-12.9,40.4-26.3,56.7-39.8c2-1.5,3.9-3.2,5.6-4.7C445.1,204.9,441.8,188.9,435,185z M277.4,326.6
	c-13.1,5.5-26.1,10.7-39.3,15.7c0,0,0,0-0.1,0c16.9,12.9,33.7,24.7,50.2,35.2C290.5,363.2,296.8,336.5,277.4,326.6z M359,221.8
	c-5.2-9.1-10.4-18.4-16.1-18.4c-9.2,0-9.9,4.6-9.2,6.9l-13.8-6.9c2.3-0.8,6.9-4.2,6.9-11.5c0-9.1,0-16.1-11.5-16.1h-27.6
	c-6.8,0-32.2-6.8-25.3-13.8c1.7-1.7,2.8-3.2,3.5-4.6c1.6-3,0.9-5.3-0.8-6.3c-0.7-0.5-1.6-0.7-2.7-0.7c-1.4,0-4.1-1.1-6.9-2.2
	c-6.7-2.6-14.7-5.8-11.5,2.2c1.2,3.1,2.8,6.4,4.3,9.5c4.1,8.5,7.6,15.8,2.5,15.8c-6.8,0-29.9-9.1-25.3-13.8s-2.3-11.5-13.8-11.5
	h-29.9c-6.8,0,6.9,13.8,20.7,16.1c13.8,2.2,18.3,11.4,9.2,13.8c-4.6,1.1-7.5,6.8-9.5,10.9c-2,4-3.2,6.3-4.3,0.5
	c-0.9-4.4,0-6.5,0.5-7.8c0.9-2.1-21.6,8.1-30.1,2.5c-3.8-2.5,15.7-15.8,12.7-18.1c-7.6-5.8-12.6-9.7-17.5-6.4c-1,0.7-2.4,1.5-4,2.5
	c-8.7,5.5-23.3,14.6-21.3,20.5c2.3,6.8-9.2,41.4-16.1,46c-0.6,0.3-1.1,0.8-1.8,1.2c-0.4,0.3-0.8,0.6-1.3,0.9c0,0,0.1,0.1,0.1,0.1
	c16.7,18.5,34.8,36.7,53.6,54.2c0,0,0.1,0.1,0.1,0.1c-8-38.9,28.5-85.6,32-90.9c4.6-6.9,16.1,0,36.7-6.9c16.5-5.5,33-2.3,39,0
	c-4.6,3.7-11,11.9,0,13.8c11,1.9,26,6.9,32.2,9.2h13.8c4.6,0,29.9,18.4,34.5,29.9c1.8,4.5,5,5.5,8.8,5c0-0.1,0.1-0.2,0.1-0.3
	c0.9-2.6,1.6-5.1,2.3-7.7C367.9,237.6,363.5,229.7,359,221.8z M386,188.8c0-0.1,0-0.1,0-0.2c0.2-1,0.4-2,0.7-2.9
	c0.3-1.8,0.8-3.5,1.1-5.3c0.3-1.6,0.6-3.2,0.9-4.8C375.9,167.1,369.2,170.9,386,188.8z M435,185c-12.8-7.4-22.2-6.2-25.3-4.6
	c-2,1.3-7.6,2.4-16.1-1.9c-1.5-0.7-3-1.6-4.6-2.7c-0.1-0.1-0.2-0.1-0.3-0.2c-0.3,1.6-0.6,3.2-0.9,4.8c-0.3,1.8-0.8,3.5-1.1,5.3
	c-0.2,0.9-0.4,1.9-0.7,2.9c0,0.1,0,0.1,0,0.2c-3.5,16.7-8,33.7-13.2,50.6c0,0.1,0,0.2-0.1,0.2c-0.7,2.6-1.5,5.1-2.3,7.7
	c0,0.1-0.1,0.2-0.1,0.3c1.6-0.2,3.3-0.6,5.1-1.2v0c5.1-1.5,10.7-3.9,15.9-3.9c6.4,0,0.6,12.2-7.3,24.6
	c21.2-12.9,40.4-26.3,56.7-39.8c2-1.5,3.9-3.2,5.6-4.7C445.1,204.9,441.8,188.9,435,185z M277.4,326.6
	c-13.1,5.5-26.1,10.7-39.3,15.7c0,0,0,0-0.1,0c16.9,12.9,33.7,24.7,50.2,35.2C290.5,363.2,296.8,336.5,277.4,326.6z M359,221.8
	c-5.2-9.1-10.4-18.4-16.1-18.4c-9.2,0-9.9,4.6-9.2,6.9l-13.8-6.9c2.3-0.8,6.9-4.2,6.9-11.5c0-9.1,0-16.1-11.5-16.1h-27.6
	c-6.8,0-32.2-6.8-25.3-13.8c1.7-1.7,2.8-3.2,3.5-4.6c1.6-3,0.9-5.3-0.8-6.3c-0.7-0.5-1.6-0.7-2.7-0.7c-1.4,0-4.1-1.1-6.9-2.2
	c-6.7-2.6-14.7-5.8-11.5,2.2c1.2,3.1,2.8,6.4,4.3,9.5c4.1,8.5,7.6,15.8,2.5,15.8c-6.8,0-29.9-9.1-25.3-13.8s-2.3-11.5-13.8-11.5
	h-29.9c-6.8,0,6.9,13.8,20.7,16.1c13.8,2.2,18.3,11.4,9.2,13.8c-4.6,1.1-7.5,6.8-9.5,10.9c-2,4-3.2,6.3-4.3,0.5
	c-0.9-4.4,0-6.5,0.5-7.8c0.9-2.1-21.6,8.1-30.1,2.5c-3.8-2.5,15.7-15.8,12.7-18.1c-7.6-5.8-12.6-9.7-17.5-6.4c-1,0.7-2.4,1.5-4,2.5
	c-8.7,5.5-23.3,14.6-21.3,20.5c2.3,6.8-9.2,41.4-16.1,46c-0.6,0.3-1.1,0.8-1.8,1.2c-0.4,0.3-0.8,0.6-1.3,0.9c0,0,0.1,0.1,0.1,0.1
	c16.7,18.5,34.8,36.7,53.6,54.2c0,0,0.1,0.1,0.1,0.1c-8-38.9,28.5-85.6,32-90.9c4.6-6.9,16.1,0,36.7-6.9c16.5-5.5,33-2.3,39,0
	c-4.6,3.7-11,11.9,0,13.8c11,1.9,26,6.9,32.2,9.2h13.8c4.6,0,29.9,18.4,34.5,29.9c1.8,4.5,5,5.5,8.8,5c0-0.1,0.1-0.2,0.1-0.3
	c0.9-2.6,1.6-5.1,2.3-7.7C367.9,237.6,363.5,229.7,359,221.8z M386,188.8c0-0.1,0-0.1,0-0.2c0.2-1,0.4-2,0.7-2.9
	c0.3-1.8,0.8-3.5,1.1-5.3c0.3-1.6,0.6-3.2,0.9-4.8C375.9,167.1,369.2,170.9,386,188.8z M435,185c-12.8-7.4-22.2-6.2-25.3-4.6
	c-2,1.3-7.6,2.4-16.1-1.9c-1.5-0.7-3-1.6-4.6-2.7c-0.1-0.1-0.2-0.1-0.3-0.2c-0.3,1.6-0.6,3.2-0.9,4.8c-0.3,1.8-0.8,3.5-1.1,5.3
	c-0.2,0.9-0.4,1.9-0.7,2.9c0,0.1,0,0.1,0,0.2c-3.5,16.7-8,33.7-13.2,50.6c0,0.1,0,0.2-0.1,0.2c-0.7,2.6-1.5,5.1-2.3,7.7
	c0,0.1-0.1,0.2-0.1,0.3c1.6-0.2,3.3-0.6,5.1-1.2v0c5.1-1.5,10.7-3.9,15.9-3.9c6.4,0,0.6,12.2-7.3,24.6
	c21.2-12.9,40.4-26.3,56.7-39.8c2-1.5,3.9-3.2,5.6-4.7C445.1,204.9,441.8,188.9,435,185z M359,221.8c-5.2-9.1-10.4-18.4-16.1-18.4
	c-9.2,0-9.9,4.6-9.2,6.9l-13.8-6.9c2.3-0.8,6.9-4.2,6.9-11.5c0-9.1,0-16.1-11.5-16.1h-27.6c-6.8,0-32.2-6.8-25.3-13.8
	c1.7-1.7,2.8-3.2,3.5-4.6c1.6-3,0.9-5.3-0.8-6.3c-0.7-0.5-1.6-0.7-2.7-0.7c-1.4,0-4.1-1.1-6.9-2.2c-6.7-2.6-14.7-5.8-11.5,2.2
	c1.2,3.1,2.8,6.4,4.3,9.5c4.1,8.5,7.6,15.8,2.5,15.8c-6.8,0-29.9-9.1-25.3-13.8s-2.3-11.5-13.8-11.5h-29.9
	c-6.8,0,6.9,13.8,20.7,16.1c13.8,2.2,18.3,11.4,9.2,13.8c-4.6,1.1-7.5,6.8-9.5,10.9c-2,4-3.2,6.3-4.3,0.5c-0.9-4.4,0-6.5,0.5-7.8
	c0.9-2.1-21.6,8.1-30.1,2.5c-3.8-2.5,15.7-15.8,12.7-18.1c-7.6-5.8-12.6-9.7-17.5-6.4c-1,0.7-2.4,1.5-4,2.5
	c-8.7,5.5-23.3,14.6-21.3,20.5c2.3,6.8-9.2,41.4-16.1,46c-0.6,0.3-1.1,0.8-1.8,1.2c-0.4,0.3-0.8,0.6-1.3,0.9c0,0,0.1,0.1,0.1,0.1
	c16.7,18.5,34.8,36.7,53.6,54.2c0,0,0.1,0.1,0.1,0.1c-8-38.9,28.5-85.6,32-90.9c4.6-6.9,16.1,0,36.7-6.9c16.5-5.5,33-2.3,39,0
	c-4.6,3.7-11,11.9,0,13.8c11,1.9,26,6.9,32.2,9.2h13.8c4.6,0,29.9,18.4,34.5,29.9c1.8,4.5,5,5.5,8.8,5c0-0.1,0.1-0.2,0.1-0.3
	c0.9-2.6,1.6-5.1,2.3-7.7C367.9,237.6,363.5,229.7,359,221.8z M386,188.8c0-0.1,0-0.1,0-0.2c0.2-1,0.4-2,0.7-2.9
	c0.3-1.8,0.8-3.5,1.1-5.3c0.3-1.6,0.6-3.2,0.9-4.8C375.9,167.1,369.2,170.9,386,188.8z M435,185c-12.8-7.4-22.2-6.2-25.3-4.6
	c-2,1.3-7.6,2.4-16.1-1.9c-1.5-0.7-3-1.6-4.6-2.7c-0.1-0.1-0.2-0.1-0.3-0.2c-0.3,1.6-0.6,3.2-0.9,4.8c-0.3,1.8-0.8,3.5-1.1,5.3
	c-0.2,0.9-0.4,1.9-0.7,2.9c0,0.1,0,0.1,0,0.2c-3.5,16.7-8,33.7-13.2,50.6c0,0.1,0,0.2-0.1,0.2c-0.7,2.6-1.5,5.1-2.3,7.7
	c0,0.1-0.1,0.2-0.1,0.3c1.6-0.2,3.3-0.6,5.1-1.2v0c5.1-1.5,10.7-3.9,15.9-3.9c6.4,0,0.6,12.2-7.3,24.6
	c21.2-12.9,40.4-26.3,56.7-39.8c2-1.5,3.9-3.2,5.6-4.7C445.1,204.9,441.8,188.9,435,185z M359,221.8c-5.2-9.1-10.4-18.4-16.1-18.4
	c-9.2,0-9.9,4.6-9.2,6.9l-13.8-6.9c2.3-0.8,6.9-4.2,6.9-11.5c0-9.1,0-16.1-11.5-16.1h-27.6c-6.8,0-32.2-6.8-25.3-13.8
	c1.7-1.7,2.8-3.2,3.5-4.6c1.6-3,0.9-5.3-0.8-6.3c-0.7-0.5-1.6-0.7-2.7-0.7c-1.4,0-4.1-1.1-6.9-2.2c-6.7-2.6-14.7-5.8-11.5,2.2
	c1.2,3.1,2.8,6.4,4.3,9.5c4.1,8.5,7.6,15.8,2.5,15.8c-6.8,0-29.9-9.1-25.3-13.8s-2.3-11.5-13.8-11.5h-29.9
	c-6.8,0,6.9,13.8,20.7,16.1c13.8,2.2,18.3,11.4,9.2,13.8c-4.6,1.1-7.5,6.8-9.5,10.9c-2,4-3.2,6.3-4.3,0.5c-0.9-4.4,0-6.5,0.5-7.8
	c0.9-2.1-21.6,8.1-30.1,2.5c-3.8-2.5,15.7-15.8,12.7-18.1c-7.6-5.8-12.6-9.7-17.5-6.4c-1,0.7-2.4,1.5-4,2.5
	c-8.7,5.5-23.3,14.6-21.3,20.5c2.3,6.8-9.2,41.4-16.1,46c-0.6,0.3-1.1,0.8-1.8,1.2c-0.4,0.3-0.8,0.6-1.3,0.9c0,0,0.1,0.1,0.1,0.1
	c16.7,18.5,34.8,36.7,53.6,54.2c0,0,0.1,0.1,0.1,0.1c-8-38.9,28.5-85.6,32-90.9c4.6-6.9,16.1,0,36.7-6.9c16.5-5.5,33-2.3,39,0
	c-4.6,3.7-11,11.9,0,13.8c11,1.9,26,6.9,32.2,9.2h13.8c4.6,0,29.9,18.4,34.5,29.9c1.8,4.5,5,5.5,8.8,5c0-0.1,0.1-0.2,0.1-0.3
	c0.9-2.6,1.6-5.1,2.3-7.7C367.9,237.6,363.5,229.7,359,221.8z M386,188.8c0-0.1,0-0.1,0-0.2c0.2-1,0.4-2,0.7-2.9
	c0.3-1.8,0.8-3.5,1.1-5.3c0.3-1.6,0.6-3.2,0.9-4.8C375.9,167.1,369.2,170.9,386,188.8z M435,185c-12.8-7.4-22.2-6.2-25.3-4.6
	c-2,1.3-7.6,2.4-16.1-1.9c-1.5-0.7-3-1.6-4.6-2.7c-0.1-0.1-0.2-0.1-0.3-0.2c-0.3,1.6-0.6,3.2-0.9,4.8c-0.3,1.8-0.8,3.5-1.1,5.3
	c-0.2,0.9-0.4,1.9-0.7,2.9c0,0.1,0,0.1,0,0.2c-3.5,16.7-8,33.7-13.2,50.6c0,0.1,0,0.2-0.1,0.2c-0.7,2.6-1.5,5.1-2.3,7.7
	c0,0.1-0.1,0.2-0.1,0.3c1.6-0.2,3.3-0.6,5.1-1.2v0c5.1-1.5,10.7-3.9,15.9-3.9c6.4,0,0.6,12.2-7.3,24.6
	c21.2-12.9,40.4-26.3,56.7-39.8c2-1.5,3.9-3.2,5.6-4.7C445.1,204.9,441.8,188.9,435,185z M359,221.8c-5.2-9.1-10.4-18.4-16.1-18.4
	c-9.2,0-9.9,4.6-9.2,6.9l-13.8-6.9c2.3-0.8,6.9-4.2,6.9-11.5c0-9.1,0-16.1-11.5-16.1h-27.6c-6.8,0-32.2-6.8-25.3-13.8
	c1.7-1.7,2.8-3.2,3.5-4.6c1.6-3,0.9-5.3-0.8-6.3c-0.7-0.5-1.6-0.7-2.7-0.7c-1.4,0-4.1-1.1-6.9-2.2c-6.7-2.6-14.7-5.8-11.5,2.2
	c1.2,3.1,2.8,6.4,4.3,9.5c4.1,8.5,7.6,15.8,2.5,15.8c-6.8,0-29.9-9.1-25.3-13.8s-2.3-11.5-13.8-11.5h-29.9
	c-6.8,0,6.9,13.8,20.7,16.1c13.8,2.2,18.3,11.4,9.2,13.8c-4.6,1.1-7.5,6.8-9.5,10.9c-2,4-3.2,6.3-4.3,0.5c-0.9-4.4,0-6.5,0.5-7.8
	c0.9-2.1-21.6,8.1-30.1,2.5c-3.8-2.5,15.7-15.8,12.7-18.1c-7.6-5.8-12.6-9.7-17.5-6.4c-1,0.7-2.4,1.5-4,2.5
	c-8.7,5.5-23.3,14.6-21.3,20.5c2.3,6.8-9.2,41.4-16.1,46c-0.6,0.3-1.1,0.8-1.8,1.2c-0.4,0.3-0.8,0.6-1.3,0.9c0,0,0.1,0.1,0.1,0.1
	c16.7,18.5,34.8,36.7,53.6,54.2c0,0,0.1,0.1,0.1,0.1c-8-38.9,28.5-85.6,32-90.9c4.6-6.9,16.1,0,36.7-6.9c16.5-5.5,33-2.3,39,0
	c-4.6,3.7-11,11.9,0,13.8c11,1.9,26,6.9,32.2,9.2h13.8c4.6,0,29.9,18.4,34.5,29.9c1.8,4.5,5,5.5,8.8,5c0-0.1,0.1-0.2,0.1-0.3
	c0.9-2.6,1.6-5.1,2.3-7.7C367.9,237.6,363.5,229.7,359,221.8z M386,188.8c0-0.1,0-0.1,0-0.2c0.2-1,0.4-2,0.7-2.9
	c0.3-1.8,0.8-3.5,1.1-5.3c0.3-1.6,0.6-3.2,0.9-4.8C375.9,167.1,369.2,170.9,386,188.8z M435,185c-12.8-7.4-22.2-6.2-25.3-4.6
	c-2,1.3-7.6,2.4-16.1-1.9c-1.5-0.7-3-1.6-4.6-2.7c-0.1-0.1-0.2-0.1-0.3-0.2c-0.3,1.6-0.6,3.2-0.9,4.8c-0.3,1.8-0.8,3.5-1.1,5.3
	c-0.2,0.9-0.4,1.9-0.7,2.9c0,0.1,0,0.1,0,0.2c-3.5,16.7-8,33.7-13.2,50.6c0,0.1,0,0.2-0.1,0.2c-0.7,2.6-1.5,5.1-2.3,7.7
	c0,0.1-0.1,0.2-0.1,0.3c1.6-0.2,3.3-0.6,5.1-1.2v0c5.1-1.5,10.7-3.9,15.9-3.9c6.4,0,0.6,12.2-7.3,24.6
	c21.2-12.9,40.4-26.3,56.7-39.8c2-1.5,3.9-3.2,5.6-4.7C445.1,204.9,441.8,188.9,435,185z M359,221.8c-5.2-9.1-10.4-18.4-16.1-18.4
	c-9.2,0-9.9,4.6-9.2,6.9l-13.8-6.9c2.3-0.8,6.9-4.2,6.9-11.5c0-9.1,0-16.1-11.5-16.1h-27.6c-6.8,0-32.2-6.8-25.3-13.8
	c1.7-1.7,2.8-3.2,3.5-4.6c1.6-3,0.9-5.3-0.8-6.3c-0.7-0.5-1.6-0.7-2.7-0.7c-1.4,0-4.1-1.1-6.9-2.2c-6.7-2.6-14.7-5.8-11.5,2.2
	c1.2,3.1,2.8,6.4,4.3,9.5c4.1,8.5,7.6,15.8,2.5,15.8c-6.8,0-29.9-9.1-25.3-13.8s-2.3-11.5-13.8-11.5h-29.9
	c-6.8,0,6.9,13.8,20.7,16.1c13.8,2.2,18.3,11.4,9.2,13.8c-4.6,1.1-7.5,6.8-9.5,10.9c-2,4-3.2,6.3-4.3,0.5c-0.9-4.4,0-6.5,0.5-7.8
	c0.9-2.1-21.6,8.1-30.1,2.5c-3.8-2.5,15.7-15.8,12.7-18.1c-7.6-5.8-12.6-9.7-17.5-6.4c-1,0.7-2.4,1.5-4,2.5
	c-8.7,5.5-23.3,14.6-21.3,20.5c2.3,6.8-9.2,41.4-16.1,46c-0.6,0.3-1.1,0.8-1.8,1.2c-0.4,0.3-0.8,0.6-1.3,0.9c0,0,0.1,0.1,0.1,0.1
	c16.7,18.5,34.8,36.7,53.6,54.2c0,0,0.1,0.1,0.1,0.1c-8-38.9,28.5-85.6,32-90.9c4.6-6.9,16.1,0,36.7-6.9c16.5-5.5,33-2.3,39,0
	c-4.6,3.7-11,11.9,0,13.8c11,1.9,26,6.9,32.2,9.2h13.8c4.6,0,29.9,18.4,34.5,29.9c1.8,4.5,5,5.5,8.8,5c0-0.1,0.1-0.2,0.1-0.3
	c0.9-2.6,1.6-5.1,2.3-7.7C367.9,237.6,363.5,229.7,359,221.8z M386,188.8c0-0.1,0-0.1,0-0.2c0.2-1,0.4-2,0.7-2.9
	c0.3-1.8,0.8-3.5,1.1-5.3c0.3-1.6,0.6-3.2,0.9-4.8C375.9,167.1,369.2,170.9,386,188.8z M359,221.8c-5.2-9.1-10.4-18.4-16.1-18.4
	c-9.2,0-9.9,4.6-9.2,6.9l-13.8-6.9c2.3-0.8,6.9-4.2,6.9-11.5c0-9.1,0-16.1-11.5-16.1h-27.6c-6.8,0-32.2-6.8-25.3-13.8
	c1.7-1.7,2.8-3.2,3.5-4.6c1.6-3,0.9-5.3-0.8-6.3c-0.7-0.5-1.6-0.7-2.7-0.7c-1.4,0-4.1-1.1-6.9-2.2c-6.7-2.6-14.7-5.8-11.5,2.2
	c1.2,3.1,2.8,6.4,4.3,9.5c4.1,8.5,7.6,15.8,2.5,15.8c-6.8,0-29.9-9.1-25.3-13.8s-2.3-11.5-13.8-11.5h-29.9
	c-6.8,0,6.9,13.8,20.7,16.1c13.8,2.2,18.3,11.4,9.2,13.8c-4.6,1.1-7.5,6.8-9.5,10.9c-2,4-3.2,6.3-4.3,0.5c-0.9-4.4,0-6.5,0.5-7.8
	c0.9-2.1-21.6,8.1-30.1,2.5c-3.8-2.5,15.7-15.8,12.7-18.1c-7.6-5.8-12.6-9.7-17.5-6.4c-1,0.7-2.4,1.5-4,2.5
	c-8.7,5.5-23.3,14.6-21.3,20.5c2.3,6.8-9.2,41.4-16.1,46c-0.6,0.3-1.1,0.8-1.8,1.2c-0.4,0.3-0.8,0.6-1.3,0.9c0,0,0.1,0.1,0.1,0.1
	c16.7,18.5,34.8,36.7,53.6,54.2c0,0,0.1,0.1,0.1,0.1c-8-38.9,28.5-85.6,32-90.9c4.6-6.9,16.1,0,36.7-6.9c16.5-5.5,33-2.3,39,0
	c-4.6,3.7-11,11.9,0,13.8c11,1.9,26,6.9,32.2,9.2h13.8c4.6,0,29.9,18.4,34.5,29.9c1.8,4.5,5,5.5,8.8,5c0-0.1,0.1-0.2,0.1-0.3
	c0.9-2.6,1.6-5.1,2.3-7.7C367.9,237.6,363.5,229.7,359,221.8z M386,188.8c0-0.1,0-0.1,0-0.2c0.2-1,0.4-2,0.7-2.9
	c0.3-1.8,0.8-3.5,1.1-5.3c0.3-1.6,0.6-3.2,0.9-4.8C375.9,167.1,369.2,170.9,386,188.8z M359,221.8c-5.2-9.1-10.4-18.4-16.1-18.4
	c-9.2,0-9.9,4.6-9.2,6.9l-13.8-6.9c2.3-0.8,6.9-4.2,6.9-11.5c0-9.1,0-16.1-11.5-16.1h-27.6c-6.8,0-32.2-6.8-25.3-13.8
	c1.7-1.7,2.8-3.2,3.5-4.6c1.6-3,0.9-5.3-0.8-6.3c-0.7-0.5-1.6-0.7-2.7-0.7c-1.4,0-4.1-1.1-6.9-2.2c-6.7-2.6-14.7-5.8-11.5,2.2
	c1.2,3.1,2.8,6.4,4.3,9.5c4.1,8.5,7.6,15.8,2.5,15.8c-6.8,0-29.9-9.1-25.3-13.8s-2.3-11.5-13.8-11.5h-29.9
	c-6.8,0,6.9,13.8,20.7,16.1c13.8,2.2,18.3,11.4,9.2,13.8c-4.6,1.1-7.5,6.8-9.5,10.9c-2,4-3.2,6.3-4.3,0.5c-0.9-4.4,0-6.5,0.5-7.8
	c0.9-2.1-21.6,8.1-30.1,2.5c-3.8-2.5,15.7-15.8,12.7-18.1c-7.6-5.8-12.6-9.7-17.5-6.4c-1,0.7-2.4,1.5-4,2.5
	c-8.7,5.5-23.3,14.6-21.3,20.5c2.3,6.8-9.2,41.4-16.1,46c-0.6,0.3-1.1,0.8-1.8,1.2c-0.4,0.3-0.8,0.6-1.3,0.9c0,0,0.1,0.1,0.1,0.1
	c16.7,18.5,34.8,36.7,53.6,54.2c0,0,0.1,0.1,0.1,0.1c-8-38.9,28.5-85.6,32-90.9c4.6-6.9,16.1,0,36.7-6.9c16.5-5.5,33-2.3,39,0
	c-4.6,3.7-11,11.9,0,13.8c11,1.9,26,6.9,32.2,9.2h13.8c4.6,0,29.9,18.4,34.5,29.9c1.8,4.5,5,5.5,8.8,5c0-0.1,0.1-0.2,0.1-0.3
	c0.9-2.6,1.6-5.1,2.3-7.7C367.9,237.6,363.5,229.7,359,221.8z M386,188.8c0-0.1,0-0.1,0-0.2c0.2-1,0.4-2,0.7-2.9
	c0.3-1.8,0.8-3.5,1.1-5.3c0.3-1.6,0.6-3.2,0.9-4.8C375.9,167.1,369.2,170.9,386,188.8z M359,221.8c-5.2-9.1-10.4-18.4-16.1-18.4
	c-9.2,0-9.9,4.6-9.2,6.9l-13.8-6.9c2.3-0.8,6.9-4.2,6.9-11.5c0-9.1,0-16.1-11.5-16.1h-27.6c-6.8,0-32.2-6.8-25.3-13.8
	c1.7-1.7,2.8-3.2,3.5-4.6c1.6-3,0.9-5.3-0.8-6.3c-0.7-0.5-1.6-0.7-2.7-0.7c-1.4,0-4.1-1.1-6.9-2.2c-6.7-2.6-14.7-5.8-11.5,2.2
	c1.2,3.1,2.8,6.4,4.3,9.5c4.1,8.5,7.6,15.8,2.5,15.8c-6.8,0-29.9-9.1-25.3-13.8s-2.3-11.5-13.8-11.5h-29.9
	c-6.8,0,6.9,13.8,20.7,16.1c13.8,2.2,18.3,11.4,9.2,13.8c-4.6,1.1-7.5,6.8-9.5,10.9c-2,4-3.2,6.3-4.3,0.5c-0.9-4.4,0-6.5,0.5-7.8
	c0.9-2.1-21.6,8.1-30.1,2.5c-3.8-2.5,15.7-15.8,12.7-18.1c-7.6-5.8-12.6-9.7-17.5-6.4c-1,0.7-2.4,1.5-4,2.5
	c-8.7,5.5-23.3,14.6-21.3,20.5c2.3,6.8-9.2,41.4-16.1,46c-0.6,0.3-1.1,0.8-1.8,1.2c-0.4,0.3-0.8,0.6-1.3,0.9c0,0,0.1,0.1,0.1,0.1
	c16.7,18.5,34.8,36.7,53.6,54.2c0,0,0.1,0.1,0.1,0.1c-8-38.9,28.5-85.6,32-90.9c4.6-6.9,16.1,0,36.7-6.9c16.5-5.5,33-2.3,39,0
	c-4.6,3.7-11,11.9,0,13.8c11,1.9,26,6.9,32.2,9.2h13.8c4.6,0,29.9,18.4,34.5,29.9c1.8,4.5,5,5.5,8.8,5c0-0.1,0.1-0.2,0.1-0.3
	c0.9-2.6,1.6-5.1,2.3-7.7C367.9,237.6,363.5,229.7,359,221.8z M386,188.8c0-0.1,0-0.1,0-0.2c0.2-1,0.4-2,0.7-2.9
	c0.3-1.8,0.8-3.5,1.1-5.3c0.3-1.6,0.6-3.2,0.9-4.8C375.9,167.1,369.2,170.9,386,188.8z M359,221.8c-5.2-9.1-10.4-18.4-16.1-18.4
	c-9.2,0-9.9,4.6-9.2,6.9l-13.8-6.9c2.3-0.8,6.9-4.2,6.9-11.5c0-9.1,0-16.1-11.5-16.1h-27.6c-6.8,0-32.2-6.8-25.3-13.8
	c1.7-1.7,2.8-3.2,3.5-4.6c1.6-3,0.9-5.3-0.8-6.3c-0.7-0.5-1.6-0.7-2.7-0.7c-1.4,0-4.1-1.1-6.9-2.2c-6.7-2.6-14.7-5.8-11.5,2.2
	c1.2,3.1,2.8,6.4,4.3,9.5c4.1,8.5,7.6,15.8,2.5,15.8c-6.8,0-29.9-9.1-25.3-13.8s-2.3-11.5-13.8-11.5h-29.9
	c-6.8,0,6.9,13.8,20.7,16.1c13.8,2.2,18.3,11.4,9.2,13.8c-4.6,1.1-7.5,6.8-9.5,10.9c-2,4-3.2,6.3-4.3,0.5c-0.9-4.4,0-6.5,0.5-7.8
	c0.9-2.1-21.6,8.1-30.1,2.5c-3.8-2.5,15.7-15.8,12.7-18.1c-7.6-5.8-12.6-9.7-17.5-6.4c-1,0.7-2.4,1.5-4,2.5
	c-8.7,5.5-23.3,14.6-21.3,20.5c2.3,6.8-9.2,41.4-16.1,46c-0.6,0.3-1.1,0.8-1.8,1.2c-0.4,0.3-0.8,0.6-1.3,0.9c0,0,0.1,0.1,0.1,0.1
	c16.7,18.5,34.8,36.7,53.6,54.2c0,0,0.1,0.1,0.1,0.1c-8-38.9,28.5-85.6,32-90.9c4.6-6.9,16.1,0,36.7-6.9c16.5-5.5,33-2.3,39,0
	c-4.6,3.7-11,11.9,0,13.8c11,1.9,26,6.9,32.2,9.2h13.8c4.6,0,29.9,18.4,34.5,29.9c1.8,4.5,5,5.5,8.8,5c0-0.1,0.1-0.2,0.1-0.3
	c0.9-2.6,1.6-5.1,2.3-7.7C367.9,237.6,363.5,229.7,359,221.8z M386,188.8c0-0.1,0-0.1,0-0.2c0.2-1,0.4-2,0.7-2.9
	c0.3-1.8,0.8-3.5,1.1-5.3c0.3-1.6,0.6-3.2,0.9-4.8C375.9,167.1,369.2,170.9,386,188.8z M359,221.8c-5.2-9.1-10.4-18.4-16.1-18.4
	c-9.2,0-9.9,4.6-9.2,6.9l-13.8-6.9c2.3-0.8,6.9-4.2,6.9-11.5c0-9.1,0-16.1-11.5-16.1h-27.6c-6.8,0-32.2-6.8-25.3-13.8
	c1.7-1.7,2.8-3.2,3.5-4.6c1.6-3,0.9-5.3-0.8-6.3c-0.7-0.5-1.6-0.7-2.7-0.7c-1.4,0-4.1-1.1-6.9-2.2c-6.7-2.6-14.7-5.8-11.5,2.2
	c1.2,3.1,2.8,6.4,4.3,9.5c4.1,8.5,7.6,15.8,2.5,15.8c-6.8,0-29.9-9.1-25.3-13.8s-2.3-11.5-13.8-11.5h-29.9
	c-6.8,0,6.9,13.8,20.7,16.1c13.8,2.2,18.3,11.4,9.2,13.8c-4.6,1.1-7.5,6.8-9.5,10.9c-2,4-3.2,6.3-4.3,0.5c-0.9-4.4,0-6.5,0.5-7.8
	c0.9-2.1-21.6,8.1-30.1,2.5c-3.8-2.5,15.7-15.8,12.7-18.1c-7.6-5.8-12.6-9.7-17.5-6.4c-1,0.7-2.4,1.5-4,2.5
	c-8.7,5.5-23.3,14.6-21.3,20.5c2.3,6.8-9.2,41.4-16.1,46c-0.6,0.3-1.1,0.8-1.8,1.2c-0.4,0.3-0.8,0.6-1.3,0.9c0,0,0.1,0.1,0.1,0.1
	c16.7,18.5,34.8,36.7,53.6,54.2c0,0,0.1,0.1,0.1,0.1c-8-38.9,28.5-85.6,32-90.9c4.6-6.9,16.1,0,36.7-6.9c16.5-5.5,33-2.3,39,0
	c-4.6,3.7-11,11.9,0,13.8c11,1.9,26,6.9,32.2,9.2h13.8c4.6,0,29.9,18.4,34.5,29.9c1.8,4.5,5,5.5,8.8,5c0-0.1,0.1-0.2,0.1-0.3
	c0.9-2.6,1.6-5.1,2.3-7.7C367.9,237.6,363.5,229.7,359,221.8z M270.5,324.1c-0.2,0-0.3-0.1-0.5-0.1c0.2,0,0.5,0.1,0.7,0.2
	C270.6,324.1,270.5,324.1,270.5,324.1z M386,188.8c0-0.1,0-0.1,0-0.2c0.2-1,0.4-2,0.7-2.9c0.3-1.8,0.8-3.5,1.1-5.3
	c0.3-1.6,0.6-3.2,0.9-4.8C375.9,167.1,369.2,170.9,386,188.8z"/>
<path class="st2" d="M106.3,260.2"/>
<path class="st3" d="M374.5,324.6"/>
<path class="st3" d="M135.9,189.7"/>
<path class="st1" d="M110.9,76.8c0,0-0.1,0-0.1,0c2.9-2.1,5.8-4.2,8.8-6.1c0,0,0,0,0.1,0C116.7,72.6,113.8,74.7,110.9,76.8z"/>
<path class="st1" d="M84.9,192.3c-1.1,1.2-2.1,2.7-3.2,4.4c0,0,0,0,0,0c-0.2-0.2-0.4-0.5-0.6-0.7c-1.1-1.4-2.2-2.8-3.3-4.2
	c-0.1-0.2-0.3-0.4-0.4-0.5c-10.8-14-20.4-27.9-28.6-41.2c0,0,0,0,0,0c1.2-2.4,2.5-4.8,3.8-7.1c0,0.1,0,0.1,0.1,0.2
	c2.2,4.2,4.7,8.5,7.5,13c6.2,10.1,13.3,20.6,21.1,31.2c0.7,0.9,1.3,1.8,2,2.7C83.7,190.7,84.3,191.5,84.9,192.3z"/>
<path class="st1" d="M168.3,283.4c0.6,3,1.5,6,2.8,8.8c-0.1-0.1-0.2-0.2-0.3-0.2c-19.4-17.8-38-36.5-55.2-55.4c0,0,0,0-0.1-0.1
	c1.4-0.9,2.8-1.8,4-2.6c0,0,0.1,0.1,0.1,0.1c15.1,16.8,31.5,33.4,48.6,49.3C168.2,283.3,168.3,283.4,168.3,283.4L168.3,283.4z"/>
<path class="st1" d="M404.4,350.3c-2.5,4-5.2,8-7.9,11.8c-0.1-0.2-0.1-0.4-0.2-0.6c0.7-0.9,1.3-2,2-2.9
	C400.4,356,402.5,353.2,404.4,350.3z"/>
<path class="st1" d="M136.5,423.5c0,0.1,0.1,0.2,0.1,0.3c-5.7-3-11.2-6.2-16.6-9.7c0-0.1,0-0.2,0-0.3
	C125.3,417.3,130.8,420.5,136.5,423.5z"/>
<path class="st1" d="M279.3,397.8c-11.3,16.6-23.1,31.6-35.2,44.3c-1.5,1.6-2.9,3.1-4.4,4.5c-0.1,0.1-0.2,0.2-0.2,0.2
	c-2.8,0.1-5.6,0.2-8.5,0.2c-1.3,0-2.6,0-3.8,0c0.1-0.1,0.2-0.2,0.3-0.3c3.4-2.6,6.8-5.5,10.3-8.6c3.5-3.2,7-6.6,10.5-10.3
	c10-10.6,19.7-22.6,29-36.1C277.9,393.7,278.5,395.8,279.3,397.8z"/>
<path class="st1" d="M34.5,297.6c1.3,4.7,2.8,9.3,4.4,13.8c0,0-0.1,0.1-0.1,0.1c-1.6-4.5-3.1-9.1-4.4-13.8
	C34.4,297.7,34.5,297.6,34.5,297.6z"/>
<path class="st1" d="M433.7,218.1c-2.7,2.3-5.4,4.6-8.3,7.1l-3,2.4c0.3-3.1,0.5-6.3,0.6-9.4c2-1.9,3.9-3.7,5.7-5.6
	c1.3-1.3,2.5-2.5,3.7-3.8C432.9,211.9,433.3,215,433.7,218.1z"/>
<path class="st4" d="M408.1,291.1L408.1,291.1v0.1V291.1z"/>
<path class="st1" d="M205.5,107.4c0,3.2-2.6,5.8-5.8,5.8c-3.2,0-5.8-2.6-5.8-5.8c0-3.2,2.6-5.8,5.8-5.8
	C202.9,101.6,205.5,104.2,205.5,107.4z"/>
<circle class="st1" cx="204.7" cy="219.4" r="5"/>
<circle class="st1" cx="347" cy="96.6" r="5"/>
<circle class="st1" cx="81.6" cy="309.1" r="5"/>
<path class="st1" d="M193.8,107.4c0-3.2,2.6-5.8,5.8-5.8c3.2,0,5.8,2.6,5.8,5.8c0,3.2-2.6,5.8-5.8,5.8
	C196.5,113.3,193.8,110.7,193.8,107.4z"/>
<path class="st1" d="M386,188.8c0-0.1,0-0.1,0-0.2c0.2-1,0.4-2,0.7-2.9c0.3-1.8,0.8-3.5,1.1-5.3c0.3-1.6,0.6-3.2,0.9-4.8
	C375.9,167.1,369.2,170.9,386,188.8z M303.7,161c-2.1-4.2-14.6-18.8-22.9-16.7c-4.6,1.1-11,4.1-15.5,6.9c1.7,1,2.4,3.3,0.8,6.3
	c4.8,0.4,10.2,0.4,12.5-0.7c3.3-1.7,13.9,3.5,18.8,6.3C300.2,163.8,305.3,164.4,303.7,161z M386,188.8c0-0.1,0-0.1,0-0.2
	c0.2-1,0.4-2,0.7-2.9c0.3-1.8,0.8-3.5,1.1-5.3c0.3-1.6,0.6-3.2,0.9-4.8C375.9,167.1,369.2,170.9,386,188.8z M280.8,144.3
	c-4.6,1.1-11,4.1-15.5,6.9c1.7,1,2.4,3.3,0.8,6.3c4.8,0.4,10.2,0.4,12.5-0.7c3.3-1.7,13.9,3.5,18.8,6.3c2.8,0.7,7.9,1.3,6.3-2.1
	C301.6,156.8,289.1,142.2,280.8,144.3z M242.2,9.5C113.7,9.5,9.5,113.7,9.5,242.2S113.7,475,242.2,475S475,370.8,475,242.2
	S370.8,9.5,242.2,9.5z M404.9,348.3c-6.8,11.6-13.8,9.2-18.4,9.2s0-9.2,4.6-13.8c4.8-4.6-6.7-18.5,0.1-18.5c5.5,0,9.9-9.2,11.5-13.8
	c1.9-4.6,7-4.6,9.1-2.3C414.2,311.6,411.8,336.9,404.9,348.3z M384,267.2c-2.2,3.5-4.6,7-7,10.2c-4.3,5.8-8.3,10.9-10.9,13.5
	c-9.2,9.2,7,27.6,9.2,32.2c2.3,4.6-6.9,11.5-9.2,29.9c-2.2,17.7-8.6,41.8-13.2,58c-0.2,0.6-0.4,1.3-0.5,1.9
	c-0.7,2.3-1.8,4.6-3.3,6.8c-6.5,9.8-19.7,17.7-26.6,20.8c-3.1,1.5-11,1.9-18.4-9.2c-3.4-5.1-6.2-11.5-8.4-18
	c-0.8-2.2-1.5-4.5-2.1-6.6c-2.6-8.7-4.4-16.8-5.5-21.4c0-0.1,0-0.1,0-0.2c-0.3-1.6,0-4.3,0.5-7.6c2.2-14.3,8.6-41-10.9-50.9
	c0,0-0.1,0-0.1-0.1c-0.4-0.2-0.8-0.4-1.1-0.5c-0.4-0.2-0.9-0.4-1.3-0.5c-0.2-0.1-0.4-0.2-0.7-0.3c-0.3-0.1-0.6-0.2-0.9-0.3
	c-0.3-0.1-0.6-0.2-0.9-0.3c-0.3-0.1-0.6-0.2-0.9-0.3c-0.1,0-0.3-0.1-0.5-0.1c-0.2,0-0.3-0.1-0.5-0.1h0c0,0-0.1,0-0.1,0
	c-0.2,0-0.3-0.1-0.5-0.1c-0.2-0.1-0.3-0.1-0.5-0.1c-0.3-0.1-0.6-0.1-0.8-0.2c-0.4-0.1-0.7-0.1-1.1-0.2h0c-0.2,0-0.4,0-0.5-0.1
	c-0.2,0-0.4,0-0.5-0.1c-0.5-0.1-1-0.1-1.5-0.2c-3.1-0.3-5.8-0.5-8.2-0.3c-0.2,0-0.3,0-0.5,0c-0.8,0-1.6,0.1-2.3,0.2
	c-0.3,0-0.5,0.1-0.8,0.1c-0.4,0-0.7,0.1-1.1,0.2c-0.7,0.1-1.3,0.2-1.9,0.4c-0.2,0-0.4,0.1-0.5,0.1c-0.5,0.1-1,0.3-1.5,0.4
	c-0.4,0.1-0.8,0.3-1.2,0.4c-0.4,0.1-0.8,0.3-1.2,0.5c-0.2,0.1-0.4,0.2-0.6,0.2c-0.4,0.2-0.8,0.4-1.2,0.6c-0.3,0.2-0.6,0.3-0.9,0.5
	c-0.4,0.2-0.7,0.4-1,0.6c-0.1,0.1-0.3,0.2-0.4,0.3c-0.3,0.2-0.6,0.4-0.9,0.6c-0.2,0.2-0.5,0.4-0.7,0.5c-0.2,0.1-0.3,0.2-0.5,0.4
	c-0.4,0.3-0.8,0.6-1.1,0.9c-0.2,0.2-0.5,0.4-0.7,0.6c-0.1,0.1-0.2,0.2-0.3,0.3c-0.2,0.2-0.4,0.3-0.6,0.5c-0.1,0-0.1,0.1-0.1,0.1
	c-0.2,0.1-0.3,0.2-0.4,0.4c-0.2,0.2-0.5,0.4-0.7,0.6c-0.2,0.2-0.4,0.3-0.5,0.5c-0.1,0-0.1,0.1-0.2,0.1c-0.3,0.2-0.6,0.4-0.8,0.7
	c-0.2,0.2-0.5,0.3-0.7,0.5c-0.5,0.3-1,0.6-1.5,0.9c-0.2,0.1-0.3,0.2-0.5,0.2c-0.1,0.1-0.2,0.1-0.3,0.2c-0.1,0-0.2,0.1-0.3,0.1
	c-0.2,0.1-0.5,0.2-0.7,0.2c-0.1,0-0.2,0.1-0.4,0.1c-2.6,0.7-5.9,0.4-10.6-1.5l0,0c-5.8-2.4-13.7-7.2-25.2-15.7
	c-8.5-6.3-14.1-13.5-17.5-21.3c-1.4-3.2-2.4-6.4-3.1-9.7l0,0c-8-38.9,28.5-85.6,32-90.9c4.6-6.9,16.1,0,36.7-6.9
	c16.5-5.5,33-2.3,39,0c-4.6,3.7-11,11.9,0,13.8c11,1.9,26,6.9,32.2,9.2h13.8c4.6,0,29.9,18.4,34.5,29.9c1.8,4.5,5,5.5,8.8,5
	c1.6-0.2,3.3-0.6,5.1-1.2v0c5.1-1.5,10.7-3.9,15.9-3.9C397.7,242.6,392,254.8,384,267.2C384,267.2,384,267.2,384,267.2z M88.6,380.6
	c-3.2-2.5-6.4-5.3-9.5-8.3c-10.1-9.3-19.7-19.9-25.5-27c-0.7-2.4-1.5-8.6,0-13c1.5-4.5-5.6-19.2-9.4-26c3.1-4.3,10.9-11.9,17-7.5
	c7.5,5.6,30.1-7.5,37.6-5.6s24.5,3.7,26.4,9.2c1.9,5.6,1.9,18.6,5.6,24.2c3,4.5,0,16.7-1.9,22.3c-0.7,1.9-3,6-7.5,7.5
	c-5.6,1.9,7.5,1.9,18.9,5.6c1.6,0.5,2.8,1.3,3.7,2.4c1.4,1.5,2.1,3.5,2.5,5.8c1.2,7.3-1.1,17.3,1.3,23.4c3.8,9.2,24.5,26,28.2,29.7
	s0,9.2-3.8,7.5c-3.8-1.9-45.2-35.3-64-39.1C102.9,390.8,95.9,386.4,88.6,380.6z M117.9,125.1c2.3,0,11.5,0,9.2,4.6
	c-2.3,4.6-2.3,6.9-9.2,16.1c-5.6,7.5-11.7,6.3-13.9,4.7v-20.8c0-4.6-4.6-4.6-9.2-11.6c-4.6-6.9,0-4.6,7-6.9c6.9-2.3,4.6,4.6,4.6,6.9
	S115.6,125.1,117.9,125.1z M92.5,185c5.2,4,8.2,0.6,11.5-3.2c2.5-2.9,5.3-5.9,9.3-5.9c3.2,0,4.4-0.5,4.4-1.4c0-1.7-4.5-4.8-9-7.8
	c-5.4-3.6,0.7-4.6,4.5-4.6c0.5-0.8,2.8-3.6,9.4-11.5c5.4-6.4,6.7-12.3,7.8-17c1.2-5.5,2.1-9.4,8.3-10.6c11.5-2.3,20.6-4.6,25.3-9.2
	c4.6-4.6,9.2-11.5,0-11.5c-3.1,0-6.1,0.5-8.8,1.1c-5.3,1-10.4,1.9-16.4-1.1c-6-3-4.2-5-2.2-7.3c1.1-1.2,2.2-2.5,2.2-4.2
	c0-4.6,11.5-18.4,25.3-23c3.5-1.1,7.6-3,11.8-4.8c12.2-5.4,26.2-11.8,36.5-6.6c4.3,2.2,6.5,3.9,8.2,5.1c3.5,2.6,3.6,2.8,14.8-0.4
	c1-0.2,1.9-0.6,2.8-0.8c13.6-3.9,15.9-4.5,20.2-15.3c3.6-9.1,16.8-17.6,22.9-20.7c22.9,6.8,74,25.3,94.2,43.7
	c6.8,6.1,13.7,12.4,20.6,19.7c2.8,2.9,5.6,6,8.4,9.2c16.3,19.1,32.5,45.2,46.9,88.4c2.7,8.2,3.4,19.2,3,30.7
	c-0.1,3.4-0.4,6.9-0.7,10.3c-1.4,16.3-4.5,32.3-7,41.8c0.6-9.6,1-23.1,0.4-36.6c-0.1-2.9-0.3-5.8-0.5-8.6
	c-1.3-17.8-4.6-33.7-11.4-37.6c-12.8-7.4-22.2-6.2-25.3-4.6c-2,1.3-7.6,2.4-16.1-1.9c-1.5-0.7-3-1.6-4.6-2.7
	c-0.1-0.1-0.2-0.1-0.3-0.2c-12.9-8.5-19.6-4.8-2.7,13.1c-3.5,16.7-8,33.7-13.2,50.6c0,0.1,0,0.2-0.1,0.2c-4.8-2-9.3-9.9-13.7-17.8
	c-5.2-9.1-10.4-18.4-16.1-18.4c-9.2,0-9.9,4.6-9.2,6.9l-13.8-6.9c2.3-0.8,6.9-4.2,6.9-11.5c0-9.1,0-16.1-11.5-16.1h-27.6
	c-6.8,0-32.2-6.8-25.3-13.8c1.7-1.7,2.8-3.2,3.5-4.6c4.8,0.4,10.2,0.4,12.5-0.7c3.3-1.7,13.9,3.5,18.8,6.3c2.8,0.7,7.9,1.3,6.3-2.1
	c-2.1-4.2-14.6-18.8-22.9-16.7c-4.6,1.1-11,4.1-15.5,6.9c-0.7-0.5-1.6-0.7-2.7-0.7c-1.4,0-4.1-1.1-6.9-2.2
	c-6.7-2.6-14.7-5.8-11.5,2.2c1.2,3.1,2.8,6.4,4.3,9.5c4.1,8.5,7.6,15.8,2.5,15.8c-6.8,0-29.9-9.1-25.3-13.8s-2.3-11.5-13.8-11.5
	h-29.9c-6.8,0,6.9,13.8,20.7,16.1c13.8,2.2,18.3,11.4,9.2,13.8c-4.6,1.1-7.5,6.8-9.5,10.9c-2,4-3.2,6.3-4.3,0.5
	c-0.9-4.4,0-6.5,0.5-7.8c0.9-2.1-21.6,8.1-30.1,2.5c-3.8-2.5,15.7-15.8,12.7-18.1c-7.6-5.8-12.6-9.7-17.5-6.4c-1,0.7-2.4,1.5-4,2.5
	c-8.7,5.5-23.3,14.6-21.3,20.5c2.3,6.8-9.2,41.4-16.1,46c-0.6,0.3-1.1,0.8-1.8,1.2c-0.4,0.3-0.8,0.6-1.3,0.9
	c-1.3,0.9-2.8,1.9-4.4,2.9c-8.5,5.3-20.3,11-27.1,4.3c-4.4-4.4-8.8-4.1-12.2-3.7c-3.7,0.3-6.1,0.5-6.1-5.4c0-4.1-1.2-7.4-2.3-10.3
	c-1.9-5.4-3.5-9.9,2.3-17.3c2.3-2.9,4.3-5.9,6.2-8.7c0.6-0.9,1.2-1.8,1.8-2.7c0.1-0.1,0.1-0.2,0.2-0.3c1.1,1.3,2.2,2.8,3.3,4.2
	c0.2,0.2,0.4,0.5,0.6,0.7c0,0,0,0,0,0c1.1-1.6,2.2-3.1,3.2-4.4c-0.6-0.8-1.2-1.6-1.8-2.4c-0.7-0.9-1.3-1.8-2-2.7v0
	C84.5,183.3,87.9,181.6,92.5,185z M303.7,161c-2.1-4.2-14.6-18.8-22.9-16.7c-4.6,1.1-11,4.1-15.5,6.9c1.7,1,2.4,3.3,0.8,6.3
	c4.8,0.4,10.2,0.4,12.5-0.7c3.3-1.7,13.9,3.5,18.8,6.3C300.2,163.8,305.3,164.4,303.7,161z M386,188.8c0-0.1,0-0.1,0-0.2
	c0.2-1,0.4-2,0.7-2.9c0.3-1.8,0.8-3.5,1.1-5.3c0.3-1.6,0.6-3.2,0.9-4.8C375.9,167.1,369.2,170.9,386,188.8z M303.7,161
	c-2.1-4.2-14.6-18.8-22.9-16.7c-4.6,1.1-11,4.1-15.5,6.9c1.7,1,2.4,3.3,0.8,6.3c4.8,0.4,10.2,0.4,12.5-0.7
	c3.3-1.7,13.9,3.5,18.8,6.3C300.2,163.8,305.3,164.4,303.7,161z M386,188.8c0-0.1,0-0.1,0-0.2c0.2-1,0.4-2,0.7-2.9
	c0.3-1.8,0.8-3.5,1.1-5.3c0.3-1.6,0.6-3.2,0.9-4.8C375.9,167.1,369.2,170.9,386,188.8z"/>
</svg>
