<?xml version="1.0" encoding="utf-8"?>
<!-- Generator: Adobe Illustrator 26.3.1, SVG Export Plug-In . SVG Version: 6.00 Build 0)  -->
<svg version="1.1" id="Layer_1" xmlns="http://www.w3.org/2000/svg" xmlns:xlink="http://www.w3.org/1999/xlink" x="0px" y="0px"
	 viewBox="0 0 484.5 484.5" style="enable-background:new 0 0 484.5 484.5;" xml:space="preserve">
<style type="text/css">
	.st0{fill:url(#SVGID_1_);}
	.st1{fill:#4E24FF;}
	.st2{opacity:0.2;fill:#FFFFFF;}
	.st3{opacity:0.1;fill:#231F20;}
	.st4{fill:#764AFF;}
	.st5{fill:#3F0099;}
	.st6{opacity:0.2;enable-background:new    ;}
	.st7{clip-path:url(#SVGID_00000114054040580916587520000011576355556976732567_);fill:#FFFFFF;}
</style>
<linearGradient id="SVGID_1_" gradientUnits="userSpaceOnUse" x1="86.3213" y1="358.6007" x2="385.6456" y2="135.1674">
	<stop  offset="0" style="stop-color:#3B007E"/>
	<stop  offset="1" style="stop-color:#5600FD"/>
</linearGradient>
<path class="st0" d="M429,242.2C429,345.4,345.4,429,242.2,429S55.5,345.4,55.5,242.2S139.1,55.5,242.2,55.5S429,139.1,429,242.2"/>
<path class="st1" d="M382.3,242.2c0,77.4-62.7,140.1-140.1,140.1s-140.1-62.7-140.1-140.1s62.7-140.1,140.1-140.1
	S382.3,164.8,382.3,242.2"/>
<path class="st2" d="M114.4,254.4c0-77.6,62.4-140.1,140.1-140.1c35.6,0,68.3,13.4,92.8,35c-25.7-29.2-63-47.3-105-47.3
	c-77.6,0-140.1,62.4-140.1,140.1c0,42,18.1,79.4,47.3,105C127.3,322.1,114.4,290,114.4,254.4z"/>
<path class="st3" d="M335,137.2c22.2,24.5,35,57.2,35,92.8c0,77.6-62.4,140.1-140.1,140.1c-35.6,0-68.3-13.4-92.8-35
	c25.7,29.2,63,47.3,105,47.3c77.6,0,140.1-62.4,140.1-140.1C382.3,200.2,364.2,162.8,335,137.2z"/>
<path class="st4" d="M348.7,293.4l-13.4-4.7l13.4-4.7l4.7-13.4l4.7,13.4l13.4,4.7l-13.4,4.7l-4.7,13.4L348.7,293.4z M313.7,264.8
	l-23.3-7.6l23.3-8.2l8.2-23.9l7.6,23.9l23.9,8.2l-23.9,7.6l-7.6,23.9L313.7,264.8z"/>
<path class="st5" d="M244.9,293.1v-39.2c18.1,6,18.8,13.6,18.8,18.8C263.7,278,263,289.3,244.9,293.1z M233.6,227.5
	c-9-4.5-15.8-6.1-15.8-17.4c0-5.3,1.5-13.6,15.8-16.6V227.5z M282.6,255.4c-1.5-4.5-7.5-18.8-37.7-24.9v-36.9
	c7.5,2.3,12.1,7.5,14.3,15.1c1.5,6,5.3,9,11.3,9c3,0,21.9-5.3,3-29.4c-3-3.8-9-10.6-27.9-12.8v-15.1h-11.3v15.1
	c-34.7,3.8-37.7,26.4-37.7,36.2c0,30.2,30.2,36.2,37.7,38.4v41.5c-14.3-3.8-17.4-18.1-18.8-23.4c-2.3-6.8-8.3-7.5-10.6-7.5
	c-9,0.7-11.3,8.3-11.3,11.3c0,3.8,2.3,21.9,23.4,32.4c5.3,3,11.3,4.5,18.1,5.3V324h11.3v-14.3c8.3-0.8,15.8-3,21.9-6.8
	C284.1,293.8,289.4,274.2,282.6,255.4L282.6,255.4z"/>
<g class="st6">
	<g>
		<defs>
			<rect id="SVGID_00000178909689995615501330000003119651686332302216_" x="55.5" y="55.4" width="373.5" height="373.5"/>
		</defs>
		<clipPath id="SVGID_00000067948579726841154730000008969128749165639085_">
			<use xlink:href="#SVGID_00000178909689995615501330000003119651686332302216_"  style="overflow:visible;"/>
		</clipPath>
		<path style="clip-path:url(#SVGID_00000067948579726841154730000008969128749165639085_);fill:#FFFFFF;" d="M361.9,169.8
			L169.3,362.4c-9.3-5.8-17.5-12.2-25.7-19.9l197.8-197.8C349.6,151.7,356.6,160.5,361.9,169.8L361.9,169.8z M323.4,128.4
			L128.4,323.3c-1.8-2.9-4.1-5.8-5.8-8.8L315.2,122C318.1,124.3,320.5,126.1,323.4,128.4z"/>
	</g>
</g>
</svg>
