<?xml version="1.0" encoding="utf-8"?>
<!-- Generator: Adobe Illustrator 26.3.1, SVG Export Plug-In . SVG Version: 6.00 Build 0)  -->
<svg version="1.1" xmlns="http://www.w3.org/2000/svg" xmlns:xlink="http://www.w3.org/1999/xlink" x="0px" y="0px"
	 viewBox="0 0 500 500" style="enable-background:new 0 0 500 500;" xml:space="preserve">
<style type="text/css">
	.st0{opacity:0.8;}
	.st1{fill:url(#SVGID_1_);}
	.st2{fill:#263238;}
	.st3{fill:url(#SVGID_00000088101054803473841760000002914866962088263817_);}
	.st4{fill:url(#SVGID_00000018954880587522333190000014233442675963885210_);}
	.st5{fill:url(#SVGID_00000157306029381878290620000003827702994366156978_);}
	.st6{fill:url(#SVGID_00000056425421688249368920000017996388173029808555_);}
	.st7{fill:url(#SVGID_00000034066495180031958310000015857999761837776269_);}
	.st8{fill:url(#SVGID_00000124160658926678322330000005668190198850044066_);}
	.st9{fill:url(#SVGID_00000140704784745505956120000005661331897163993269_);}
	.st10{fill:url(#SVGID_00000115490598310798968390000008623606329749187494_);}
	.st11{fill:url(#SVGID_00000135653638801272334060000011836502949155112595_);}
	.st12{fill:url(#SVGID_00000098200634008013277350000010315833410887490956_);}
	.st13{fill:url(#SVGID_00000103237244398263506260000014127762916737412253_);}
	.st14{fill:url(#SVGID_00000106866058855576733780000007507411038513600939_);}
	.st15{fill:url(#SVGID_00000042016002674466864240000004258974585027822985_);}
	.st16{fill:url(#SVGID_00000020394740606137570440000014527197737216291495_);}
	.st17{fill:url(#SVGID_00000097475901090752188130000007584068569027821461_);}
	.st18{fill:url(#SVGID_00000044141090426252162130000017001807011780732082_);}
	.st19{opacity:0.5;fill:#C2BAD3;}
	.st20{fill:url(#SVGID_00000018952987704576731260000016239241194292863928_);}
	.st21{fill:url(#SVGID_00000027583307771488091880000007015905078325281423_);}
	.st22{opacity:0.1;fill:url(#SVGID_00000154422422900805174920000018029807525155139460_);}
	.st23{fill:url(#SVGID_00000000192152412192934880000013568161008475555464_);}
	.st24{fill:url(#SVGID_00000105395478916123194730000014838679646429467282_);}
	.st25{fill:url(#SVGID_00000083774793698827223010000001401232786851124376_);}
	.st26{fill:url(#SVGID_00000057842509181272679400000014582067369908822421_);}
	.st27{fill:url(#SVGID_00000022526578168010576840000012790397632054952107_);}
	.st28{fill:url(#SVGID_00000010996551610929869630000009091798758457283757_);}
	.st29{fill:url(#SVGID_00000183955378708604530300000012056575570458695089_);}
	.st30{fill:url(#SVGID_00000014599218984113163610000002993513023080835510_);}
	.st31{fill:url(#SVGID_00000147198126072250350870000017577376696399071131_);}
	.st32{fill:url(#SVGID_00000005952767420184039640000004330950838814099637_);}
	.st33{fill:url(#SVGID_00000163770668316942850410000001440612241547844790_);}
	.st34{fill:#9333EA;}
	.st35{fill:#7C3AED;stroke:#263238;stroke-miterlimit:10;}
	.st36{opacity:0.6;fill:#7C3AED;stroke:#263238;stroke-miterlimit:10;}
	.st37{opacity:0.3;fill:#9333EA;}
	.st38{opacity:0.5;fill:#9333EA;}
	.st39{fill:#7C3AED;}
	.st40{fill:none;}
	.st41{fill:#FFFFFF;}
	.st42{font-family:'Impact';}
	.st43{font-size:32px;}
	.st44{opacity:0.3;}
	.st45{fill:#DEDEDE;stroke:#263238;stroke-miterlimit:10;}
	.st46{fill:#FFFFFF;stroke:#263238;stroke-miterlimit:10;}
	.st47{fill:none;stroke:#263238;stroke-miterlimit:10;}
	.st48{fill:#ABABAB;stroke:#263238;stroke-miterlimit:10;}
	.st49{fill:#263238;stroke:#263238;stroke-miterlimit:10;}
	.st50{fill:url(#SVGID_00000003083999049728957880000006795227401164161921_);}
</style>
<g id="Background_Simple">
	<g class="st0">
		<linearGradient id="SVGID_1_" gradientUnits="userSpaceOnUse" x1="6.5902" y1="253.2343" x2="485.8973" y2="253.2343">
			<stop  offset="0.1047" style="stop-color:#7C3AED"/>
			<stop  offset="1" style="stop-color:#9333EA"/>
		</linearGradient>
		<path class="st1" d="M451.7,117c-1.7-2.8-3.4-5.5-5.2-8.2c-24.3-35.7-64.7-60.1-104-71.2c-17.2-4.9-34.9-7.4-52.5-8
			c-115.7-4.2-158.2,91.2-195.4,115.8C57.2,169.9,0,211.9,7.2,300.2c5.4,67.1,43.6,131.2,113.3,160.4c7.7,3.2,15.7,6,24.2,8.3
			c15.7,4.3,32.7,7,51.1,7.9c52.7,2.3,95.5-10.4,137.3-42.3c9.7-7.4,19.4-15.8,32-16.7c9.2-0.7,17.9,2.6,8.3,11.5
			c-11.3,10.4,1.7,30.9,30.4,16.7c47.8-23.8,67.5-75.1,76.7-127.3C491.9,254.5,486.4,174.8,451.7,117z"/>
	</g>
</g>
<g id="Space">
	<path class="st2" d="M206.2,460.5c-3.7,0-7.5-0.1-11.4-0.3c-16.7-0.7-32.7-3.2-47.5-7.3c-7.6-2.1-15-4.6-22-7.6
		C66.6,420.8,28.4,366.5,23,300c-2.8-34.2,4.8-63,23.2-88.1c15.5-21.1,36.2-36.3,56.2-49.5c13.1-8.6,24.7-21.7,38.2-36.8
		c31.8-35.5,71.3-79.8,143.5-79.8c2.2,0,4.5,0,6.7,0.1c17,0.6,33.4,3.1,48.6,7.4c39.1,11,74.3,34.9,93.9,63.8
		c1.6,2.3,3.1,4.8,4.7,7.3c34.7,57.7,36.6,137.2,26.8,192.2c-9.7,54.6-27.6,89.4-56,108.2c-0.4-2.5-1.1-4.5-1.6-6
		c-5-12.8-18-20.4-34.7-20.4c-1.4,0-2.8,0.1-4.2,0.2c-19.8,1.4-34.2,12.6-44.6,20.7c-0.9,0.7-1.8,1.4-2.7,2.1
		C285.7,448.5,250.2,460.5,206.2,460.5z"/>
	<g>
		<g>
			<g>
				
					<linearGradient id="SVGID_00000017501146088256695360000002901885249197569428_" gradientUnits="userSpaceOnUse" x1="72.7495" y1="444.7645" x2="72.7495" y2="510.1148" gradientTransform="matrix(0.9659 0.2588 -0.2588 0.9659 110.9749 -5.317)">
					<stop  offset="0" style="stop-color:#5E29D0"/>
					<stop  offset="1.663052e-02" style="stop-color:#6836D3;stop-opacity:0.9683"/>
					<stop  offset="8.961251e-02" style="stop-color:#906BDE;stop-opacity:0.8292"/>
					<stop  offset="0.1636" style="stop-color:#B298E8;stop-opacity:0.6882"/>
					<stop  offset="0.2372" style="stop-color:#CEBDF1;stop-opacity:0.548"/>
					<stop  offset="0.3104" style="stop-color:#E3DAF7;stop-opacity:0.4086"/>
					<stop  offset="0.383" style="stop-color:#F3EFFB;stop-opacity:0.2703"/>
					<stop  offset="0.4547" style="stop-color:#FCFBFE;stop-opacity:0.1335"/>
					<stop  offset="0.5248" style="stop-color:#FFFFFF;stop-opacity:0"/>
				</linearGradient>
				<path style="fill:url(#SVGID_00000017501146088256695360000002901885249197569428_);" d="M72.1,448.9
					c-2.2,8.2-11.1,28.8-14.9,27.8c-3.9-1-1.2-23.3,1-31.5c1.9-7.2,5.5-8.1,9.4-7.1C71.3,439.1,74,441.7,72.1,448.9z"/>
				
					<linearGradient id="SVGID_00000049923151809069283640000007740751865585257370_" gradientUnits="userSpaceOnUse" x1="72.7495" y1="444.7993" x2="72.7495" y2="510.0997" gradientTransform="matrix(0.9659 0.2588 -0.2588 0.9659 110.9749 -5.317)">
					<stop  offset="0" style="stop-color:#612AD2"/>
					<stop  offset="6.948049e-02" style="stop-color:#8960DD;stop-opacity:0.8528"/>
					<stop  offset="0.1403" style="stop-color:#AC90E7;stop-opacity:0.7028"/>
					<stop  offset="0.211" style="stop-color:#C9B7EF;stop-opacity:0.5531"/>
					<stop  offset="0.2802" style="stop-color:#E0D6F6;stop-opacity:0.4063"/>
					<stop  offset="0.3477" style="stop-color:#F0EBFA;stop-opacity:0.2633"/>
					<stop  offset="0.4126" style="stop-color:#FAF9FD;stop-opacity:0.1258"/>
					<stop  offset="0.472" style="stop-color:#FDFDFE;stop-opacity:0"/>
					<stop  offset="0.5248" style="stop-color:#FFFFFF;stop-opacity:0"/>
				</linearGradient>
				<path style="fill:url(#SVGID_00000049923151809069283640000007740751865585257370_);" d="M71.7,448.7
					c-2.1,8-10.8,28.5-14.5,27.5c-3.7-1-0.9-23,1.2-31c1.9-7,5.3-7.9,9-7C71.1,439.2,73.6,441.7,71.7,448.7z"/>
				
					<linearGradient id="SVGID_00000091713940143543448360000002326892008256719272_" gradientUnits="userSpaceOnUse" x1="72.7495" y1="444.834" x2="72.7495" y2="510.0526" gradientTransform="matrix(0.9659 0.2588 -0.2588 0.9659 110.9749 -5.317)">
					<stop  offset="0" style="stop-color:#642BD4"/>
					<stop  offset="5.635917e-02" style="stop-color:#8355DC;stop-opacity:0.8806"/>
					<stop  offset="0.1328" style="stop-color:#A888E7;stop-opacity:0.7188"/>
					<stop  offset="0.2082" style="stop-color:#C6B2EF;stop-opacity:0.5588"/>
					<stop  offset="0.2812" style="stop-color:#DED3F6;stop-opacity:0.4043"/>
					<stop  offset="0.3509" style="stop-color:#EFEAFA;stop-opacity:0.2566"/>
					<stop  offset="0.416" style="stop-color:#F9F8FD;stop-opacity:0.1186"/>
					<stop  offset="0.472" style="stop-color:#FDFDFE;stop-opacity:0"/>
					<stop  offset="0.5248" style="stop-color:#FFFFFF;stop-opacity:0"/>
				</linearGradient>
				<path style="fill:url(#SVGID_00000091713940143543448360000002326892008256719272_);" d="M71.4,448.5
					c-2.1,7.8-10.5,28.1-14,27.2c-3.4-0.9-0.6-22.7,1.5-30.5c1.8-6.9,5.1-7.8,8.5-6.9C70.9,439.3,73.2,441.7,71.4,448.5z"/>
				
					<linearGradient id="SVGID_00000078726838728050549720000010832504223622584202_" gradientUnits="userSpaceOnUse" x1="72.7494" y1="444.8688" x2="72.7494" y2="509.9738" gradientTransform="matrix(0.9659 0.2588 -0.2588 0.9659 110.9749 -5.317)">
					<stop  offset="0" style="stop-color:#672DD5"/>
					<stop  offset="3.957332e-02" style="stop-color:#7C4ADB;stop-opacity:0.9162"/>
					<stop  offset="0.1226" style="stop-color:#A380E5;stop-opacity:0.7404"/>
					<stop  offset="0.2036" style="stop-color:#C4ADEE;stop-opacity:0.5687"/>
					<stop  offset="0.2808" style="stop-color:#DDD0F5;stop-opacity:0.4052"/>
					<stop  offset="0.3532" style="stop-color:#EFE9FA;stop-opacity:0.2518"/>
					<stop  offset="0.4189" style="stop-color:#FAF9FD;stop-opacity:0.1125"/>
					<stop  offset="0.472" style="stop-color:#FEFEFE;stop-opacity:0"/>
					<stop  offset="0.5248" style="stop-color:#FFFFFF;stop-opacity:0"/>
				</linearGradient>
				<path style="fill:url(#SVGID_00000078726838728050549720000010832504223622584202_);" d="M71,448.3c-2,7.6-10.3,27.8-13.5,26.9
					c-3.2-0.9-0.3-22.4,1.8-30c1.8-6.7,4.9-7.6,8.1-6.7C70.6,439.3,72.8,441.6,71,448.3z"/>
				
					<linearGradient id="SVGID_00000089568505100189934370000015180417317058684033_" gradientUnits="userSpaceOnUse" x1="72.7494" y1="444.9035" x2="72.7494" y2="509.8631" gradientTransform="matrix(0.9659 0.2588 -0.2588 0.9659 110.9749 -5.317)">
					<stop  offset="0" style="stop-color:#6A2ED7"/>
					<stop  offset="1.834298e-02" style="stop-color:#733BD9;stop-opacity:0.9611"/>
					<stop  offset="0.1091" style="stop-color:#9D76E4;stop-opacity:0.769"/>
					<stop  offset="0.1966" style="stop-color:#C0A6EE;stop-opacity:0.5834"/>
					<stop  offset="0.2789" style="stop-color:#DBCCF5;stop-opacity:0.4092"/>
					<stop  offset="0.3545" style="stop-color:#EEE8FA;stop-opacity:0.2489"/>
					<stop  offset="0.4213" style="stop-color:#FAF8FD;stop-opacity:0.1075"/>
					<stop  offset="0.472" style="stop-color:#FEFEFE;stop-opacity:0"/>
					<stop  offset="0.5248" style="stop-color:#FFFFFF;stop-opacity:0"/>
				</linearGradient>
				<path style="fill:url(#SVGID_00000089568505100189934370000015180417317058684033_);" d="M70.7,448.1c-2,7.4-10,27.4-13,26.6
					c-3-0.8,0-22.1,2-29.5c1.7-6.5,4.6-7.4,7.7-6.6C70.4,439.4,72.4,441.6,70.7,448.1z"/>
				
					<linearGradient id="SVGID_00000089557840355498221450000000880778830645218707_" gradientUnits="userSpaceOnUse" x1="72.7494" y1="444.9383" x2="72.7494" y2="509.7206" gradientTransform="matrix(0.9659 0.2588 -0.2588 0.9659 110.9749 -5.317)">
					<stop  offset="0" style="stop-color:#6D2FD9"/>
					<stop  offset="9.242561e-02" style="stop-color:#966AE3;stop-opacity:0.8042"/>
					<stop  offset="0.1867" style="stop-color:#BB9EED;stop-opacity:0.6045"/>
					<stop  offset="0.275" style="stop-color:#D8C8F4;stop-opacity:0.4173"/>
					<stop  offset="0.3548" style="stop-color:#EDE5FA;stop-opacity:0.2484"/>
					<stop  offset="0.4231" style="stop-color:#F9F8FD;stop-opacity:0.1037"/>
					<stop  offset="0.472" style="stop-color:#FEFEFE;stop-opacity:0"/>
					<stop  offset="0.5248" style="stop-color:#FFFFFF;stop-opacity:0"/>
				</linearGradient>
				<path style="fill:url(#SVGID_00000089557840355498221450000000880778830645218707_);" d="M70.3,447.9c-1.9,7.2-9.7,27-12.5,26.3
					c-2.8-0.8,0.4-21.8,2.3-29c1.7-6.4,4.4-7.3,7.2-6.5C70.2,439.4,72,441.6,70.3,447.9z"/>
				
					<linearGradient id="SVGID_00000180337174718354268270000014813964166121318035_" gradientUnits="userSpaceOnUse" x1="72.7494" y1="444.9731" x2="72.7494" y2="509.5462" gradientTransform="matrix(0.9659 0.2588 -0.2588 0.9659 110.9749 -5.317)">
					<stop  offset="0" style="stop-color:#7130DB"/>
					<stop  offset="6.908894e-02" style="stop-color:#8E5BE2;stop-opacity:0.8536"/>
					<stop  offset="0.1729" style="stop-color:#B694ED;stop-opacity:0.6337"/>
					<stop  offset="0.2688" style="stop-color:#D5C2F4;stop-opacity:0.4304"/>
					<stop  offset="0.3537" style="stop-color:#EBE3FA;stop-opacity:0.2507"/>
					<stop  offset="0.4243" style="stop-color:#F9F7FE;stop-opacity:0.101"/>
					<stop  offset="0.472" style="stop-color:#FEFEFF;stop-opacity:0"/>
					<stop  offset="0.5248" style="stop-color:#FFFFFF;stop-opacity:0"/>
				</linearGradient>
				<path style="fill:url(#SVGID_00000180337174718354268270000014813964166121318035_);" d="M70,447.7c-1.9,7-9.4,26.7-12.1,26
					c-2.6-0.7,0.7-21.5,2.6-28.5c1.7-6.2,4.2-7.1,6.8-6.4C69.9,439.5,71.6,441.5,70,447.7z"/>
				
					<linearGradient id="SVGID_00000164503881172913860310000010075807426555013520_" gradientUnits="userSpaceOnUse" x1="72.7494" y1="445.0078" x2="72.7494" y2="509.34" gradientTransform="matrix(0.9659 0.2588 -0.2588 0.9659 110.9749 -5.317)">
					<stop  offset="0" style="stop-color:#7431DD"/>
					<stop  offset="3.796076e-02" style="stop-color:#8348E1;stop-opacity:0.9196"/>
					<stop  offset="0.1539" style="stop-color:#AF88EB;stop-opacity:0.6739"/>
					<stop  offset="0.2594" style="stop-color:#D1BBF4;stop-opacity:0.4503"/>
					<stop  offset="0.351" style="stop-color:#E9DFFA;stop-opacity:0.2564"/>
					<stop  offset="0.4249" style="stop-color:#F8F6FE;stop-opacity:9.980041e-02"/>
					<stop  offset="0.472" style="stop-color:#FEFEFF;stop-opacity:0"/>
					<stop  offset="0.5248" style="stop-color:#FFFFFF;stop-opacity:0"/>
				</linearGradient>
				<path style="fill:url(#SVGID_00000164503881172913860310000010075807426555013520_);" d="M69.6,447.5
					c-1.8,6.8-9.2,26.3-11.6,25.7c-2.4-0.6,1-21.2,2.8-28c1.6-6,4-6.9,6.4-6.3C69.7,439.5,71.3,441.5,69.6,447.5z"/>
				
					<linearGradient id="SVGID_00000023279963096523907230000003913825204336945032_" gradientUnits="userSpaceOnUse" x1="72.7494" y1="445.0425" x2="72.7494" y2="509.1019" gradientTransform="matrix(0.9659 0.2588 -0.2588 0.9659 110.9749 -5.317)">
					<stop  offset="0" style="stop-color:#7732DF"/>
					<stop  offset="0.1276" style="stop-color:#A578EA;stop-opacity:0.7298"/>
					<stop  offset="0.2456" style="stop-color:#CBB2F3;stop-opacity:0.4796"/>
					<stop  offset="0.346" style="stop-color:#E7DBFA;stop-opacity:0.267"/>
					<stop  offset="0.4247" style="stop-color:#F8F5FE;stop-opacity:0.1003"/>
					<stop  offset="0.472" style="stop-color:#FEFEFF;stop-opacity:0"/>
					<stop  offset="0.5248" style="stop-color:#FFFFFF;stop-opacity:0"/>
				</linearGradient>
				<path style="fill:url(#SVGID_00000023279963096523907230000003913825204336945032_);" d="M69.3,447.3c-1.8,6.6-8.9,26-11.1,25.4
					c-2.2-0.6,1.3-20.9,3.1-27.5c1.6-5.8,3.7-6.8,5.9-6.2C69.4,439.6,70.9,441.5,69.3,447.3z"/>
				
					<linearGradient id="SVGID_00000163035241712336880130000011913754640009434250_" gradientUnits="userSpaceOnUse" x1="72.7494" y1="445.0773" x2="72.7494" y2="508.832" gradientTransform="matrix(0.9659 0.2588 -0.2588 0.9659 110.9749 -5.317)">
					<stop  offset="0" style="stop-color:#7A34E0"/>
					<stop  offset="9.169581e-02" style="stop-color:#9A65E7;stop-opacity:0.8057"/>
					<stop  offset="0.2253" style="stop-color:#C5A7F1;stop-opacity:0.5228"/>
					<stop  offset="0.3378" style="stop-color:#E4D6F9;stop-opacity:0.2844"/>
					<stop  offset="0.4234" style="stop-color:#F8F4FD;stop-opacity:0.103"/>
					<stop  offset="0.472" style="stop-color:#FFFFFF;stop-opacity:0"/>
					<stop  offset="0.5248" style="stop-color:#FFFFFF;stop-opacity:0"/>
				</linearGradient>
				<path style="fill:url(#SVGID_00000163035241712336880130000011913754640009434250_);" d="M68.9,447.1
					c-1.7,6.4-8.6,25.6-10.6,25.1c-2-0.5,1.6-20.6,3.4-27c1.5-5.7,3.5-6.6,5.5-6.1C69.2,439.7,70.5,441.5,68.9,447.1z"/>
				
					<linearGradient id="SVGID_00000172417241543382307660000009833774179801281723_" gradientUnits="userSpaceOnUse" x1="72.7494" y1="445.1121" x2="72.7494" y2="508.5303" gradientTransform="matrix(0.9659 0.2588 -0.2588 0.9659 110.9749 -5.317)">
					<stop  offset="0" style="stop-color:#7D35E2"/>
					<stop  offset="3.711426e-02" style="stop-color:#8948E5;stop-opacity:0.9214"/>
					<stop  offset="0.1946" style="stop-color:#BB96F0;stop-opacity:0.5877"/>
					<stop  offset="0.3246" style="stop-color:#E0CFF8;stop-opacity:0.3124"/>
					<stop  offset="0.4205" style="stop-color:#F6F2FD;stop-opacity:0.1091"/>
					<stop  offset="0.472" style="stop-color:#FFFFFF;stop-opacity:0"/>
					<stop  offset="0.5248" style="stop-color:#FFFFFF;stop-opacity:0"/>
				</linearGradient>
				<path style="fill:url(#SVGID_00000172417241543382307660000009833774179801281723_);" d="M68.6,446.9
					c-1.7,6.2-8.3,25.3-10.1,24.8c-1.8-0.5,1.9-20.3,3.6-26.5c1.5-5.5,3.3-6.4,5.1-6C69,439.7,70.1,441.4,68.6,446.9z"/>
				
					<linearGradient id="SVGID_00000026856298755633948980000003592393635790320278_" gradientUnits="userSpaceOnUse" x1="72.7494" y1="445.1468" x2="72.7494" y2="508.1967" gradientTransform="matrix(0.9659 0.2588 -0.2588 0.9659 110.9749 -5.317)">
					<stop  offset="0" style="stop-color:#8036E4"/>
					<stop  offset="0.1478" style="stop-color:#AD7EEE;stop-opacity:0.6868"/>
					<stop  offset="0.3029" style="stop-color:#D9C3F7;stop-opacity:0.3583"/>
					<stop  offset="0.4151" style="stop-color:#F5EEFD;stop-opacity:0.1206"/>
					<stop  offset="0.472" style="stop-color:#FFFFFF;stop-opacity:0"/>
				</linearGradient>
				<path style="fill:url(#SVGID_00000026856298755633948980000003592393635790320278_);" d="M68.3,446.7
					c-1.6,6.1-8.1,24.9-9.7,24.5c-1.6-0.4,2.3-20,3.9-26c1.4-5.3,3.1-6.3,4.7-5.8C68.7,439.8,69.7,441.4,68.3,446.7z"/>
			</g>
		</g>
		<g>
			
				<linearGradient id="SVGID_00000038401931134911766920000007759942744283623354_" gradientUnits="userSpaceOnUse" x1="92.3512" y1="415.727" x2="128.7106" y2="404.8397" gradientTransform="matrix(0.9659 0.2588 -0.2588 0.9659 110.9749 -5.317)">
				<stop  offset="3.535350e-02" style="stop-color:#5E29D0"/>
				<stop  offset="0.3101" style="stop-color:#6A38D7"/>
				<stop  offset="0.84" style="stop-color:#8A61E9"/>
				<stop  offset="1" style="stop-color:#956EEF"/>
			</linearGradient>
			<path style="fill:url(#SVGID_00000038401931134911766920000007759942744283623354_);" d="M86.8,423.3l11,10.3l2.3-8.7
				c0.3-1.2,0.4-2.3,0.2-3.3l-2.7-12.1c-0.6-2.6-3.1-3.7-6.4-2.8l0,0L86.8,423.3z"/>
			
				<linearGradient id="SVGID_00000075877438666542933110000005866755073901664935_" gradientUnits="userSpaceOnUse" x1="463.4164" y1="420.0258" x2="506.9808" y2="410.2601" gradientTransform="matrix(-0.9659 -0.2588 -0.2588 0.9659 629.0676 133.5055)">
				<stop  offset="3.535350e-02" style="stop-color:#5E29D0"/>
				<stop  offset="0.3101" style="stop-color:#6A38D7"/>
				<stop  offset="0.84" style="stop-color:#8A61E9"/>
				<stop  offset="1" style="stop-color:#956EEF"/>
			</linearGradient>
			<path style="fill:url(#SVGID_00000075877438666542933110000005866755073901664935_);" d="M57.7,415.5L43,418.9l2.3-8.7
				c0.3-1.2,0.8-2.2,1.5-3l8.4-9.1c1.8-2,4.5-1.7,6.9,0.7l0,0L57.7,415.5z"/>
		</g>
		
			<linearGradient id="SVGID_00000116214643630094288600000009559059961142164103_" gradientUnits="userSpaceOnUse" x1="66.2819" y1="442.9121" x2="78.7733" y2="442.9121" gradientTransform="matrix(0.9659 0.2588 -0.2588 0.9659 110.9749 -5.317)">
			<stop  offset="2.020200e-02" style="stop-color:#3E1785"/>
			<stop  offset="0.2929" style="stop-color:#370E5D"/>
			<stop  offset="1" style="stop-color:#160D4E"/>
			<stop  offset="1" style="stop-color:#150D4D"/>
		</linearGradient>
		<path style="fill:url(#SVGID_00000116214643630094288600000009559059961142164103_);" d="M73.3,440.3L61,437l-0.5,1.7l0,0
			c0,0,0,0,0,0c-0.5,2,1.8,4.3,5.2,5.2c3.4,0.9,6.6,0,7.1-1.9c0,0,0,0,0,0l0,0L73.3,440.3z"/>
		
			<linearGradient id="SVGID_00000062152342854599773700000006162277281856584578_" gradientUnits="userSpaceOnUse" x1="57.5544" y1="433.247" x2="87.3898" y2="433.247" gradientTransform="matrix(0.9659 0.2588 -0.2588 0.9659 110.9749 -5.317)">
			<stop  offset="0" style="stop-color:#5122C6"/>
			<stop  offset="2.828078e-02" style="stop-color:#5829CA"/>
			<stop  offset="7.055019e-02" style="stop-color:#6A3ED5"/>
			<stop  offset="0.1213" style="stop-color:#875FE7"/>
			<stop  offset="0.1414" style="stop-color:#956EEF"/>
			<stop  offset="0.2273" style="stop-color:#B992FB"/>
			<stop  offset="0.2863" style="stop-color:#9E78EA"/>
			<stop  offset="0.3788" style="stop-color:#6D47CB"/>
			<stop  offset="0.5404" style="stop-color:#411C9C"/>
			<stop  offset="0.6236" style="stop-color:#431D9F"/>
			<stop  offset="0.6959" style="stop-color:#4920AA"/>
			<stop  offset="0.7639" style="stop-color:#5324BC"/>
			<stop  offset="0.8182" style="stop-color:#5E29D0"/>
			<stop  offset="0.9433" style="stop-color:#5023B7"/>
			<stop  offset="1" style="stop-color:#4920AA"/>
		</linearGradient>
		<path style="fill:url(#SVGID_00000062152342854599773700000006162277281856584578_);" d="M85.9,427.2l-29.3-7.8l-2.3,8.7l0,0
			c0,0,0,0.1,0,0.1c-1.3,4.7,4.3,10.3,12.4,12.4c8.1,2.2,15.7,0.1,16.9-4.6c0,0,0-0.1,0-0.1l0,0L85.9,427.2z"/>
		<path class="st19" d="M85.8,427.5l-29.3-7.8l-1.9,6.9l0,0c0,0,0,0.1,0,0.1c-1,3.8,4.7,8.6,12.8,10.7c8.1,2.2,15.5,0.9,16.5-2.9
			c0,0,0-0.1,0-0.1l0,0L85.8,427.5z"/>
		
			<linearGradient id="SVGID_00000072989893646489021860000015816508613697923514_" gradientUnits="userSpaceOnUse" x1="48.705" y1="387.2546" x2="96.1269" y2="387.2546" gradientTransform="matrix(0.9659 0.2588 -0.2588 0.9659 110.9749 -5.317)">
			<stop  offset="1.010100e-02" style="stop-color:#B69FD1"/>
			<stop  offset="4.363906e-02" style="stop-color:#BEA9D6"/>
			<stop  offset="0.1009" style="stop-color:#D2C4E3"/>
			<stop  offset="0.1746" style="stop-color:#F4F0F8"/>
			<stop  offset="0.197" style="stop-color:#FFFFFF"/>
			<stop  offset="0.2308" style="stop-color:#F8F5FB"/>
			<stop  offset="0.2874" style="stop-color:#E5DBF0"/>
			<stop  offset="0.3586" style="stop-color:#C7B2DF"/>
			<stop  offset="0.4234" style="stop-color:#AB95D2"/>
			<stop  offset="0.493" style="stop-color:#937DC7"/>
			<stop  offset="0.5574" style="stop-color:#856EC0"/>
			<stop  offset="0.6111" style="stop-color:#8069BE"/>
			<stop  offset="0.7676" style="stop-color:#8B71C1"/>
			<stop  offset="1" style="stop-color:#A384C7"/>
		</linearGradient>
		<path style="fill:url(#SVGID_00000072989893646489021860000015816508613697923514_);" d="M102.8,363c-0.2-0.5-0.4-1-0.6-1.5
			l-8-20.7c0,0,0,0,0,0c-0.1-0.1-0.1-0.2-0.2-0.3l-1.1-0.3c-0.1,0-0.2,0.1-0.4,0.2c0,0,0,0,0,0l-17.3,13.9c-0.4,0.3-0.8,0.7-1.3,1
			c-9.9,8.4-16.1,20.2-18,33l-4.3,29.7l0,0c0,0.1,0,0.1,0,0.2c-1.7,6.3,5.7,13.7,16.4,16.5c10.7,2.9,20.8,0.1,22.5-6.1
			c0-0.1,0-0.1,0-0.2l0,0l11.2-27.9C106.7,388.6,107.2,375.2,102.8,363z"/>
		
			<linearGradient id="SVGID_00000026879411624601099320000010810348247622088098_" gradientUnits="userSpaceOnUse" x1="63.3863" y1="347.511" x2="88.3862" y2="357.6375" gradientTransform="matrix(0.9659 0.2588 -0.2588 0.9659 110.9749 -5.317)">
			<stop  offset="0" style="stop-color:#5122C6"/>
			<stop  offset="3.838105e-02" style="stop-color:#5829CA"/>
			<stop  offset="9.574668e-02" style="stop-color:#6A3ED5"/>
			<stop  offset="0.1647" style="stop-color:#875FE7"/>
			<stop  offset="0.1919" style="stop-color:#956EEF"/>
			<stop  offset="0.3434" style="stop-color:#6D47CB"/>
			<stop  offset="0.4141" style="stop-color:#643DC3"/>
			<stop  offset="0.5803" style="stop-color:#552DB5"/>
			<stop  offset="0.7644" style="stop-color:#4C23AD"/>
			<stop  offset="1" style="stop-color:#4920AA"/>
		</linearGradient>
		<path style="fill:url(#SVGID_00000026879411624601099320000010810348247622088098_);" d="M102.4,362c-3.2,2.4-9,3.2-15.1,1.5
			c-6.1-1.6-10.8-5.2-12.3-8.9c0.1-0.1,0.2-0.2,0.3-0.3L93,340.1c0.4-0.1,0.8,0,1.1,0.3l8.2,21.2C102.3,361.7,102.3,361.9,102.4,362
			z"/>
		
			<radialGradient id="SVGID_00000027562477733654470270000003005251951159273401_" cx="72.1731" cy="387.686" r="38.7595" gradientTransform="matrix(0.9622 0.2578 -0.1611 0.6014 73.8874 135.6931)" gradientUnits="userSpaceOnUse">
			<stop  offset="0.5253" style="stop-color:#FFFFFF"/>
			<stop  offset="0.5951" style="stop-color:#FBFAFC"/>
			<stop  offset="0.6761" style="stop-color:#EEECF5"/>
			<stop  offset="0.7627" style="stop-color:#DAD5E9"/>
			<stop  offset="0.8531" style="stop-color:#BDB4D8"/>
			<stop  offset="0.9457" style="stop-color:#998BC2"/>
			<stop  offset="1" style="stop-color:#806FB3"/>
		</radialGradient>
		<path style="opacity:0.1;fill:url(#SVGID_00000027562477733654470270000003005251951159273401_);" d="M101.9,400.6l-11.2,27.9l0,0
			c0,0.1,0,0.1,0,0.2c-1.7,6.3-11.7,9-22.5,6.1c-10.7-2.9-18.1-10.3-16.4-16.5c0-0.1,0-0.1,0-0.2l0,0l4.3-29.7
			c1.8-12.8,8.1-24.7,18-33c0.4-0.4,0.8-0.7,1.3-1l17.3-13.9c0,0,0,0,0,0c0.1-0.1,0.2-0.2,0.4-0.2c0.4-0.1,0.8,0,1.1,0.3
			c0.1,0.1,0.2,0.2,0.2,0.3c0,0,0,0,0,0l8,20.7c0.2,0.5,0.4,1,0.6,1.5C107.2,375.2,106.7,388.6,101.9,400.6z"/>
		<g>
			
				<linearGradient id="SVGID_00000118354768805395733260000008584018712253261185_" gradientUnits="userSpaceOnUse" x1="55.029" y1="385.5405" x2="67.9205" y2="407.8692" gradientTransform="matrix(0.9659 0.2588 -0.2588 0.9659 110.9749 -5.317)">
				<stop  offset="0" style="stop-color:#5122C6"/>
				<stop  offset="2.828078e-02" style="stop-color:#5829CA"/>
				<stop  offset="7.055019e-02" style="stop-color:#6A3ED5"/>
				<stop  offset="0.1213" style="stop-color:#875FE7"/>
				<stop  offset="0.1414" style="stop-color:#956EEF"/>
				<stop  offset="0.2273" style="stop-color:#B992FB"/>
				<stop  offset="0.2863" style="stop-color:#9E78EA"/>
				<stop  offset="0.3788" style="stop-color:#6D47CB"/>
				<stop  offset="0.5404" style="stop-color:#411C9C"/>
				<stop  offset="0.6236" style="stop-color:#431D9F"/>
				<stop  offset="0.6959" style="stop-color:#4920AA"/>
				<stop  offset="0.7639" style="stop-color:#5324BC"/>
				<stop  offset="0.8182" style="stop-color:#5E29D0"/>
				<stop  offset="0.9433" style="stop-color:#5023B7"/>
				<stop  offset="1" style="stop-color:#4920AA"/>
			</linearGradient>
			<path style="fill:url(#SVGID_00000118354768805395733260000008584018712253261185_);" d="M74,401.3c-0.7,2.7-2.2,4.3-3.9,4.9
				c-0.1,0-1.7,0.5-1.7,0.5c-1.8,0.5-0.3-1.3-2.3-3.3c-4.1-4.1-6.1-11.8-4.7-17.3c0.7-2.7-1.8-3.4,0-3.9c0,0,2-0.5,2.1-0.5
				c1.8-0.4,3.9,0.3,5.9,2.3C73.4,388.1,75.5,395.8,74,401.3z"/>
			
				<linearGradient id="SVGID_00000175313970994379850610000016999015813685824902_" gradientUnits="userSpaceOnUse" x1="49.7655" y1="398.2416" x2="67.744" y2="398.2416" gradientTransform="matrix(0.9659 0.2588 -0.2588 0.9659 110.9749 -5.317)">
				<stop  offset="3.535350e-02" style="stop-color:#956EEF"/>
				<stop  offset="0.3636" style="stop-color:#B992FB"/>
				<stop  offset="0.5489" style="stop-color:#A277F0"/>
				<stop  offset="0.9446" style="stop-color:#6733D4"/>
				<stop  offset="1" style="stop-color:#5E29D0"/>
			</linearGradient>
			<path style="fill:url(#SVGID_00000175313970994379850610000016999015813685824902_);" d="M72,401.9c-1.5,5.5-6,6.7-10,2.6
				c-4.1-4.1-6.1-11.8-4.7-17.3c1.5-5.5,6-6.7,10-2.6C71.4,388.7,73.5,396.4,72,401.9z"/>
			
				<linearGradient id="SVGID_00000002354541678286991500000013824324915752538250_" gradientUnits="userSpaceOnUse" x1="63.7264" y1="406.8527" x2="53.5049" y2="389.1487" gradientTransform="matrix(0.9659 0.2588 -0.2588 0.9659 110.9749 -5.317)">
				<stop  offset="3.535350e-02" style="stop-color:#B5B5B5"/>
				<stop  offset="0.2945" style="stop-color:#C4C4C4"/>
				<stop  offset="0.7943" style="stop-color:#EDEDED"/>
				<stop  offset="1" style="stop-color:#FFFFFF"/>
			</linearGradient>
			<path style="fill:url(#SVGID_00000002354541678286991500000013824324915752538250_);" d="M70.6,400.5c-1.2,4.5-4.8,5.4-8.1,2.1
				c-3.3-3.3-5-9.6-3.8-14.1c1.2-4.5,4.8-5.4,8.1-2.1C70.1,389.8,71.8,396.1,70.6,400.5z"/>
			
				<linearGradient id="SVGID_00000091707674961998914110000015834393212268980371_" gradientUnits="userSpaceOnUse" x1="61.7949" y1="408.2788" x2="51.6257" y2="390.6653" gradientTransform="matrix(0.9659 0.2588 -0.2588 0.9659 110.9749 -5.317)">
				<stop  offset="0" style="stop-color:#5122C6"/>
				<stop  offset="0.2273" style="stop-color:#AA83FA"/>
				<stop  offset="0.3788" style="stop-color:#6D47CB"/>
				<stop  offset="0.5404" style="stop-color:#411C9C"/>
				<stop  offset="0.6145" style="stop-color:#431D9F"/>
				<stop  offset="0.6789" style="stop-color:#4920AA"/>
				<stop  offset="0.7395" style="stop-color:#5324BC"/>
				<stop  offset="0.7879" style="stop-color:#5E29D0"/>
				<stop  offset="0.9339" style="stop-color:#5023B7"/>
				<stop  offset="1" style="stop-color:#4920AA"/>
			</linearGradient>
			<path style="fill:url(#SVGID_00000091707674961998914110000015834393212268980371_);" d="M64,402.4c-3.3-3.3-5-9.6-3.8-14.1
				c0.6-2.1,1.6-3.4,2.9-3.9c-2-0.2-3.7,1.3-4.5,4.1c-1.2,4.5,0.5,10.8,3.8,14.1c1.8,1.8,3.6,2.3,5.2,1.7
				C66.5,404.3,65.2,403.7,64,402.4z"/>
			
				<radialGradient id="SVGID_00000066500075347878214650000013449807895073701508_" cx="60.0809" cy="398.5457" r="9.6839" gradientTransform="matrix(0.9622 0.2578 -0.2578 0.9622 111.3702 -4.1947)" gradientUnits="userSpaceOnUse">
				<stop  offset="0" style="stop-color:#FFFFFF"/>
				<stop  offset="1" style="stop-color:#000000"/>
			</radialGradient>
			<path style="fill:url(#SVGID_00000066500075347878214650000013449807895073701508_);" d="M67.6,384.4c-1.9-1.9-4.3-2.5-5.6-2.3
				c1.6,0,3.5,0.8,5.2,2.4c4.1,4.1,6.1,11.8,4.7,17.3c-0.8,2.9-2.6,4.5-4.5,4.9c1.9-0.2,4.1-1.8,4.9-5.1
				C73.8,396.2,71.7,388.5,67.6,384.4z"/>
		</g>
		<g>
			
				<linearGradient id="SVGID_00000091701633724303275440000008348978079009398945_" gradientUnits="userSpaceOnUse" x1="47.432" y1="448.6662" x2="59.8035" y2="410.8019" gradientTransform="matrix(0.9659 0.2588 -0.2588 0.9659 110.9749 -5.317)">
				<stop  offset="0.197" style="stop-color:#6937D6"/>
				<stop  offset="0.4029" style="stop-color:#7E52E2"/>
				<stop  offset="0.5909" style="stop-color:#956EEF"/>
				<stop  offset="0.6667" style="stop-color:#AC88FA"/>
				<stop  offset="0.803" style="stop-color:#9067EC"/>
				<stop  offset="1" style="stop-color:#8156E4"/>
			</linearGradient>
			<path style="fill:url(#SVGID_00000091701633724303275440000008348978079009398945_);" d="M54.7,427.5l-15.5,16.9l-1.7-1.8
				l2.2-8.3c0.3-1.2,0.9-2.4,1.7-3.6l9.7-14.8c2.1-3.2,5.4-5.8,8.6-6.6l0,0l1.7,1.7L54.7,427.5z"/>
			
				<linearGradient id="SVGID_00000025440903339150827410000008225107109812878513_" gradientUnits="userSpaceOnUse" x1="47.1333" y1="435.843" x2="89.6041" y2="423.1258" gradientTransform="matrix(0.9659 0.2588 -0.2588 0.9659 110.9749 -5.317)">
				<stop  offset="3.535350e-02" style="stop-color:#5E29D0"/>
				<stop  offset="0.3101" style="stop-color:#6A38D7"/>
				<stop  offset="0.84" style="stop-color:#8A61E9"/>
				<stop  offset="1" style="stop-color:#956EEF"/>
			</linearGradient>
			<path style="fill:url(#SVGID_00000025440903339150827410000008225107109812878513_);" d="M56.4,429.3l-17.2,15.1l2.2-8.3
				c0.3-1.2,0.9-2.4,1.7-3.6l9.7-14.8c2.1-3.2,5.4-5.8,8.6-6.6l0,0L56.4,429.3z"/>
			
				<radialGradient id="SVGID_00000165192812493288276310000007713416485349554817_" cx="-490.0604" cy="-168.188" r="15.9745" gradientTransform="matrix(0.8557 0.2293 -0.2293 0.8557 439.3524 682.4083)" gradientUnits="userSpaceOnUse">
				<stop  offset="0" style="stop-color:#FFFFFF"/>
				<stop  offset="1" style="stop-color:#000000"/>
			</radialGradient>
			<path style="fill:url(#SVGID_00000165192812493288276310000007713416485349554817_);" d="M41.5,436.3c0.3-1.2,0.9-2.4,1.7-3.6
				l9.7-14.8c2-3.1,5.1-5.5,8.2-6.5l0.1-0.5l0,0c-3.1,0.8-6.5,3.4-8.6,6.6l-9.7,14.8c-0.8,1.2-1.3,2.4-1.7,3.6l-2.2,8.3l0.5-0.4
				L41.5,436.3z"/>
			
				<linearGradient id="SVGID_00000072965763549621022210000002943935035874427319_" gradientUnits="userSpaceOnUse" x1="93.8907" y1="436.6884" x2="87.1427" y2="416.7253" gradientTransform="matrix(0.9659 0.2588 -0.2588 0.9659 110.9749 -5.317)">
				<stop  offset="3.535350e-02" style="stop-color:#5E29D0"/>
				<stop  offset="0.197" style="stop-color:#6937D6"/>
				<stop  offset="0.4029" style="stop-color:#7E52E2"/>
				<stop  offset="0.5909" style="stop-color:#956EEF"/>
				<stop  offset="0.6667" style="stop-color:#AC88FA"/>
				<stop  offset="0.803" style="stop-color:#9067EC"/>
				<stop  offset="1" style="stop-color:#8156E4"/>
			</linearGradient>
			<path style="fill:url(#SVGID_00000072965763549621022210000002943935035874427319_);" d="M83.5,435.2l5,22.4l2.4-0.7l2.2-8.3
				c0.3-1.2,0.4-2.5,0.4-3.9l-1-17.7c-0.2-3.8-1.8-7.7-4.1-10l0,0l-2.3,0.7L83.5,435.2z"/>
			
				<linearGradient id="SVGID_00000020376948835966719820000012227705346837716393_" gradientUnits="userSpaceOnUse" x1="512.824" y1="441.2318" x2="579.1181" y2="426.3708" gradientTransform="matrix(-0.9659 -0.2588 -0.2588 0.9659 726.2439 159.5438)">
				<stop  offset="3.535350e-02" style="stop-color:#5E29D0"/>
				<stop  offset="0.3101" style="stop-color:#6A38D7"/>
				<stop  offset="0.84" style="stop-color:#8A61E9"/>
				<stop  offset="1" style="stop-color:#956EEF"/>
			</linearGradient>
			<path style="fill:url(#SVGID_00000020376948835966719820000012227705346837716393_);" d="M81.1,435.9l7.4,21.7l2.2-8.3
				c0.3-1.2,0.4-2.5,0.4-3.9l-1-17.7c-0.2-3.8-1.8-7.7-4.1-10l0,0L81.1,435.9z"/>
			
				<radialGradient id="SVGID_00000085214630139502979550000017360160010902184604_" cx="85.1918" cy="429.1032" r="14.2061" gradientTransform="matrix(0.9622 0.2578 -0.2578 0.9622 111.3702 -4.1947)" gradientUnits="userSpaceOnUse">
				<stop  offset="0" style="stop-color:#FFFFFF"/>
				<stop  offset="1" style="stop-color:#000000"/>
			</radialGradient>
			<path style="fill:url(#SVGID_00000085214630139502979550000017360160010902184604_);" d="M91.4,445.4l-1-17.7
				c-0.2-3.8-1.8-7.7-4.1-10l0,0l0,0.1c2,2.3,3.4,5.9,3.6,9.4l1,17.7c0.1,1.4,0,2.8-0.4,3.9l-2,7.7l0.4,1.1l2.2-8.3
				C91.3,448.2,91.4,446.8,91.4,445.4z"/>
		</g>
	</g>
</g>
<g id="Stars">
	<circle class="st34" cx="362.5" cy="100.9" r="4.7"/>
	<circle class="st35" cx="441.1" cy="180.2" r="4.7"/>
	<circle class="st35" cx="116.8" cy="402.6" r="4.7"/>
	<circle class="st35" cx="402.5" cy="398.5" r="4.7"/>
	<circle class="st36" cx="454.9" cy="472.4" r="4.7"/>
	<circle class="st35" cx="474.7" cy="8.8" r="4.7"/>
	<path class="st35" d="M248.5,60c0,1.5-1.2,2.7-2.7,2.7c-1.5,0-2.7-1.2-2.7-2.7c0-1.5,1.2-2.7,2.7-2.7
		C247.3,57.3,248.5,58.5,248.5,60z"/>
	<circle class="st34" cx="62" cy="221.8" r="4.7"/>
	<circle class="st34" cx="121.5" cy="34.1" r="4.7"/>
	<circle class="st35" cx="400.2" cy="104.4" r="2.3"/>
	<circle class="st34" cx="86.9" cy="371.3" r="2.3"/>
	<circle class="st35" cx="430.6" cy="352.1" r="2.3"/>
	<path class="st35" d="M216.2,416.3c0,1.3-1,2.3-2.3,2.3c-1.3,0-2.3-1-2.3-2.3c0-1.3,1-2.3,2.3-2.3C215.2,414,216.2,415,216.2,416.3
		z"/>
	<path class="st34" d="M96.9,334.2c0,1.3-1,2.3-2.3,2.3c-1.3,0-2.3-1-2.3-2.3c0-1.3,1-2.3,2.3-2.3C95.9,331.8,96.9,332.9,96.9,334.2
		z"/>
	<path class="st34" d="M128.5,45.9c0,1.3-1,2.3-2.3,2.3c-1.3,0-2.3-1-2.3-2.3c0-1.3,1-2.3,2.3-2.3C127.5,43.6,128.5,44.6,128.5,45.9
		z"/>
	<path class="st34" d="M193.4,445.8c0,1.3-1,2.3-2.3,2.3s-2.3-1-2.3-2.3c0-1.3,1-2.3,2.3-2.3S193.4,444.5,193.4,445.8z"/>
	<path class="st34" d="M327.4,70.7c0,1.3-1,2.3-2.3,2.3c-1.3,0-2.3-1-2.3-2.3s1-2.3,2.3-2.3C326.4,68.4,327.4,69.4,327.4,70.7z"/>
	<path class="st34" d="M477,55c0,1.3-1,2.3-2.3,2.3s-2.3-1-2.3-2.3c0-1.3,1-2.3,2.3-2.3S477,53.7,477,55z"/>
	<path class="st34" d="M360,448.1c0,1.3-1,2.3-2.3,2.3c-1.3,0-2.3-1-2.3-2.3s1-2.3,2.3-2.3C358.9,445.8,360,446.8,360,448.1z"/>
	<path class="st34" d="M320.4,491.7c0,1.3-1,2.3-2.3,2.3s-2.3-1-2.3-2.3s1-2.3,2.3-2.3S320.4,490.4,320.4,491.7z"/>
	<path class="st34" d="M438.3,234.7c0,1.3-1,2.3-2.3,2.3s-2.3-1-2.3-2.3s1-2.3,2.3-2.3S438.3,233.4,438.3,234.7z"/>
	<circle class="st34" cx="57.3" cy="323.9" r="2.3"/>
	<circle class="st34" cx="57.3" cy="117.1" r="2.3"/>
	<circle class="st37" cx="100.5" cy="95" r="2.3"/>
	<circle class="st34" cx="22.4" cy="477.1" r="2.3"/>
	<circle class="st35" cx="264.7" cy="429.5" r="2.3"/>
	<circle class="st35" cx="180.3" cy="338.6" r="2.3"/>
	<path class="st34" d="M335.5,150.6c0,1.3-1,2.3-2.3,2.3s-2.3-1-2.3-2.3c0-1.3,1-2.3,2.3-2.3S335.5,149.3,335.5,150.6z"/>
	<circle class="st38" cx="37.4" cy="114.7" r="4.7"/>
</g>
<g id="Text_1_">
	<path class="st39" d="M132.8,348.9v-49.1H73.2v-29.1l52-121.5h39.7v123.5h20.5v27.1h-20.5v49.1H132.8z M101.8,272.7h31.1v-86.8
		L101.8,272.7z M255.3,351.8c-11.7,0-21.3-2.5-29-7.4c-7.6-4.9-13.4-11.7-17.3-20.5c-3.9-8.7-5.8-18.7-5.8-30.1v-88.5
		c0-11.7,1.8-21.9,5.5-30.7c3.7-8.8,9.4-15.7,17-20.6c7.6-4.9,17.5-7.4,29.5-7.4c12,0,21.8,2.5,29.5,7.4c7.6,4.9,13.3,11.8,17,20.6
		c3.7,8.8,5.5,19,5.5,30.7v88.5c0,11.3-1.9,21.4-5.8,30.1c-3.9,8.7-9.6,15.5-17.3,20.5C276.7,349.4,267,351.8,255.3,351.8z
		 M255.3,322.5c5.1,0,8.9-1.6,11.3-4.7c2.5-3.1,4.1-6.9,4.9-11.3c0.8-4.4,1.2-8.8,1.2-13.1v-87.5c0-4.6-0.4-9.2-1.1-13.7
		c-0.7-4.5-2.3-8.3-4.8-11.5c-2.5-3.1-6.3-4.7-11.6-4.7c-5.3,0-9.1,1.6-11.6,4.7c-2.5,3.1-4.1,6.9-4.8,11.5
		c-0.7,4.5-1.1,9.1-1.1,13.7v87.5c0,4.3,0.4,8.6,1.4,13.1c0.9,4.4,2.6,8.2,5.1,11.3C246.7,320.9,250.4,322.5,255.3,322.5z
		 M388.7,348.9v-49.1h-59.7v-29.1l52-121.5h39.7v123.5h20.5v27.1h-20.5v49.1H388.7z M357.7,272.7h31.1v-86.8L357.7,272.7z"/>
	<rect x="173.9" y="365.2" class="st40" width="137.4" height="30.8"/>
	<text transform="matrix(1 0 0 1 173.9249 390.4951)" class="st41 st42 st43">Error Page</text>
</g>
<g id="Shadow">
	<g class="st44">
		<path d="M331.7,243.1c0,0,0.1,0.1,0.1,0.1c0.2,0.1,0.4,0.3,0.6,0.4c0,0,0.1,0.1,0.2,0.1c0.2,0.1,0.4,0.2,0.6,0.3
			c0.1,0,0.1,0.1,0.2,0.1c0.3,0.1,0.5,0.2,0.8,0.3c0,0,0.1,0,0.1,0c0.3,0.1,0.5,0.1,0.8,0.2c0.1,0,0.2,0,0.3,0
			c0.4,0,0.7,0.1,1.1,0.1c0,0,0,0,0,0c1.4,0.1,2.8-0.2,4.1-0.8c0.7-0.3,1.4-0.6,2-1c0.4-0.3,0.9-0.6,1.3-0.9
			c0.2-0.2,0.4-0.3,0.6-0.5c0.4-0.4,0.8-0.7,1.2-1.1c3.3-3.6,5.3-9.3,3.6-16c-0.4-1.7-0.8-3.2-1.3-4.7c-0.8-2.5-1.6-4.8-2.5-6.8
			c-0.2-0.5-0.5-1.1-0.7-1.6c-0.6-1.2-1.2-2.3-1.9-3.4c-0.4-0.7-0.9-1.3-1.4-2c-1.2-1.5-2.4-2.7-3.7-3.7c-0.3-0.2-0.7-0.5-1-0.7
			c-0.1-0.1-0.2-0.1-0.3-0.1l-7.4,17.3V238c0.7,2,1.2,3.8,2.4,5c0,0,0,0,0,0C331.6,243,331.6,243.1,331.7,243.1z"/>
		<path d="M307.4,238v-34.3c-1,0-1.9,0.1-2.7,0.1c0-1.1,0.2-8.3-1.8-16.1c-0.1-6.9-2.9-13.1-7.4-17.4c-0.5-6.6-4.2-14.4-8.3-19.8
			c0.1,0,0.2,0,0.3,0c1.7-0.2,2.7-2.3,3.4-5.8c0.1-0.5,0.2-1,0.2-1.4c1.3-0.9,2.9-2.2,3.7-3.7c0.4-0.8,0.8-2.1,1-3.6
			c1.3-0.8,3.1-2.1,4.9-4.1c1.3-1.4,2.2-3.4,2.5-5.6c-0.4-1.3-0.9-2.5-1.4-3.7c-2.2-5.3-5.2-9.8-8.8-13.7c-1-0.5-2.2-1-3.4-1.3
			c-1.1-0.3-2.2-0.4-3.3-0.5c-3.1-0.6-9.5-1.7-18.4-1.9c-3-0.1-5.7-0.1-8.1,0.1c-2-0.9-4.3-1.3-6.6-1c-1.4,0.2-2.7,0.5-4,1.1
			c-3.8-1-7.7-1.3-10.8-0.9c-0.8,0.1-1.5,0.2-2.2,0.3c0-0.4-0.1-0.8-0.1-1.1c-0.1-0.7-0.2-1.5-0.3-2.2c0.1-1.3,0.1-2.7,0-4
			c-3.6,1.2-7,2.7-10,4.6c-7.6,4.9-13.3,11.8-17,20.6c-3.7,8.8-5.5,19-5.5,30.7v8.8c3.6,4.6,7.9,9.8,10.8,11.8
			c0.2,0.2,0.4,0.4,0.6,0.6c0.2,3.4,0.8,11.2,2.3,13.8c0,0-1.2,4.1,0.8,6.2c-0.6,4.6-1.4,16.2,3.4,27.6c3.7,8.9,10.1,13.6,16.6,15.2
			v-83.5c0-4.6,0.4-9.2,1.1-13.7c0.7-4.5,2.3-8.3,4.8-11.5c2.5-3.1,6.3-4.7,11.6-4.7c5.3,0,9.1,1.6,11.6,4.7
			c2.5,3.1,4.1,6.9,4.8,11.5c0.7,4.5,1.1,9.1,1.1,13.7v87.5c0,1.5-0.1,3-0.2,4.5c0.1,0.3,0.1,0.6,0.2,0.8c0,0,0,0,0,0c0,0,0,0,0,0
			c0.1,0.3,0.2,0.6,0.3,0.8c0,0,0,0.1,0.1,0.1c0.1,0.2,0.2,0.4,0.3,0.5c0,0,0.1,0.1,0.1,0.1c0.1,0.2,0.3,0.3,0.4,0.5c0,0,0,0,0,0
			c0.2,0.1,0.3,0.3,0.5,0.4c0,0,0.1,0.1,0.1,0.1c0.2,0.1,0.3,0.2,0.5,0.2c0,0,0.1,0,0.1,0c0.2,0.1,0.4,0.2,0.7,0.2
			c0.1,0,0.1,0,0.2,0c0.2,0.1,0.4,0.1,0.6,0.2c0.1,0,0.2,0,0.2,0.1c0.2,0.1,0.5,0.1,0.7,0.2c3.6,0.8,9.8-4.1,11.4-9
			c0.3-1,0.5-2.1,0.7-3.3c0.2,0,0.4-0.1,0.6-0.1C293.6,238.4,300.2,239.3,307.4,238z M284.4,147.3
			C284.4,147.3,284.4,147.3,284.4,147.3c0-0.2,0-0.3,0-0.5C284.4,147,284.4,147.2,284.4,147.3z M284.7,144.8c0.1-0.5,0.1-1,0.2-1.5
			l0,0C284.9,143.8,284.8,144.3,284.7,144.8z"/>
		<path d="M164.9,165.3c-1.3,3.2-2.4,6.1-3,7.8c-1.8,5.2-3.8,11-3.7,14.3c0,3.4,2.1,7.6,3.7,7.8c1.6,0.1,2.8-0.9,3-3.2V165.3z"/>
	</g>
</g>
<g id="Character">
	<g>
		<g>
			<path class="st45" d="M294.1,189.2c0,0,1,7.5,0.9,15.1c-0.1,7.6,1.7,7.8,5.3,8.6s9.8-4.1,11.4-9c1.6-4.9,1.4-14.5,1.4-14.5
				L294.1,189.2z"/>
			<path class="st45" d="M310.7,198.3c-0.2,3.4-1.2,8.8-6.2,11.4c-4.2,2.3-7.9,0.3-9-0.4c0.7,2.6,2.4,2.9,4.9,3.5
				c3.6,0.8,9.8-4.1,11.4-9c1.6-4.9,1.4-14.5,1.4-14.5l-2.2,0C310.9,191.9,310.8,196.1,310.7,198.3z"/>
		</g>
		<path class="st45" d="M276.9,196.4c0,0,6-0.1,14.1-3.1c8.1-3,17.3-9.8,15.3-16.5c-2-6.7-12.6-8.5-16.8-8.1c-4.2,0.5-9,1.7-9,1.7
			S281.6,189.1,276.9,196.4z"/>
		<path class="st39" d="M273,199.1c0,0,5.4-1.1,8.6-5.3c3.2-4.2,4.4-11.1,2.7-15.7C282.5,173.5,273,199.1,273,199.1z"/>
		<path class="st45" d="M240.8,155.2c0,0-3.1,15,3,29.7c6.2,14.7,19.6,18.2,29.1,14.1c9.5-4,11.7-17.3,11.8-26.2
			c0.1-8.8-0.2-12.9-0.2-12.9S252.8,163.1,240.8,155.2z"/>
		<path class="st39" d="M239.7,151.1c0,0-1.4,4.9,1.4,6.7c2.8,1.8,17.6,10.5,35,7.1c9.8-1.8,7.6-4.7,7.4-6.3
			C283.4,157.1,239.7,151.1,239.7,151.1z"/>
		<path class="st46" d="M237.3,135.7c0,0,0.4,12.1,2.4,15.5c2,3.3,27.8,13.4,40.9,10.6c13.1-2.8,34.4-14.5,37-23.1
			c2.6-8.6-4.2-22.1-10.5-28.6c-6.4-6.5-9.1-7.8-9.1-7.8s-15.6,20.8-35,27.6C243.6,136.8,237.3,135.7,237.3,135.7z"/>
		<g>
			<path class="st46" d="M340.2,166.3c0,0,13.7-5.4,19.2-2.1c5.5,3.3,9.7,11,12.5,22.8c2.9,11.9-5.5,20.6-12.8,20.3
				c-7.3-0.3-6-5-8.8-9.8c-2.8-4.8-6.3-7.6-6.5-8.1C343.6,188.9,347,173.7,340.2,166.3z"/>
			<path class="st46" d="M359.4,164.3c-1.5-0.9-3.5-1.1-5.7-1c2.8,2.1,8.3,7.1,11.8,16.6c5,13.2,2.7,20.2,0.2,22.8
				c-2.5,2.6-7.9,3.5-10.2,3.2c-0.4,0-0.8-0.1-1.3-0.2c1,1,2.5,1.6,5,1.7c7.3,0.3,15.7-8.4,12.8-20.3
				C369.1,175.2,364.9,167.5,359.4,164.3z"/>
		</g>
		<path class="st46" d="M311.2,200c0,0,12.9,3.7,25-1.1c12-4.8,19.1-12.8,16.4-22.6c-2.7-9.8-7.6-10.1-18.6-10
			c-10.9,0.1-13.1,1.1-13.1,1.1S320.5,195,311.2,200z"/>
		
			<ellipse transform="matrix(9.396496e-02 -0.9956 0.9956 9.396496e-02 124.4046 439.0566)" class="st39" cx="303.4" cy="151.2" rx="24" ry="22.1"/>
		
			<ellipse transform="matrix(9.397823e-02 -0.9956 0.9956 9.397823e-02 102.7521 471.0168)" class="st39" cx="310.2" cy="179.1" rx="21.7" ry="20.1"/>
		<path class="st46" d="M327.4,166.7c0,0,0.9-19.3-8.6-30c-9.5-10.6-30.9-1.9-34.5,14c-3.6,15.9,4,39.8,13.8,46
			c9.9,6.2,18.2,0.1,23.8-8.4C327.5,179.7,327.4,166.7,327.4,166.7z"/>
		<g>
			<g>
				<path class="st45" d="M193.8,112.5c0,0-7.5,18.1-9.3,23.3c-1.8,5.2-3.8,11-3.7,14.3c0,3.4,2.1,7.6,3.7,7.8
					c1.6,0.1,2.8-0.9,3-3.2c0.2-2.3,0.1-3.2,1.3-4.5c1.1-1.2,4.7-3.7,5.2-3.9c0.5-0.2,0.8,1.5-0.3,3.4c-1.1,1.9-3.5,3.6-2,5.5
					c1.5,1.9,4.4-0.3,6-1.9c1.6-1.6,3.2-4.4,3.9-7.1c0.7-2.8,0.3-8.7,0.3-8.7l13.2-12.5C215.2,124.9,197.7,122.8,193.8,112.5z"/>
				<path class="st47" d="M194.7,148.1c0,0-0.2,2.6,4.6,2.7"/>
				<path class="st47" d="M182,146c0,0,1.3,5,6.9,4.2"/>
				<path class="st47" d="M181.5,152.9c0,0,3.3,2.5,5.7-0.2"/>
				<path class="st47" d="M188.3,128.1c0,0-0.4,9.9,13.7,9.3"/>
			</g>
			<path class="st39" d="M197.6,107.1c0,0-3.5,0.1-3.7,5.4c-0.2,5.3,4,13.5,12.2,14.8c8.2,1.4,13.2-3.5,14.7-7.5
				C222.2,115.8,203.2,103.9,197.6,107.1z"/>
			<path class="st45" d="M206.7,92.7c0,0-8.6,10.4-10.1,15.7c-1.5,5.3,2.3,15,11.8,16.2c9.6,1.2,15.3-6.8,15.3-6.8L206.7,92.7z"/>
			<path class="st39" d="M211.7,84.3c0,0-6.2,5.2-6.6,13.7c-0.4,8.5,7.4,18.2,17.6,17.3C232.8,114.3,220.1,83.9,211.7,84.3z"/>
		</g>
		<path class="st39" d="M215.9,90.6c0,0-4.5,5.5-1.9,14.6c2.6,9.2,9.1,14.2,9.1,14.2s12.5,18,17.8,20.8c5.3,2.8,14.6,2.9,33.4-4.8
			c18.9-7.7,26.3-18.9,29.2-24.6c2.9-5.8-14.1-32.3-19.9-36.1c-5.9-3.8-13.5-5.1-19.1-4.5c-5.5,0.6-10.7,2-10.7,2L215.9,90.6z"/>
		<path class="st46" d="M212.6,87.6c0,0-4.5,5.5-1.9,14.6c2.6,9.2,9.1,14.2,9.1,14.2s12.5,18,17.8,20.8c5.3,2.8,14.6,2.9,33.4-4.8
			s26.3-18.9,29.2-24.6c2.9-5.8-14.1-32.3-19.9-36.1c-5.9-3.8-13.5-5.1-19.1-4.5c-5.5,0.6-10.7,2-10.7,2L212.6,87.6z"/>
		
			<ellipse transform="matrix(0.274 -0.9617 0.9617 0.274 100.5442 272.0916)" class="st39" cx="230.5" cy="69.5" rx="28.5" ry="28.5"/>
		
			<ellipse transform="matrix(0.6193 -0.7852 0.7852 0.6193 37.4836 201.3747)" class="st48" cx="226.4" cy="62" rx="32.2" ry="32.2"/>
		<g>
			<path class="st49" d="M248.5,66.6c0.3-0.7,0.8-1.9,0.6-3.4c-0.2-2.4-2.9-6.9-4-8.1c-1.1-1.2-2.9,0.2-2.9,0.2l-2-3.6
				c-4.8-8.7-15.7-11.8-24.4-7c-8.7,4.8-11.8,15.7-7,24.4l4.1,7.4l-2.3-3.8c0,0-2.1,0.7-1.7,2.3c0.4,1.6,2.8,6.3,4.7,7.7
				c1.4,1,2.8,1.2,3.5,1.3l5.5,9.8c2.4,0.3,4.8,0.3,7.2,0c10.8-1.2,19.8-7.6,24.7-16.5L248.5,66.6z"/>
			<path class="st46" d="M240,57.6c-3.6-6.5-11.9-8.9-18.4-5.3l-2.5,1.4c-6.5,3.6-8.9,11.9-5.3,18.4l12.3,22.1c1.2,0,2.5,0,3.7-0.2
				c9.6-1,17.8-6.2,22.9-13.6L240,57.6z"/>
			<path class="st2" d="M225,71c0.5,0.8,0.4,1.7-0.1,2c-0.5,0.3-1.3-0.2-1.7-1c-0.5-0.8-0.4-1.7,0.1-2C223.7,69.7,224.5,70.1,225,71
				z"/>
			<path class="st2" d="M235.1,65.3c0.5,0.8,0.4,1.7-0.1,2c-0.5,0.3-1.3-0.2-1.7-1c-0.5-0.8-0.4-1.7,0.1-2
				C233.9,64,234.7,64.5,235.1,65.3z"/>
			<polyline class="st47" points="230.1,66.6 235.4,73.1 230.6,75.3 			"/>
			<path class="st2" d="M237.9,78.5c0.5,0.8,0.2,1.9-0.7,2.3c-0.8,0.5-1.9,0.2-2.3-0.7c-0.5-0.8-0.2-1.9,0.7-2.3
				C236.4,77.4,237.4,77.7,237.9,78.5z"/>
			<path class="st47" d="M217.9,69.8c0,0,0.8-3.2,5-3.5"/>
			<path class="st47" d="M229.4,62.4c0,0,1.1-3.4,5.5-2.4"/>
			<path class="st47" d="M232.4,89.2c0,0,3.5,1,6,0.5c2.5-0.5,4.5-1.8,5.4-3c0.9-1.2,2.2-5.1,2.2-5.1"/>
		</g>
		<path class="st46" d="M202.7,80.6c-1.9-17.7,10.8-33.5,28.5-35.5c10.2-1.1,19.8,2.7,26.5,9.5c-3.7-15.6-18.4-26.4-34.8-24.6
			c-17.7,1.9-30.4,17.8-28.5,35.5c0.8,7.5,4.1,14,9,19C203.1,83.3,202.9,82,202.7,80.6z"/>
		<g>
			
				<ellipse transform="matrix(0.9942 -0.108 0.108 0.9942 -7.372 30.4754)" class="st39" cx="277.7" cy="83.3" rx="14.5" ry="16.4"/>
			<path class="st46" d="M311,70.4c0,0-7.8-2.1-20.4-2.4c-12.6-0.3-20.1,0.9-22.5,7.2c-2.4,6.3-1.9,16.5,5.9,19.8
				c4.3,1.9,10.7,0.8,15.4-0.3c4.6-1.1,16-5.8,19.6-11.5C312.7,77.5,312.7,73,311,70.4z"/>
			<path class="st39" d="M324.3,80c0,0-4.2-7.5-12-9.6c-7.8-2.1-14.9,3-18.2,8c-3.2,5-1.8,6.6-1.8,6.6s11.4-5.7,17.3-6.8
				C315.6,77.2,324.3,80,324.3,80z"/>
			<path class="st46" d="M292,90.1c0,0-1.8-5.3,5.6-12.1c7.4-6.8,21-4.4,25.4,0.2c4.4,4.6,3.9,12.6,0.4,16.5c-3.5,3.9-7,5.1-7,5.1
				S309.5,88.1,292,90.1z"/>
			<path class="st46" d="M285.9,100.4c0,0,2.8-7.5,6.2-10.3c3.3-2.9,13.3-4.1,20.7-1.5c7.4,2.6,6.1,11.1,4.7,13.8
				c-1.4,2.7-5.6,4.8-5.6,4.8L285.9,100.4z"/>
			<g>
				<path class="st46" d="M286.7,99.2c0,0-1.5,0.3-3,1.9c-1.5,1.6-2,2.3-5,4c-3,1.7-6.2,1.8-5.1,5c1.2,3.2,5.6,2.8,7.8,2.2
					c2.2-0.5,3.1-1.3,4.8-2.6c1.7-1.3,2.9-10.3,3-10.7C289.3,98.6,286.7,99.2,286.7,99.2z"/>
				<path class="st46" d="M294.7,96.2c0,0-4.5-1.1-6.6,0.7c-2.2,1.8-2,8.6-1.8,12.8c0.2,4.2,1.7,7.5,3.3,8.1
					c1.6,0.5,3.2,0.2,3.9-0.4s0-6.7,0.4-11.7C294.2,100.8,294.7,96.2,294.7,96.2z"/>
				<path class="st46" d="M294.7,96.2c0,0-2,4.8-2.6,9.8c-0.6,5,2.1,11.7,3.2,12.3s4,0.4,4.6-1.1s0.2-6.5,0.3-9.4
					c0.1-2.9,1.5-9.3,1.3-11.2C301.2,94.7,296.8,94.5,294.7,96.2z"/>
				<path class="st46" d="M301.4,96.6c0,0,2.7-1.3,4.6-0.2c1.9,1.1,2.4,3.9,2.1,5.4c-0.3,1.4-1.2,9.9-1.8,12c-0.6,2-2.2,3-3.5,2.9
					c-1.3-0.1-2.1-1.7-2.3-3.5c-0.2-1.8-0.4-5.3-0.4-5.3L301.4,96.6z"/>
				<path class="st46" d="M308.1,99.1c0,0,3.6,0.9,4.7,1.6c1.1,0.7,1.5,3.1,0.7,6.6c-0.7,3.6-1.8,5.7-3.4,5.8c-1.7,0.2-3-1.9-3-3.2
					C307.1,108.8,308.5,102,308.1,99.1z"/>
			</g>
		</g>
	</g>
	<g>
		
			<linearGradient id="SVGID_00000102518659608767064080000008150238637852339391_" gradientUnits="userSpaceOnUse" x1="245.5703" y1="-191.8953" x2="257.8528" y2="-191.8953" gradientTransform="matrix(1 0 0 -1 0 -80)">
			<stop  offset="0" style="stop-color:#38006E"/>
			<stop  offset="1" style="stop-color:#5D33BD"/>
		</linearGradient>
		<path style="fill:url(#SVGID_00000102518659608767064080000008150238637852339391_);" d="M252.3,111.9l-1.2-0.6
			c0.1-0.2,0.1-0.4-0.2-0.5c-0.1-0.1-0.3-0.1-0.3,0.1c-0.1,0.1,0,0.2,0.4,0.6c1.1,1,1,1.5,0.7,2c-0.4,0.7-1,0.9-1.9,0.5l-0.2,0.4
			l-0.8-0.4l0.2-0.4c-0.8-0.6-0.9-1.2-0.7-1.8l1.2,0.6c-0.1,0.2,0,0.4,0.2,0.5c0.2,0.1,0.3,0.1,0.4-0.1c0.1-0.1,0-0.3-0.3-0.6
			c-1-0.8-1-1.4-0.7-1.9c0.3-0.6,0.9-0.9,1.8-0.6l0.2-0.3l0.8,0.4l-0.2,0.3C252.3,110.6,252.6,111.2,252.3,111.9z"/>
		<path class="st39" d="M250,98.8c-8,0-14.4,6.5-14.4,14.4s6.5,14.4,14.4,14.4s14.4-6.5,14.4-14.4S258,98.8,250,98.8z M243.5,103.4
			l1.2-1.5l0.6,1.8l1.5,1.2l-1.8,0.6l-1.2,1.5l-0.6-1.8l-1.5-1.2L243.5,103.4z M239.1,111.4l-0.6,0.8l-0.3-0.9l-0.8-0.6l0.9-0.3
			l0.6-0.8l0.3,0.9l0.8,0.6L239.1,111.4z M248.8,121c-0.1,0.2-0.1,0.4-0.2,0.5c-0.6,1.3-1.6,2.2-2.8,2.5c-0.7-1-0.8-2.5-0.2-3.9
			c0.1-0.2,0.2-0.5,0.4-0.7c0.8-1,1.6-1.5,2.2-1.2C249,118.4,249.1,119.6,248.8,121L248.8,121z M255.6,114.2
			c-0.2,0.6-0.4,1.2-0.7,1.8c-0.1,0.1-0.1,0.3-0.2,0.4l0,0l0,0c-0.1,0.2-0.2,0.4-0.3,0.5l0,0c0,0,0,0,0,0c1,1.8,0.4,4.5-0.5,5.8
			c-0.2-0.8-0.8-1.6-1.6-2.5l0,0c0,0,0,0,0,0l0,0l0,0l0,0c-0.1-0.1-0.2-0.2-0.4-0.3c-0.9-0.8-2-1.5-3.2-2.1
			c-0.1-0.1-0.2-0.1-0.3-0.2s-0.2-0.1-0.3-0.1h0c-1.5-0.6-2.9-1-4.2-1h0v0l0,0c0,0,0,0,0,0c0,0,0,0,0,0c-1.2-0.1-2.2,0.1-2.9,0.5
			c0.3-1.6,2-3.8,4.1-4.3c0,0,0,0,0,0l0,0c0-0.1,0.1-0.2,0.2-0.4c2.3-5.1,6.3-8.7,10.5-9.9C257,105.8,257.1,110,255.6,114.2z
			 M260.1,117.7l-0.3,0.4l-0.2-0.5l-0.4-0.3l0.5-0.2l0.3-0.4l0.2,0.5l0.4,0.3L260.1,117.7z"/>
	</g>
</g>
</svg>
