<?xml version="1.0" encoding="utf-8"?>
<!-- Generator: Adobe Illustrator 26.3.1, SVG Export Plug-In . SVG Version: 6.00 Build 0)  -->
<svg version="1.1" id="Layer_1" xmlns="http://www.w3.org/2000/svg" xmlns:xlink="http://www.w3.org/1999/xlink" x="0px" y="0px"
	 viewBox="0 0 484.5 484.5" style="enable-background:new 0 0 484.5 484.5;" xml:space="preserve">
<style type="text/css">
	.st0{fill:#6D28D9;}
</style>
<path class="st0" d="M435.6,32.5H48.8c-26.7,0-48.4,21.8-48.4,48.4v257.9c0,26.7,21.8,48.4,48.4,48.4h386.8
	c26.7,0,48.4-21.8,48.4-48.4V80.9C484,54.3,462.3,32.5,435.6,32.5z M464.5,315H20V100.2C20,74.2,40.4,53,65.4,53h355.4
	c24.1,0,43.6,20.3,43.6,45.4V315z"/>
<path class="st0" d="M258.1,387.2H226v-14.5c0-21.5,32.2-21.5,32.2,0C258.2,377.5,258.1,382.3,258.1,387.2z"/>
<path class="st0" d="M339,429.9c0.1,10.4-6.5,19.8-16.3,23.3H161.5c-1.4-0.5-13.3-5.1-16.1-16.1c-2.7-10.5,3.7-23.3,16.4-29.4H258
	v0.3c7.3-0.1,14.6-0.2,21.9-0.3c10-0.2,20.1-0.3,30.1-0.5c4.3-0.1,8.7-0.1,13-0.2C332.6,410.6,339,419.8,339,429.9z"/>
<g id="Layer_2_00000142889280222264503890000018157740839003773067_">
	<path class="st0" d="M281.7,210.4c-2.5,14.1-14.4,23.1-31.2,25v9.5c0,5-4.1,9.1-9.1,9.1s-9.1-4.1-9.1-9.1V235c-0.1,0-0.2,0-0.4,0
		c-7.4-1.1-15.2-3.7-22.1-6.1l-3.1-1.1c-4.7-1.6-7.3-6.8-5.7-11.5s6.8-7.3,11.5-5.7l3.2,1.1c6.1,2.1,13.1,4.5,18.8,5.3
		c13.4,2,27.5-0.2,29.2-9.7c1.5-8.1-3.2-11.3-24.8-17.2l-4.3-1.2c-12.5-3.5-38.4-10.7-33.6-36.8c2.5-13.9,14.3-22.8,31.2-24.8v-9.5
		c0-5,4.1-9.1,9.1-9.1s9.1,4.1,9.1,9.1v9.9c0.1,0,0.2,0,0.4,0c4.8,0.7,10.3,2.1,17.2,4.4c4.8,1.6,7.4,6.7,5.8,11.5
		s-6.7,7.3-11.5,5.8c-5.9-1.9-10.5-3.1-14.2-3.7c-13.3-2-27.5,0.2-29.2,9.7c-1.3,6.9,1.3,10.6,20.7,16l4.1,1.1
		C260.7,177.3,286.4,184.3,281.7,210.4z"/>
</g>
<path class="st0" d="M310,407.2v0.5h-30.1C289.9,407.5,300,407.3,310,407.2z"/>
</svg>
