<?xml version="1.0" encoding="utf-8"?>
<!-- Generator: Adobe Illustrator 26.3.1, SVG Export Plug-In . SVG Version: 6.00 Build 0)  -->
<svg version="1.1" id="Layer_1" xmlns="http://www.w3.org/2000/svg" xmlns:xlink="http://www.w3.org/1999/xlink" x="0px" y="0px"
	 viewBox="0 0 484.5 484.5" style="enable-background:new 0 0 484.5 484.5;" xml:space="preserve">
<style type="text/css">
	.st0{fill:#0EA5E9;}
	.st1{fill:#22D3EE;}
	.st2{opacity:0.3;fill:#0EA5E9;}
	.st3{fill:#26C2F9;}
	.st4{fill:#F6B445;}
	.st5{opacity:0.4;fill:#FFFFFF;}
</style>
<g>
	<path class="st0" d="M268.2,440.2c0,11.7-52.5,11.7-52.5,0C215.6,428.6,268.2,428.6,268.2,440.2"/>
	<path class="st1" d="M389.4,187.3c-1.3,7.6-3.8,15.7-7.2,24c-0.1,0.2-0.1,0.3-0.2,0.5c-14.2,34.5-43.5,72.8-64.3,99.9
		c0,0,0,0-0.1,0.1c-9.2,11.9-16.7,21.7-20.5,27.9c-1.8,2.9-2.7,5-2.7,6.3v4.7H189.4v-4.7c0.1-12.7-93.9-102.7-96.2-155.1
		c-2.3-52.5,23.2-102.2,67.1-131c32.4-21.2,71.3-28.7,108.4-21.9c13.2,2.4,26.1,6.6,38.4,12.7c47.1,23,78.7,69.2,83,121.5
		C390.6,176.8,390.3,182,389.4,187.3z"/>
	<path class="st2" d="M389.4,187.3c-1.6,7.9-4.1,16-7.2,24c-0.1,0.2-0.1,0.3-0.2,0.5c-17.4,44.4-53.7,87.8-64.3,99.9
		c0,0,0,0-0.1,0.1c-1.9,2.1-2.9,3.3-2.9,3.3c-5.6,3.1-16.9,21.5-17.3,23.1c-0.1,0.5-0.2,1-0.3,1.5c-1.8,2.9-2.7,5-2.7,6.3v4.2h1.2
		c0.3,0,0.7,0,1,0.1v0.2H241c0-0.1,0-0.2,0-0.3c0-15,12.5-25.6,15.2-28.2c11-10.6,65-70.9,81.8-116.9c18.2-50-0.1-103.1-18.6-128.2
		c-9.7-13.2-26.7-32.3-50.7-38.9c-2.8-0.8-5.7-1.4-8.6-1.9c64.9,7,117.6,55.4,130.1,119.4C392.1,165.4,391.7,176.2,389.4,187.3z"/>
	<path class="st0" d="M303.3,357.8v15.4c0,4.2-3.4,7.7-7.7,7.7H188.1c-4.2,0-7.7-4.2-7.7-7.7v-15.4c0-4.2,3.4-7.7,7.7-7.7h107.5
		c0.3,0,0.7,0,1,0.1C300.4,350.8,303.3,354.6,303.3,357.8z"/>
	<path class="st3" d="M189.4,379.7h105.1v8.7H189.4V379.7z M189.4,422.9h105.1l-12.4,12.2c-3.3,3.2-7.8,5-12.4,5.1h-55.5
		c-4.6,0-9.1-1.8-12.4-5.1L189.4,422.9z"/>
	<path class="st3" d="M292.4,416.2H191.6c-1.6,0-2.9,1.6-2.9,3.5v0.5c0,1.9,1.3,3.5,2.9,3.5h100.8c1.6,0,2.9-1.6,2.9-3.5v-0.5
		C295.3,417.8,294,416.2,292.4,416.2z"/>
	<path class="st4" d="M309.1,318.1"/>
	<path class="st5" d="M127.3,245c-3.6-9.4-6-16.1-8-25.3c-4.4-21.1-2.4-38.1-1.3-46.7c1.5-11.5,8.7-68.8,51.3-104.5
		c38.8-32.5,86.3-30,86-31.5c-0.4-2-55.6-7.1-102.7,28C109.3,97.3,95.7,146.7,94,174.3c-0.4,6.6-1.1,18.5,2.7,33.3
		c1.4,5.6,4.8,16.9,22.7,44c7.1,10.8,17.2,25.1,30.7,41.3C139.1,273.8,131.9,257.2,127.3,245z"/>
	<path class="st0" d="M188.1,387.4h107.5c4.2,0,7.7,4.2,7.7,7.7v15.4c0,4.2-3.4,7.7-7.7,7.7H188.1c-4.2,0-7.7-4.2-7.7-7.7v-15.4
		C180.4,390.9,183.9,387.4,188.1,387.4z"/>
	<path class="st5" d="M208.6,126.1l-11.8-4.1l11.8-4.1l4.1-11.8l4.1,11.8l11.8,4.1l-11.8,4.1l-4.1,11.8L208.6,126.1z M177.7,100.9
		l-20.6-6.7l20.6-7.2l7.2-21.1l6.7,21.1l21.1,7.2l-21.1,6.7l-6.7,21.1L177.7,100.9z"/>
</g>
</svg>
