<?xml version="1.0" encoding="utf-8"?>
<!-- Generator: Adobe Illustrator 26.3.1, SVG Export Plug-In . SVG Version: 6.00 Build 0)  -->
<svg version="1.1" id="Layer_1" xmlns="http://www.w3.org/2000/svg" xmlns:xlink="http://www.w3.org/1999/xlink" x="0px" y="0px"
	 viewBox="0 0 484.5 484.5" style="enable-background:new 0 0 484.5 484.5;" xml:space="preserve">
<style type="text/css">
	.st0{fill:url(#SVGID_1_);}
	.st1{fill:#4E24FF;}
	.st2{opacity:0.2;fill:#FFFFFF;}
	.st3{fill:#764AFF;}
	.st4{opacity:0.2;enable-background:new    ;}
	.st5{clip-path:url(#SVGID_00000088843235689103498490000011660553391977278143_);fill:#FFFFFF;}
	.st6{fill:url(#SVGID_00000094618878476043050490000011669004316502018462_);}
	.st7{opacity:0.1;fill:#231F20;}
	.st8{fill:#3F0099;}
	.st9{clip-path:url(#SVGID_00000016042242865288132180000014076650362099331007_);fill:#FFFFFF;}
	.st10{fill:#0EA5E9;}
	.st11{fill:#22D3EE;}
	.st12{opacity:0.3;fill:#0EA5E9;}
	.st13{fill:#26C2F9;}
	.st14{fill:#F6B445;}
	.st15{opacity:0.4;fill:#FFFFFF;}
</style>
<g>
	<g>
		<linearGradient id="SVGID_1_" gradientUnits="userSpaceOnUse" x1="73.1856" y1="369.3384" x2="206.1462" y2="254.7584">
			<stop  offset="3.692457e-03" style="stop-color:#3B007E"/>
			<stop  offset="0.9972" style="stop-color:#5600FD"/>
		</linearGradient>
		<path class="st0" d="M74.5,329c-18.9-18-18.9-47.4,0-65.4c9.2-8.7,21.3-13.6,34.2-13.6c12.9,0,25.1,4.8,34.2,13.6
			c18.9,18,18.9,47.4,0,65.4c-9.1,8.7-21.4,13.6-34.2,13.6C95.9,342.6,83.5,337.7,74.5,329L74.5,329z M211.6,362.3L179,336.7
			c19.5-30.6,14.7-70-12.3-95.7c-15.5-14.8-36.1-23-58-23s-42.5,8.2-58,22.9c-15.5,14.8-24,34.4-24,55.4s8.5,40.6,24,55.4
			c15.4,14.7,36.2,23,58,23c14.4,0,29-3.7,42-11.2l27,31c4.6,5.3,11.4,8.4,18.6,8.5c6.3,0,12.5-2.4,17-6.7
			C223.5,386.6,222.7,370.8,211.6,362.3L211.6,362.3z"/>
		<path class="st1" d="M168.6,296.5c0,33.1-26.8,59.9-59.9,59.9s-59.9-26.8-59.9-59.9s26.8-59.9,59.9-59.9S168.6,263.4,168.6,296.5"
			/>
		<path class="st2" d="M59.1,321.7c-12.1-30,3.3-64.2,34.5-76.7c14.3-5.8,29.5-5.9,42.7-1.5c-14.9-7.1-32.7-8.1-49.5-1.3
			c-31.2,12.6-46.5,46.8-34.5,76.7c6.5,16.2,19.6,27.7,35.3,32.9C74.8,345.7,64.6,335.4,59.1,321.7z"/>
		<polygon class="st3" points="66.7,300.3 64.8,294.3 62.7,300.3 56.8,302.4 62.7,304.3 64.8,310.4 66.7,304.3 72.8,302.4 		"/>
		<g class="st4">
			<g>
				<defs>
					<rect id="SVGID_00000134937179443297184670000017635957111361439408_" x="29" y="216.9" width="159.4" height="159.4"/>
				</defs>
				<clipPath id="SVGID_00000034788831292855968070000006905490769371476912_">
					<use xlink:href="#SVGID_00000134937179443297184670000017635957111361439408_"  style="overflow:visible;"/>
				</clipPath>
				<path style="clip-path:url(#SVGID_00000034788831292855968070000006905490769371476912_);fill:#FFFFFF;" d="M159.8,265.7
					l-82.2,82.2c-4-2.5-7.5-5.2-11-8.5l84.5-84.4C154.6,258,157.5,261.7,159.8,265.7L159.8,265.7z M143.3,248l-83.2,83.2
					c-0.8-1.2-1.7-2.5-2.5-3.7l82.2-82.2C141.1,246.3,142.1,247,143.3,248z"/>
			</g>
		</g>
		<polygon class="st3" points="74.3,285.2 69.8,278.2 69.3,286.6 62.4,291.3 70.6,291.7 75.4,298.7 75.7,290.3 82.8,285.8 		"/>
	</g>
	<g>
		
			<linearGradient id="SVGID_00000168107605718125460750000002240197872445369790_" gradientUnits="userSpaceOnUse" x1="236.5677" y1="320.5499" x2="429.7503" y2="176.3472">
			<stop  offset="0" style="stop-color:#3B007E"/>
			<stop  offset="0.9985" style="stop-color:#5600FD"/>
		</linearGradient>
		<path style="fill:url(#SVGID_00000168107605718125460750000002240197872445369790_);" d="M457.7,245.4
			c0,66.6-54,120.5-120.5,120.5s-120.5-54-120.5-120.5s54-120.5,120.5-120.5S457.7,178.9,457.7,245.4"/>
		<path class="st1" d="M427.6,245.4c0,49.9-40.5,90.4-90.4,90.4s-90.4-40.5-90.4-90.4s40.5-90.4,90.4-90.4S427.6,195.5,427.6,245.4"
			/>
		<path class="st2" d="M254.7,253.3c0-50.1,40.3-90.4,90.4-90.4c23,0,44.1,8.7,59.9,22.6c-16.6-18.8-40.7-30.5-67.8-30.5
			c-50.1,0-90.4,40.3-90.4,90.4c0,27.1,11.7,51.2,30.5,67.8C263,297,254.7,276.3,254.7,253.3z"/>
		<path class="st7" d="M397.1,177.6c14.3,15.8,22.6,36.9,22.6,59.9c0,50.1-40.3,90.4-90.4,90.4c-23,0-44.1-8.7-59.9-22.6
			c16.6,18.8,40.7,30.5,67.8,30.5c50.1,0,90.4-40.3,90.4-90.4C427.6,218.3,415.9,194.2,397.1,177.6z"/>
		<path class="st3" d="M405.9,278.4l-8.7-3l8.7-3l3-8.7l3,8.7l8.7,3l-8.7,3l-3,8.7L405.9,278.4z M383.3,260l-15.1-4.9l15.1-5.3
			l5.3-15.4l4.9,15.4l15.4,5.3l-15.4,4.9l-4.9,15.4L383.3,260z"/>
		<path class="st8" d="M338.9,278.3V253c11.7,3.9,12.2,8.8,12.2,12.2C351.1,268.5,350.6,275.8,338.9,278.3z M331.6,236
			c-5.8-2.9-10.2-3.9-10.2-11.2c0-3.4,1-8.8,10.2-10.7V236z M363.2,254c-1-2.9-4.9-12.2-24.3-16.1V214c4.9,1.5,7.8,4.9,9.2,9.7
			c1,3.9,3.4,5.8,7.3,5.8c2,0,14.1-3.4,2-19c-2-2.4-5.8-6.8-18-8.3v-9.7h-7.3v9.7c-22.4,2.4-24.3,17-24.3,23.4
			c0,19.5,19.5,23.4,24.3,24.8v26.8c-9.3-2.4-11.2-11.7-12.2-15.1c-1.5-4.4-5.4-4.9-6.8-4.9c-5.8,0.5-7.3,5.3-7.3,7.3
			c0,2.4,1.5,14.1,15.1,20.9c3.4,2,7.3,2.9,11.7,3.4v9.2h7.3V289c5.3-0.5,10.2-2,14.1-4.4C364.2,278.8,367.6,266.1,363.2,254
			L363.2,254z"/>
		<g class="st4">
			<g>
				<defs>
					<rect id="SVGID_00000114044838053503212470000004328520822621602953_" x="216.7" y="124.9" width="241.1" height="241.1"/>
				</defs>
				<clipPath id="SVGID_00000017503488727205464880000008094088195991606688_">
					<use xlink:href="#SVGID_00000114044838053503212470000004328520822621602953_"  style="overflow:visible;"/>
				</clipPath>
				<path style="clip-path:url(#SVGID_00000017503488727205464880000008094088195991606688_);fill:#FFFFFF;" d="M414.4,198.7
					L290.1,323c-6-3.8-11.3-7.9-16.6-12.8l127.7-127.7C406.5,187,411,192.7,414.4,198.7L414.4,198.7z M389.6,172L263.8,297.8
					c-1.1-1.9-2.6-3.8-3.8-5.6l124.3-124.3C386.2,169.4,387.7,170.5,389.6,172z"/>
			</g>
		</g>
	</g>
	<g>
		<path class="st10" d="M240.1,350.2c0,7.7-34.9,7.7-34.9,0S240.1,342.4,240.1,350.2"/>
		<path class="st11" d="M320.6,182.3c-0.9,5.1-2.5,10.4-4.8,15.9c-0.1,0.1-0.1,0.2-0.1,0.3c-9.4,22.9-28.9,48.3-42.7,66.3
			c0,0,0,0,0,0c-6.1,7.9-11.1,14.4-13.6,18.5c-1.2,1.9-1.8,3.3-1.8,4.2v3.1h-69.7v-3.1c0.1-8.4-62.3-68.2-63.8-103
			c-1.5-34.8,15.4-67.8,44.5-86.9c21.5-14.1,47.3-19.1,72-14.5c8.7,1.6,17.2,4.6,25.5,8.4c31.1,14.2,54.3,46.1,55.1,80.6
			C321.2,175.3,321.2,178.7,320.6,182.3z"/>
		<path class="st12" d="M320.6,182.3c-1.1,5.3-2.7,10.6-4.8,15.9c-0.1,0.1-0.1,0.2-0.1,0.3C304.1,228,280,256.8,273,264.9
			c0,0,0,0,0,0c-1.2,1.4-1.9,2.2-1.9,2.2c-3.7,2-11.2,14.3-11.5,15.3c-0.1,0.3-0.1,0.7-0.2,1c-1.2,1.9-1.8,3.3-1.8,4.2v2.8h0.8
			c0.2,0,0.5,0,0.7,0.1v0.1h-37c0-0.1,0-0.1,0-0.2c0-9.9,8.3-17,10.1-18.7c7.3-7,43.1-47,54.3-77.6c12.1-33.2-0.1-68.4-12.3-85.1
			c-6.4-8.8-17.7-21.5-33.6-25.8c-1.9-0.5-3.8-0.9-5.7-1.3c43,4.7,78,36.8,86.3,79.3C322.4,167.8,322.1,174.9,320.6,182.3z"/>
		<path class="st13" d="M187.8,310h69.7v5.7h-69.7V310z M187.8,338.7h69.7l-8.2,8.1c-2.2,2.2-5.1,3.3-8.2,3.4h-36.9
			c-3.1,0-6-1.2-8.2-3.4L187.8,338.7z"/>
		<path class="st13" d="M256.2,334.2h-66.9c-1.1,0-1.9,1-1.9,2.3v0.3c0,1.3,0.9,2.3,1.9,2.3h66.9c1.1,0,1.9-1,1.9-2.3v-0.3
			C258.1,335.3,257.3,334.2,256.2,334.2z"/>
		<path class="st14" d="M267.3,269.1"/>
		<path class="st15" d="M146.6,220.6c-2.4-6.2-4-10.7-5.3-16.8c-2.9-14-1.6-25.3-0.9-31c1-7.6,5.8-45.6,34.1-69.3
			c25.7-21.6,57.3-19.9,57.1-20.9c-0.3-1.4-36.9-4.7-68.1,18.6c-28.8,21.5-37.8,54.2-38.9,72.6c-0.3,4.4-0.7,12.3,1.8,22.1
			c0.9,3.7,3.2,11.2,15,29.2c4.7,7.1,11.4,16.7,20.4,27.4C154.4,239.7,149.7,228.7,146.6,220.6z"/>
		<path class="st10" d="M188.4,315.1h67.4c2.7,0,4.8,2.8,4.8,5.1v10.2c0,2.8-2.2,5.1-4.8,5.1h-67.4c-2.7,0-4.8-2.8-4.8-5.1v-10.2
			C183.6,317.4,185.7,315.1,188.4,315.1z"/>
		<path class="st15" d="M200.6,141.7l-7.9-2.7l7.9-2.7l2.7-7.9l2.7,7.9l7.9,2.7l-7.9,2.7l-2.7,7.9L200.6,141.7z M180.1,124.9
			l-13.7-4.4l13.7-4.8l4.8-14l4.4,14l14,4.8l-14,4.4l-4.4,14L180.1,124.9z"/>
		<path class="st10" d="M260.6,295.4v10.2c0,2.8-2.2,5.1-4.8,5.1h-67.4c-2.7,0-4.8-2.8-4.8-5.1v-10.2c0-2.8,2.2-5.1,4.8-5.1h67.4
			c0.2,0,0.4,0,0.6,0.1C258.8,290.8,260.6,293.3,260.6,295.4z"/>
	</g>
</g>
</svg>
