<?xml version="1.0" encoding="utf-8"?>
<!-- Generator: Adobe Illustrator 26.3.1, SVG Export Plug-In . SVG Version: 6.00 Build 0)  -->
<svg version="1.1" xmlns="http://www.w3.org/2000/svg" xmlns:xlink="http://www.w3.org/1999/xlink" x="0px" y="0px"
	 viewBox="0 0 4000 4000" style="enable-background:new 0 0 4000 4000;" xml:space="preserve">
<style type="text/css">
	.st0{fill:url(#SVGID_1_);}
	.st1{opacity:0.5;fill:#0F0023;}
	.st2{opacity:0.8;fill:#070111;}
	.st3{opacity:0.6;fill:#1D1D1B;}
	.st4{opacity:0.5;fill:#13012D;}
	.st5{opacity:0.5;fill-rule:evenodd;clip-rule:evenodd;fill:#020005;}
	.st6{fill:none;stroke:#3F0099;stroke-width:6;stroke-miterlimit:10;}
	.st7{fill:url(#SVGID_00000024723273567061522700000010389215182050803391_);}
	.st8{fill:url(#SVGID_00000043423613706240752540000017401024261211040686_);}
	.st9{fill:#97E9FF;}
	.st10{fill:url(#SVGID_00000000216674229186467480000012364511064767235491_);}
	.st11{opacity:0.3;}
	.st12{fill:#8898A5;}
	.st13{fill:url(#SVGID_00000111168897294078835210000007131160789458142655_);}
	.st14{fill:#D8DEE8;}
	.st15{fill:#FFFFFF;}
	.st16{fill:url(#SVGID_00000016051988212418088860000010215794207527680905_);}
	.st17{opacity:0.4;}
	.st18{opacity:0.6;}
	.st19{fill:url(#SVGID_00000013176119829496392320000002967630665503430534_);}
	.st20{fill:url(#SVGID_00000173856656335014140360000006523818539533148297_);}
	.st21{fill:none;stroke:#BAC5D1;stroke-width:25;stroke-miterlimit:10;}
</style>
<g id="Layer_6">
	<g>
		
			<image style="overflow:visible;opacity:0.8;" width="14650" height="14680" xlink:href="D12E7FED52EBA9FB.png"  transform="matrix(0.24 0 0 0.24 -152.64 755.28)">
		</image>
		<g>
			<g>
				
					<linearGradient id="SVGID_1_" gradientUnits="userSpaceOnUse" x1="533.45" y1="633.2091" x2="2677.708" y2="2336.6746" gradientTransform="matrix(1 0 0 -1 0 4001.55)">
					<stop  offset="3.363926e-02" style="stop-color:#4500CA"/>
					<stop  offset="1" style="stop-color:#3B007E"/>
				</linearGradient>
				<path class="st0" d="M2911.6,2108.2c40.2,129.3,61.6,266,61.6,408.7c0,757.1-612.4,1371.5-1367.5,1371.5
					S237.6,3274,237.6,2516.3S850,1145.4,1605.7,1145.4c519.9,0,972.2,290.8,1203.3,718.9L2911.6,2108.2z"/>
				<path class="st1" d="M765.6,1958.1v-56.3v-70.4c0-28.1-28.1-28.1-55.6-70.4c-28.1-42.2,0-28.1,42.2-42.2
					c42.2-14.1,28.1,28.1,28.1,42.2s55.6,42.2,69.7,42.2c14.1,0,69.7,0,55.6,28.1c-14.1,28.1-14.1,42.2-55.6,97.8
					C815.8,1974.9,779,1967.5,765.6,1958.1z"/>
				<path class="st2" d="M2510.2,3022.8c33.5,0,60.3-56.3,69.7-83.8c11.4-28.1,42.2-28.1,55.6-14.1c14.1,14.1,0,168.2-42.2,237.9
					c-41.5,70.4-83.8,56.3-111.9,56.3s0-56.3,28.1-83.8C2538.4,3107.2,2468.7,3022.8,2510.2,3022.8z"/>
				<path class="st3" d="M1784.5,2242.5c67,11.4,158.1,42.2,195.6,56.3h83.8c28.1,0,181.6,111.9,209.7,182.2
					c28.1,70.4,111.9,0,181.6,0s-97.8,237.9-153.4,294.1c-55.6,56.3,42.2,168.2,55.6,196.3c14.1,28.1-42.2,70.4-55.6,182.2
					c-14.1,111.9-55.6,266-83.8,364.5c-22.1,78.4-130,144.7-181.6,168.2c-18.8,9.4-67,11.4-111.9-56.3
					c-55.6-83.8-83.8-224.5-97.8-280.1c-14.1-56.3,111.9-350.4-139.4-378.6c-251.3-28.1-111.9,210.4-432.8-28.1
					c-320.9-237.9,42.2-700.8,69.7-742.4c28.1-42.2,97.8,0,223.1-42.2c100.5-33.5,200.3-14.1,237.2,0
					C1756.3,2181.6,1717.5,2231.2,1784.5,2242.5z"/>
				<path class="st4" d="M459.4,3065.7c9.4-27.5-34.2-117.3-57-158.1c18.8-26.1,66.3-72.4,103.2-45.6
					c45.6,34.2,182.9-45.6,228.5-34.2c45.6,11.4,148.7,22.8,160.1,56.3c11.4,34.2,11.4,113.2,34.2,147.4c18.1,27.5,0,101.8-11.4,136
					c-4,11.4-18.1,36.2-45.6,45.6c-34.2,11.4,45.6,11.4,114.6,34.2c68.3,22.8,22.8,136,45.6,192.3
					c22.8,56.3,148.7,158.1,171.5,180.9c22.8,22.8,0,56.3-22.8,45.6c-22.8-11.4-274.7-215.1-388.6-237.9
					c-92.5-18.8-260-196.3-332.3-283.4C455.3,3130,450,3092.5,459.4,3065.7z"/>
				<path class="st5" d="M2119.6,2210.1c0,44.9-28.1,65.7-42.2,70.4l83.8,42.2c-4.7-14.1,0-42.2,55.6-42.2
					c34.8,0,66.3,56.3,97.8,111.9c31.5,56.3,63,111.9,97.8,111.9c69.7,0,237.2-97.8,279.4-140c33.5-33.5-14.1-88.4-41.5-111.9
					c-9.4,28.1-52.9,59-153.4-42.2c-126-126-83.8-154.1,0-97.8c67,44.9,111.9,37.5,126,28.1c18.8-9.4,75.7-16.8,153.4,28.1
					c78.4,44.9,79.1,355.1,69.7,504.5c28.1-111.9,72.4-369.8,28.1-504.5c-139.4-420.1-306.9-574.2-461-714.2
					c-122.6-111.9-432.8-224.5-572.2-266c-37.5,18.8-117.3,70.4-139.4,126c-26.1,65.7-40.2,69.7-122.6,93.1
					c-5.4,1.3-10.7,3.3-16.8,4.7c-67.7,19.4-68.3,18.8-89.8,2.7c-10.1-7.4-23.5-17.4-49.6-30.8c-62.3-31.5-147.4,7.4-221.8,40.2
					c-25.5,11.4-50.3,22.8-71.7,29.5c-83.8,28.1-153.4,111.9-153.4,140c0,10.1-6.7,18.1-13.4,25.5c-12.1,14.1-22.8,26.1,13.4,44.2
					c36.9,18.1,67.7,12.7,99.8,6.7c16.8-3.3,34.8-6.7,53.6-6.7c55.6,0,28.1,42.2,0,70.4c-28.1,28.1-83.8,42.2-153.4,56.3
					c-37.5,7.4-42.9,30.8-50.3,64.3c-6.7,28.8-14.7,65-47.6,103.9c-40.2,48.2-53.6,65.7-57,70.4c-23.5,0-60.3,6-27.5,28.1l0,0
					c41.5,28.1,83.8,56.3,28.1,56.3c-24.1,0-40.9,18.8-56.3,36.2c-20.1,22.8-38.2,43.6-69.7,19.4c-42.2-31.5-68.3,8-101.8,59
					c-11.4,16.8-23.5,35.5-37.5,52.9c-35.5,44.9-25.5,72.4-14.1,105.2c6.7,18.1,14.1,38.2,14.1,63c0,36.2,14.7,34.8,36.9,32.8
					c20.8-2,47.6-4,74.4,22.8c51.6,51.6,150.8-16.1,199-48.9c4-2.7,7.4-5.4,10.7-7.4c42.2-28.1,111.9-238.5,97.8-280.1
					c-12.1-35.5,76.4-91.1,129.3-124.6c9.4-6,18.1-11.4,24.1-15.4c30.2-20.1,60.3,3.3,106.5,38.9c18.1,14.1-99.8,95.1-77.1,110.6
					c51.6,34.2,188.3-28.1,182.9-15.4c-3.4,8-8.7,20.8-3.4,47.6c6.7,34.8,14.1,20.8,26.1-3.4c12.1-24.8,29.5-59.6,57.6-66.3
					c55.6-14.1,28.1-70.4-55.6-83.8c-83.8-14.1-167.5-97.8-126-97.8h181.6c69.7,0,111.9,42.2,83.8,70.4
					c-28.1,28.1,111.9,83.8,153.4,83.8c30.8,0,9.4-44.9-15.4-96.5c-9.4-18.8-18.8-38.9-26.1-57.6c-19.4-48.9,28.8-29.5,69.7-13.4
					c17.4,6.7,33.5,13.4,42.2,13.4c28.1,0,42.2,28.1,0,70.4c-42.2,42.2,111.9,83.8,153.4,83.8H2050
					C2119.6,2112.2,2119.6,2154.5,2119.6,2210.1z M1798.7,1944.1c32.8,4.7,103.2,11.4,126,0c22.1-11.4,93.1,23.5,126,42.2
					c18.8,4.7,52.9,8.7,42.2-14.1c-14.1-28.1-97.8-126-153.4-111.9C1882.4,1874.4,1784.6,1930,1798.7,1944.1z"/>
				<path class="st6" d="M770.2,2636.9"/>
			</g>
		</g>
	</g>
</g>
<g id="Layer_7">
	<g>
		<g>
			<g>
				
					<linearGradient id="SVGID_00000090295376760442532490000016086512073932437141_" gradientUnits="userSpaceOnUse" x1="2082.2549" y1="3598.4614" x2="2067.2961" y2="4199.5327" gradientTransform="matrix(0.8315 0.5556 -0.5556 0.8315 1434.1335 -778.3741)">
					<stop  offset="0" style="stop-color:#22D3EE"/>
					<stop  offset="1" style="stop-color:#0EA5E9"/>
				</linearGradient>
				<path style="fill:url(#SVGID_00000090295376760442532490000016086512073932437141_);" d="M1254.5,3251.8
					c0,0,206.2,226,42.9,454.4S843.1,3848.9,765.7,3966c77.4-117.1-115.6-351.1,30.5-591s434.8-138.7,434.8-138.7"/>
			</g>
		</g>
		<g>
			<g>
				
					<linearGradient id="SVGID_00000125601508180486987540000014423674259177822378_" gradientUnits="userSpaceOnUse" x1="2077.325" y1="3638.2104" x2="2075.2981" y2="4808.458" gradientTransform="matrix(0.8315 0.5556 -0.5556 0.8315 1434.1335 -778.3741)">
					<stop  offset="0" style="stop-color:#36E0F2"/>
					<stop  offset="1" style="stop-color:#0EA5E9"/>
				</linearGradient>
				<path style="fill:url(#SVGID_00000125601508180486987540000014423674259177822378_);" d="M1206.3,3299.1
					c-50.2-13-197.5-37.6-276.6,92.2c-59.9,98.4-38.5,197.5-15.9,302.5c2.6,12.1,5.2,24.2,7.7,36.3c12.1-2.5,24.3-4.8,36.4-7.2
					c105.4-20.3,205-39.5,272-133.2C1318.3,3466.4,1238.5,3340.9,1206.3,3299.1z"/>
			</g>
		</g>
		<g>
			<path class="st9" d="M1192.1,3320.7c-27.6-7.2-108.6-20.7-152.2,50.7c-33,54.1-21.2,108.7-8.7,166.4c1.4,6.6,2.9,13.3,4.2,20
				c6.7-1.4,13.4-2.7,20.1-3.9c58-11.2,112.8-21.7,149.7-73.3C1253.7,3412.7,1209.8,3343.7,1192.1,3320.7z"/>
		</g>
	</g>
</g>
<g id="Layer_16">
	<g>
		<g>
			<g>
				
					<linearGradient id="SVGID_00000064335291428767932410000007759099948179056531_" gradientUnits="userSpaceOnUse" x1="1408.2407" y1="3029.459" x2="1122.3215" y2="2539.4402" gradientTransform="matrix(0.8315 0.5556 -0.5556 0.8315 1434.1335 -778.3741)">
					<stop  offset="0" style="stop-color:#22D3EE"/>
					<stop  offset="1" style="stop-color:#0EA5E9"/>
				</linearGradient>
				<path style="fill:url(#SVGID_00000064335291428767932410000007759099948179056531_);" d="M1271.2,2012.2
					c0,0-833.1-178.1-634.9,769c0,0,175.6-425.7,547.7-307.9L1271.2,2012.2z"/>
			</g>
		</g>
		<g class="st11">
			<g>
				<path class="st12" d="M1254.9,2098.5l16.3-86.3c0,0-833.1-178.1-634.9,769c0,0,0.7-1.7,2.1-4.8
					C531.9,2047.8,1104.2,2078.2,1254.9,2098.5z"/>
			</g>
		</g>
		<g>
			<g>
				
					<linearGradient id="SVGID_00000060738087448172119630000009916708146787694773_" gradientUnits="userSpaceOnUse" x1="2794.7485" y1="3086.4985" x2="2849.9875" y2="2521.4355" gradientTransform="matrix(0.8315 0.5556 -0.5556 0.8315 1434.1335 -778.3741)">
					<stop  offset="0" style="stop-color:#22D3EE"/>
					<stop  offset="1" style="stop-color:#0EA5E9"/>
				</linearGradient>
				<path style="fill:url(#SVGID_00000060738087448172119630000009916708146787694773_);" d="M2352.9,2727
					c0,0,490.5,696.5-458.5,885.5c0,0,322.8-328.5,68.5-624.5L2352.9,2727z"/>
			</g>
		</g>
		<g class="st11">
			<g>
				<path class="st14" d="M1919.2,3584.3c70.4-85.5,253.6-352,43.7-596.3l272.7-182.5C2321.1,2963.9,2488.2,3393.6,1919.2,3584.3z"
					/>
			</g>
		</g>
		<g>
			<g>
				<path class="st15" d="M2027.5,3034c-65,45.5-151.1,46.8-217.4,3l-611.1-403.8c-66.2-43.8-98.8-123.5-82.4-201.2
					c59.8-283.3,247.4-981.4,738-1647.8c103.1-139.9,211.3-252.9,320.5-344.1C2589.4,93.8,3015.8,62.9,3212.4,70.8
					c71.1,2.9,134.9,45,165.3,109.2c84.4,177.7,223.3,582,67.1,1099c-41,136.2-102.6,280.1-190.9,429.8
					C2833.3,2421.6,2264.5,2867.8,2027.5,3034z"/>
			</g>
		</g>
		<g>
			<g>
				
					<linearGradient id="SVGID_00000054988256338757685890000012975347129359612343_" gradientUnits="userSpaceOnUse" x1="1898.9294" y1="1013.8378" x2="2423.752" y2="-414.6743" gradientTransform="matrix(0.8315 0.5556 -0.5556 0.8315 1434.1335 -778.3741)">
					<stop  offset="0.3296" style="stop-color:#22D3EE"/>
					<stop  offset="0.8693" style="stop-color:#0EA5E9"/>
				</linearGradient>
				<path style="fill:url(#SVGID_00000054988256338757685890000012975347129359612343_);" d="M3444.8,1279.1
					C2997.3,416.9,2175,440.1,2175,440.1C2589.4,93.8,3015.8,62.9,3212.4,70.8c71.1,2.9,134.9,45,165.3,109.2
					C3462.1,357.8,3600.9,762.1,3444.8,1279.1z"/>
			</g>
		</g>
		<g class="st17">
			<g>
				<path class="st15" d="M3367.4,161.3c-14.6-4.2-29.7-6.8-45.2-7.4c-196.5-7.9-622.9,22.9-1037.4,369.3
					c-109.2,91.2-217.3,204.2-320.4,344.1c-409.1,555.6-607.4,1133.1-696.8,1474c-17.9,68.1-31.3,126.7-41.3,173.8
					c-12.3,58.2,3,117.5,39.3,162.1l-43.7-28.8l-23-15.2c-66.2-43.8-98.9-123.5-82.4-201.2c59.9-283.2,247.3-981.4,738-1647.8
					c103.1-139.9,211.3-253,320.5-344.1C2589.4,93.8,3015.9,62.9,3212.3,70.8C3276.2,73.4,3334.2,107.7,3367.4,161.3z"/>
			</g>
		</g>
		<g class="st18">
			<g>
				
					<linearGradient id="SVGID_00000088122838568084769310000012751126342270424210_" gradientUnits="userSpaceOnUse" x1="2088.8274" y1="2053.9431" x2="3339.9863" y2="691.4314" gradientTransform="matrix(0.986 0.1668 -0.1668 0.986 343.7534 -271.546)">
					<stop  offset="0" style="stop-color:#000000;stop-opacity:0"/>
					<stop  offset="1" style="stop-color:#DDDDDD;stop-opacity:0.5"/>
				</linearGradient>
				<path style="fill:url(#SVGID_00000088122838568084769310000012751126342270424210_);" d="M3438.3,1160.3
					c-36.4,139.2-93.5,287-177.5,441.6c-400.5,736.2-962.4,1208.5-1197.3,1385.3c-52.8,39.7-121.4,49.9-182.6,29.2l-500.6-302.2
					c-38.8-43.7-56.7-103.2-46.4-162.4c8.3-48.1,19.7-107.7,35.2-177.3l375.6,226.7c69.3,41.9,157.1,37.4,221.5-11.1
					c122.7-92.4,334.6-265.2,566.1-514.4c205-11.5,395.3-122.2,503.9-299.7c90.5-147.7,111.7-318.4,73-474.5
					c18.5-31.7,36.6-64,54.4-96.7c84-154.6,141.1-302.4,177.5-441.6c56.9-216.3,64-411.8,46.2-579.2
					C3470.7,394.5,3549.5,737.5,3438.3,1160.3z"/>
			</g>
		</g>
		<g>
			<g>
				
					<linearGradient id="SVGID_00000144325694226799791170000017553127264674026431_" gradientUnits="userSpaceOnUse" x1="2063.4875" y1="3213.6934" x2="2066.6958" y2="2567.4397" gradientTransform="matrix(0.8315 0.5556 -0.5556 0.8315 1434.1335 -778.3741)">
					<stop  offset="0" style="stop-color:#22D3EE"/>
					<stop  offset="1" style="stop-color:#0EA5E9"/>
				</linearGradient>
				<path style="fill:url(#SVGID_00000144325694226799791170000017553127264674026431_);" d="M1812.1,2369.6
					c0,0,85.5,230.2-55.3,457.1s-491.4,370.1-491.4,370.1s-5.7-378.6,147.8-597.1S1812.1,2369.6,1812.1,2369.6z"/>
			</g>
		</g>
		<g class="st11">
			<g>
				<path class="st12" d="M1440.5,2701.5c140.1-199.5,356.6-226.5,393.4-229.7c-7.2-62.5-21.9-102.2-21.9-102.2
					s-245.3,11.6-398.8,230.1s-147.8,597.1-147.8,597.1s12-4.9,32.3-14.3C1308.2,3053.2,1340.7,2843.5,1440.5,2701.5z"/>
			</g>
		</g>
		<g>
			<g>
				<circle class="st14" cx="2460.7" cy="1412.5" r="512.4"/>
			</g>
		</g>
		<g class="st18">
			<g>
				<path class="st15" d="M2069.3,1230c156-236.1,473.9-301,710.1-145c65.2,43.1,117.2,98.5,155.3,161.1
					c-34.9-105.4-104-200.2-203.7-266.2c-236.1-156-554-91.1-710.1,145c-113,171-110,384.7-10.2,549
					C1962.9,1529.9,1979.2,1366.3,2069.3,1230z"/>
			</g>
		</g>
		<path class="st15" d="M2572,1664.2c-58.8,79.4-145.7,86.2-244.2,32l-32.7,45l-90.2-64.6l32.7-45c-92.9-85.9-93.3-170.1-52.6-234.9
			l143.5,103.6c-12.6,28.1-6.5,53.2,20.7,72.4c18.8,13.7,35.7,12.1,45.2-1.5c11.6-15.7,7.4-32.2-31-75.6
			c-105.6-122.9-97.8-190.1-51.1-255.5c46.6-64.6,131-93.5,234.5-39.3l26.5-36.8l90.2,64.6l-26.5,36.8
			c73.6,69.6,93.4,147.7,45.3,222.9l-138.3-99.4c10.9-21.7,13.4-44.7-15-65.7c-16.6-11.7-33-13.4-43.6,1.7
			c-11.7,16.6-0.6,31.6,37.4,77.4C2639.1,1541.7,2612.9,1608.7,2572,1664.2z"/>
		<circle class="st21" cx="2460" cy="1413.8" r="510.9"/>
	</g>
</g>
<g id="Layer_15">
	<g>
		<g>
			<path class="st15" d="M1100.5,1480.7c29.2,2.7,61.8,1.5,96.2-7.1c-30-18.7-60.5-29.8-89.1-36.2c2.7-29.2,1.5-61.6-7.1-95.9
				c-18.7,30.1-29.9,60.7-36.2,89.4c-55.5-4.4-95.8,6.8-95.8,6.8s35.1,23.1,89.4,35.9c-4.4,55.6,6.8,96.1,6.8,96.1
				S1087.7,1534.8,1100.5,1480.7z"/>
		</g>
	</g>
</g>
<g id="Layer_14">
	<g>
		<g>
			<path class="st15" d="M2705.5,2731.6c29.2,2.7,61.8,1.5,96.2-7.1c-30-18.7-60.5-29.8-89.1-36.2c2.7-29.2,1.5-61.6-7.1-95.9
				c-18.7,30.1-29.9,60.7-36.2,89.4c-55.5-4.4-95.8,6.8-95.8,6.8s35.1,23.1,89.4,35.9c-4.4,55.6,6.8,96.1,6.8,96.1
				S2692.7,2785.8,2705.5,2731.6z"/>
		</g>
	</g>
</g>
<g id="Layer_13">
	<g>
		<g>
			<path class="st15" d="M982.1,2608.8c21.7,2.2,45.8,2,71.1-3c-22.5-12.4-45.3-20.1-66.5-24.6c1.5-18.6,0.1-39.5-6.8-61.5
				c-13.4,19-21.2,38.4-25.4,56.7c-41.2-3.7-70.8,2.8-70.8,2.8s26.3,15.4,66.8,24.5c-2.4,35.6,6.6,61.7,6.6,61.7
				S973.5,2643.3,982.1,2608.8z"/>
		</g>
	</g>
</g>
</svg>
