<?xml version="1.0" encoding="utf-8"?>
<!-- Generator: Adobe Illustrator 26.3.1, SVG Export Plug-In . SVG Version: 6.00 Build 0)  -->
<svg version="1.1" xmlns="http://www.w3.org/2000/svg" xmlns:xlink="http://www.w3.org/1999/xlink" x="0px" y="0px"
	 viewBox="0 0 4000 4000" style="enable-background:new 0 0 4000 4000;" xml:space="preserve">
<style type="text/css">
	.st0{fill:url(#SVGID_1_);}
	.st1{opacity:0.5;fill:#0F0023;}
	.st2{opacity:0.8;fill:#070111;}
	.st3{opacity:0.6;fill:#1D1D1B;}
	.st4{opacity:0.5;fill:#13012D;}
	.st5{opacity:0.5;fill-rule:evenodd;clip-rule:evenodd;fill:#020005;}
	.st6{fill:none;stroke:#3F0099;stroke-width:6;stroke-miterlimit:10;}
	.st7{fill:url(#SVGID_00000001645165229684230760000009878113898887319726_);}
	.st8{fill:url(#SVGID_00000013878701226373581330000016478482647354149797_);}
	.st9{fill:#97E9FF;}
	.st10{fill:url(#SVGID_00000170985196831081099670000012640722242714961584_);}
	.st11{opacity:0.3;}
	.st12{fill:#8898A5;}
	.st13{fill:url(#SVGID_00000062880528998876282490000017161373714254558888_);}
	.st14{fill:#D8DEE8;}
	.st15{fill:#FFFFFF;}
	.st16{fill:url(#SVGID_00000175293940501672295350000012327596101347966867_);}
	.st17{opacity:0.4;}
	.st18{opacity:0.6;}
	.st19{fill:url(#SVGID_00000041984687851616652820000011839236259984810880_);}
	.st20{fill:url(#SVGID_00000017502219419108043740000012774234655902240664_);}
	.st21{fill:none;stroke:#BAC5D1;stroke-width:25;stroke-miterlimit:10;}
</style>
<g id="Layer_6">
	<g>
		
			<image style="overflow:visible;opacity:0.8;" width="13090" height="13100" xlink:href="6FCA7A2F43B4760E.png"  transform="matrix(0.24 0 0 0.24 442.32 943.56)">
		</image>
		<g>
			<g>
				
					<linearGradient id="SVGID_1_" gradientUnits="userSpaceOnUse" x1="793.3102" y1="780.4802" x2="2642.4355" y2="2249.4832" gradientTransform="matrix(0.8283 -0.5603 -0.5603 -0.8283 1439.1838 4732.8335)">
					<stop  offset="3.363926e-02" style="stop-color:#4500CA"/>
					<stop  offset="1" style="stop-color:#3B007E"/>
				</linearGradient>
				<path class="st0" d="M2748.8,1592.7c91.2,72.9,172.6,160.2,241.5,262.1c365.8,540.8,225.3,1275.5-314.1,1640.4
					s-1274.1,222.2-1640.2-319.1S811,1901.2,1350.8,1536c371.4-251.2,834.9-262,1206.9-67.9L2748.8,1592.7z"/>
				<path class="st1" d="M1143.4,2522.4l-27.2-40.2l-34-50.3c-13.6-20.1-33.7-6.5-73.7-23.4c-40.5-16.6-13.6-20.1,9.8-50.5
					c23.4-30.4,33.7,6.5,40.5,16.6c6.8,10.1,60.1,3.3,70.2-3.5c10.1-6.8,49.8-33.7,53.3-6.8s10.3,36.9,7.5,96.7
					C1187.4,2510.1,1157.5,2522.7,1143.4,2522.4z"/>
				<path class="st2" d="M2904,2439.9c23.9-16.2,15.9-69.3,9.3-93.5c-5.5-25.6,16.6-40.5,32.9-36.9c16.8,3.3,81.3,120.1,84.8,190.3
					c4.3,70.3-32.6,80.7-52.7,94.3c-20.1,13.6-27.2-40.2-20.4-73.4C2964.9,2486.6,2874.3,2460,2904,2439.9z"/>
				<path class="st3" d="M2008.6,2233.3c53.4-24.2,133.3-46.3,166.9-54.3l59.8-40.5c20.1-13.6,183.8-7.8,237.8,28.8
					c54.1,36.7,79.9-54.1,129.7-87.7c49.8-33.7,45.1,217.2,32.5,284.2c-12.5,67.1,111.4,99.7,134.6,113.4
					c23.6,13.3,3.8,70.6,48.3,157c44,86.7,88.8,216.9,116.3,300.8c22.1,66.7-22.9,166.2-48.4,207.9c-8.9,15.8-42.4,40.5-107.1,13.9
					c-80.2-33-168.3-119.9-205.2-152.8c-37.2-33.4-89.4-304.4-282.5-203.1c-193.1,101.3,21.7,204.3-322.8,189
					c-344.2-14.8-308.5-521-308.9-563.9c-0.3-43.7,69.9-47.3,139-138c55.6-72.5,136.3-106.8,169.4-114.6
					C1959,2203.3,1955.2,2257.5,2008.6,2233.3z"/>
				<path class="st4" d="M1459.8,3461.5c-6.6-24.2-81.1-67.2-117.1-85.4c0.8-27.7,12.4-83.7,51.7-82.4
					c49.1,2.4,108.6-120.9,146.7-134.8c38-13.9,117.3-55.6,141.6-37.2c24.6,18.9,62.8,75.4,95.6,88.8
					c26.2,10.9,49.2,72.7,57.6,102.7c2.6,10.1,4.6,34.6-10.5,54.6c-18.9,24.6,38-13.9,98.3-31c59.8-16.7,82,86.1,125.5,115.3
					c43.5,29.2,182.6,41.1,209.9,46.3c27.3,5.3,27.2,40.2,5.7,43.5c-21.8,2.9-300.1-20.9-392.5,17.9
					c-75.1,31.3-280.5-14.6-374.3-41.9C1488,3509.4,1466.1,3485.2,1459.8,3461.5z"/>
				<path class="st5" d="M2232.3,2048.1c21.7,32.1,11.6,60.5,3.8,70.6l80.2-10.3c-10.1-7.8-20.4-30.2,19.3-57
					c24.9-16.8,74.6,8.2,123.9,32.7c49.7,25,99,49.5,123.9,32.7c49.8-33.7,122.1-184.5,131.9-235c7.7-40.1-52.8-56.4-83.7-59.9
					c6.9,24.6-9.3,67.7-130,44c-150.8-29.1-134.3-69.6-47.3-69.9c69.5-0.3,98.1-27.3,103.6-40.8c8.9-15.8,46-48.5,123.2-54
					c77.7-5.8,228,215.4,293.5,326.7c-34-93.5-127-299.1-223.7-374c-302.5-232.7-496.6-261.9-674.4-287.4
					c-141.6-20.7-417.6,48.8-537.2,86.5c-17.7,31.5-49.8,106.9-38.7,157.3c13.1,59.5,5,69.2-42.6,125.8c-3.2,3.5-6,7.6-9.7,11.4
					c-38.9,46.6-39.8,46.4-62.8,45.3c-10.7-0.4-25.2-1.1-50.3,1.9c-59.7,7.6-101.7,76.5-139,135.9c-12.7,20.4-24.9,40.6-37,55.7
					c-46.2,60.6-55.5,154.1-41.9,174.2c4.9,7.2,4,16.2,2.7,24.7c-1.8,15.9-3.6,29.7,30.9,25.1c35.1-4.9,54.5-23.6,74.5-43.5
					c10.3-10.5,21.6-21.6,35-30.7c39.7-26.9,40.5,16.6,34,50.3s-39.4,70.6-82.4,114.3c-23.2,23.4-15.7,42.7-4.8,70.2
					c9.1,23.8,20.9,53.5,16.2,97.2c-5.4,53.9-6.6,72.8-6.7,77.8c-16.8,11.3-40.2,33.4-6,33.4l0,0c43.3,0,87-0.3,47.3,26.6
					c-17.2,11.7-20.1,33.1-22.7,53c-3.4,26-6.2,49.6-40.4,47.5c-45.4-2.1-44.9,38.8-44.3,91.3c0,17.5,0.4,36.7-1.2,55.9
					c-3.7,49.2,16.8,64,40.8,81.9c13.5,9.7,28.5,20.5,40.5,38.2c17.5,25.8,27.4,17.8,42.2,5.6c13.9-11.5,32-25.9,64.1-19.7
					c61.8,11.9,99.9-84.3,118.5-131.1c1.6-3.9,2.7-7.4,4.1-10.4c16.6-40.5-35.3-224.4-65.4-247.3c-25.8-19.5,10.5-102,32.2-151.5
					c3.8-8.8,7.4-16.9,9.8-22.7c11.8-28.9,44.7-26.7,94.9-23.7c19.7,1.3-25.3,116.2-1.6,116.2c53.4-0.5,120.9-111.1,123.2-99.4
					c1.5,7.4,3.8,19,20.6,35.6c21.6,21.6,20.1,8,17-15c-3.4-23.5-7.8-56.8,9.1-75.2c32.9-36.9-13.9-63.8-80.2-33
					c-66.6,30.4-166.9,11.1-137.2-9l129.7-87.7c49.8-33.7,100.3-23.9,93.8,9.8s120.4,5.8,150.1-14.3c22-14.9-15-36.6-57.6-61.5
					c-15.8-8.9-32.2-18.7-46.5-28.5c-37.5-25.5,6.3-35,43.3-43.2c15.7-3.6,30.4-6.6,36.6-10.8c20.1-13.6,43.7-0.3,34,50.3
					c-9.8,50.5,120.4,5.8,150.1-14.3l119.6-80.9C2185,1978.3,2205.4,2008.4,2232.3,2048.1z M1874.5,2013.2
					c25.7-12.5,79.2-41.7,90-60.9c10.3-18.8,77.9-28.2,110.4-30.7c15.7-5.7,42-19.4,23.4-30.4c-23.6-13.3-130.7-42.7-163.7-5.8
					C1900.7,1923,1857.7,2010,1874.5,2013.2z"/>
				<path class="st6" d="M1474.7,3005"/>
			</g>
		</g>
	</g>
</g>
<g id="Layer_7">
	<g>
		<g>
			<g>
				
					<linearGradient id="SVGID_00000112628655882190874750000005444859194086068913_" gradientUnits="userSpaceOnUse" x1="2078.0759" y1="3402.8577" x2="2065.176" y2="3921.1982" gradientTransform="matrix(1 -5.679054e-03 5.679054e-03 1 -51.125 -29.8749)">
					<stop  offset="0" style="stop-color:#22D3EE"/>
					<stop  offset="1" style="stop-color:#0EA5E9"/>
				</linearGradient>
				<path style="fill:url(#SVGID_00000112628655882190874750000005444859194086068913_);" d="M2052,3233.7
					c0,0,256.5,61.8,250.2,303.9c-6.3,242.1-255.6,321.4-254.3,442.4c-1.3-121-252.2-194.9-263.8-436.8s243.6-309.2,243.6-309.2"/>
			</g>
		</g>
		<g>
			<g>
				
					<linearGradient id="SVGID_00000026868286975227065750000009936594708141622165_" gradientUnits="userSpaceOnUse" x1="2073.8245" y1="3437.1355" x2="2072.0767" y2="4446.312" gradientTransform="matrix(1 -5.679054e-03 5.679054e-03 1 -51.125 -29.8749)">
					<stop  offset="0" style="stop-color:#36E0F2"/>
					<stop  offset="1" style="stop-color:#0EA5E9"/>
				</linearGradient>
				<path style="fill:url(#SVGID_00000026868286975227065750000009936594708141622165_);" d="M2040.4,3290.7
					c-42.2,15-159.2,68.5-153,199.5c4.7,99.2,67.9,159.7,134.8,223.7c7.7,7.4,15.4,14.8,23.1,22.2c7.5-7.6,15-15.2,22.6-22.7
					c65.5-65.5,127.4-127.3,129.9-226.6C2201.2,3356.1,2083.6,3305,2040.4,3290.7z"/>
			</g>
		</g>
		<g>
			<path class="st9" d="M2040.7,3313c-23.2,8.2-87.6,37.7-84.2,109.8c2.6,54.6,37.4,87.9,74.2,123.1c4.2,4.1,8.5,8.1,12.7,12.2
				c4.1-4.2,8.3-8.4,12.4-12.5c36-36,70.1-70,71.5-124.7C2129.1,3349,2064.5,3320.9,2040.7,3313z"/>
		</g>
	</g>
</g>
<g id="Layer_16">
	<g>
		<g>
			
				<linearGradient id="SVGID_00000181049104252289776030000006329702338703266998_" gradientUnits="userSpaceOnUse" x1="1496.7129" y1="2933.1714" x2="1250.1472" y2="2510.5981" gradientTransform="matrix(1 -5.679054e-03 5.679054e-03 1 -51.125 -29.8749)">
				<stop  offset="0" style="stop-color:#22D3EE"/>
				<stop  offset="1" style="stop-color:#0EA5E9"/>
			</linearGradient>
			<path style="fill:url(#SVGID_00000181049104252289776030000006329702338703266998_);" d="M1465,2361.2c0,0-681.1,275.3-81.9,856
				c0,0-80.2-389,242.4-484.5L1465,2361.2z"/>
		</g>
	</g>
	<g class="st11">
		<g>
			<path class="st12" d="M1495,2430.7l-30.1-69.6c0,0-681.1,275.3-81.9,856c0,0-0.3-1.6-0.8-4.5
				C954.1,2743.9,1377.6,2489.1,1495,2430.7z"/>
		</g>
	</g>
	<g>
		<g>
			
				<linearGradient id="SVGID_00000021081994388011109370000000866330752659391395_" gradientUnits="userSpaceOnUse" x1="2692.3835" y1="2982.3604" x2="2740.0198" y2="2495.0718" gradientTransform="matrix(1 -5.679054e-03 5.679054e-03 1 -51.125 -29.8749)">
				<stop  offset="0" style="stop-color:#22D3EE"/>
				<stop  offset="1" style="stop-color:#0EA5E9"/>
			</linearGradient>
			<path style="fill:url(#SVGID_00000021081994388011109370000000866330752659391395_);" d="M2583,2349.1c0,0,686.9,260.5,100.4,854
				c0,0,71.8-390.6-252.8-479.2L2583,2349.1z"/>
		</g>
	</g>
	<g class="st11">
		<g>
			<path class="st14" d="M2687.5,3171c9-95.1,11.1-374-256.9-447.1l106.6-262.2C2674.8,2533.7,3001.7,2759.9,2687.5,3171z"/>
		</g>
	</g>
	<g>
		<g>
			<path class="st15" d="M2498.8,2725.6c-24.4,63.9-85.3,106.5-153.9,107.2l-631.6,6.8c-68.5,0.7-130.3-40.5-156-103.9
				c-94.1-231.2-297.5-820.5-269-1533.6c6-149.7,28.7-282.8,62.7-400.6c128.7-447.6,418.4-675.7,562.5-765
				c52.2-32.3,118.1-33,170.9-1.8c146.2,86.2,440.7,307.9,578.9,752.6c36.5,117.1,62,249.7,71.3,399.2
				C2778.5,1898.9,2587.9,2492.4,2498.8,2725.6z"/>
		</g>
	</g>
	<g>
		<g>
			
				<linearGradient id="SVGID_00000000193348217488352800000011113893404510566301_" gradientUnits="userSpaceOnUse" x1="1919.8639" y1="1194.9774" x2="2372.4507" y2="-36.9162" gradientTransform="matrix(1 -5.679054e-03 5.679054e-03 1 -51.125 -29.8749)">
				<stop  offset="0.3296" style="stop-color:#22D3EE"/>
				<stop  offset="0.8693" style="stop-color:#0EA5E9"/>
			</linearGradient>
			<path style="fill:url(#SVGID_00000000193348217488352800000011113893404510566301_);" d="M2663.3,787.3
				c-736.1-399.6-1312.3,14.3-1312.3,14.3c128.7-447.6,418.4-675.7,562.5-765c52.2-32.3,118.1-33,170.9-1.8
				C2230.5,120.9,2525,342.6,2663.3,787.3z"/>
		</g>
	</g>
	<g class="st17">
		<g>
			<path class="st15" d="M2067.9,26.3c-12.5,4-24.5,9.5-35.9,16.5c-144.2,89.3-433.9,317.3-562.6,765
				c-34,117.9-56.5,250.9-62.6,400.6c-23.7,594.5,113.6,1102.9,214.5,1389.5c20.2,57.3,38.9,105.6,54.5,144.1
				c19.3,47.5,58.9,82.5,106.4,96.8l-45.1,0.5l-23.7,0.2c-68.5,0.7-130.3-40.5-156.1-103.9c-94.1-231.2-297.5-820.5-269.1-1533.6
				c6.1-149.7,28.7-282.8,62.7-400.6c128.7-447.6,418.4-675.7,562.5-765C1960.3,7.5,2018.3,4,2067.9,26.3z"/>
		</g>
	</g>
	<g class="st18">
		<g>
			
				<linearGradient id="SVGID_00000132807518149096589370000001477711971130926469_" gradientUnits="userSpaceOnUse" x1="2064.0669" y1="2085.5334" x2="3143.0181" y2="910.5559" gradientTransform="matrix(0.9102 -0.4143 0.4143 0.9102 -670.3009 1000.8651)">
				<stop  offset="0" style="stop-color:#000000;stop-opacity:0"/>
				<stop  offset="1" style="stop-color:#DDDDDD;stop-opacity:0.5"/>
			</linearGradient>
			<path style="fill:url(#SVGID_00000132807518149096589370000001477711971130926469_);" d="M2601.3,705.6
				c41.3,117,71.9,250.2,86.6,401.2c69.6,719.4-103.5,1328.2-185.9,1568c-18.6,53.9-62.6,94.3-116.3,109.1l-503.6,26.1
				c-48.8-12.5-90.3-46.3-111.7-93.6c-17.3-38.4-38-86.5-60.5-143.6l377.8-19.6c69.8-3.6,130.3-49.2,152.9-115
				c43-125.3,110.9-351.2,155.8-640.9c140.8-107.3,223.3-278.2,215.1-457.5c-6.7-149.2-74-281.4-177.1-374.2
				c-2.1-31.6-4.8-63.4-7.9-95.4c-14.7-151-45.3-284.2-86.6-401.2c-63.9-182-153.2-325-246.9-436
				C2254.4,143,2476.4,349.8,2601.3,705.6z"/>
		</g>
	</g>
	<g>
		<g>
			
				<linearGradient id="SVGID_00000078023125877379895570000007073928276806151599_" gradientUnits="userSpaceOnUse" x1="2061.7725" y1="3092.0481" x2="2064.5391" y2="2534.7437" gradientTransform="matrix(1 -5.679054e-03 5.679054e-03 1 -51.125 -29.8749)">
				<stop  offset="0" style="stop-color:#22D3EE"/>
				<stop  offset="1" style="stop-color:#0EA5E9"/>
			</linearGradient>
			<path style="fill:url(#SVGID_00000078023125877379895570000007073928276806151599_);" d="M2024,2355.1
				c0,0,172.3,123.1,181.4,353.2c9.1,230.1-172.1,501.8-172.1,501.8s-187-267.7-182.9-497.9S2024,2355.1,2024,2355.1z"/>
		</g>
	</g>
	<g class="st11">
		<g>
			<path class="st12" d="M1919,2771.7c3.7-210.2,145.3-334.1,170-354.1c-35.3-41.2-65-62.4-65-62.4s-169.6,126.8-173.7,357.1
				s182.9,497.9,182.9,497.9s6.2-9.3,16.2-25.8C1994.4,3086.9,1916.3,2921.4,1919,2771.7z"/>
		</g>
	</g>
	<g>
		<g>
			<circle class="st14" cx="2024.8" cy="1358.1" r="441.9"/>
		</g>
	</g>
	<g class="st18">
		<g>
			<path class="st15" d="M1657.1,1416.8c-2.6-244,193.1-444,437.1-446.7c67.4-0.7,131.3,13.7,188.7,40
				c-75.8-58.4-171-92.8-274.1-91.7c-244,2.6-439.7,202.6-437.1,446.7c1.9,176.7,107.3,328,257.9,397.1
				C1726,1682.4,1658.6,1557.7,1657.1,1416.8z"/>
		</g>
	</g>
	<path class="st15" d="M2226,1484.1c-3.6,85.2-62.4,132-159,140.9l-1.6,48l-95.7-2.6l1.6-48c-107.8-16.5-148.9-76.4-151-142.4
		l152.5,4.7c4.6,26.2,21.1,41.1,49.7,41.7c20,0.7,31.3-8.6,31.6-22.9c0.7-16.8-10.3-26.6-58.7-39c-134.8-36.7-161.7-88.5-160-157.8
		c2-68.7,48.4-130.1,148.5-141.4l1.1-39.1l95.7,2.6l-1.1,39.1c86.2,14.2,138.1,60.4,140,137.3l-146.8-4.2
		c-2.7-20.8-12-38.4-42.5-39.7c-17.5-0.4-30,6.4-30.4,22.3c-0.4,17.5,14.8,22.9,64.1,37.2C2214.7,1364.2,2228.4,1424.7,2226,1484.1z
		"/>
	<circle class="st21" cx="2024.9" cy="1359.4" r="440.6"/>
</g>
<g id="Layer_15">
	<g>
		<g>
			<path class="st15" d="M1086.2,2064c22.2-12.2,44.9-28.8,65.3-51.5c-30.4,1.1-57.6,7.9-81.1,17.2c-12.2-22.1-28.7-44.7-51.4-65
				c1.1,30.5,8,57.8,17.3,81.4c-41.7,23.7-65.1,51.1-65.1,51.1s36.2-0.4,81.2-17.5c23.7,41.9,51.3,65.4,51.3,65.4
				S1103.2,2108.9,1086.2,2064z"/>
		</g>
	</g>
</g>
<g id="Layer_14">
	<g>
		<g>
			<path class="st15" d="M2837.1,2182c22.2-12.2,44.9-28.8,65.3-51.5c-30.4,1.1-57.6,7.9-81.1,17.2c-12.2-22.1-28.7-44.7-51.4-65
				c1.1,30.5,8,57.8,17.3,81.4c-41.7,23.7-65.1,51.1-65.1,51.1s36.2-0.4,81.2-17.5c23.7,41.9,51.3,65.4,51.3,65.4
				S2854.1,2226.9,2837.1,2182z"/>
		</g>
	</g>
</g>
<g id="Layer_13">
	<g>
		<g>
			<path class="st15" d="M1546.8,2906c16.6-8.9,33.7-20.7,49.4-36.5c-22.1,2-42,7.5-59.4,14.6c-7.9-14.1-19-28.2-34.6-40.7
				c-0.4,20,3.4,37.7,9.2,52.8c-31.2,17.2-49.2,36.2-49.2,36.2s26.2-1.8,59.5-14.8c15.5,26.6,34.5,40.9,34.5,40.9
				S1557.2,2934.8,1546.8,2906z"/>
		</g>
	</g>
</g>
</svg>
