<?xml version="1.0" encoding="utf-8"?>
<!-- Generator: Adobe Illustrator 26.3.1, SVG Export Plug-In . SVG Version: 6.00 Build 0)  -->
<svg version="1.1" id="Layer_1" xmlns="http://www.w3.org/2000/svg" xmlns:xlink="http://www.w3.org/1999/xlink" x="0px" y="0px"
	 viewBox="0 0 484.5 484.5" style="enable-background:new 0 0 484.5 484.5;" xml:space="preserve">
<style type="text/css">
	.st0{fill:#6D28D9;}
</style>
<g id="Layer_6">
	<path class="st0" d="M436,212.7v44.4c-14.3,8.5-30.9,13.3-48.5,13.3c-30.5,0-54.7-16.3-72.4-38.7c-17.5,22.5-41.9,38.7-72.4,38.7
		c-31,0-55.2-16.7-72.8-39c-18.2,22.3-41.9,39-72.9,39c-17.5,0-34-4.8-48.2-13.1v-44.6c0-13.3,11-24.3,24.4-24.3h338.5
		C425,188.4,436,199.4,436,212.7z"/>
	<path class="st0" d="M387.5,295.4c-30.5,0-54.7-16.3-72.4-38.7c-17.5,22.5-41.9,38.7-72.4,38.7c-31,0-55.2-16.7-72.8-39
		c-18.2,22.3-41.9,39-72.9,39c-17.5,0-34-4.8-48.2-13.1v124.3c0,40,32.9,72.4,72.4,72.4h242.4c40.1,0,72.4-32.4,72.4-72.4V282.1
		C421.7,290.5,405.1,295.4,387.5,295.4z M302.7,441.2c0,10.6-8.7,19.7-19.7,19.7h-80.5c-11.1,0-20.1-8.7-20.1-19.7v-60.4
		c0.4-33.1,27.2-59.9,60.3-59.9c33.1,0,60,26.8,60,59.9V441.2z"/>
</g>
<g id="Layer_1_00000104702317073905135740000002695775889052103300_">
</g>
<g>
	<g id="Layer_5">
		<path class="st0" d="M484.2,181.7c0,5.3-0.5,10.5-1.3,15.6c-4.8,28.7-22.5,53.4-46.9,67.7c-14.3,8.5-30.9,13.3-48.5,13.3
			c-30.5,0-54.7-16.3-72.4-38.7c-17.5,22.5-41.9,38.7-72.4,38.7c-31,0-55.2-16.7-72.8-39c-18.2,22.3-41.9,39-72.9,39
			c-17.5,0-34-4.8-48.2-13.1C24.2,250.9,6.4,226,1.6,196.8c-0.9-5.1-1.3-10.3-1.3-15.6c0-29,55.2-120,55.2-120C71.7,26,107,3,146,3
			h197.6c36.7,0,69.7,21.5,84.4,54.8C428,57.8,484.2,153,484.2,181.7z"/>
	</g>
	<g id="Layer_5_00000031915309839450905570000016436010238875049857_">
		<path class="st0" d="M482.9,197.3c-4.8,28.7-22.5,53.4-46.9,67.7c-14.3,8.5-30.9,13.3-48.5,13.3c-30.5,0-54.7-16.3-72.4-38.7
			c-17.5,22.5-41.9,38.7-72.4,38.7c-31,0-55.2-16.7-72.8-39c-18.2,22.3-41.9,39-72.9,39c-17.5,0-34-4.8-48.2-13.1
			C24.2,250.9,6.4,226,1.6,196.8C9.9,161.4,55.5,86.2,55.5,86.2C71.7,51,107,28,146,28h197.6c36.7,0,69.7,21.5,84.4,54.8
			C428,82.8,474.5,161.5,482.9,197.3z"/>
	</g>
</g>
</svg>
