<?xml version="1.0" encoding="utf-8"?>
<!-- Generator: Adobe Illustrator 26.3.1, SVG Export Plug-In . SVG Version: 6.00 Build 0)  -->
<svg version="1.1" id="Layer_1" xmlns="http://www.w3.org/2000/svg" xmlns:xlink="http://www.w3.org/1999/xlink" x="0px" y="0px"
	 viewBox="0 0 750 500" style="enable-background:new 0 0 750 500;" xml:space="preserve">
<style type="text/css">
	.st0{fill:url(#SVGID_1_);}
	.st1{fill:url(#SVGID_00000056404081295631914710000014698046062922736827_);}
	.st2{fill:url(#SVGID_00000114036469947088892580000002834852379605451442_);}
	.st3{fill:url(#SVGID_00000086661071717581473050000014739483205522418572_);}
	.st4{fill:url(#SVGID_00000140735150078250797260000007278455313046463400_);}
	.st5{fill:url(#SVGID_00000062159260233645427300000007330180156047732866_);}
	.st6{fill:url(#SVGID_00000113340104240929772360000007781419895216129439_);}
	.st7{fill:url(#SVGID_00000031197442699860410580000007609101206073058224_);}
	.st8{fill:url(#SVGID_00000080913280475061423520000016022673670905725613_);}
	.st9{fill:url(#SVGID_00000076566496864362059830000009760415453694380423_);}
	.st10{fill:url(#SVGID_00000025433083755405210480000016586882980975327636_);}
	.st11{fill:url(#SVGID_00000077316023649427341830000014916605338659010232_);}
	.st12{fill:url(#SVGID_00000050645514740076602390000003407158395184201357_);}
	.st13{fill:url(#SVGID_00000089543528696784915220000014735883734427141278_);}
	.st14{fill:url(#SVGID_00000107569539474589745840000001864372331125192081_);}
	.st15{fill:url(#SVGID_00000127029830696401154500000010155019139198442373_);}
	.st16{fill:url(#SVGID_00000067947719783640280710000015700350695402258876_);}
	.st17{fill:url(#SVGID_00000000932305277598694390000011015157720029881242_);}
	.st18{fill:url(#SVGID_00000036950554160799318640000014611593475556684219_);}
	.st19{fill:url(#SVGID_00000183246410998306970050000011106201535496798336_);}
	.st20{fill:url(#SVGID_00000130632824604537496970000014946164256663415444_);}
	.st21{fill:#808080;}
	
		.st22{clip-path:url(#SVGID_00000157277881827226732700000007582782275832233637_);fill:url(#SVGID_00000032638077158813531530000007792014391671777447_);}
	.st23{fill:url(#SVGID_00000127045076514246022540000014211494256563775383_);}
	.st24{fill:url(#SVGID_00000129925225174366549440000012404616274551295908_);}
	.st25{fill:url(#SVGID_00000004507503753011573770000012448157606045798839_);}
	.st26{fill:url(#SVGID_00000071522851072621207800000008011288506053006720_);}
	.st27{fill:url(#SVGID_00000046341687145519384600000017822682234430507652_);}
	
		.st28{clip-path:url(#SVGID_00000176024811083576956320000018068756490284010429_);fill:url(#SVGID_00000163751853274492484720000017455638237810102148_);}
	.st29{fill:url(#SVGID_00000102521224027558177120000016888894099439541397_);}
	.st30{fill:url(#SVGID_00000072243237082884129770000010585516631658532759_);}
	.st31{fill:url(#SVGID_00000044178878085405306490000008399364721285466529_);}
	.st32{fill:url(#SVGID_00000095325601654795074490000000060174383389112460_);}
	.st33{fill:url(#SVGID_00000038406866995526925440000017293835246028451766_);}
	.st34{fill:url(#SVGID_00000057863483098991280150000001763877707131180935_);}
	.st35{fill:url(#SVGID_00000106127500886650717590000016718326013864297644_);}
	.st36{fill:url(#SVGID_00000132800981191560463020000014218008828935268023_);}
	.st37{fill:url(#SVGID_00000119112099243276693640000000568023384094050484_);}
	.st38{fill:#92C0E0;}
	.st39{fill:url(#SVGID_00000177462632336208087170000000386605899172842153_);}
	.st40{fill:url(#SVGID_00000045589537178583535180000008975475033880567430_);}
	.st41{fill:url(#SVGID_00000011005995156088671430000003318173823223792824_);}
	.st42{fill:#57409A;}
	.st43{fill:#E6F8FF;}
	.st44{fill:#FFFFFF;}
	.st45{enable-background:new    ;}
	.st46{fill:url(#SVGID_00000160192294757717595810000001645657905370710411_);}
	.st47{fill:url(#SVGID_00000153674854000237461040000016613192542319906484_);}
	.st48{fill:url(#SVGID_00000147907491686231290510000009947532337556431275_);}
	.st49{fill:url(#SVGID_00000046330546410938601230000006945091997400396692_);}
	.st50{fill:url(#SVGID_00000022531345885350727060000005671632885685896127_);}
	.st51{fill:url(#SVGID_00000069378994997017169690000005372720725208314246_);}
	.st52{opacity:0.7;fill:url(#SVGID_00000141446017259381716270000006918764856633515395_);enable-background:new    ;}
	.st53{fill:url(#SVGID_00000160165730858305818940000000982673149500880514_);}
	.st54{fill:url(#SVGID_00000046333646948914866300000009692673925614571934_);}
	.st55{fill:url(#SVGID_00000137121027715843023750000015904416945609954997_);}
	.st56{fill:url(#SVGID_00000040561449145456957680000018234412147909879458_);}
	.st57{fill:url(#SVGID_00000071531562721690800430000004827530177477500807_);}
	.st58{opacity:0.7;fill:url(#SVGID_00000179632879351645433430000006780697312398772866_);enable-background:new    ;}
	.st59{fill:url(#SVGID_00000097471829692553394420000004402372817810318526_);}
</style>
<g id="BACKGROUND">
	<g>
		
			<radialGradient id="SVGID_1_" cx="-113.7402" cy="333.8752" r="65.7405" gradientTransform="matrix(0.9942 8.521416e-02 8.521416e-02 -0.9942 337.3963 393.8447)" gradientUnits="userSpaceOnUse">
			<stop  offset="0.1302" style="stop-color:#F6D246"/>
			<stop  offset="0.7958" style="stop-color:#F6D246"/>
			<stop  offset="0.8141" style="stop-color:#F2BE39"/>
			<stop  offset="0.8298" style="stop-color:#EFAC2D"/>
			<stop  offset="0.8303" style="stop-color:#EFAB2D"/>
			<stop  offset="0.8423" style="stop-color:#E79A28"/>
			<stop  offset="0.8571" style="stop-color:#E18E25"/>
			<stop  offset="0.8774" style="stop-color:#DE8724"/>
			<stop  offset="0.9291" style="stop-color:#DD8523"/>
			<stop  offset="0.9999" style="stop-color:#EFAC2D"/>
		</radialGradient>
		<path class="st0" d="M306.3,29.7c17.1,21.1,12.1,48.3-5.1,66c-7.8,8-18.5,13.5-30.3,13.5c-4.5,0-9.1-0.8-13.4-2.4
			c-4.5-1.7-7.1-1.9-11.1-4.5c-4.1-2.6-9.4-7-12.1-11.3c-1.6-2.4-2.9-5-3.9-7.7c-2-5.3-3-10.9-3-16.5c0-11.6,3.8-22.7,9.8-32
			c2.1-3.3,4.6-6.4,7.3-9.1c10.4-10.6,20.9-17.7,34.2-14.6C287.5,13.1,299.5,21.3,306.3,29.7z"/>
		
			<radialGradient id="SVGID_00000158021641636654294040000008978940918707304082_" cx="263.0645" cy="445.4785" r="55.2314" gradientTransform="matrix(0.9978 0 0 -0.9978 0.788 500.4446)" gradientUnits="userSpaceOnUse">
			<stop  offset="0.5465" style="stop-color:#EFAC2D"/>
			<stop  offset="0.7222" style="stop-color:#F8D54E"/>
			<stop  offset="0.9683" style="stop-color:#FFFDA6"/>
		</radialGradient>
		<path style="fill:url(#SVGID_00000158021641636654294040000008978940918707304082_);" d="M305.4,45.2
			c4.3,27.5-11.7,49.8-33.2,57.4c-21.5,7.6-42.8-4-47-31.4c-4.3-27.5,11.4-52.2,32.9-59.8C279.6,3.7,301.1,17.7,305.4,45.2z"/>
		
			<linearGradient id="SVGID_00000048463382504161375080000017935614920330985894_" gradientUnits="userSpaceOnUse" x1="-169.7596" y1="425.5181" x2="-117.1443" y2="384.6677" gradientTransform="matrix(0.9974 0.1484 9.910000e-02 -0.9587 364.1428 464.6243)">
			<stop  offset="0.1276" style="stop-color:#DD8523"/>
			<stop  offset="0.2604" style="stop-color:#E79A28"/>
			<stop  offset="0.3919" style="stop-color:#EDA72C"/>
			<stop  offset="0.5109" style="stop-color:#EFAC2D"/>
			<stop  offset="1" style="stop-color:#F8D54E"/>
		</linearGradient>
		<path style="fill:url(#SVGID_00000048463382504161375080000017935614920330985894_);" d="M266.8,90.7C257.3,94,248,93,241.3,88
			c-5.5-4.1-9-10.6-10.3-19.2c-3.4-23,11.7-41.7,27.7-47.5l0.4-0.2c8.7-3.1,17.6-1.9,24.4,3.2c6.2,4.6,10.2,12,11.6,21.2
			c3.4,22.7-12.1,39.2-27.9,45L266.8,90.7z"/>
		
			<radialGradient id="SVGID_00000142151217771475733100000004245269488373828030_" cx="816.2448" cy="-1212.2845" r="55.6148" gradientTransform="matrix(0.7731 -0.2854 -0.2237 -0.8331 -635.0021 -716.94)" gradientUnits="userSpaceOnUse">
			<stop  offset="0" style="stop-color:#F8D54E"/>
			<stop  offset="0.2958" style="stop-color:#F7D04A"/>
			<stop  offset="0.6636" style="stop-color:#F3C03D"/>
			<stop  offset="1" style="stop-color:#EFAC2D"/>
		</radialGradient>
		<path style="fill:url(#SVGID_00000142151217771475733100000004245269488373828030_);" d="M268.1,90.3c-8.9,3.2-17.6,2.2-23.9-2.6
			c-5-3.8-8.2-9.9-9.5-18c-3.5-22.3,10.8-40.4,26-46l0.4-0.2c8.1-2.9,16.5-1.8,22.8,3.1c5.7,4.4,9.5,11.3,10.8,20.2
			c3.4,21.9-11.2,37.8-26.2,43.3L268.1,90.3z"/>
		
			<linearGradient id="SVGID_00000131358730480958132430000010178914545314900900_" gradientUnits="userSpaceOnUse" x1="454.5257" y1="431.8962" x2="467.6277" y2="382.3747" gradientTransform="matrix(0.9981 -6.240000e-02 -6.240000e-02 -0.9981 -158.568 488.4577)">
			<stop  offset="0" style="stop-color:#F8D54E"/>
			<stop  offset="0.1466" style="stop-color:#E7B235"/>
			<stop  offset="0.3115" style="stop-color:#D8911E"/>
			<stop  offset="0.4702" style="stop-color:#CD7A0D"/>
			<stop  offset="0.6185" style="stop-color:#C66C03"/>
			<stop  offset="0.746" style="stop-color:#C46700"/>
			<stop  offset="1" style="stop-color:#DD8523"/>
		</linearGradient>
		<polygon style="fill:url(#SVGID_00000131358730480958132430000010178914545314900900_);" points="271.3,31.1 269.5,30 268.5,37.5 
			270.2,38.7 		"/>
		
			<linearGradient id="SVGID_00000039821023285757655540000014753645464553162922_" gradientUnits="userSpaceOnUse" x1="443.5162" y1="428.9836" x2="456.618" y2="379.463" gradientTransform="matrix(0.9981 -6.240000e-02 -6.240000e-02 -0.9981 -158.568 488.4577)">
			<stop  offset="0" style="stop-color:#F8D54E"/>
			<stop  offset="0.1466" style="stop-color:#E7B235"/>
			<stop  offset="0.3115" style="stop-color:#D8911E"/>
			<stop  offset="0.4702" style="stop-color:#CD7A0D"/>
			<stop  offset="0.6185" style="stop-color:#C66C03"/>
			<stop  offset="0.746" style="stop-color:#C46700"/>
			<stop  offset="1" style="stop-color:#DD8523"/>
		</linearGradient>
		<path style="fill:url(#SVGID_00000039821023285757655540000014753645464553162922_);" d="M257.5,49.5c0.1,2.1,1.6,2.9,3.2,3.9
			c-0.2-0.1-0.4-0.3-0.6-0.5c-1.5-1.7-0.9-4.7,0.3-6.3c1.2-1.8,3.3-3,5.5-3.5c0.1,0,0.2,0,0.3-0.1c0.1,0,0.1,0,0.2,0
			c-0.7-0.5-1.4-1.1-2.2-1c-1.7,0.1-3.7,1.3-4.9,2.5C258.1,45.9,257.4,47.7,257.5,49.5z"/>
		
			<linearGradient id="SVGID_00000142176282552249372950000016959416097528816817_" gradientUnits="userSpaceOnUse" x1="437.5255" y1="427.4008" x2="450.6284" y2="377.8759" gradientTransform="matrix(0.9981 -6.240000e-02 -6.240000e-02 -0.9981 -158.568 488.4577)">
			<stop  offset="0" style="stop-color:#F8D54E"/>
			<stop  offset="0.1466" style="stop-color:#E7B235"/>
			<stop  offset="0.3115" style="stop-color:#D8911E"/>
			<stop  offset="0.4702" style="stop-color:#CD7A0D"/>
			<stop  offset="0.6185" style="stop-color:#C66C03"/>
			<stop  offset="0.746" style="stop-color:#C46700"/>
			<stop  offset="1" style="stop-color:#DD8523"/>
		</linearGradient>
		<path style="fill:url(#SVGID_00000142176282552249372950000016959416097528816817_);" d="M260.6,58.9c0.5,0.1,1,0.2,1.7,0.3
			c0.3,0,0.7,0.1,0.9,0.1c0.3,0,0.6,0.1,0.8,0.1l0,0l0,0l-1.8-1.1c-0.5-0.1-1.1-0.1-1.7-0.2c-0.7-0.1-1.3-0.2-1.7-0.3
			c-1.8-0.3-3.3-0.8-4.4-1.5l1.8,1.1C257.3,58.1,258.7,58.6,260.6,58.9z"/>
		
			<linearGradient id="SVGID_00000150804866913432598450000017005469794248150941_" gradientUnits="userSpaceOnUse" x1="453.8002" y1="431.7043" x2="466.9022" y2="382.1831" gradientTransform="matrix(0.9981 -6.240000e-02 -6.240000e-02 -0.9981 -158.568 488.4577)">
			<stop  offset="0" style="stop-color:#F8D54E"/>
			<stop  offset="0.1466" style="stop-color:#E7B235"/>
			<stop  offset="0.3115" style="stop-color:#D8911E"/>
			<stop  offset="0.4702" style="stop-color:#CD7A0D"/>
			<stop  offset="0.6185" style="stop-color:#C66C03"/>
			<stop  offset="0.746" style="stop-color:#C46700"/>
			<stop  offset="1" style="stop-color:#DD8523"/>
		</linearGradient>
		<path style="fill:url(#SVGID_00000150804866913432598450000017005469794248150941_);" d="M278.4,38.6l-0.8,5.5h-0.4
			c-1.3-0.8-2.7-1.4-4.2-1.9s-3.2-0.7-5.1-0.7l-1.7,12l1.8,1.1l1.7-12c1.9,0,3.6,0.2,5.1,0.7s2.9,1.1,4.2,1.9l0,0l0,0h0.4l0.8-5.5
			L278.4,38.6z"/>
		
			<linearGradient id="SVGID_00000130611823039414469560000006877468980434485688_" gradientUnits="userSpaceOnUse" x1="428.669" y1="425.0599" x2="441.7723" y2="375.5339" gradientTransform="matrix(0.9981 -6.240000e-02 -6.240000e-02 -0.9981 -158.568 488.4577)">
			<stop  offset="0" style="stop-color:#F8D54E"/>
			<stop  offset="0.1466" style="stop-color:#E7B235"/>
			<stop  offset="0.3115" style="stop-color:#D8911E"/>
			<stop  offset="0.4702" style="stop-color:#CD7A0D"/>
			<stop  offset="0.6185" style="stop-color:#C66C03"/>
			<stop  offset="0.746" style="stop-color:#C46700"/>
			<stop  offset="1" style="stop-color:#DD8523"/>
		</linearGradient>
		<path style="fill:url(#SVGID_00000130611823039414469560000006877468980434485688_);" d="M261.8,75.6L261.8,75.6L261.8,75.6
			l-1.8-1.1c-2.1,0.2-4.2,0.2-6.3-0.1c-2.1-0.2-3.9-0.6-5.4-1.2l1.8,1.1c1.5,0.6,3.3,1,5.4,1.2c1.6,0.2,3.1,0.2,4.7,0.2
			C260.7,75.7,261.2,75.7,261.8,75.6z"/>
		
			<linearGradient id="SVGID_00000073693201585178991430000008418019492222663855_" gradientUnits="userSpaceOnUse" x1="443.0806" y1="428.8683" x2="456.1826" y2="379.347" gradientTransform="matrix(0.9981 -6.240000e-02 -6.240000e-02 -0.9981 -158.568 488.4577)">
			<stop  offset="0" style="stop-color:#F8D54E"/>
			<stop  offset="0.1466" style="stop-color:#E7B235"/>
			<stop  offset="0.3115" style="stop-color:#D8911E"/>
			<stop  offset="0.4702" style="stop-color:#CD7A0D"/>
			<stop  offset="0.6185" style="stop-color:#C66C03"/>
			<stop  offset="0.746" style="stop-color:#C46700"/>
			<stop  offset="1" style="stop-color:#DD8523"/>
		</linearGradient>
		<path style="fill:url(#SVGID_00000073693201585178991430000008418019492222663855_);" d="M264,69.9l1.8,1.1l1.6-11.6
			c1.8,0.2,3.1,0.6,4,1.1l-1.8-1.1c-0.9-0.6-2.2-0.9-4-1.1L264,69.9z"/>
		
			<linearGradient id="SVGID_00000014627251223401265570000011544179221767859608_" gradientUnits="userSpaceOnUse" x1="441.5621" y1="428.4656" x2="454.6638" y2="378.9455" gradientTransform="matrix(0.9981 -6.240000e-02 -6.240000e-02 -0.9981 -158.568 488.4577)">
			<stop  offset="0" style="stop-color:#F8D54E"/>
			<stop  offset="0.1466" style="stop-color:#E7B235"/>
			<stop  offset="0.3115" style="stop-color:#D8911E"/>
			<stop  offset="0.4702" style="stop-color:#CD7A0D"/>
			<stop  offset="0.6185" style="stop-color:#C66C03"/>
			<stop  offset="0.746" style="stop-color:#C46700"/>
			<stop  offset="1" style="stop-color:#DD8523"/>
		</linearGradient>
		<path style="fill:url(#SVGID_00000014627251223401265570000011544179221767859608_);" d="M278.3,60.7c-0.4-2.5-2.3-3.9-4.3-5.2
			c1.8,1,2.6,3.1,2.6,5.2c0,3.1-1.5,6.1-3.8,8.3c-2.5,2.4-5.8,4.1-9.1,4.8c-0.1,0-0.2,0.1-0.3,0.1L262,84.1l-3.4,0.3l1.8,1.1
			l3.4-0.3l1.4-10.1c3.3-0.7,6.7-2.3,9.2-4.6c2.4-2.2,4.1-5.3,4.1-8.6C278.4,61.5,278.4,61.1,278.3,60.7z"/>
		
			<linearGradient id="SVGID_00000101790544309376489280000012666041768626260657_" gradientUnits="userSpaceOnUse" x1="443.5927" y1="425.1509" x2="454.0298" y2="379.627" gradientTransform="matrix(0.9981 -6.240000e-02 -6.240000e-02 -0.9981 -158.568 488.4577)">
			<stop  offset="0" style="stop-color:#DD8523"/>
			<stop  offset="0.1355" style="stop-color:#EFAC2D"/>
			<stop  offset="0.4715" style="stop-color:#F8D54E"/>
			<stop  offset="0.9657" style="stop-color:#FFFDA6"/>
		</linearGradient>
		<path style="fill:url(#SVGID_00000101790544309376489280000012666041768626260657_);" d="M268.5,37.5c1.8-0.1,3.6-0.1,5.5,0.2
			c1.9,0.2,3.3,0.5,4.5,0.9l-0.8,5.5h-0.4c-1.3-0.8-2.7-1.4-4.2-1.9s-3.2-0.7-5.1-0.7l-1.7,12c0.6,0.1,1.2,0.1,1.7,0.2
			c0.5,0.1,1,0.2,1.4,0.2c2.6,0.3,4.5,1.2,5.8,2.5s1.7,3.2,1.4,5.7c-0.4,2.7-1.8,5.2-4.3,7.4s-5.4,3.6-8.8,4.4L262,84.1l-3.4,0.3
			l1.4-10c-2.1,0.2-4.2,0.2-6.3-0.1c-2.1-0.2-3.9-0.6-5.4-1.2l0.8-5.6h0.4c1.4,0.9,3,1.7,4.9,2.2c1.8,0.5,3.9,0.7,6.1,0.7l1.7-12.1
			c-0.5-0.1-1.1-0.1-1.7-0.2c-0.7-0.1-1.3-0.2-1.7-0.3c-2.8-0.5-4.8-1.4-5.8-2.8c-1-1.4-1.4-3.3-1.1-5.5c0.7-4.9,5.1-8.7,9.5-10.4
			c1.1-0.4,2.2-0.7,3.3-1c0.2,0,0.3-0.1,0.4-0.1l1.1-7.6l3.4-0.3L268.5,37.5z M262.9,53.5l1.6-11.6c-0.1,0-0.1,0-0.2,0
			c-3.2,0.7-6.3,2.7-6.8,6.1c-0.2,1.7,0,2.9,0.8,3.7C259.1,52.7,260.6,53.2,262.9,53.5z M270,59.8c-0.8-0.7-2.3-1.2-4.4-1.4
			L264,69.9c2-0.4,3.6-1.2,4.8-2.2c1.2-1,1.9-2.4,2.1-4.2C271.1,61.8,270.8,60.5,270,59.8z"/>
	</g>
	<g>
		
			<linearGradient id="SVGID_00000133503786586650006180000004130591540848556969_" gradientUnits="userSpaceOnUse" x1="-1002.3263" y1="-172.1576" x2="-945.8936" y2="-219.5852" gradientTransform="matrix(0.8683 0.496 0.496 -0.8683 1450.7839 489.7695)">
			<stop  offset="0" style="stop-color:#FFFDA6"/>
			<stop  offset="0.3525" style="stop-color:#F8D54E"/>
			<stop  offset="0.4458" style="stop-color:#F6D04A"/>
			<stop  offset="0.5586" style="stop-color:#EFC140"/>
			<stop  offset="0.6814" style="stop-color:#E3A92F"/>
			<stop  offset="0.8104" style="stop-color:#D38717"/>
			<stop  offset="0.9115" style="stop-color:#C46700"/>
			<stop  offset="0.9501" style="stop-color:#C66902"/>
			<stop  offset="0.9726" style="stop-color:#CC700B"/>
			<stop  offset="0.9909" style="stop-color:#D67C19"/>
			<stop  offset="1" style="stop-color:#DD8523"/>
		</linearGradient>
		<path style="fill:url(#SVGID_00000133503786586650006180000004130591540848556969_);" d="M523.1,212.3c-2.8,1.3-6,2.1-8.7,2.4
			c-9,1.1-19.6-11.4-26-28.2c-3.2-8.4-4.1-17.3-2-26.2c0.8-3.3,2.1-6.6,4.3-9.2c2.6-3,5.3-4.5,9-5.5c1.2-0.3,2.3-0.6,3.5-0.9
			c8.9-1.3,19.3,10.1,25.8,27c3.3,8.6,4.8,18.5,2.9,27.6c-0.7,3.4-1.9,6.8-4.1,9.5C526.6,210.3,524.9,211.4,523.1,212.3z"/>
		
			<radialGradient id="SVGID_00000126303670051776956250000005155672048625594508_" cx="-1032.55" cy="-110.7942" r="28.0041" gradientTransform="matrix(1.354 0.7735 0.7735 -1.354 1981.2074 830.7023)" gradientUnits="userSpaceOnUse">
			<stop  offset="4.146340e-02" style="stop-color:#EFAC2D"/>
			<stop  offset="0.4005" style="stop-color:#F5C642"/>
			<stop  offset="0.7911" style="stop-color:#F8D54E"/>
			<stop  offset="0.9911" style="stop-color:#FFFDA6"/>
		</radialGradient>
		<path style="fill:url(#SVGID_00000126303670051776956250000005155672048625594508_);" d="M530.9,171.1c7,18.1,3.6,37.1-5.8,40.7
			c-9.4,3.6-21.1-9.6-28.1-27.7s-3.3-35.9,6.1-39.5C512.5,141,523.9,153,530.9,171.1z"/>
		
			<linearGradient id="SVGID_00000048483001267382464220000000039619701255188655_" gradientUnits="userSpaceOnUse" x1="-986.9392" y1="-175.0658" x2="-936.0179" y2="-223.8653" gradientTransform="matrix(0.8683 0.496 0.496 -0.8683 1450.7839 489.7695)">
			<stop  offset="0.1276" style="stop-color:#DD8523"/>
			<stop  offset="0.2604" style="stop-color:#E79A28"/>
			<stop  offset="0.3919" style="stop-color:#EDA72C"/>
			<stop  offset="0.5109" style="stop-color:#EFAC2D"/>
			<stop  offset="1" style="stop-color:#F8D54E"/>
		</linearGradient>
		<path style="fill:url(#SVGID_00000048483001267382464220000000039619701255188655_);" d="M517.2,206.1c-6.1-3.5-11.7-10.8-16-22.8
			c-6.2-17.2-3.5-30.2,4-33.3c2.2-0.9,4.7-0.6,7.4,0.9c6,3.4,11.1,10,15.3,21.5c2.9,8.1,4.4,15.3,3.1,22.9
			c-1.1,6.8-3.3,10.2-6.9,11.6C522.1,207.8,519.7,207.5,517.2,206.1z"/>
		
			<radialGradient id="SVGID_00000077324732375269721060000011879197661260060834_" cx="-1073.9641" cy="-91.0678" r="23.0721" gradientTransform="matrix(1.3158 0.7515 0.7689 -1.3462 1981.4745 850.8044)" gradientUnits="userSpaceOnUse">
			<stop  offset="0" style="stop-color:#DD8523"/>
			<stop  offset="0.3464" style="stop-color:#E79A28"/>
			<stop  offset="0.6895" style="stop-color:#EDA72C"/>
			<stop  offset="1" style="stop-color:#EFAC2D"/>
		</radialGradient>
		<path style="fill:url(#SVGID_00000077324732375269721060000011879197661260060834_);" d="M514.8,203.7c-3.8-2.1-6.3-5.9-8.5-9.6
			c-2.9-4.8-4.8-10.1-6.4-15.5c-1.4-4.8-2.1-9.6-1.9-14.6c0.2-3.9,0.9-10,5.3-11.4c2.7-0.8,5.1,0.4,7.4,1.8
			c8.8,5.4,13.8,16.6,15.6,26.5c1,5.4,1.8,10.9,0.1,16.3c-1.2,3.9-4.6,8.5-9.2,7.5C516.5,204.5,515.6,204.1,514.8,203.7z"/>
		<g>
			<g>
				
					<linearGradient id="SVGID_00000093892707273410323330000007661924495417031085_" gradientUnits="userSpaceOnUse" x1="-973.0001" y1="-177.3282" x2="-948.9274" y2="-221.2445" gradientTransform="matrix(0.8683 0.496 0.496 -0.8683 1450.7839 489.7695)">
					<stop  offset="0" style="stop-color:#F8D54E"/>
					<stop  offset="0.1466" style="stop-color:#E7B235"/>
					<stop  offset="0.3115" style="stop-color:#D8911E"/>
					<stop  offset="0.4702" style="stop-color:#CD7A0D"/>
					<stop  offset="0.6185" style="stop-color:#C66C03"/>
					<stop  offset="0.746" style="stop-color:#C46700"/>
					<stop  offset="1" style="stop-color:#DD8523"/>
				</linearGradient>
				<polygon style="fill:url(#SVGID_00000093892707273410323330000007661924495417031085_);" points="518.2,167.3 519.7,163.1 
					517.6,163.3 516.1,167.5 				"/>
				
					<linearGradient id="SVGID_00000133502159508829556490000010575862184030730139_" gradientUnits="userSpaceOnUse" x1="-976.9503" y1="-179.494" x2="-952.8785" y2="-223.4088" gradientTransform="matrix(0.8683 0.496 0.496 -0.8683 1450.7839 489.7695)">
					<stop  offset="0" style="stop-color:#F8D54E"/>
					<stop  offset="0.1466" style="stop-color:#E7B235"/>
					<stop  offset="0.3115" style="stop-color:#D8911E"/>
					<stop  offset="0.4702" style="stop-color:#CD7A0D"/>
					<stop  offset="0.6185" style="stop-color:#C66C03"/>
					<stop  offset="0.746" style="stop-color:#C46700"/>
					<stop  offset="1" style="stop-color:#DD8523"/>
				</linearGradient>
				<path style="fill:url(#SVGID_00000133502159508829556490000010575862184030730139_);" d="M515.4,192.6c-0.6-0.1-1.2-0.5-1.7-1
					c-0.2-0.2-1.5-2.1-1.6-2.1l-1.8,0.2l0.7-2.1c-0.3-0.6-0.7-1.3-1-2v-0.1l1.8-0.2l1.4-3.9c0.1,0.2,0.2,0.4,0.2,0.6
					c0.2,0.7,0.5,1.5,0.6,2.2c0.2,0.9,0.2,1.9,0.1,2.8c-0.1,0.7-0.5,2.1-1.4,2.2c0.5,0,1.3,0,1.8,0c0.9-0.1,1.1-0.7,1.4-1.6
					c0.4-1.1,0.4-2.3,0.2-3.4c-0.1-0.3-0.7-3.3-1-3.3l-1.8,0.2l0.8-2.4c0.1-0.2-0.3-0.8-0.4-1c-0.2-0.5-0.3-1-0.5-1.5
					c0.6,0,1.2-0.1,1.8-0.1c0.5-1.3,0.9-2.6,1.4-3.9c1.1,2.5,1.7,5.1,2.3,7.8c0.7-0.1,1.4-0.1,2.1-0.2c-0.6-2.8-1.3-5.6-2.5-8.1
					c-0.6,0.1-1.2,0.1-1.8,0.2c0.2-0.6,0.4-1.1,0.6-1.7c0-0.1,0.1-0.3,0.1-0.4c0-0.2-0.1-0.3-0.2-0.4c-0.3-0.5-0.7-1-1.3-1.3
					c-0.8-0.3-1.7,0.1-2.6,0c0.9,0.1,2.2,1.3,1.9,2.2c-0.7,1.9-1.3,3.7-2,5.6c-1-3-1.7-6.3-0.8-9.4c0.3-0.9,0.8-2.2,1.9-2.3
					l-2.1,0.2c-1.3,0.1-1.8,1.7-2.1,2.7c-0.5,2-0.3,4.1,0.1,6.1c0.2,1,0.5,2,0.9,3c0.2,0.5,0.3,1,0.5,1.5c0.1,0.2,0.5,1,0.5,1.3
					l-2.2,6.3c-0.2-0.6-0.5-1.1-0.7-1.7c-0.5-1.4-1-2.9-1.4-4.4l1.1-3.1l-2.1,0.2l-1.1,3.1c-0.1,0.3,0.3,1.1,0.4,1.4
					c0.2,0.6,0.4,1.3,0.6,1.9c0.6,1.8,1.4,3.6,2.3,5.3l-1.9,5.5l1,2l2.1-0.2l-1-2l1.1-3.1c-0.1,0.3,1.2,1.6,1.4,1.8
					c0.6,0.5,1.4,1.1,2.2,1l2.1-0.2C515.8,192.6,515.6,192.6,515.4,192.6z"/>
			</g>
			
				<linearGradient id="SVGID_00000066498621130645164020000009869544278440700302_" gradientUnits="userSpaceOnUse" x1="-976.0001" y1="-178.411" x2="-954.1264" y2="-216.0969" gradientTransform="matrix(0.8683 0.496 0.496 -0.8683 1450.7839 489.7695)">
				<stop  offset="0" style="stop-color:#FFFDA6"/>
				<stop  offset="0.3672" style="stop-color:#F8D54E"/>
				<stop  offset="0.6922" style="stop-color:#EFAC2D"/>
				<stop  offset="1" style="stop-color:#DD8523"/>
			</linearGradient>
			<path style="fill:url(#SVGID_00000066498621130645164020000009869544278440700302_);" d="M519.3,169.3c0.5,1.1,1.1,2.3,1.6,3.7
				s0.9,2.6,1.2,3.6l-1.1,3.1l-0.1-0.3c-0.3-1.3-0.6-2.6-1-4s-0.8-2.6-1.4-3.9l-2.3,6.7c0.2,0.5,0.3,0.9,0.5,1.3
				c0.1,0.4,0.3,0.8,0.4,1.1c0.7,1.9,1.2,3.7,1.3,5.4c0.2,1.7,0,3.2-0.5,4.6c-0.5,1.5-1.3,2.2-2.4,1.9c-1.1-0.2-2.2-1.2-3.3-3
				l-2,5.6l-1-2l1.9-5.5c-0.7-1.3-1.3-2.7-1.9-4.2s-1-3-1.4-4.4l1.1-3.1l0.1,0.3c0.3,1.5,0.6,3.1,1.1,4.6s1,3.1,1.7,4.5l2.4-6.7
				c-0.1-0.4-0.3-0.8-0.5-1.3s-0.3-1-0.5-1.3c-0.8-2.2-1.2-4.1-1.3-5.7c-0.1-1.6,0.1-3.1,0.5-4.3c0.5-1.5,1.3-2.1,2.4-1.9h0.1h0.1
				c0.1,0,0.1,0,0.1,0c0.1,0,0.1,0,0.1,0c0.1,0,0.1,0,0.1,0c0.1,0,0.1,0,0.1,0c0.1,0,0.1,0,0.1,0.1c0.1,0,0.1,0,0.1,0.1
				c0.1,0,0.1,0,0.1,0.1c0.1,0,0.1,0.1,0.1,0.1c0.1,0,0.1,0.1,0.1,0.1c0.1,0,0.1,0.1,0.1,0.1c0.1,0,0.1,0.1,0.1,0.1
				c0.1,0.1,0.1,0.1,0.1,0.1c0.1,0.1,0.1,0.1,0.1,0.1c0.1,0.1,0.1,0.1,0.1,0.1c0.1,0.1,0.1,0.1,0.1,0.1c0.1,0.1,0.1,0.1,0.1,0.1
				c0.1,0.1,0.1,0.1,0.1,0.1c0.1,0.1,0.1,0.1,0.1,0.1c0.1,0.1,0.1,0.1,0.1,0.1c0.1,0.1,0.1,0.1,0.1,0.1c0.1,0.1,0.1,0.1,0.1,0.1
				c0.1,0.1,0.1,0.1,0.1,0.1c0.1,0.1,0.1,0.1,0.1,0.1s0,0,0,0.1c0,0,0,0.1,0.1,0.1c0,0,0,0,0,0.1c0,0,0,0.1,0.1,0.1c0,0,0,0,0,0.1
				c0,0,0,0.1,0.1,0.1c0,0,0,0,0.1,0.1c0,0,0,0.1,0.1,0.1c0,0,0,0.1,0.1,0.1c0,0,0,0.1,0.1,0.1v0.1c0,0,0,0.1,0.1,0.1
				c0,0,0,0.1,0.1,0.1c0,0.1,0.1,0.1,0.1,0.2l1.5-4.2l1,2L519.3,169.3z M515.2,176l2.3-6.4l-0.1-0.1l0,0c0,0,0-0.1-0.1-0.1
				c0,0,0-0.1-0.1-0.1c0,0,0-0.1-0.1-0.1c0,0,0-0.1-0.1-0.1c0,0,0-0.1-0.1-0.1c0,0,0-0.1-0.1-0.1c0,0,0,0-0.1-0.1c0,0,0,0-0.1-0.1
				c0,0,0,0-0.1-0.1c0,0,0,0-0.1-0.1c0,0,0,0-0.1-0.1c0,0,0,0-0.1-0.1c0,0,0,0,0-0.1c0,0,0,0-0.1-0.1c0,0,0,0,0-0.1c0,0,0,0-0.1-0.1
				l0,0c0,0,0,0-0.1-0.1l0,0c0,0,0,0-0.1,0l0,0c0,0,0,0-0.1,0l0,0c0,0,0,0-0.1,0l0,0c0,0,0,0-0.1,0l0,0c0,0,0,0-0.1,0l0,0h-0.1
				c-0.6-0.2-1,0.2-1.3,1.1c-0.3,0.9-0.4,1.9-0.3,2.9C514.1,172.8,514.5,174.2,515.2,176z M516.3,184.7c-0.1-1-0.5-2.3-1.1-3.9
				l-2.3,6.4c0.7,1.1,1.3,1.7,1.8,1.8s0.9-0.3,1.3-1.3C516.3,186.7,516.4,185.7,516.3,184.7z"/>
		</g>
	</g>
	<g>
		<g>
			
				<linearGradient id="SVGID_00000034770912533043480650000000170078482373681342_" gradientUnits="userSpaceOnUse" x1="157.2" y1="177.7" x2="187.1594" y2="177.7" gradientTransform="matrix(1 0 0 -1 0 502)">
				<stop  offset="0.2063" style="stop-color:#9E4EEA"/>
				<stop  offset="1" style="stop-color:#6D28D9"/>
			</linearGradient>
			<polygon style="fill:url(#SVGID_00000034770912533043480650000000170078482373681342_);" points="157.3,321.6 187.2,304.3 
				187.1,326.9 157.2,344.3 			"/>
		</g>
		
			<linearGradient id="SVGID_00000088819687542954334840000005848592701683914885_" gradientUnits="userSpaceOnUse" x1="107" y1="236.5" x2="170.3" y2="236.5" gradientTransform="matrix(1 0 0 -1 0 502)">
			<stop  offset="1.848427e-02" style="stop-color:#6D28D9"/>
			<stop  offset="1" style="stop-color:#9E4EEA"/>
		</linearGradient>
		<path style="fill:url(#SVGID_00000088819687542954334840000005848592701683914885_);" d="M135.6,288.1c1.6,1.2,3.2,2.3,4.8,3.4
			l29.9-17.4c-1.6-1.1-3.2-2.2-4.8-3.4c-0.5-0.4-1-0.8-1.5-1.2c-1.1-0.8-2.1-1.7-3.2-2.6c-1.1-1-2.3-2-3.4-3
			c-0.1-0.1-0.1-0.1-0.2-0.2c-1.3-1.2-2.5-2.4-3.8-3.7c-0.3-0.4-0.7-0.7-1-1.1c-1-1-1.9-2.1-2.9-3.1c-0.3-0.4-0.6-0.7-0.9-1.1
			c-1.2-1.4-2.4-2.8-3.6-4.3c-0.2-0.3-0.5-0.6-0.7-0.9c-1-1.2-2-2.5-2.9-3.8c-0.3-0.4-0.6-0.9-1-1.3c-1.2-1.6-2.3-3.2-3.5-4.9l0,0
			L107,256.9c1.1,1.7,2.3,3.3,3.5,4.9c0.3,0.4,0.6,0.9,1,1.3c1,1.3,2,2.6,2.9,3.8c0.2,0.3,0.5,0.6,0.7,0.9c1,1.3,2.1,2.5,3.1,3.8
			c0.2,0.2,0.3,0.3,0.5,0.5c0.3,0.4,0.6,0.7,0.9,1c1,1.1,1.9,2.1,2.9,3.1c0.3,0.4,0.7,0.7,1,1.1c1.2,1.3,2.5,2.5,3.8,3.7
			c0.1,0.1,0.1,0.1,0.2,0.2c0.9,0.9,1.9,1.7,2.8,2.6c0.2,0.2,0.4,0.3,0.6,0.5c1.1,0.9,2.1,1.7,3.2,2.6
			C134.6,287.3,135.1,287.7,135.6,288.1z"/>
		<g>
			<g>
				<path id="SVGID_00000010276674289953857230000012127642011002242495_" class="st21" d="M196.9,282.2L167,299.5
					c-2.6,1.5-6.2,1.5-10.9-0.1L186,282C190.6,283.6,194.3,283.7,196.9,282.2z"/>
			</g>
			<g>
				<defs>
					<path id="SVGID_00000065074786031843557140000013102830168384462769_" d="M196.9,282.2L167,299.5c-2.6,1.5-6.2,1.5-10.9-0.1
						L186,282C190.6,283.6,194.3,283.7,196.9,282.2z"/>
				</defs>
				<clipPath id="SVGID_00000121265915791803274550000013471103719029983883_">
					<use xlink:href="#SVGID_00000065074786031843557140000013102830168384462769_"  style="overflow:visible;"/>
				</clipPath>
				
					<linearGradient id="SVGID_00000049927579095203677420000008829745313664744834_" gradientUnits="userSpaceOnUse" x1="156.1" y1="210.6119" x2="196.9" y2="210.6119" gradientTransform="matrix(1 0 0 -1 0 502)">
					<stop  offset="1.848427e-02" style="stop-color:#6D28D9"/>
					<stop  offset="1" style="stop-color:#9E4EEA"/>
				</linearGradient>
				
					<path style="clip-path:url(#SVGID_00000121265915791803274550000013471103719029983883_);fill:url(#SVGID_00000049927579095203677420000008829745313664744834_);" d="
					M186,282.1l-29.9,17.4c4.7,1.5,8.3,1.6,10.9,0.1l29.9-17.4C194.3,283.7,190.6,283.6,186,282.1z"/>
			</g>
		</g>
		<g>
			
				<linearGradient id="SVGID_00000120525218996082369370000013778981747682581648_" gradientUnits="userSpaceOnUse" x1="156.1" y1="229.5" x2="186.1" y2="229.5" gradientTransform="matrix(1 0 0 -1 0 502)">
				<stop  offset="1.848427e-02" style="stop-color:#6D28D9"/>
				<stop  offset="1" style="stop-color:#9E4EEA"/>
			</linearGradient>
			<polygon style="fill:url(#SVGID_00000120525218996082369370000013778981747682581648_);" points="156.2,262.9 186.1,245.5 
				186,282.1 156.1,299.5 			"/>
		</g>
		
			<linearGradient id="SVGID_00000047020884652509543150000000861272104762346907_" gradientUnits="userSpaceOnUse" x1="124.3141" y1="305.35" x2="170.5129" y2="305.35" gradientTransform="matrix(1 0 0 -1 0 502)">
			<stop  offset="1.848427e-02" style="stop-color:#6D28D9"/>
			<stop  offset="1" style="stop-color:#9E4EEA"/>
		</linearGradient>
		<path style="fill:url(#SVGID_00000047020884652509543150000000861272104762346907_);" d="M140.6,224.9l29.9-17.4
			c-1.2-1.2-2.4-2.4-3.5-3.5c-0.4-0.4-0.7-0.8-1-1.1c-0.8-0.8-1.5-1.7-2.2-2.5c-0.2-0.2-0.3-0.4-0.5-0.6c-0.9-1.1-1.7-2.1-2.5-3.1
			c-0.1-0.1-0.2-0.3-0.3-0.4c-0.8-1.1-1.5-2.2-2.2-3.2l-0.1-0.1c-0.5-0.8-1-1.7-1.4-2.5c-0.1-0.1-0.2-0.3-0.2-0.4
			c-0.4-0.8-0.7-1.7-1.1-2.5c-0.1-0.2-0.1-0.3-0.2-0.5c-0.3-0.9-0.5-1.7-0.7-2.6c0-0.1,0-0.1,0-0.2c-0.2-0.8-0.3-1.7-0.4-2.5
			c0-0.2,0-0.3-0.1-0.5c-0.1-0.7-0.1-1.3-0.1-2c0-0.6,0-1.2,0.1-1.8c0-0.2,0-0.4,0.1-0.6c0-0.4,0.1-0.7,0.1-1.1
			c0.1-0.5,0.2-1,0.3-1.5c0-0.1,0-0.2,0.1-0.2c0.1-0.5,0.3-1.1,0.5-1.5c0.1-0.1,0.1-0.3,0.2-0.4c0.2-0.3,0.3-0.7,0.5-1
			c0.1-0.2,0.2-0.3,0.3-0.4c0.2-0.3,0.4-0.5,0.6-0.7c0.1-0.1,0.2-0.2,0.3-0.4c0.4-0.4,0.8-0.8,1.3-1.1c0.1-0.1,0.2-0.1,0.3-0.2
			L129,185.5c-0.1,0.1-0.2,0.1-0.3,0.2c-0.5,0.3-0.9,0.7-1.3,1.1c-0.1,0.1-0.1,0.1-0.2,0.1c-0.1,0.1-0.1,0.1-0.2,0.2
			c-0.2,0.2-0.4,0.5-0.6,0.7c-0.1,0.1-0.2,0.3-0.3,0.4c-0.2,0.3-0.4,0.6-0.5,1c-0.1,0.1-0.1,0.2-0.2,0.3v0.1c-0.2,0.5-0.4,1-0.5,1.5
			c0,0.1,0,0.2-0.1,0.2c-0.1,0.5-0.2,1-0.3,1.5v0.1c0,0.3-0.1,0.6-0.1,0.9c0,0.2,0,0.4-0.1,0.6c0,0.6-0.1,1.2-0.1,1.8
			c0,0.7,0,1.4,0.1,2c0,0.1,0,0.1,0,0.2c0,0.1,0,0.2,0,0.3c0.1,0.9,0.2,1.7,0.4,2.5c0,0.1,0,0.1,0,0.2c0.2,0.9,0.4,1.7,0.7,2.6
			c0.1,0.2,0.1,0.3,0.2,0.5c0.3,0.8,0.7,1.7,1.1,2.5c0.1,0.1,0.1,0.3,0.2,0.4c0.4,0.8,0.9,1.7,1.4,2.5v0.1c0,0,0,0,0,0.1
			c0.7,1.1,1.4,2.1,2.2,3.2c0.1,0.1,0.2,0.3,0.3,0.4c0.8,1,1.6,2.1,2.4,3.1c0.2,0.2,0.3,0.4,0.5,0.6c0.2,0.2,0.3,0.4,0.5,0.6
			c0.5,0.6,1.1,1.2,1.7,1.9c0.3,0.4,0.7,0.8,1,1.1C138.2,222.5,139.4,223.7,140.6,224.9z"/>
		
			<linearGradient id="SVGID_00000079485077789429752640000015883929091673156995_" gradientUnits="userSpaceOnUse" x1="156.3" y1="230.15" x2="224.3" y2="230.15" gradientTransform="matrix(1 0 0 -1 0 502)">
			<stop  offset="1.848427e-02" style="stop-color:#6D28D9"/>
			<stop  offset="1" style="stop-color:#9E4EEA"/>
		</linearGradient>
		<path style="fill:url(#SVGID_00000079485077789429752640000015883929091673156995_);" d="M223.3,292.5c0.2-0.7,0.3-1.4,0.4-2.2
			c0-0.2,0.1-0.3,0.1-0.5c0.1-0.5,0.1-1.1,0.2-1.6c0-0.4,0.1-0.7,0.1-1.1c0.1-1.2,0.1-2.4,0.2-3.6c0-1,0-2-0.1-3c0-0.3,0-0.6-0.1-1
			c0-0.5-0.1-1-0.1-1.6c0-0.1,0-0.2,0-0.3c-0.1-1.4-0.3-2.8-0.6-4.2c-0.1-0.3-0.1-0.6-0.2-0.9c-0.2-1.3-0.5-2.5-0.8-3.7
			c0-0.2-0.1-0.4-0.1-0.6c-0.4-1.3-0.8-2.7-1.3-4c-0.1-0.3-0.2-0.6-0.3-0.9c-0.5-1.3-1.1-2.6-1.7-3.9c-0.8-1.7-1.6-3.3-2.5-4.8
			c-0.3-0.5-0.5-0.9-0.8-1.4c-0.3-0.6-0.6-1.1-1-1.7c-0.3-0.4-0.5-0.8-0.8-1.2c-0.6-0.9-1.2-1.8-1.8-2.7c-0.5-0.8-1.1-1.5-1.6-2.3
			c-0.6-0.8-1.3-1.7-2-2.5c-0.3-0.4-0.6-0.8-1-1.2c-0.5-0.6-1.1-1.2-1.6-1.8c-5.2-5.7-11.8-11.9-19.7-18.9l-29.9,17.4
			c7.9,6.9,14.5,13.2,19.7,18.9c0.9,1,1.7,2,2.6,3.1c0.7,0.8,1.3,1.6,2,2.5c0.6,0.7,1.1,1.5,1.6,2.3c0.6,0.9,1.2,1.8,1.8,2.7
			c0.6,0.9,1.2,1.9,1.8,2.9c0.3,0.5,0.5,0.9,0.8,1.4c0.9,1.6,1.7,3.2,2.5,4.8c0.6,1.3,1.2,2.6,1.7,3.9c0.1,0.3,0.2,0.6,0.3,0.9
			c0.5,1.3,0.9,2.6,1.3,4c0.1,0.2,0.1,0.4,0.1,0.6c0.3,1.2,0.6,2.5,0.8,3.7c0.1,0.3,0.1,0.6,0.2,0.9c0.2,1.4,0.4,2.8,0.6,4.2
			c0.1,0.6,0.1,1.2,0.1,1.8c0,0.3,0,0.6,0.1,1c0,1,0.1,2,0.1,3c0,1.3-0.1,2.4-0.2,3.6c0,0.4-0.1,0.7-0.1,1.1
			c-0.1,0.7-0.2,1.4-0.3,2.1s-0.3,1.5-0.4,2.2c-0.1,0.4-0.2,0.9-0.3,1.3c-0.2,0.8-0.5,1.4-0.7,2.1c-0.1,0.3-0.2,0.7-0.4,1
			c-0.4,1-0.9,1.9-1.5,2.8c-0.1,0.2-0.3,0.3-0.4,0.5c-0.5,0.7-0.9,1.3-1.5,1.9c-0.4,0.4-0.8,0.8-1.2,1.2c-0.2,0.2-0.4,0.4-0.6,0.6
			c-0.7,0.5-1.4,1-2.2,1.5l29.9-17.4c0.8-0.4,1.5-0.9,2.2-1.5c0.2-0.2,0.4-0.4,0.6-0.6c0.4-0.3,0.7-0.6,1.1-1
			c0.1-0.1,0.1-0.1,0.2-0.2c0.5-0.6,1-1.2,1.5-1.9c0.1-0.2,0.3-0.3,0.4-0.5c0.6-0.9,1-1.8,1.5-2.8c0,0,0-0.1,0.1-0.1
			c0.1-0.3,0.2-0.6,0.3-0.9c0.3-0.7,0.5-1.4,0.7-2.1C223.1,293.4,223.2,293,223.3,292.5z"/>
		<g>
			
				<linearGradient id="SVGID_00000078030189796162079920000013861834230715460511_" gradientUnits="userSpaceOnUse" x1="156.2441" y1="294.25" x2="186.2649" y2="294.25" gradientTransform="matrix(1 0 0 -1 0 502)">
				<stop  offset="1.848427e-02" style="stop-color:#6D28D9"/>
				<stop  offset="1" style="stop-color:#9E4EEA"/>
			</linearGradient>
			<polygon style="fill:url(#SVGID_00000078030189796162079920000013861834230715460511_);" points="156.4,194.3 186.3,176.9 
				186.1,221.2 156.2,238.6 			"/>
		</g>
		<g>
			<g>
				
					<linearGradient id="SVGID_00000139267988788970051820000008537430750366430904_" gradientUnits="userSpaceOnUse" x1="134.5037" y1="348.9922" x2="134.9237" y2="348.9922" gradientTransform="matrix(1 0 0 -1 0 502)">
					<stop  offset="0" style="stop-color:#6D28D9"/>
					<stop  offset="0.9902" style="stop-color:#FFC4D6"/>
				</linearGradient>
				
					<path id="SVGID_00000158017213683785592410000012677597469203729823_" style="fill:url(#SVGID_00000139267988788970051820000008537430750366430904_);" d="
					M141.5,145.1c2.3-1.4,5-2.2,8.1-2.6c5.8-0.7,12.4,0.6,19.8,3.8l-29.9,17.4c-7.5-3.2-14.1-4.5-19.8-3.8c-3.1,0.4-5.7,1.2-8.1,2.6
					"/>
			</g>
			<g>
				<defs>
					<path id="SVGID_00000026865063490601962210000008593474557529115288_" d="M141.5,145.1c2.3-1.4,5-2.2,8.1-2.6
						c5.8-0.7,12.4,0.6,19.8,3.8l-29.9,17.4c-7.5-3.2-14.1-4.5-19.8-3.8c-3.1,0.4-5.7,1.2-8.1,2.6"/>
				</defs>
				<clipPath id="SVGID_00000078759285696647884020000011962037014181137804_">
					<use xlink:href="#SVGID_00000026865063490601962210000008593474557529115288_"  style="overflow:visible;"/>
				</clipPath>
				
					<linearGradient id="SVGID_00000035489735116511976880000001540390409828577980_" gradientUnits="userSpaceOnUse" x1="111.6" y1="348.9922" x2="169.4" y2="348.9922" gradientTransform="matrix(1 0 0 -1 0 502)">
					<stop  offset="0" style="stop-color:#6D28D9"/>
					<stop  offset="0.9902" style="stop-color:#FFC4D6"/>
				</linearGradient>
				
					<path style="clip-path:url(#SVGID_00000078759285696647884020000011962037014181137804_);fill:url(#SVGID_00000035489735116511976880000001540390409828577980_);" d="
					M149.6,142.5c-3.1,0.4-5.7,1.2-8.1,2.6l-29.9,17.4c2.3-1.4,5-2.2,8.1-2.6c5.8-0.7,12.4,0.6,19.8,3.8l29.9-17.4
					C162,143.1,155.3,141.8,149.6,142.5z"/>
			</g>
		</g>
		<g>
			
				<linearGradient id="SVGID_00000162340658781319977820000004541987725674972331_" gradientUnits="userSpaceOnUse" x1="157.7" y1="348" x2="187.6589" y2="348" gradientTransform="matrix(1 0 0 -1 0 502)">
				<stop  offset="1.848427e-02" style="stop-color:#6D28D9"/>
				<stop  offset="1" style="stop-color:#9E4EEA"/>
			</linearGradient>
			<polygon style="fill:url(#SVGID_00000162340658781319977820000004541987725674972331_);" points="157.7,151.5 187.6,134.1 
				187.6,156.6 157.7,173.9 			"/>
		</g>
		<g>
			
				<linearGradient id="SVGID_00000002368875114018033350000010684092876871601854_" gradientUnits="userSpaceOnUse" x1="139.6" y1="364.45" x2="187.6" y2="364.45" gradientTransform="matrix(1 0 0 -1 0 502)">
				<stop  offset="1.848427e-02" style="stop-color:#6D28D9"/>
				<stop  offset="1" style="stop-color:#9E4EEA"/>
			</linearGradient>
			<polygon style="fill:url(#SVGID_00000002368875114018033350000010684092876871601854_);" points="139.6,141 169.5,123.6 
				187.6,134.1 157.7,151.5 			"/>
		</g>
		
			<linearGradient id="SVGID_00000095323806401408067330000000985515029087353247_" gradientUnits="userSpaceOnUse" x1="157.6751" y1="318.45" x2="222.1751" y2="318.45" gradientTransform="matrix(1 0 0 -1 0 502)">
			<stop  offset="1.848427e-02" style="stop-color:#6D28D9"/>
			<stop  offset="1" style="stop-color:#9E4EEA"/>
		</linearGradient>
		<path style="fill:url(#SVGID_00000095323806401408067330000000985515029087353247_);" d="M186,201.3c0.9,1.1,1.7,2.3,2.5,3.4
			c0.3,0.4,0.6,0.8,0.9,1.2c1,1.5,2.1,3.1,3,4.6l29.9-17.4c-0.1-0.1-0.1-0.2-0.2-0.3c-0.9-1.4-1.8-2.9-2.8-4.3
			c-0.3-0.4-0.6-0.8-0.9-1.2c-0.8-1.1-1.6-2.3-2.5-3.4c-0.3-0.4-0.6-0.8-1-1.3c-1.1-1.4-2.3-2.9-3.5-4.3l0,0
			c-1.4-1.6-2.9-3.2-4.4-4.8s-3.1-3.2-4.7-4.7c-0.5-0.5-1.1-1-1.6-1.5c-1.1-1-2.1-2-3.2-2.9l-0.1-0.1c-1-0.9-2-1.7-3.1-2.5
			c-0.5-0.4-1.1-0.9-1.6-1.4c-1.6-1.3-3.3-2.6-5-3.8L157.8,174c1.7,1.2,3.4,2.5,5,3.8c0.6,0.4,1.1,0.9,1.6,1.4
			c1.1,0.9,2.2,1.8,3.2,2.7c1.1,1,2.2,2,3.2,2.9c0.5,0.5,1.1,1,1.6,1.5c1.6,1.5,3.1,3.1,4.7,4.7c1.5,1.6,3,3.2,4.4,4.8
			c1.2,1.4,2.4,2.9,3.6,4.4C185.3,200.5,185.6,200.9,186,201.3z"/>
		
			<linearGradient id="SVGID_00000114765727725238208490000007218430409555298974_" gradientUnits="userSpaceOnUse" x1="87.3083" y1="187.6306" x2="160.7267" y2="274.3204" gradientTransform="matrix(1 0 0 -1 0 502)">
			<stop  offset="0" style="stop-color:#6D28D9"/>
			<stop  offset="0.6437" style="stop-color:#9E4EEA"/>
			<stop  offset="1" style="stop-color:#9E4EEA"/>
		</linearGradient>
		<path style="fill:url(#SVGID_00000114765727725238208490000007218430409555298974_);" d="M189.1,277c-3.5-7.4-7.9-13.9-13.1-19.5
			c-5.2-5.7-11.8-11.9-19.7-18.9l0.1-44.3c10.1,7.5,19.4,17.8,28.1,30.9l7.9-14.7c-4.1-6.8-9.2-13.3-15.3-19.7
			c-6-6.3-12.5-12-19.4-16.9l0.1-22.5L139.6,141l-0.1,22.7c-7.5-3.2-14.1-4.5-19.8-3.8c-5.8,0.7-10.2,3.2-13.5,7.4
			c-3.2,4.2-4.8,10-4.9,17.3c0,8.9,1.8,17.1,5.4,24.7c3.7,7.6,8.2,14.4,13.7,20.4c5.4,6,12.1,12.4,20.1,19.3l-0.1,42.5
			c-12-7.9-23.1-19.4-33.4-34.6l-7.9,14.7c5.1,7.9,11,15.2,17.8,22s14.2,12.8,22.1,18.1l-0.1,22.3l18.1,10.5l0.1-22.7
			c11.3,4.6,20.3,5,27,1.3s10.1-11,10.1-22.1C194.4,292.3,192.6,284.4,189.1,277z M140.6,224.9c-5.2-5.1-9.2-9.9-12.1-14.4
			c-2.8-4.6-4.2-9.2-4.2-14c0-5.3,1.5-8.9,4.4-10.8c2.9-1.9,6.9-1.9,12-0.2L140.6,224.9z M167.5,299.2c-2.6,1.8-6.4,1.9-11.4,0.3
			l0.1-36.6c5,4.7,8.8,9,11.4,13.1c2.6,4.1,3.9,8.2,3.9,12.5C171.4,293.8,170.1,297.4,167.5,299.2z"/>
		<g>
			
				<linearGradient id="SVGID_00000080909499338861686810000001024802427615912337_" gradientUnits="userSpaceOnUse" x1="184.4" y1="292.85" x2="222.2" y2="292.85" gradientTransform="matrix(1 0 0 -1 0 502)">
				<stop  offset="1.848427e-02" style="stop-color:#6D28D9"/>
				<stop  offset="1" style="stop-color:#9E4EEA"/>
			</linearGradient>
			<polygon style="fill:url(#SVGID_00000080909499338861686810000001024802427615912337_);" points="192.3,210.5 222.2,193.1 
				214.3,207.8 184.4,225.2 			"/>
		</g>
	</g>
	
		<linearGradient id="SVGID_00000091738225879875332670000009055272428971064754_" gradientUnits="userSpaceOnUse" x1="-140.5763" y1="319.0034" x2="-22.0391" y2="319.0034" gradientTransform="matrix(0.4783 -0.8782 -0.8782 -0.4783 634.5744 372.5908)">
		<stop  offset="0" style="stop-color:#E6F8FF"/>
		<stop  offset="0.4863" style="stop-color:#96CDF9"/>
		<stop  offset="1" style="stop-color:#E6F8FF"/>
	</linearGradient>
	<path style="fill:url(#SVGID_00000091738225879875332670000009055272428971064754_);" d="M316.6,225.1l-3.5-2.5
		c-0.6,0.4-1.1,5.1-1.1,5.8v126.9c4.8,4.9,5.8,4.9,6.2,4.6l-0.1-5.9L316.6,225.1z"/>
	<g>
		<g>
			
				<linearGradient id="SVGID_00000169539877392517244220000017101982642940095152_" gradientUnits="userSpaceOnUse" x1="279.718" y1="83.4972" x2="377.6161" y2="124.7371" gradientTransform="matrix(1 0 0 -1 0 502)">
				<stop  offset="0.1002" style="stop-color:#E6F8FF"/>
				<stop  offset="1" style="stop-color:#96CDF9"/>
			</linearGradient>
			<path style="fill:url(#SVGID_00000169539877392517244220000017101982642940095152_);" d="M258.3,367.2l-0.2-7.6l141.1,68.9v7.3
				c0,0.4-0.4,0.7-0.8,0.5l-139-67.2C258.7,368.7,258.3,368,258.3,367.2z"/>
			
				<linearGradient id="SVGID_00000049182071879206300340000003617779913940389281_" gradientUnits="userSpaceOnUse" x1="404.0137" y1="193.6906" x2="557.6463" y2="81.8602" gradientTransform="matrix(1 0 0 -1 0 502)">
				<stop  offset="0.1002" style="stop-color:#E6F8FF"/>
				<stop  offset="0.6972" style="stop-color:#96CDF9"/>
			</linearGradient>
			<path style="fill:url(#SVGID_00000049182071879206300340000003617779913940389281_);" d="M589.1,312.1l0.1,6
				c0,1.4-1.5,2.5-2.5,3.1L400.3,436c-0.5,0.3-1.1-0.1-1.1-0.6v-6.9L589.1,312.1z"/>
			
				<linearGradient id="SVGID_00000029023846596982207450000017452379703271646899_" gradientUnits="userSpaceOnUse" x1="255.3" y1="276.9" x2="446" y2="276.9" gradientTransform="matrix(1 0 0 -1 0 502)">
				<stop  offset="0.1002" style="stop-color:#E6F8FF"/>
				<stop  offset="1" style="stop-color:#96CDF9"/>
			</linearGradient>
			<polygon style="fill:url(#SVGID_00000029023846596982207450000017452379703271646899_);" points="255.3,191.5 446,89.8 
				446,254.5 255.3,360.4 			"/>
			<path class="st38" d="M265.2,192.8L440,99.5c1.2-0.7,2.7,0.2,2.7,1.6v147.1c0,1.8-1,3.5-2.6,4.4l-173.3,94.7
				c-2,1.1-4.4-0.3-4.4-2.6V197.4C262.5,195.5,263.5,193.7,265.2,192.8z"/>
			
				<linearGradient id="SVGID_00000039094581727126082740000000874324728808709040_" gradientUnits="userSpaceOnUse" x1="168.3449" y1="160.1725" x2="553.498" y2="160.1725" gradientTransform="matrix(1 0 0 -1 0 502)">
				<stop  offset="0" style="stop-color:#96CDF9"/>
				<stop  offset="1" style="stop-color:#E6F8FF"/>
			</linearGradient>
			<path style="fill:url(#SVGID_00000039094581727126082740000000874324728808709040_);" d="M259.5,362.4L394.7,428
				c2.8,1.4,6.2,1.2,8.9-0.4l184.8-113.3c1.7-1,1.5-3.6-0.4-4.3l-140.8-55.1c-0.7-0.3-1.4-0.2-2.1,0.1L259.4,358.2
				C257.6,359.1,257.7,361.6,259.5,362.4z"/>
			<path class="st38" d="M289.1,357.9l66.9,29.7c2.2,1,4.7,0.8,6.8-0.4L516,297.4c2.4-1.4,2.4-4.6-0.8-5.5l-68.3-28.6
				c-1.2-0.4-2.2-0.3-3.4,0.3l-154.8,87.2C286.3,352.2,286.6,356.8,289.1,357.9z"/>
			
				<linearGradient id="SVGID_00000015347109333193740450000004380503845318317974_" gradientUnits="userSpaceOnUse" x1="420.8741" y1="148.3081" x2="519.383" y2="148.3081" gradientTransform="matrix(1 0 0 -1 0 502)">
				<stop  offset="0" style="stop-color:#96CDF9"/>
				<stop  offset="1" style="stop-color:#AAD8FC"/>
			</linearGradient>
			<path style="fill:url(#SVGID_00000015347109333193740450000004380503845318317974_);" d="M422.5,366.5l29.7,15
				c0.9,0.4,1.9,0.4,2.8-0.1l63-38.2c2-1.2,1.8-4.3-0.4-5.2l-31.2-12.2c-0.8-0.3-1.7-0.3-2.5,0.2l-61.5,35.4
				C420.3,362.6,420.4,365.5,422.5,366.5z"/>
			
				<linearGradient id="SVGID_00000017481648347162675980000005452950752792260520_" gradientUnits="userSpaceOnUse" x1="251.15" y1="362.9734" x2="446" y2="362.9734" gradientTransform="matrix(1 0 0 -1 0 502)">
				<stop  offset="0.1002" style="stop-color:#E6F8FF"/>
				<stop  offset="1" style="stop-color:#96CDF9"/>
			</linearGradient>
			<path style="fill:url(#SVGID_00000017481648347162675980000005452950752792260520_);" d="M446,89.8l-4-3
				c-0.8-0.5-1.8-0.6-2.7-0.2L251.6,187.7c-0.6,0.3-0.6,1.1,0,1.4l4.3,2.6L446,89.8z"/>
			<g>
				<g>
					<g>
						<path class="st42" d="M294.6,355.1l5.9-3.5c0.2-0.1,0.2-0.5-0.1-0.6l-4.4-1.3c-0.1,0-0.2,0-0.2,0l-5.5,3.1
							c-0.2,0.1-0.2,0.5,0,0.6l4.1,1.7C294.4,355.1,294.5,355.1,294.6,355.1z"/>
						<path class="st43" d="M294.7,354.6l5.7-3.4c0.1-0.1,0.1-0.2,0-0.3l-4.3-1.3c-0.1-0.1-0.3,0-0.3,0l-5.4,3.1
							c-0.1,0.1-0.1,0.2,0,0.3l3.9,1.6C294.4,354.7,294.5,354.7,294.7,354.6z"/>
					</g>
					<g>
						<path class="st42" d="M303.2,350.4l5.9-3.5c0.2-0.1,0.2-0.5-0.1-0.6l-4.4-1.3c-0.1,0-0.2,0-0.2,0l-5.5,3.1
							c-0.2,0.1-0.2,0.5,0,0.6l4.1,1.7C303,350.5,303.1,350.5,303.2,350.4z"/>
						<path class="st43" d="M303.2,350l5.7-3.4c0.1-0.1,0.1-0.2,0-0.3l-4.3-1.3c-0.1-0.1-0.3,0-0.3,0l-5.4,3.1
							c-0.1,0.1-0.1,0.2,0,0.3l3.9,1.6C302.9,350.1,303.1,350,303.2,350z"/>
					</g>
					<g>
						<path class="st42" d="M311.6,345.9l5.9-3.5c0.2-0.1,0.2-0.5-0.1-0.6l-4.4-1.3c-0.1,0-0.2,0-0.2,0l-5.5,3.1
							c-0.2,0.1-0.2,0.5,0,0.6l4.1,1.7C311.4,346,311.5,346,311.6,345.9z"/>
						<path class="st43" d="M311.7,345.5l5.7-3.4c0.1-0.1,0.1-0.2,0-0.3l-4.3-1.3c-0.1-0.1-0.3,0-0.3,0l-5.4,3.1
							c-0.1,0.1-0.1,0.2,0,0.3l3.9,1.6C311.4,345.6,311.6,345.6,311.7,345.5z"/>
					</g>
					<g>
						<path class="st42" d="M319.6,341.3l5.9-3.5c0.2-0.1,0.2-0.5-0.1-0.6l-4.4-1.3c-0.1,0-0.2,0-0.2,0l-5.5,3.1
							c-0.2,0.1-0.2,0.5,0,0.6l4.1,1.7C319.4,341.4,319.5,341.4,319.6,341.3z"/>
						<path class="st43" d="M319.7,340.9l5.7-3.4c0.1-0.1,0.1-0.2,0-0.3l-4.3-1.3c-0.1-0.1-0.3,0-0.3,0l-5.4,3.1
							c-0.1,0.1-0.1,0.2,0,0.3l3.9,1.6C319.4,341,319.6,341,319.7,340.9z"/>
					</g>
					<g>
						<path class="st42" d="M328.2,336.7l5.9-3.5c0.2-0.1,0.2-0.5-0.1-0.6l-4.4-1.3c-0.1,0-0.2,0-0.2,0l-5.5,3.1
							c-0.2,0.1-0.2,0.5,0,0.6l4.1,1.7C328,336.7,328.1,336.7,328.2,336.7z"/>
						<path class="st43" d="M328.3,336.2l5.7-3.4c0.1-0.1,0.1-0.2,0-0.3l-4.3-1.3c-0.1-0.1-0.3,0-0.3,0l-5.4,3.1
							c-0.1,0.1-0.1,0.2,0,0.3l3.9,1.6C327.9,336.3,328.1,336.3,328.3,336.2z"/>
					</g>
					<g>
						<path class="st42" d="M336.6,332.2l5.9-3.5c0.2-0.1,0.2-0.5-0.1-0.6l-4.4-1.3c-0.1,0-0.2,0-0.2,0l-5.5,3.1
							c-0.2,0.1-0.2,0.5,0,0.6l4.1,1.7C336.5,332.2,336.6,332.2,336.6,332.2z"/>
						<path class="st43" d="M336.7,331.7l5.7-3.4c0.1-0.1,0.1-0.2,0-0.3l-4.3-1.3c-0.1-0.1-0.3,0-0.3,0l-5.4,3.1
							c-0.1,0.1-0.1,0.2,0,0.3l3.9,1.6C336.4,331.8,336.6,331.8,336.7,331.7z"/>
					</g>
					<g>
						<path class="st42" d="M344.7,327.5l5.9-3.5c0.2-0.1,0.2-0.5-0.1-0.6l-4.4-1.3c-0.1,0-0.2,0-0.2,0l-5.5,3.1
							c-0.2,0.1-0.2,0.5,0,0.6l4.1,1.7C344.5,327.6,344.6,327.6,344.7,327.5z"/>
						<path class="st43" d="M344.8,327l5.7-3.4c0.1-0.1,0.1-0.2,0-0.3l-4.3-1.3c-0.1-0.1-0.3,0-0.3,0l-5.4,3.1
							c-0.1,0.1-0.1,0.2,0,0.3l3.9,1.6C344.5,327.1,344.6,327.1,344.8,327z"/>
					</g>
					<g>
						<path class="st42" d="M353.3,322.8l5.9-3.5c0.2-0.1,0.2-0.5-0.1-0.6l-4.4-1.3c-0.1,0-0.2,0-0.2,0l-5.5,3.1
							c-0.2,0.1-0.2,0.5,0,0.6l4.1,1.7C353.1,322.9,353.2,322.9,353.3,322.8z"/>
						<path class="st43" d="M353.3,322.4l5.7-3.4c0.1-0.1,0.1-0.2,0-0.3l-4.3-1.3c-0.1-0.1-0.3,0-0.3,0l-5.4,3.1
							c-0.1,0.1-0.1,0.2,0,0.3l3.9,1.6C353,322.5,353.2,322.5,353.3,322.4z"/>
					</g>
					<g>
						<path class="st42" d="M361.7,318.4l5.9-3.5c0.2-0.1,0.2-0.5-0.1-0.6l-4.4-1.3c-0.1,0-0.2,0-0.2,0l-5.5,3.1
							c-0.2,0.1-0.2,0.5,0,0.6l4.1,1.7C361.5,318.4,361.6,318.4,361.7,318.4z"/>
						<path class="st43" d="M361.8,317.9l5.7-3.4c0.1-0.1,0.1-0.2,0-0.3l-4.3-1.3c-0.1-0.1-0.3,0-0.3,0l-5.4,3.1
							c-0.1,0.1-0.1,0.2,0,0.3l3.9,1.6C361.5,318,361.7,318,361.8,317.9z"/>
					</g>
					<g>
						<path class="st42" d="M370.1,313.4l5.9-3.5c0.2-0.1,0.2-0.5-0.1-0.6l-4.4-1.3c-0.1,0-0.2,0-0.2,0l-5.5,3.1
							c-0.2,0.1-0.2,0.5,0,0.6l4.1,1.7C369.9,313.5,370,313.5,370.1,313.4z"/>
						<path class="st43" d="M370.2,313l5.7-3.4c0.1-0.1,0.1-0.2,0-0.3l-4.3-1.3c-0.1-0.1-0.3,0-0.3,0l-5.4,3.1
							c-0.1,0.1-0.1,0.2,0,0.3l3.9,1.6C369.8,313.1,370,313,370.2,313z"/>
					</g>
					<g>
						<path class="st42" d="M378.6,308.8l5.9-3.5c0.2-0.1,0.2-0.5-0.1-0.6l-4.4-1.3c-0.1,0-0.2,0-0.2,0l-5.5,3.1
							c-0.2,0.1-0.2,0.5,0,0.6l4.1,1.7C378.4,308.8,378.5,308.8,378.6,308.8z"/>
						<path class="st43" d="M378.7,308.3l5.7-3.4c0.1-0.1,0.1-0.2,0-0.3l-4.3-1.3c-0.1-0.1-0.3,0-0.3,0l-5.4,3.1
							c-0.1,0.1-0.1,0.2,0,0.3l3.9,1.6C378.4,308.4,378.6,308.4,378.7,308.3z"/>
					</g>
					<g>
						<path class="st42" d="M387.1,304.3l5.9-3.5c0.2-0.1,0.2-0.5-0.1-0.6l-4.4-1.3c-0.1,0-0.2,0-0.2,0l-5.5,3.1
							c-0.2,0.1-0.2,0.5,0,0.6l4.1,1.7C386.9,304.3,387,304.3,387.1,304.3z"/>
						<path class="st43" d="M387.2,303.8l5.7-3.4c0.1-0.1,0.1-0.2,0-0.3l-4.3-1.3c-0.1-0.1-0.3,0-0.3,0l-5.4,3.1
							c-0.1,0.1-0.1,0.2,0,0.3l3.9,1.6C386.9,303.9,387,303.9,387.2,303.8z"/>
					</g>
					<g>
						<path class="st42" d="M395.5,299.5l5.9-3.5c0.2-0.1,0.2-0.5-0.1-0.6l-4.4-1.3c-0.1,0-0.2,0-0.2,0l-5.5,3.1
							c-0.2,0.1-0.2,0.5,0,0.6l4.1,1.7C395.3,299.6,395.4,299.6,395.5,299.5z"/>
						<path class="st43" d="M395.6,299l5.7-3.4c0.1-0.1,0.1-0.2,0-0.3L397,294c-0.1-0.1-0.3,0-0.3,0l-5.4,3.1
							c-0.1,0.1-0.1,0.2,0,0.3l3.9,1.6C395.3,299.1,395.5,299.1,395.6,299z"/>
					</g>
					<g>
						<path class="st42" d="M404.1,294.8l5.9-3.5c0.2-0.1,0.2-0.5-0.1-0.6l-4.4-1.3c-0.1,0-0.2,0-0.2,0l-5.5,3.1
							c-0.2,0.1-0.2,0.5,0,0.6l4.1,1.7C403.9,294.9,404,294.9,404.1,294.8z"/>
						<path class="st43" d="M404.2,294.4l5.7-3.4c0.1-0.1,0.1-0.2,0-0.3l-4.3-1.3c-0.1-0.1-0.3,0-0.3,0l-5.4,3.1
							c-0.1,0.1-0.1,0.2,0,0.3l3.9,1.6C403.8,294.5,404,294.5,404.2,294.4z"/>
					</g>
					<g>
						<path class="st42" d="M412.5,290.4l5.9-3.5c0.2-0.1,0.2-0.5-0.1-0.6L414,285c-0.1,0-0.2,0-0.2,0l-5.5,3.1
							c-0.2,0.1-0.2,0.5,0,0.6l4.1,1.7C412.3,290.4,412.4,290.4,412.5,290.4z"/>
						<path class="st43" d="M412.6,289.9l5.7-3.4c0.1-0.1,0.1-0.2,0-0.3L414,285c-0.1-0.1-0.3,0-0.3,0l-5.4,3.1
							c-0.1,0.1-0.1,0.2,0,0.3l3.9,1.6C412.3,290,412.5,290,412.6,289.9z"/>
					</g>
					<g>
						<path class="st42" d="M421.2,284.9l5.9-3.5c0.2-0.1,0.2-0.5-0.1-0.6l-4.4-1.3c-0.1,0-0.2,0-0.2,0l-5.5,3.1
							c-0.2,0.1-0.2,0.5,0,0.6l4.1,1.7C421,285,421.1,284.9,421.2,284.9z"/>
						<path class="st43" d="M421.3,284.4l5.7-3.4c0.1-0.1,0.1-0.2,0-0.3l-4.3-1.3c-0.1-0.1-0.3,0-0.3,0l-5.4,3.1
							c-0.1,0.1-0.1,0.2,0,0.3l3.9,1.6C420.9,284.5,421.1,284.5,421.3,284.4z"/>
					</g>
					<g>
						<path class="st42" d="M429.7,280.2l5.9-3.5c0.2-0.1,0.2-0.5-0.1-0.6l-4.4-1.3c-0.1,0-0.2,0-0.2,0l-5.5,3.1
							c-0.2,0.1-0.2,0.5,0,0.6l4.1,1.7C429.5,280.3,429.6,280.3,429.7,280.2z"/>
						<path class="st43" d="M429.8,279.8l5.7-3.4c0.1-0.1,0.1-0.2,0-0.3l-4.3-1.3c-0.1-0.1-0.3,0-0.3,0l-5.4,3.1
							c-0.1,0.1-0.1,0.2,0,0.3l3.9,1.6C429.5,279.9,429.7,279.9,429.8,279.8z"/>
					</g>
					<g>
						<path class="st42" d="M437.5,275.8l5.9-3.5c0.2-0.1,0.2-0.5-0.1-0.6l-4.4-1.3c-0.1,0-0.2,0-0.2,0l-5.5,3.1
							c-0.2,0.1-0.2,0.5,0,0.6l4.1,1.7C437.3,275.8,437.5,275.8,437.5,275.8z"/>
						<path class="st43" d="M437.6,275.3l5.7-3.4c0.1-0.1,0.1-0.2,0-0.3l-4.3-1.3c-0.1-0.1-0.3,0-0.3,0l-5.4,3.1
							c-0.1,0.1-0.1,0.2,0,0.3l3.9,1.6C437.3,275.4,437.5,275.4,437.6,275.3z"/>
					</g>
					<g>
						<path class="st42" d="M445.3,271.6l5.9-3.5c0.2-0.1,0.2-0.5-0.1-0.6l-4.4-1.3c-0.1,0-0.2,0-0.2,0l-5.5,3.1
							c-0.2,0.1-0.2,0.5,0,0.6l4.1,1.7C445.1,271.7,445.2,271.7,445.3,271.6z"/>
						<path class="st43" d="M445.4,271.2l5.7-3.4c0.1-0.1,0.1-0.2,0-0.3l-4.3-1.3c-0.1-0.1-0.3,0-0.3,0l-5.4,3.1
							c-0.1,0.1-0.1,0.2,0,0.3l3.9,1.6C445.1,271.3,445.2,271.3,445.4,271.2z"/>
					</g>
				</g>
				<g>
					<g>
						<path class="st42" d="M338.1,374c0.1,0,0.2,0,0.3,0l7.8-4.7c0.3-0.2,0.3-0.6-0.1-0.8l-8.2-3.3c-0.1,0-0.2,0-0.3,0l-7.9,4.5
							c-0.3,0.2-0.3,0.6,0,0.8"/>
						<path class="st43" d="M338.3,373.1l8-4.6l-8.2-3.3c-0.2-0.1-0.4-0.1-0.6,0l-7.8,4.4L338.3,373.1z"/>
					</g>
					<g>
						<path class="st42" d="M350,367.5l7.8-4.7c0.3-0.2,0.3-0.6-0.1-0.8l-8.2-3.3c-0.1,0-0.2,0-0.3,0l-7.9,4.5
							c-0.3,0.2-0.3,0.6,0,0.8l8.3,3.5C349.7,367.5,349.8,367.5,350,367.5z"/>
						<path class="st43" d="M349.8,366.6l8-4.6l-8.2-3.3c-0.2-0.1-0.4-0.1-0.6,0l-7.8,4.4L349.8,366.6z"/>
					</g>
					<g>
						<path class="st42" d="M361.7,361.1l7.8-4.7c0.3-0.2,0.3-0.6-0.1-0.8l-8.2-3.3c-0.1,0-0.2,0-0.3,0l-7.9,4.5
							c-0.3,0.2-0.3,0.6,0,0.8l8.3,3.5C361.5,361.2,361.6,361.2,361.7,361.1z"/>
						<path class="st43" d="M361.6,360.3l8-4.6l-8.2-3.3c-0.2-0.1-0.4-0.1-0.6,0l-7.8,4.4L361.6,360.3z"/>
					</g>
					<g>
						<path class="st42" d="M373.2,354.5l7.8-4.7c0.3-0.2,0.3-0.6-0.1-0.8l-8.2-3.3c-0.1,0-0.2,0-0.3,0l-7.9,4.5
							c-0.3,0.2-0.3,0.6,0,0.8l8.3,3.5C373,354.6,373.1,354.6,373.2,354.5z"/>
						<path class="st43" d="M373.1,353.7l8-4.6l-8.2-3.3c-0.2-0.1-0.4-0.1-0.6,0l-7.8,4.4L373.1,353.7z"/>
					</g>
					<g>
						<path class="st42" d="M384.4,348.4l7.8-4.7c0.3-0.2,0.3-0.6-0.1-0.8l-8.2-3.3c-0.1,0-0.2,0-0.3,0l-7.9,4.5
							c-0.3,0.2-0.3,0.6,0,0.8l8.3,3.5C384.2,348.5,384.3,348.5,384.4,348.4z"/>
						<path class="st43" d="M384.3,347.6l8-4.6l-8.2-3.3c-0.2-0.1-0.4-0.1-0.6,0l-7.8,4.4L384.3,347.6z"/>
					</g>
					<g>
						<path class="st42" d="M395.2,342.1l7.8-4.7c0.3-0.2,0.3-0.6-0.1-0.8l-8.2-3.3c-0.1,0-0.2,0-0.3,0l-7.9,4.5
							c-0.3,0.2-0.3,0.6,0,0.8l8.3,3.5C394.9,342.2,395,342.2,395.2,342.1z"/>
						<path class="st43" d="M395,341.3l8-4.6l-8.2-3.3c-0.2-0.1-0.4-0.1-0.6,0l-7.8,4.4L395,341.3z"/>
					</g>
					<g>
						<path class="st42" d="M406.5,335.8l7.8-4.7c0.3-0.2,0.3-0.6-0.1-0.8L406,327c-0.1,0-0.2,0-0.3,0l-7.9,4.5
							c-0.3,0.2-0.3,0.6,0,0.8l8.3,3.5C406.3,335.8,406.4,335.8,406.5,335.8z"/>
						<path class="st43" d="M406.4,334.9l8-4.6l-8.2-3.3c-0.2-0.1-0.4-0.1-0.6,0l-7.8,4.4L406.4,334.9z"/>
					</g>
					<g>
						<path class="st42" d="M418.1,329.3l7.8-4.7c0.3-0.2,0.3-0.6-0.1-0.8l-8.2-3.3c-0.1,0-0.2,0-0.3,0l-7.9,4.5
							c-0.3,0.2-0.3,0.6,0,0.8l8.3,3.5C417.8,329.4,418,329.4,418.1,329.3z"/>
						<path class="st43" d="M417.9,328.5l8-4.6l-8.2-3.3c-0.2-0.1-0.4-0.1-0.6,0l-7.8,4.4L417.9,328.5z"/>
					</g>
					<g>
						<path class="st42" d="M429.8,323l7.8-4.7c0.3-0.2,0.3-0.6-0.1-0.8l-8.2-3.3c-0.1,0-0.2,0-0.3,0l-7.9,4.5
							c-0.3,0.2-0.3,0.6,0,0.8l8.3,3.5C429.6,323.1,429.7,323.1,429.8,323z"/>
						<path class="st43" d="M429.7,322.2l8-4.6l-8.2-3.3c-0.2-0.1-0.4-0.1-0.6,0l-7.8,4.4L429.7,322.2z"/>
					</g>
					<g>
						<path class="st42" d="M441.3,316.3l7.8-4.7c0.3-0.2,0.3-0.6-0.1-0.8l-8.2-3.3c-0.1,0-0.2,0-0.3,0l-7.9,4.5
							c-0.3,0.2-0.3,0.6,0,0.8l8.3,3.5C441.1,316.4,441.2,316.4,441.3,316.3z"/>
						<path class="st43" d="M441.2,315.5l8-4.6l-8.2-3.3c-0.2-0.1-0.4-0.1-0.6,0l-7.8,4.4L441.2,315.5z"/>
					</g>
					<g>
						<path class="st42" d="M452.5,310.3l7.8-4.7c0.3-0.2,0.3-0.6-0.1-0.8l-8.2-3.3c-0.1,0-0.2,0-0.3,0l-7.9,4.5
							c-0.3,0.2-0.3,0.6,0,0.8l8.3,3.5C452.3,310.4,452.4,310.4,452.5,310.3z"/>
						<path class="st43" d="M452.4,309.5l8-4.6l-8.2-3.3c-0.2-0.1-0.4-0.1-0.6,0l-7.8,4.4L452.4,309.5z"/>
					</g>
					<g>
						<path class="st42" d="M463.3,304l7.8-4.7c0.3-0.2,0.3-0.6-0.1-0.8l-8.2-3.3c-0.1,0-0.2,0-0.3,0l-7.9,4.5
							c-0.3,0.2-0.3,0.6,0,0.8l8.3,3.5C463,304,463.2,304,463.3,304z"/>
						<path class="st43" d="M463.1,303.1l8-4.6l-8.2-3.3c-0.2-0.1-0.4-0.1-0.6,0l-7.8,4.4L463.1,303.1z"/>
					</g>
					<g>
						<path class="st42" d="M474.5,297.5l7.8-4.7c0.3-0.2,0.3-0.6-0.1-0.8l-8.2-3.3c-0.1,0-0.2,0-0.3,0l-7.9,4.5
							c-0.3,0.2-0.3,0.6,0,0.8l8.3,3.5C474.3,297.6,474.4,297.5,474.5,297.5z"/>
						<path class="st43" d="M474.4,296.7l8-4.6l-8.2-3.3c-0.2-0.1-0.4-0.1-0.6,0l-7.8,4.4L474.4,296.7z"/>
					</g>
					<g>
						<path class="st42" d="M361.7,371.4l7.8-4.7c0.3-0.2,0.3-0.6-0.1-0.8l-8.2-3.3c-0.1,0-0.2,0-0.3,0l-7.9,4.5
							c-0.3,0.2-0.3,0.6,0,0.8l8.3,3.5C361.5,371.4,361.6,371.4,361.7,371.4z"/>
						<path class="st43" d="M361.6,370.5l8-4.6l-8.2-3.3c-0.2-0.1-0.4-0.1-0.6,0L353,367L361.6,370.5z"/>
					</g>
					<g>
						<path class="st42" d="M373.5,365.1l7.8-4.7c0.3-0.2,0.3-0.6-0.1-0.8l-8.2-3.3c-0.1,0-0.2,0-0.3,0l-7.9,4.5
							c-0.3,0.2-0.3,0.6,0,0.8l8.3,3.5C373.2,365.1,373.4,365.1,373.5,365.1z"/>
						<path class="st43" d="M373.3,364.2l8-4.6l-8.2-3.3c-0.2-0.1-0.4-0.1-0.6,0l-7.8,4.4L373.3,364.2z"/>
					</g>
					<g>
						<path class="st42" d="M385,358.4l7.8-4.7c0.3-0.2,0.3-0.6-0.1-0.8l-8.2-3.3c-0.1,0-0.2,0-0.3,0l-7.9,4.5
							c-0.3,0.2-0.3,0.6,0,0.8l8.3,3.5C384.7,358.5,384.9,358.5,385,358.4z"/>
						<path class="st43" d="M384.8,357.6l8-4.6l-8.2-3.3c-0.2-0.1-0.4-0.1-0.6,0l-7.8,4.4L384.8,357.6z"/>
					</g>
					<g>
						<path class="st42" d="M396.2,352.4l7.8-4.7c0.3-0.2,0.3-0.6-0.1-0.8l-8.2-3.3c-0.1,0-0.2,0-0.3,0l-7.9,4.5
							c-0.3,0.2-0.3,0.6,0,0.8l8.3,3.5C395.9,352.4,396.1,352.4,396.2,352.4z"/>
						<path class="st43" d="M396,351.5l8-4.6l-8.2-3.3c-0.2-0.1-0.4-0.1-0.6,0l-7.8,4.4L396,351.5z"/>
					</g>
					<g>
						<path class="st42" d="M406.9,346l7.8-4.7c0.3-0.2,0.3-0.6-0.1-0.8l-8.2-3.3c-0.1,0-0.2,0-0.3,0l-7.9,4.5
							c-0.3,0.2-0.3,0.6,0,0.8l8.3,3.5C406.7,346.1,406.8,346.1,406.9,346z"/>
						<path class="st43" d="M406.8,345.2l8-4.6l-8.2-3.3c-0.2-0.1-0.4-0.1-0.6,0l-7.8,4.4L406.8,345.2z"/>
					</g>
					<g>
						<path class="st42" d="M418.3,339.7l7.8-4.7c0.3-0.2,0.3-0.6-0.1-0.8l-8.2-3.3c-0.1,0-0.2,0-0.3,0l-7.9,4.5
							c-0.3,0.2-0.3,0.6,0,0.8l8.3,3.5C418,339.8,418.2,339.7,418.3,339.7z"/>
						<path class="st43" d="M418.1,338.9l8-4.6L418,331c-0.2-0.1-0.4-0.1-0.6,0l-7.8,4.4L418.1,338.9z"/>
					</g>
					<g>
						<path class="st42" d="M429.8,333.2l7.8-4.7c0.3-0.2,0.3-0.6-0.1-0.8l-8.2-3.3c-0.1,0-0.2,0-0.3,0l-7.9,4.5
							c-0.3,0.2-0.3,0.6,0,0.8l8.3,3.5C429.6,333.3,429.7,333.3,429.8,333.2z"/>
						<path class="st43" d="M429.7,332.4l8-4.6l-8.2-3.3c-0.2-0.1-0.4-0.1-0.6,0l-7.8,4.4L429.7,332.4z"/>
					</g>
					<g>
						<path class="st42" d="M441.6,326.9l7.8-4.7c0.3-0.2,0.3-0.6-0.1-0.8l-8.2-3.3c-0.1,0-0.2,0-0.3,0l-7.9,4.5
							c-0.3,0.2-0.3,0.6,0,0.8l8.3,3.5C441.3,327,441.5,327,441.6,326.9z"/>
						<path class="st43" d="M441.4,326.1l8-4.6l-8.2-3.3c-0.2-0.1-0.4-0.1-0.6,0l-7.8,4.4L441.4,326.1z"/>
					</g>
					<g>
						<path class="st42" d="M453.1,320.3l7.8-4.7c0.3-0.2,0.3-0.6-0.1-0.8l-8.2-3.3c-0.1,0-0.2,0-0.3,0l-7.9,4.5
							c-0.3,0.2-0.3,0.6,0,0.8l8.3,3.5C452.8,320.3,453,320.3,453.1,320.3z"/>
						<path class="st43" d="M452.9,319.4l8-4.6l-8.2-3.3c-0.2-0.1-0.4-0.1-0.6,0l-7.8,4.4L452.9,319.4z"/>
					</g>
					<g>
						<path class="st42" d="M464.3,314.2l7.8-4.7c0.3-0.2,0.3-0.6-0.1-0.8l-8.2-3.3c-0.1,0-0.2,0-0.3,0l-7.9,4.5
							c-0.3,0.2-0.3,0.6,0,0.8l8.3,3.5C464,314.3,464.2,314.3,464.3,314.2z"/>
						<path class="st43" d="M464.1,313.4l8-4.6l-8.2-3.3c-0.2-0.1-0.4-0.1-0.6,0l-7.8,4.4L464.1,313.4z"/>
					</g>
					<g>
						<path class="st42" d="M475,307.9l7.8-4.7c0.3-0.2,0.3-0.6-0.1-0.8l-8.2-3.3c-0.1,0-0.2,0-0.3,0l-7.9,4.5
							c-0.3,0.2-0.3,0.6,0,0.8l8.3,3.5C474.8,307.9,474.9,307.9,475,307.9z"/>
						<path class="st43" d="M474.9,307l8-4.6l-8.2-3.3c-0.2-0.1-0.4-0.1-0.6,0l-7.8,4.4L474.9,307z"/>
					</g>
					<g>
						<path class="st42" d="M485.3,301.7l7.8-4.7c0.3-0.2,0.3-0.6-0.1-0.8l-8.2-3.3c-0.1,0-0.2,0-0.3,0l-7.9,4.5
							c-0.3,0.2-0.3,0.6,0,0.8l8.3,3.5C485.1,301.8,485.2,301.8,485.3,301.7z"/>
						<path class="st43" d="M485.2,300.9l8-4.6L485,293c-0.2-0.1-0.4-0.1-0.6,0l-7.8,4.4L485.2,300.9z"/>
					</g>
					<g>
						<path class="st42" d="M495.9,295.9l7.5-4.6c0.3-0.2,0.2-0.6-0.1-0.7l-7.9-3.2c-0.1,0-0.2,0-0.3,0l-7.6,4.3
							c-0.3,0.2-0.3,0.6,0,0.7l8,3.4C495.7,295.9,495.8,295.9,495.9,295.9z"/>
						<path class="st43" d="M495.8,295.1l7.7-4.4l-7.9-3.2c-0.2-0.1-0.4-0.1-0.6,0l-7.5,4.2L495.8,295.1z"/>
					</g>
					<g>
						<path class="st42" d="M485.4,291.9l7.8-4.7c0.3-0.2,0.3-0.6-0.1-0.8l-8.2-3.3c-0.1,0-0.2,0-0.3,0l-7.9,4.5
							c-0.3,0.2-0.3,0.6,0,0.8l8.3,3.5C485.2,291.9,485.3,291.9,485.4,291.9z"/>
						<path class="st43" d="M485.2,291l8-4.6l-8.2-3.3c-0.2-0.1-0.4-0.1-0.6,0l-7.8,4.4L485.2,291z"/>
					</g>
					<g>
						<path class="st42" d="M373.5,375.8l7.8-4.7c0.3-0.2,0.3-0.6-0.1-0.8L373,367c-0.1,0-0.2,0-0.3,0l-7.9,4.5
							c-0.3,0.2-0.3,0.6,0,0.8l8.3,3.5C373.2,375.9,373.3,375.9,373.5,375.8z"/>
						<path class="st43" d="M373.3,375l8-4.6l-8.2-3.3c-0.2-0.1-0.4-0.1-0.6,0l-7.8,4.4L373.3,375z"/>
					</g>
					<g>
						<path class="st42" d="M385,369.5l7.8-4.7c0.3-0.2,0.3-0.6-0.1-0.8l-8.2-3.3c-0.1,0-0.2,0-0.3,0l-7.9,4.5
							c-0.3,0.2-0.3,0.6,0,0.8l8.3,3.5C384.7,369.6,384.8,369.6,385,369.5z"/>
						<path class="st43" d="M384.8,368.7l8-4.6l-8.2-3.3c-0.2-0.1-0.4-0.1-0.6,0l-7.8,4.4L384.8,368.7z"/>
					</g>
					<g>
						<path class="st42" d="M396,362.9l7.8-4.7c0.3-0.2,0.3-0.6-0.1-0.8l-8.2-3.3c-0.1,0-0.2,0-0.3,0l-7.9,4.5
							c-0.3,0.2-0.3,0.6,0,0.8l8.3,3.5C395.8,362.9,395.9,362.9,396,362.9z"/>
						<path class="st43" d="M395.9,362l8-4.6l-8.2-3.3c-0.2-0.1-0.4-0.1-0.6,0l-7.8,4.4L395.9,362z"/>
					</g>
					<g>
						<path class="st42" d="M407.2,356.6l7.8-4.7c0.3-0.2,0.3-0.6-0.1-0.8l-8.2-3.3c-0.1,0-0.2,0-0.3,0l-7.9,4.5
							c-0.3,0.2-0.3,0.6,0,0.8l8.3,3.5C407,356.7,407.1,356.6,407.2,356.6z"/>
						<path class="st43" d="M407.1,355.8l8-4.6l-8.2-3.3c-0.2-0.1-0.4-0.1-0.6,0l-7.8,4.4L407.1,355.8z"/>
					</g>
					<g>
						<path class="st42" d="M418.2,350.3l53.4-29.9c1-0.4,0.8-1.2-0.1-1.3l-7.4-3c-0.2-0.1-0.4-0.1-0.6,0l-53.1,30.1
							c-0.5,0.3-0.5,1.1,0.1,1.3l7.2,2.7C417.8,350.4,418,350.4,418.2,350.3z"/>
						<path class="st43" d="M418,349.6l53.9-29.9c0.1-0.1,0.1-0.3,0-0.3l-7.8-3.1c-0.2-0.1-0.4-0.1-0.6,0l-53.1,30.1
							c-0.1,0.1-0.1,0.3,0,0.3l7.5,2.9C417.9,349.6,417.9,349.6,418,349.6z"/>
					</g>
					<g>
						<path class="st42" d="M475,318.6l7.8-4.7c0.3-0.2,0.3-0.6-0.1-0.8l-8.2-3.3c-0.1,0-0.2,0-0.3,0l-7.9,4.5
							c-0.3,0.2-0.3,0.6,0,0.8l8.3,3.5C474.8,318.7,474.9,318.6,475,318.6z"/>
						<path class="st43" d="M474.9,317.8l8-4.6l-8.2-3.3c-0.2-0.1-0.4-0.1-0.6,0l-7.8,4.4L474.9,317.8z"/>
					</g>
					<g>
						<path class="st42" d="M485.9,312.3l7.8-4.7c0.3-0.2,0.3-0.6-0.1-0.8l-8.2-3.3c-0.1,0-0.2,0-0.3,0l-7.9,4.5
							c-0.3,0.2-0.3,0.6,0,0.8l8.3,3.5C485.7,312.4,485.8,312.4,485.9,312.3z"/>
						<path class="st43" d="M485.8,311.5l8-4.6l-8.2-3.3c-0.2-0.1-0.4-0.1-0.6,0l-7.8,4.4L485.8,311.5z"/>
					</g>
					<g>
						<path class="st42" d="M495.9,306.3l7.8-4.7c0.3-0.2,0.3-0.6-0.1-0.8l-8.2-3.3c-0.1,0-0.2,0-0.3,0l-7.9,4.5
							c-0.3,0.2-0.3,0.6,0,0.8l8.3,3.5C495.6,306.3,495.8,306.3,495.9,306.3z"/>
						<path class="st43" d="M495.7,305.4l8-4.6l-8.2-3.3c-0.2-0.1-0.4-0.1-0.6,0l-7.8,4.4L495.7,305.4z"/>
					</g>
					<g>
						<path class="st42" d="M505.8,299.9l7.4-4.5c0.3-0.2,0.2-0.6-0.1-0.7l-7.8-3.1c-0.1,0-0.2,0-0.3,0l-7.5,4.2
							c-0.3,0.2-0.3,0.6,0,0.7l7.8,3.3C505.6,300,505.7,300,505.8,299.9z"/>
						<path class="st43" d="M505.7,299.2l7.6-4.3l-7.7-3.1c-0.2-0.1-0.4-0.1-0.6,0l-7.3,4.2L505.7,299.2z"/>
					</g>
					<g>
						<path class="st42" d="M358.3,374c0.6-0.4,0.5-1.1-0.1-1.3l-8-3.4c-0.2-0.1-0.4-0.1-0.6,0l-8.8,5.3c-0.5,0.4-0.5,1.5,0.1,1.7
							l7.6,3.6"/>
						<path class="st43" d="M349.8,378.5l8.2-5.1c0.3-0.2,0.3-0.6-0.1-0.8l-7.8-3.3c-0.2-0.2-0.5-0.1-0.7,0l-8.1,4.9
							c-0.5,0.3-0.4,1,0.1,1.3l6.7,3.1C348.7,378.9,349.3,378.9,349.8,378.5z"/>
					</g>
					<g>
						<path class="st42" d="M360.4,384.1c0.2,0.1,0.5,0.1,0.7,0l9-5.8c0.6-0.4,0.5-1.1-0.1-1.3l-8-3.4c-0.2-0.1-0.4-0.1-0.6,0
							l-8.8,5.3c-0.5,0.4-0.5,1.5,0.1,1.7"/>
						<path class="st43" d="M360,382.9c0.5,0.2,1.1,0.2,1.6-0.1l8.2-5.1c0.3-0.2,0.3-0.6-0.1-0.8l-7.8-3.3c-0.2-0.2-0.5-0.1-0.7,0
							l-8.1,4.9c-0.5,0.3-0.4,1,0.1,1.3"/>
					</g>
				</g>
				<g>
					<g>
						<path class="st42" d="M304.2,360.2l7.9-4.7c0.3-0.2,0.3-0.6,0-0.8l-8.2-3.4c-0.1,0-0.2,0-0.3,0l-7.9,4.4
							c-0.3,0.2-0.3,0.6,0,0.8l8.3,3.6C303.9,360.3,304.1,360.3,304.2,360.2z"/>
						<path class="st43" d="M304,359.4l8.1-4.5l-8.1-3.4c-0.2-0.1-0.4-0.1-0.6,0l-7.8,4.3L304,359.4z"/>
					</g>
					<g>
						<path class="st42" d="M315.7,353.8l7.9-4.7c0.3-0.2,0.3-0.6,0-0.8l-8.2-3.4c-0.1,0-0.2,0-0.3,0l-7.9,4.4
							c-0.3,0.2-0.3,0.6,0,0.8l8.3,3.6C315.5,353.9,315.6,353.9,315.7,353.8z"/>
						<path class="st43" d="M315.6,353l8.1-4.5l-8.1-3.4c-0.2-0.1-0.4-0.1-0.6,0l-7.8,4.3L315.6,353z"/>
					</g>
					<g>
						<path class="st42" d="M327.6,347.6l7.9-4.7c0.3-0.2,0.3-0.6,0-0.8l-8.2-3.4c-0.1,0-0.2,0-0.3,0l-7.9,4.4
							c-0.3,0.2-0.3,0.6,0,0.8l8.3,3.6C327.3,347.7,327.5,347.7,327.6,347.6z"/>
						<path class="st43" d="M327.4,346.8l8.1-4.5l-8.1-3.4c-0.2-0.1-0.4-0.1-0.6,0l-7.8,4.3L327.4,346.8z"/>
					</g>
					<g>
						<path class="st42" d="M339.1,341.1l7.9-4.7c0.3-0.2,0.3-0.6,0-0.8l-8.2-3.4c-0.1,0-0.2,0-0.3,0l-7.9,4.4
							c-0.3,0.2-0.3,0.6,0,0.8l8.3,3.6C338.9,341.2,339,341.1,339.1,341.1z"/>
						<path class="st43" d="M339,340.3l8.1-4.5l-8.1-3.4c-0.2-0.1-0.4-0.1-0.6,0l-7.8,4.3L339,340.3z"/>
					</g>
					<g>
						<path class="st42" d="M350.4,335.1l7.9-4.7c0.3-0.2,0.3-0.6,0-0.8l-8.2-3.4c-0.1,0-0.2,0-0.3,0l-7.9,4.4
							c-0.3,0.2-0.3,0.6,0,0.8l8.3,3.6C350.2,335.2,350.3,335.2,350.4,335.1z"/>
						<path class="st43" d="M350.2,334.3l8.1-4.5l-8.1-3.4c-0.2-0.1-0.4-0.1-0.6,0l-7.8,4.3L350.2,334.3z"/>
					</g>
					<g>
						<path class="st42" d="M361.2,328.9l7.9-4.7c0.3-0.2,0.3-0.6,0-0.8l-8.2-3.4c-0.1,0-0.2,0-0.3,0l-7.9,4.4
							c-0.3,0.2-0.3,0.6,0,0.8l8.3,3.6C360.9,329,361.1,329,361.2,328.9z"/>
						<path class="st43" d="M361,328.1l8.1-4.5l-8.1-3.4c-0.2-0.1-0.4-0.1-0.6,0l-7.8,4.3L361,328.1z"/>
					</g>
					<g>
						<path class="st42" d="M372.6,322.6l7.9-4.7c0.3-0.2,0.3-0.6,0-0.8l-8.2-3.4c-0.1,0-0.2,0-0.3,0l-7.9,4.4
							c-0.3,0.2-0.3,0.6,0,0.8l8.3,3.6C372.4,322.7,372.5,322.7,372.6,322.6z"/>
						<path class="st43" d="M372.5,321.8l8.1-4.5l-8.1-3.4c-0.2-0.1-0.4-0.1-0.6,0l-7.8,4.3L372.5,321.8z"/>
					</g>
					<g>
						<path class="st42" d="M384.2,316.3l7.9-4.7c0.3-0.2,0.3-0.6,0-0.8l-8.2-3.4c-0.1,0-0.2,0-0.3,0l-7.9,4.4
							c-0.3,0.2-0.3,0.6,0,0.8l8.3,3.6C384,316.3,384.1,316.3,384.2,316.3z"/>
						<path class="st43" d="M384.1,315.4l8.1-4.5l-8.1-3.4c-0.2-0.1-0.4-0.1-0.6,0l-7.8,4.3L384.1,315.4z"/>
					</g>
					<g>
						<path class="st42" d="M396,310.1l7.9-4.7c0.3-0.2,0.3-0.6,0-0.8l-8.2-3.4c-0.1,0-0.2,0-0.3,0l-7.9,4.4c-0.3,0.2-0.3,0.6,0,0.8
							l8.3,3.6C395.8,310.1,395.9,310.1,396,310.1z"/>
						<path class="st43" d="M395.9,309.2l8.1-4.5l-8.1-3.4c-0.2-0.1-0.4-0.1-0.6,0l-7.8,4.3L395.9,309.2z"/>
					</g>
					<g>
						<path class="st42" d="M407.6,303.5l7.9-4.7c0.3-0.2,0.3-0.6,0-0.8l-8.2-3.4c-0.1,0-0.2,0-0.3,0l-7.9,4.4
							c-0.3,0.2-0.3,0.6,0,0.8l8.3,3.6C407.3,303.6,407.5,303.6,407.6,303.5z"/>
						<path class="st43" d="M407.4,302.7l8.1-4.5l-8.1-3.4c-0.2-0.1-0.4-0.1-0.6,0l-7.8,4.3L407.4,302.7z"/>
					</g>
					<g>
						<path class="st42" d="M418.8,297.6l7.9-4.7c0.3-0.2,0.3-0.6,0-0.8l-8.2-3.4c-0.1,0-0.2,0-0.3,0l-7.9,4.4
							c-0.3,0.2-0.3,0.6,0,0.8l8.3,3.6C418.6,297.6,418.7,297.6,418.8,297.6z"/>
						<path class="st43" d="M418.7,296.7l8.1-4.5l-8.1-3.4c-0.2-0.1-0.4-0.1-0.6,0l-7.8,4.3L418.7,296.7z"/>
					</g>
					<g>
						<path class="st42" d="M429.6,291.3l7.9-4.7c0.3-0.2,0.3-0.6,0-0.8l-8.2-3.4c-0.1,0-0.2,0-0.3,0l-8,4.6c-0.3,0.2-0.3,0.6,0,0.8
							l8.3,3.6C429.4,291.4,429.5,291.4,429.6,291.3z"/>
						<path class="st43" d="M429.5,290.5l8.1-4.5l-8.1-3.4c-0.2-0.1-0.4-0.1-0.6,0L421,287L429.5,290.5z"/>
					</g>
					<g>
						<path class="st42" d="M440.9,285l7.9-4.7c0.3-0.2,0.3-0.6,0-0.8l-8.2-3.4c-0.1,0-0.2,0-0.3,0l-7.9,4.4c-0.3,0.2-0.3,0.6,0,0.8
							l8.3,3.6C440.7,285,440.8,285,440.9,285z"/>
						<path class="st43" d="M440.8,284.1l8.1-4.5l-8.1-3.4c-0.2-0.1-0.4-0.1-0.6,0l-7.8,4.3L440.8,284.1z"/>
					</g>
					<g>
						<path class="st42" d="M327.5,357.8l7.9-4.7c0.3-0.2,0.3-0.6,0-0.8l-8.2-3.4c-0.1,0-0.2,0-0.3,0l-7.9,4.4
							c-0.3,0.2-0.3,0.6,0,0.8l8.3,3.6C327.2,357.9,327.4,357.9,327.5,357.8z"/>
						<path class="st43" d="M327.3,357l8.1-4.5l-8.1-3.4c-0.2-0.1-0.4-0.1-0.6,0l-7.8,4.3L327.3,357z"/>
					</g>
					<g>
						<path class="st42" d="M339.3,351.6l7.9-4.7c0.3-0.2,0.3-0.6,0-0.8l-8.2-3.4c-0.1,0-0.2,0-0.3,0l-7.9,4.4
							c-0.3,0.2-0.3,0.6,0,0.8l8.3,3.6C339,351.7,339.2,351.7,339.3,351.6z"/>
						<path class="st43" d="M339.1,350.8l8.1-4.5l-8.1-3.4c-0.2-0.1-0.4-0.1-0.6,0l-7.8,4.3L339.1,350.8z"/>
					</g>
					<g>
						<path class="st42" d="M350.8,345.1l7.9-4.7c0.3-0.2,0.3-0.6,0-0.8l-8.2-3.4c-0.1,0-0.2,0-0.3,0l-7.9,4.4
							c-0.3,0.2-0.3,0.6,0,0.8l8.3,3.6C350.6,345.2,350.7,345.2,350.8,345.1z"/>
						<path class="st43" d="M350.7,344.3l8.1-4.5l-8.1-3.4c-0.2-0.1-0.4-0.1-0.6,0l-7.8,4.3L350.7,344.3z"/>
					</g>
					<g>
						<path class="st42" d="M362.1,339.1l7.9-4.7c0.3-0.2,0.3-0.6,0-0.8l-8.2-3.4c-0.1,0-0.2,0-0.3,0l-7.9,4.4
							c-0.3,0.2-0.3,0.6,0,0.8l8.3,3.6C361.9,339.2,362,339.2,362.1,339.1z"/>
						<path class="st43" d="M362,338.3l8.1-4.5l-8.1-3.4c-0.2-0.1-0.4-0.1-0.6,0l-7.8,4.3L362,338.3z"/>
					</g>
					<g>
						<path class="st42" d="M372.9,332.9l7.9-4.7c0.3-0.2,0.3-0.6,0-0.8l-8.2-3.4c-0.1,0-0.2,0-0.3,0l-7.9,4.4
							c-0.3,0.2-0.3,0.6,0,0.8l8.3,3.6C372.7,333,372.8,333,372.9,332.9z"/>
						<path class="st43" d="M372.8,332.1l8.1-4.5l-8.1-3.4c-0.2-0.1-0.4-0.1-0.6,0l-7.8,4.3L372.8,332.1z"/>
					</g>
					<g>
						<path class="st42" d="M384.3,326.7l7.9-4.7c0.3-0.2,0.3-0.6,0-0.8l-8.2-3.4c-0.1,0-0.2,0-0.3,0l-7.9,4.4
							c-0.3,0.2-0.3,0.6,0,0.8l8.3,3.6C384.1,326.7,384.2,326.7,384.3,326.7z"/>
						<path class="st43" d="M384.2,325.8l8.1-4.5l-8.1-3.4c-0.2-0.1-0.4-0.1-0.6,0l-7.8,4.3L384.2,325.8z"/>
					</g>
					<g>
						<path class="st42" d="M395.9,320.3l7.9-4.7c0.3-0.2,0.3-0.6,0-0.8l-8.2-3.4c-0.1,0-0.2,0-0.3,0l-7.9,4.4
							c-0.3,0.2-0.3,0.6,0,0.8l8.3,3.6C395.7,320.4,395.8,320.3,395.9,320.3z"/>
						<path class="st43" d="M395.8,319.5l8.1-4.5l-8.1-3.4c-0.2-0.1-0.4-0.1-0.6,0l-7.8,4.3L395.8,319.5z"/>
					</g>
					<g>
						<path class="st43" d="M407.7,314.1l7.9-4.7c0.3-0.2,0.3-0.6,0-0.8l-8.2-3.4c-0.1,0-0.2,0-0.3,0l-7.9,4.4
							c-0.3,0.2-0.3,0.6,0,0.8l8.3,3.6C407.5,314.2,407.6,314.1,407.7,314.1z"/>
						<path class="st43" d="M407.6,313.3l8.1-4.5l-8.1-3.4c-0.2-0.1-0.4-0.1-0.6,0l-7.8,4.3L407.6,313.3z"/>
					</g>
					<g>
						<path class="st42" d="M419.3,307.5l7.9-4.7c0.3-0.2,0.3-0.6,0-0.8l-8.2-3.4c-0.1,0-0.2,0-0.3,0l-7.9,4.4
							c-0.3,0.2-0.3,0.6,0,0.8l8.3,3.6C419,307.6,419.2,307.6,419.3,307.5z"/>
						<path class="st43" d="M419.1,306.7l8.1-4.5l-8.1-3.4c-0.2-0.1-0.4-0.1-0.6,0l-7.8,4.3L419.1,306.7z"/>
					</g>
					<g>
						<path class="st42" d="M430.5,301.6l7.9-4.7c0.3-0.2,0.3-0.6,0-0.8l-8.2-3.4c-0.1,0-0.2,0-0.3,0l-7.9,4.4
							c-0.3,0.2-0.3,0.6,0,0.8l8.3,3.6C430.3,301.7,430.4,301.6,430.5,301.6z"/>
						<path class="st43" d="M430.4,300.7l8.1-4.5l-8.1-3.4c-0.2-0.1-0.4-0.1-0.6,0l-7.8,4.3L430.4,300.7z"/>
					</g>
					<g>
						<path class="st42" d="M441.3,295.3l7.9-4.7c0.3-0.2,0.3-0.6,0-0.8l-8.2-3.4c-0.1,0-0.2,0-0.3,0l-7.9,4.4
							c-0.3,0.2-0.3,0.6,0,0.8l8.3,3.6C441.1,295.4,441.2,295.4,441.3,295.3z"/>
						<path class="st43" d="M441.2,294.5l8.1-4.5l-8.1-3.4c-0.2-0.1-0.4-0.1-0.6,0l-7.8,4.3L441.2,294.5z"/>
					</g>
					<g>
						<path class="st42" d="M452.6,289l7.9-4.7c0.3-0.2,0.3-0.6,0-0.8l-8.2-3.4c-0.1,0-0.2,0-0.3,0l-7.9,4.4c-0.3,0.2-0.3,0.6,0,0.8
							l8.3,3.6C452.4,289,452.5,289,452.6,289z"/>
						<path class="st43" d="M452.5,288.1l8.1-4.5l-8.1-3.4c-0.2-0.1-0.4-0.1-0.6,0l-7.8,4.3L452.5,288.1z"/>
					</g>
					<g>
						<path class="st42" d="M463.6,282.7l7.9-4.7c0.3-0.2,0.3-0.6,0-0.8l-8.2-3.4c-0.1,0-0.2,0-0.3,0l-7.9,4.4
							c-0.3,0.2-0.3,0.6,0,0.8l8.3,3.6C463.4,282.8,463.5,282.8,463.6,282.7z"/>
						<path class="st43" d="M463.5,281.9l8.1-4.5l-8.1-3.4c-0.2-0.1-0.4-0.1-0.6,0l-7.8,4.3L463.5,281.9z"/>
					</g>
					<g>
						<path class="st42" d="M339.2,362.4l7.9-4.7c0.3-0.2,0.3-0.6,0-0.8l-8.2-3.4c-0.1,0-0.2,0-0.3,0l-7.9,4.4
							c-0.3,0.2-0.3,0.6,0,0.8l8.3,3.6C338.9,362.5,339.1,362.5,339.2,362.4z"/>
						<path class="st43" d="M339,361.6l8.1-4.5l-8.1-3.4c-0.2-0.1-0.4-0.1-0.6,0l-7.8,4.3L339,361.6z"/>
					</g>
					<g>
						<path class="st42" d="M350.7,356.2l7.9-4.7c0.3-0.2,0.3-0.6,0-0.8l-8.2-3.4c-0.1,0-0.2,0-0.3,0l-7.9,4.4
							c-0.3,0.2-0.3,0.6,0,0.8l8.3,3.6C350.5,356.3,350.6,356.2,350.7,356.2z"/>
						<path class="st43" d="M350.6,355.3l8.1-4.5l-8.1-3.4c-0.2-0.1-0.4-0.1-0.6,0l-7.8,4.3L350.6,355.3z"/>
					</g>
					<g>
						<path class="st42" d="M361.8,349.6l7.9-4.7c0.3-0.2,0.3-0.6,0-0.8l-8.2-3.4c-0.1,0-0.2,0-0.3,0l-7.9,4.4
							c-0.3,0.2-0.3,0.6,0,0.8l8.3,3.6C361.6,349.7,361.7,349.7,361.8,349.6z"/>
						<path class="st43" d="M361.7,348.8l8.1-4.5l-8.1-3.4c-0.2-0.1-0.4-0.1-0.6,0l-7.8,4.3L361.7,348.8z"/>
					</g>
					<g>
						<path class="st42" d="M373.1,343.5l7.9-4.7c0.3-0.2,0.3-0.6,0-0.8l-8.2-3.4c-0.1,0-0.2,0-0.3,0l-7.9,4.4
							c-0.3,0.2-0.3,0.6,0,0.8l8.3,3.6C372.9,343.5,373,343.5,373.1,343.5z"/>
						<path class="st43" d="M373,342.6l8.1-4.5l-8.1-3.4c-0.2-0.1-0.4-0.1-0.6,0l-7.8,4.3L373,342.6z"/>
					</g>
					<g>
						<path class="st42" d="M384.7,337.4l7.9-4.7c0.3-0.2,0.3-0.6,0-0.8l-8.2-3.4c-0.1,0-0.2,0-0.3,0l-7.9,4.4
							c-0.3,0.2-0.3,0.6,0,0.8l8.3,3.6C384.5,337.5,384.6,337.5,384.7,337.4z"/>
						<path class="st43" d="M384.6,336.6l8.1-4.5l-8.1-3.4c-0.2-0.1-0.4-0.1-0.6,0l-7.8,4.3L384.6,336.6z"/>
					</g>
					<g>
						<path class="st42" d="M395.8,331.1l7.9-4.7c0.3-0.2,0.3-0.6,0-0.8l-8.2-3.4c-0.1,0-0.2,0-0.3,0l-7.9,4.4
							c-0.3,0.2-0.3,0.6,0,0.8l8.3,3.6C395.6,331.2,395.7,331.2,395.8,331.1z"/>
						<path class="st43" d="M395.7,330.3l8.1-4.5l-8.1-3.4c-0.2-0.1-0.4-0.1-0.6,0l-7.8,4.3L395.7,330.3z"/>
					</g>
					<g>
						<path class="st42" d="M407.4,324.9l7.9-4.7c0.3-0.2,0.3-0.6,0-0.8l-8.2-3.4c-0.1,0-0.2,0-0.3,0l-7.9,4.4
							c-0.3,0.2-0.3,0.6,0,0.8l8.3,3.6C407.2,325,407.3,325,407.4,324.9z"/>
						<path class="st43" d="M407.3,324.1l8.1-4.5l-8.1-3.4c-0.2-0.1-0.4-0.1-0.6,0l-7.8,4.3L407.3,324.1z"/>
					</g>
					<g>
						<path class="st42" d="M419.2,318.7l7.9-4.7c0.3-0.2,0.3-0.6,0-0.8l-8.2-3.4c-0.1,0-0.2,0-0.3,0l-7.9,4.4
							c-0.3,0.2-0.3,0.6,0,0.8l8.3,3.6C418.9,318.7,419.1,318.7,419.2,318.7z"/>
						<path class="st43" d="M419,317.8l8.1-4.5l-8.1-3.4c-0.2-0.1-0.4-0.1-0.6,0l-7.8,4.3L419,317.8z"/>
					</g>
					<g>
						<path class="st42" d="M430.5,312.3l7.9-4.7c0.3-0.2,0.3-0.6,0-0.8l-8.2-3.4c-0.1,0-0.2,0-0.3,0l-7.9,4.4
							c-0.3,0.2-0.3,0.6,0,0.8l8.3,3.6C430.2,312.4,430.4,312.3,430.5,312.3z"/>
						<path class="st43" d="M430.3,311.5l8.1-4.5l-8.1-3.4c-0.2-0.1-0.4-0.1-0.6,0l-7.8,4.3L430.3,311.5z"/>
					</g>
					<g>
						<path class="st42" d="M441.2,306.1l7.9-4.7c0.3-0.2,0.3-0.6,0-0.8l-8.2-3.4c-0.1,0-0.2,0-0.3,0l-7.9,4.4
							c-0.3,0.2-0.3,0.6,0,0.8l8.3,3.6C441,306.1,441.1,306.1,441.2,306.1z"/>
						<path class="st43" d="M441.1,305.2l8.1-4.5l-8.1-3.4c-0.2-0.1-0.4-0.1-0.6,0l-7.8,4.3L441.1,305.2z"/>
					</g>
					<g>
						<path class="st42" d="M452.2,299.9l7.9-4.7c0.3-0.2,0.3-0.6,0-0.8l-8.2-3.4c-0.1,0-0.2,0-0.3,0l-7.9,4.4
							c-0.3,0.2-0.3,0.6,0,0.8l8.3,3.6C452,300,452.1,299.9,452.2,299.9z"/>
						<path class="st43" d="M452,299l8.1-4.5l-8.1-3.4c-0.2-0.1-0.4-0.1-0.6,0l-7.8,4.3L452,299z"/>
					</g>
					<g>
						<path class="st42" d="M463.6,293.2l7.9-4.7c0.3-0.2,0.3-0.6,0-0.8l-8.2-3.4c-0.1,0-0.2,0-0.3,0l-7.9,4.4
							c-0.3,0.2-0.3,0.6,0,0.8l8.3,3.6C463.3,293.2,463.5,293.2,463.6,293.2z"/>
						<path class="st43" d="M463.4,292.3l8.1-4.5l-8.1-3.4c-0.2-0.1-0.4-0.1-0.6,0l-7.8,4.3L463.4,292.3z"/>
					</g>
					<g>
						<path class="st42" d="M474.2,287.5l7.9-4.7c0.3-0.2,0.3-0.6,0-0.8l-8.2-3.4c-0.1,0-0.2,0-0.3,0l-7.9,4.4
							c-0.3,0.2-0.3,0.6,0,0.8l8.3,3.6C474,287.6,474.1,287.5,474.2,287.5z"/>
						<path class="st43" d="M474.1,286.7l8.1-4.5l-8.1-3.4c-0.2-0.1-0.4-0.1-0.6,0l-7.8,4.3L474.1,286.7z"/>
					</g>
					<g>
						<path class="st42" d="M451.3,279.2l9.1-5.8c0.6-0.3,0.5-1.1-0.1-1.3l-8-3.4c-0.2-0.1-0.4-0.1-0.6,0l-8.8,5.2
							c-0.5,0.4-0.5,1.5,0.1,1.7l7.6,3.7C450.8,279.4,451.1,279.4,451.3,279.2z"/>
						<path class="st43" d="M451.9,277.9l8.3-5.1c0.3-0.2,0.3-0.6,0-0.8l-7.8-3.4c-0.2-0.2-0.5-0.1-0.7,0l-8.2,4.8
							c-0.5,0.3-0.5,1,0,1.3l6.7,3.2C450.8,278.3,451.4,278.3,451.9,277.9z"/>
					</g>
					<g>
						<path class="st42" d="M314.9,366.2l9.1-5.8c0.6-0.3,0.5-1.1-0.1-1.3l-8-3.4c-0.2-0.1-0.4-0.1-0.6,0l-8.8,5.2
							c-0.5,0.4-0.5,1.5,0.1,1.7l7.6,3.7C314.5,366.4,314.7,366.3,314.9,366.2z"/>
						<path class="st43" d="M315.5,364.9l8.3-5.1c0.3-0.2,0.3-0.6,0-0.8l-7.8-3.4c-0.2-0.2-0.5-0.1-0.7,0l-8.2,4.8
							c-0.5,0.3-0.5,1,0,1.3l6.7,3.2C314.4,365.3,315,365.2,315.5,364.9z"/>
					</g>
					<g>
						<path class="st42" d="M326.7,370.5l9.1-5.8c0.6-0.3,0.5-1.1-0.1-1.3l-8-3.4c-0.2-0.1-0.4-0.1-0.6,0l-8.8,5.2
							c-0.5,0.4-0.5,1.5,0.1,1.7l7.6,3.7C326.3,370.7,326.5,370.7,326.7,370.5z"/>
						<path class="st43" d="M327.3,369.3l8.3-5.1c0.3-0.2,0.3-0.6,0-0.8l-7.8-3.4c-0.2-0.2-0.5-0.1-0.7,0l-8.2,4.8
							c-0.5,0.3-0.4,1,0,1.3l6.7,3.2C326.2,369.6,326.8,369.6,327.3,369.3z"/>
					</g>
				</g>
			</g>
		</g>
		<g>
			<path class="st44" d="M366.2,220.8l-2.9-1.5c0.1-0.4,0.1-0.9-0.5-1.2c-0.4-0.2-0.7-0.1-0.8,0.2c-0.2,0.4,0.1,0.6,1,1.4
				c2.7,2.3,2.4,3.7,1.8,4.8c-0.9,1.7-2.5,2.1-4.5,1.3l-0.5,1l-1.9-1l0.5-1c-2-1.4-2.3-3-1.7-4.3l3.1,1.5c-0.1,0.6,0,1,0.6,1.3
				c0.4,0.2,0.7,0.1,0.9-0.2c0.2-0.3,0-0.6-0.8-1.4c-2.4-2-2.5-3.3-1.8-4.7s2.2-2.2,4.3-1.4l0.4-0.8l1.9,1l-0.4,0.8
				C366.3,217.8,366.9,219.2,366.2,220.8z"/>
			<path class="st44" d="M357.9,192.4c-19,6.9-34.1,27.8-33.8,46.6c0.3,18.9,16,28.5,35,21.6s34.1-27.8,33.8-46.6
				S376.9,185.5,357.9,192.4z M342.7,209l2.7-4.4l1.5,3.6l3.5,1.5l-4.2,3l-2.7,4.4l-1.5-3.6l-3.5-1.5L342.7,209z M332.6,231.6
				l-1.4,2.3l-0.8-1.9l-1.9-0.8l2.2-1.6l1.4-2.3l0.8,1.9l1.9,0.8L332.6,231.6z M356,245.9c-0.1,0.5-0.3,0.9-0.4,1.4
				c-1.3,3.6-3.8,6.6-6.5,8.2c-1.6-1.9-1.9-5.3-0.5-9.2c0.2-0.6,0.5-1.3,0.8-1.9c1.8-3,3.8-5,5.3-4.8
				C356.2,239.7,356.7,242.3,356,245.9L356,245.9z M372,224c-0.5,1.6-1,3.2-1.6,4.9c-0.2,0.4-0.3,0.8-0.5,1.2l0,0v0.1
				c-0.2,0.5-0.4,1-0.6,1.5v0.1l0,0c2.4,3.5,1.2,10.3-0.9,14.1c-0.6-1.7-2-3.2-3.9-4.4l0,0c0,0,0,0,0-0.1v-0.1v0.1l0,0
				c-0.3-0.2-0.6-0.3-0.9-0.5c-2.1-1.1-4.7-1.8-7.7-2.2c-0.3,0-0.5-0.1-0.8-0.1s-0.5,0-0.8,0l0,0c-3.5-0.2-7,0.3-10.1,1.2l0,0l0,0
				l0,0c0,0,0,0.1-0.1,0.1l0,0c-2.8,0.9-5.2,2.1-6.9,3.7c0.6-4,4.5-10.8,9.5-13.7v-0.1l0,0c0.1-0.3,0.2-0.6,0.4-1
				c5.2-14.1,14.7-26.1,24.5-32.5C374.8,202.9,375.1,212.9,372,224z M382.7,228.3l-0.7,1.2l-0.4-1l-0.9-0.4l1.1-0.8l0.7-1.2l0.4,1
				l0.9,0.4L382.7,228.3z"/>
		</g>
	</g>
</g>
<g class="st45">
	
		<linearGradient id="SVGID_00000132076670495621878130000008175996223283627934_" gradientUnits="userSpaceOnUse" x1="903.9373" y1="-455.7962" x2="923.4238" y2="-437.1955" gradientTransform="matrix(0.9666 -0.2565 -0.2565 -0.9666 -351.8519 145.1355)">
		<stop  offset="0" style="stop-color:#6D28D9"/>
		<stop  offset="0.6287" style="stop-color:#9E4EEA"/>
		<stop  offset="0.889" style="stop-color:#7D34DE"/>
		<stop  offset="1" style="stop-color:#6D28D9"/>
	</linearGradient>
	<polygon style="fill:url(#SVGID_00000132076670495621878130000008175996223283627934_);" points="650.4,327.5 632.7,352.2 
		638.9,361.1 656.6,336.4 	"/>
	
		<linearGradient id="SVGID_00000119111541538513263430000007432305777268758691_" gradientUnits="userSpaceOnUse" x1="881.3889" y1="-468.7307" x2="863.6742" y2="-472.2736" gradientTransform="matrix(0.9666 -0.2565 -0.2565 -0.9666 -351.8519 145.1355)">
		<stop  offset="0" style="stop-color:#6D28D9"/>
		<stop  offset="0.6287" style="stop-color:#9E4EEA"/>
		<stop  offset="0.889" style="stop-color:#7D34DE"/>
		<stop  offset="1" style="stop-color:#6D28D9"/>
	</linearGradient>
	<polygon style="fill:url(#SVGID_00000119111541538513263430000007432305777268758691_);" points="617.5,370.4 599.7,373.4 
		605.9,382.3 623.8,379.3 	"/>
	
		<linearGradient id="SVGID_00000004518146529694237350000011736225693573949317_" gradientUnits="userSpaceOnUse" x1="897.6192" y1="-484.7079" x2="879.2798" y2="-441.1522" gradientTransform="matrix(0.9666 -0.2565 -0.2565 -0.9666 -351.8519 145.1355)">
		<stop  offset="0" style="stop-color:#6D28D9"/>
		<stop  offset="0.6287" style="stop-color:#9E4EEA"/>
		<stop  offset="0.889" style="stop-color:#7D34DE"/>
		<stop  offset="1" style="stop-color:#6D28D9"/>
	</linearGradient>
	<polygon style="fill:url(#SVGID_00000004518146529694237350000011736225693573949317_);" points="650.4,327.5 616.6,336.4 
		599.7,373.4 617.5,370.4 599.9,400.6 655.7,348.6 632.7,352.2 	"/>
	
		<linearGradient id="SVGID_00000003792076247365957630000000994868217265215151_" gradientUnits="userSpaceOnUse" x1="905.2739" y1="-505.8991" x2="850.7068" y2="-407.7415" gradientTransform="matrix(0.9666 -0.2565 -0.2565 -0.9666 -351.8519 145.1355)">
		<stop  offset="0" style="stop-color:#6D28D9"/>
		<stop  offset="0.31" style="stop-color:#9E4EEA"/>
		<stop  offset="0.7937" style="stop-color:#7D34DE"/>
		<stop  offset="1" style="stop-color:#6D28D9"/>
	</linearGradient>
	<polyline style="fill:url(#SVGID_00000003792076247365957630000000994868217265215151_);" points="599.9,400.6 606.2,409.6 
		662,357.5 655.7,348.6 	"/>
</g>
<g class="st45">
	
		<linearGradient id="SVGID_00000150093284741407584880000003028777738216882055_" gradientUnits="userSpaceOnUse" x1="672.7404" y1="565.1896" x2="726.6323" y2="528.5431" gradientTransform="matrix(0.1908 0.9816 0.9816 -0.1908 -89.0534 -498.1035)">
		<stop  offset="7.731100e-02" style="stop-color:#0088CE"/>
		<stop  offset="0.5433" style="stop-color:#18A7E5"/>
		<stop  offset="1" style="stop-color:#33CAFF"/>
	</linearGradient>
	<polygon style="fill:url(#SVGID_00000150093284741407584880000003028777738216882055_);" points="591.5,67.9 579,67.5 569.3,104.7 
		581.8,105.2 	"/>
	
		<linearGradient id="SVGID_00000042707343220745945410000011457347028584651446_" gradientUnits="userSpaceOnUse" x1="664.5178" y1="527.1661" x2="691.4639" y2="591.8367" gradientTransform="matrix(0.1908 0.9816 0.9816 -0.1908 -89.0534 -498.1035)">
		<stop  offset="1.681440e-02" style="stop-color:#33A0FF"/>
		<stop  offset="0.3325" style="stop-color:#33BFFF"/>
		<stop  offset="0.4295" style="stop-color:#33CAFF"/>
		<stop  offset="0.9991" style="stop-color:#7BEEFF"/>
	</linearGradient>
	<polygon style="fill:url(#SVGID_00000042707343220745945410000011457347028584651446_);" points="612.1,54.8 599.8,47.9 
		609.5,19.3 591.3,14.9 581.9,63 591.5,67.9 581.8,105.2 	"/>
	
		<linearGradient id="SVGID_00000042005404445786779810000005873741388424152231_" gradientUnits="userSpaceOnUse" x1="680.55" y1="588.5871" x2="676.7776" y2="556.252" gradientTransform="matrix(0.1908 0.9816 0.9816 -0.1908 -89.0534 -498.1035)">
		<stop  offset="7.574820e-02" style="stop-color:#FFFFFF"/>
		<stop  offset="1" style="stop-color:#FFFFFF;stop-opacity:0"/>
	</linearGradient>
	<path style="opacity:0.7;fill:url(#SVGID_00000042005404445786779810000005873741388424152231_);enable-background:new    ;" d="
		M612.1,54.8l-12.3-6.9l9.7-28.6l-18.1-4.4L581.9,63l9.6,5l-9.7,37.2L612.1,54.8z M591.9,67.8l-9.6-5l9.3-47.5l17.4,4.2L599.4,48
		l12.3,6.9l-28.9,48L591.9,67.8z"/>
	
		<linearGradient id="SVGID_00000003795336007143229600000017351436440484500927_" gradientUnits="userSpaceOnUse" x1="680.7186" y1="562.5234" x2="680.7186" y2="512.8959" gradientTransform="matrix(0.1908 0.9816 0.9816 -0.1908 -89.0534 -498.1035)">
		<stop  offset="7.731100e-02" style="stop-color:#0088CE"/>
		<stop  offset="0.5433" style="stop-color:#18A7E5"/>
		<stop  offset="1" style="stop-color:#33CAFF"/>
	</linearGradient>
	<polygon style="fill:url(#SVGID_00000003795336007143229600000017351436440484500927_);" points="581.9,63 569.4,62.5 579,67.5 
		591.5,67.9 	"/>
	
		<linearGradient id="SVGID_00000070830291598410523900000010778339828441207732_" gradientUnits="userSpaceOnUse" x1="636.7386" y1="570.7072" x2="680.9299" y2="531.3661" gradientTransform="matrix(0.1908 0.9816 0.9816 -0.1908 -89.0534 -498.1035)">
		<stop  offset="7.731100e-02" style="stop-color:#0088CE"/>
		<stop  offset="0.5433" style="stop-color:#18A7E5"/>
		<stop  offset="1" style="stop-color:#33CAFF"/>
	</linearGradient>
	<polygon style="fill:url(#SVGID_00000070830291598410523900000010778339828441207732_);" points="591.3,14.9 578.8,14.5 
		569.4,62.5 581.9,63 	"/>
</g>
<g class="st45">
	
		<linearGradient id="SVGID_00000036252058877215890160000009403904218920573873_" gradientUnits="userSpaceOnUse" x1="252.7786" y1="-51.7133" x2="284.966" y2="-83.2301" gradientTransform="matrix(0.9982 -5.930000e-02 -5.930000e-02 -0.9982 -82.8951 380.2275)">
		<stop  offset="0" style="stop-color:#2BBF82"/>
		<stop  offset="0.4486" style="stop-color:#31FCAC"/>
		<stop  offset="0.4687" style="stop-color:#31FFAE"/>
		<stop  offset="0.999" style="stop-color:#2BBF82"/>
	</linearGradient>
	<polygon style="fill:url(#SVGID_00000036252058877215890160000009403904218920573873_);" points="181.8,420.7 176.6,429.2 
		206.2,450.5 211.4,441.9 	"/>
	
		<linearGradient id="SVGID_00000081629308104239420370000015022769792272817080_" gradientUnits="userSpaceOnUse" x1="342.4049" y1="-83.3412" x2="311.8936" y2="-99.0998" gradientTransform="matrix(0.9982 -5.930000e-02 -5.930000e-02 -0.9982 -82.8951 380.2275)">
		<stop  offset="0" style="stop-color:#2BBF82"/>
		<stop  offset="0.4486" style="stop-color:#31FCAC"/>
		<stop  offset="0.4687" style="stop-color:#31FFAE"/>
		<stop  offset="0.999" style="stop-color:#2BBF82"/>
	</linearGradient>
	<polygon style="fill:url(#SVGID_00000081629308104239420370000015022769792272817080_);" points="235,456.4 229.8,464.9 
		246.6,457.2 251.8,448.7 	"/>
	
		<linearGradient id="SVGID_00000171685706664826000360000009038718680917276306_" gradientUnits="userSpaceOnUse" x1="317.5253" y1="-54.7336" x2="293.383" y2="-114.0833" gradientTransform="matrix(0.9982 -5.930000e-02 -5.930000e-02 -0.9982 -82.8951 380.2275)">
		<stop  offset="0" style="stop-color:#2BBF82"/>
		<stop  offset="0.4486" style="stop-color:#31FCAC"/>
		<stop  offset="0.4687" style="stop-color:#31FFAE"/>
		<stop  offset="0.999" style="stop-color:#2BBF82"/>
	</linearGradient>
	<polygon style="fill:url(#SVGID_00000171685706664826000360000009038718680917276306_);" points="267.8,485.1 235,456.4 
		251.8,448.7 215.4,410.5 181.8,420.7 211.4,441.9 189.9,452.2 	"/>
	
		<linearGradient id="SVGID_00000103952513006357174160000004947387334941812352_" gradientUnits="userSpaceOnUse" x1="317.5253" y1="-54.7336" x2="293.383" y2="-114.0833" gradientTransform="matrix(0.9982 -5.930000e-02 -5.930000e-02 -0.9982 -82.8951 380.2275)">
		<stop  offset="7.574820e-02" style="stop-color:#FFFFFF"/>
		<stop  offset="1" style="stop-color:#FFFFFF;stop-opacity:0"/>
	</linearGradient>
	<path style="opacity:0.7;fill:url(#SVGID_00000103952513006357174160000004947387334941812352_);enable-background:new    ;" d="
		M267.8,485.1L235,456.4l16.8-7.7l-36.3-38.2l-33.7,10.2l29.6,21.2L190,452.2L267.8,485.1z M182.4,420.8l32.9-9.9l35.9,37.7
		l-16.8,7.7l31.8,27.8l-75.6-31.8L212,442L182.4,420.8z"/>
	
		<linearGradient id="SVGID_00000140714582290379770300000013071821561552269476_" gradientUnits="userSpaceOnUse" x1="279.2993" y1="-164.5225" x2="306.4655" y2="-103.4827" gradientTransform="matrix(0.9982 -5.930000e-02 -5.930000e-02 -0.9982 -82.8951 380.2275)">
		<stop  offset="0" style="stop-color:#2BBF82"/>
		<stop  offset="0.4486" style="stop-color:#31FCAC"/>
		<stop  offset="0.4687" style="stop-color:#31FFAE"/>
		<stop  offset="0.999" style="stop-color:#2BBF82"/>
	</linearGradient>
	<polygon style="fill:url(#SVGID_00000140714582290379770300000013071821561552269476_);" points="189.9,452.2 184.8,460.8 
		262.6,493.6 267.8,485.1 	"/>
</g>
</svg>
