<?xml version="1.0" encoding="utf-8"?>
<!-- Generator: Adobe Illustrator 26.3.1, SVG Export Plug-In . SVG Version: 6.00 Build 0)  -->
<svg version="1.1" id="Layer_1" xmlns="http://www.w3.org/2000/svg" xmlns:xlink="http://www.w3.org/1999/xlink" x="0px" y="0px"
	 viewBox="0 0 512 512" style="enable-background:new 0 0 512 512;" xml:space="preserve">
<style type="text/css">
	.st0{fill:#B9C4E1;}
	.st1{fill:#FFFFFF;}
</style>
<rect class="st0" width="512" height="512"/>
<ellipse class="st1" cx="256" cy="224" rx="97.4" ry="134.8"/>
<path class="st1" d="M270.8,414.9h-29.6c-20.5,0-37.2-16.7-37.2-37.2v-84.5c0-20.5,16.7-37.2,37.2-37.2h29.6
	c20.5,0,37.2,16.7,37.2,37.2v84.5C308,398.2,291.3,414.9,270.8,414.9z"/>
<path class="st1" d="M174,231.7c2.9,21.6-1.9,40.4-10.7,41.9c-8.8,1.5-18.4-14.8-21.3-36.4c-2.9-21.6,1.9-40.4,10.7-41.9
	C161.6,193.7,171.1,210,174,231.7z"/>
<path class="st1" d="M338,231.7c-2.9,21.6,1.9,40.4,10.7,41.9c8.8,1.5,18.4-14.8,21.3-36.4c2.9-21.6-1.9-40.4-10.7-41.9
	S340.9,210,338,231.7z"/>
<path class="st1" d="M162,218.7c-3.3-21.6-6.5-43.2-9.8-64.8c-1.2-7.8-2.3-16.1,0.5-23.5c2.9-7.4,11.3-13.3,18.7-10.5
	c-3-15,13.6-26.1,28.1-31.1c24.3-8.3,50.3-12.6,75.7-9.3c25.4,3.3,50.3,14.5,67.4,33.6c5.4,6,10.1,12.9,12.7,20.6
	c5,14.8,1.8,31-1.4,46.3c-2.5,12.1-5.1,24.3-7.6,36.4c-0.6,2.8-1.2,5.7-3.1,7.8c-3,3.4-8.1,3.6-12.6,3.6
	c-48.3,0.1-96.5,0.2-144.8,0.3c-9.1,0-20.9-2.2-22.1-11.2L162,218.7z"/>
<path class="st1" d="M512,435.8V512H0v-80.4c38.4-38,113.8-66.1,204-73.8c10.5-0.9,21.2-1.5,32.1-1.8c5.9-0.2,11.9-0.3,17.9-0.3
	c7.2,0,14.4,0.1,21.5,0.4c11,0.4,21.9,1.1,32.6,2.1C399.7,366.7,475.5,396.2,512,435.8z"/>
</svg>
